<?xml version="1.0" standalone="no"?>
<!DOCTYPE svg PUBLIC "-//W3C//DTD SVG 1.1//EN" "http://www.w3.org/Graphics/SVG/1.1/DTD/svg11.dtd" >
<svg xmlns="http://www.w3.org/2000/svg">
<metadata>
This is a custom SVG webfont generated by Font Squirrel.
Copyright   : C 2008 2009 2010 2011 Andrey V Panov
Designer    : Andrey V Panov
Foundry     : Andrey V Panov
Foundry URL : httpcodegooglecompistok
</metadata>
<defs>
<font id="IstokWebItalic" horiz-adv-x="0" >
<font-face units-per-em="2048" ascent="1638" descent="-410" />
<missing-glyph horiz-adv-x="682" />
<glyph unicode="i&#x300;" horiz-adv-x="460" d="M32 45l222 960q10 45 55 45h86q37 0 37 -30q0 -7 -2 -15l-222 -960q-10 -45 -55 -45h-86q-37 0 -37 30q0 7 2 15zM180 1383q-15 20 -15 33q0 19 37 19h101q54 0 75 -37l112 -195q11 -20 11 -33q0 -20 -30 -20h-64q-56 0 -77 29z" />
<glyph unicode="&#x456;&#x301;" horiz-adv-x="460" d="M32 45l222 960q10 45 55 45h86q37 0 37 -30q0 -7 -2 -15l-222 -960q-10 -45 -55 -45h-86q-37 0 -37 30q0 7 2 15zM291 1203l166 195q32 37 87 37h121q31 0 31 -14q0 -13 -25 -38l-206 -204q-30 -29 -85 -29h-84q-26 0 -26 15q0 13 21 38z" />
<glyph unicode="i&#x302;" horiz-adv-x="460" d="M32 45l222 960q10 45 55 45h86q37 0 37 -30q0 -7 -2 -15l-222 -960q-10 -45 -55 -45h-86q-37 0 -37 30q0 7 2 15zM86 1190q-5 7 -5 15q0 19 30 40l234 163q37 26 62 26h50q25 0 50 -26l174 -179q14 -14 14 -28t-15 -27l-25 -23q-14 -13 -28 -13t-29 15l-172 179h-2 l-256 -179q-21 -15 -35 -15t-22 13z" />
<glyph unicode="i&#x308;" horiz-adv-x="460" d="M32 45l222 960q10 45 55 45h86q37 0 37 -30q0 -7 -2 -15l-222 -960q-10 -45 -55 -45h-86q-37 0 -37 30q0 7 2 15zM152 1285l20 86q10 45 55 45h86q37 0 37 -30q0 -7 -2 -15l-20 -86q-11 -45 -56 -45h-86q-36 0 -36 29q0 7 2 16zM486 1285l20 86q10 45 55 45h86 q37 0 37 -30q0 -7 -2 -15l-20 -86q-11 -45 -56 -45h-86q-36 0 -36 29q0 7 2 16z" />
<glyph unicode="A&#x328;" horiz-adv-x="1360" d="M-59 66l770 1307q36 61 80 61h140q41 0 52 -61l226 -1307q1 -9 1 -17q0 -34 -24 -49q-30 -18 -140 -98.5t-110 -134.5q0 -27 15 -40.5t51 -13.5q43 0 73 6q25 5 27 -22l6 -77q2 -24 -18 -28q-45 -9 -118 -9q-100 0 -148 37.5t-48 95.5q0 52 19 97t89 97l96 70 q36 25 36 58q0 5 -1 11l-57 331h-615l-195 -331q-29 -49 -83 -49h-112q-29 0 -29 21q0 16 17 45zM441 544h488l-70 400q-13 72 -21 157.5t-8 159.5h-4q-18 -71 -56 -145t-95 -172z" />
<glyph unicode="i&#x304;" horiz-adv-x="460" d="M32 45l222 960q10 45 55 45h86q37 0 37 -30q0 -7 -2 -15l-222 -960q-10 -45 -55 -45h-86q-37 0 -37 30q0 7 2 15zM95 1275l10 40q8 35 53 35h528q38 0 38 -25q0 -5 -1 -10l-10 -40q-8 -35 -53 -35h-528q-38 0 -38 25q0 5 1 10z" />
<glyph unicode="i&#x306;" horiz-adv-x="460" d="M32 45l222 960q10 45 55 45h86q37 0 37 -30q0 -7 -2 -15l-222 -960q-10 -45 -55 -45h-86q-37 0 -37 30q0 7 2 15zM117 1370q-5 13 -5 23q0 22 23 30l48 18q8 3 14 3q20 0 30 -25q27 -67 62 -105t112 -38q90 0 144.5 42.5t93.5 103.5q13 20 29 20q8 0 17 -5l45 -27 q18 -10 18 -27q0 -12 -10 -28q-64 -112 -160.5 -160.5t-195.5 -48.5q-106 0 -164 52t-101 172z" />
<glyph unicode="j&#x302;" horiz-adv-x="466" d="M-300 -365l25 81q8 26 29 15q35 -18 91 -18q59 0 101 57t83 236l231 999q10 45 55 45h86q37 0 37 -30q0 -7 -2 -15l-253 -1098q-45 -194 -136 -259t-200 -65q-99 0 -137 20q-12 6 -12 20q0 5 2 12zM92 1190q-5 7 -5 15q0 19 30 40l234 163q37 26 62 26h50q25 0 50 -26 l174 -179q14 -14 14 -28t-15 -27l-25 -23q-14 -13 -28 -13t-29 15l-172 179h-2l-256 -179q-21 -15 -35 -15t-22 13z" />
<glyph unicode="i&#x30c;" horiz-adv-x="460" d="M32 45l222 960q10 45 55 45h86q37 0 37 -30q0 -7 -2 -15l-222 -960q-10 -45 -55 -45h-86q-37 0 -37 30q0 7 2 15zM123 1343q-14 14 -14 28t15 27l25 23q14 13 28 13t29 -15l172 -179h2l256 179q21 15 35 15t22 -13l25 -39q5 -7 5 -15q0 -19 -30 -40l-234 -163 q-37 -26 -62 -26h-50q-25 0 -50 26z" />
<glyph unicode="j&#x30c;" horiz-adv-x="466" d="M-300 -365l25 81q8 26 29 15q35 -18 91 -18q59 0 101 57t83 236l231 999q10 45 55 45h86q37 0 37 -30q0 -7 -2 -15l-253 -1098q-45 -194 -136 -259t-200 -65q-99 0 -137 20q-12 6 -12 20q0 5 2 12zM129 1343q-14 14 -14 28t15 27l25 23q14 13 28 13t29 -15l172 -179h2 l256 179q21 15 35 15t22 -13l25 -39q5 -7 5 -15q0 -19 -30 -40l-234 -163q-37 -26 -62 -26h-50q-25 0 -50 26z" />
<glyph unicode="&#xfb01;" horiz-adv-x="1112" d="M-5 -355l294 1273h-107q-45 0 -37 35l14 62q8 35 53 35h107l28 119q45 193 156.5 258.5t317.5 65.5q101 0 167 -24.5t133 -85.5q9 -8 9 -17t-10 -19l-66 -69q-14 -15 -35 6q-43 44 -97 61.5t-114 17.5q-140 0 -200 -43t-92 -180l-21 -90h552q37 0 37 -30q0 -7 -2 -15 l-222 -960q-10 -45 -55 -45h-86q-37 0 -37 30q0 7 2 15l202 873h-421l-294 -1273q-10 -45 -55 -45h-86q-37 0 -37 30q0 7 2 15z" />
<glyph unicode="&#xfb02;" horiz-adv-x="1112" d="M-5 -355l294 1273h-107q-45 0 -37 35l14 62q8 35 53 35h107l28 119q46 199 161.5 261.5t292.5 62.5q131 0 226 -33.5t142 -78.5l-309 -1336q-10 -45 -55 -45h-86q-37 0 -37 30q0 7 2 15l291 1260q-35 35 -88 46.5t-98 11.5q-95 0 -166 -33.5t-107 -189.5l-21 -90h183 q45 0 37 -35l-14 -62q-8 -35 -53 -35h-183l-294 -1273q-10 -45 -55 -45h-86q-37 0 -37 30q0 7 2 15z" />
<glyph horiz-adv-x="1240" d="M196 45v1344q0 45 37 45h858q45 0 45 -45v-1344q0 -45 -45 -45h-850q-45 0 -45 45zM316 120h700v1194h-700v-1194z" />
<glyph horiz-adv-x="1240" d="M196 45v1344q0 45 37 45h858q45 0 45 -45v-1344q0 -45 -45 -45h-850q-45 0 -45 45zM316 120h700v1194h-700v-1194z" />
<glyph unicode=" "  horiz-adv-x="682" />
<glyph unicode="&#x09;" horiz-adv-x="682" />
<glyph unicode="&#xa0;" horiz-adv-x="682" />
<glyph unicode="!" horiz-adv-x="600" d="M89 45l29 122q10 45 55 45h112q37 0 37 -30q0 -7 -2 -15l-29 -122q-10 -45 -55 -45h-112q-37 0 -37 30q0 7 2 15zM199 435l197 944q11 55 63 55h104q40 0 40 -35q0 -9 -3 -20l-239 -944q-11 -45 -55 -45h-72q-37 0 -37 30q0 7 2 15z" />
<glyph unicode="&#x22;" horiz-adv-x="828" d="M253 869l104 545q11 55 49 55h104q27 0 27 -28q0 -11 -4 -27l-146 -545q-13 -45 -46 -45h-64q-26 0 -26 28q0 7 2 17zM603 869l104 545q11 55 49 55h104q27 0 27 -28q0 -11 -4 -27l-146 -545q-13 -45 -46 -45h-64q-26 0 -26 28q0 7 2 17z" />
<glyph unicode="#" horiz-adv-x="1390" d="M126 410l9 50q6 35 51 35h215l76 432h-215q-44 0 -38 35l8 50q6 35 52 35h215l58 330q8 45 43 45h62q35 0 27 -45l-58 -330h336l58 330q8 45 43 45h62q35 0 27 -45l-58 -330h215q39 0 39 -27q0 -4 -1 -8l-8 -50q-6 -35 -52 -35h-215l-76 -432h215q45 0 39 -35l-9 -50 q-6 -35 -51 -35h-215l-58 -330q-8 -45 -43 -45h-62q-35 0 -27 45l58 330h-336l-58 -330q-8 -45 -43 -45h-62q-35 0 -27 45l58 330h-215q-40 0 -40 27q0 4 1 8zM533 495h336l76 432h-336z" />
<glyph unicode="$" horiz-adv-x="1110" d="M34 185l44 51q13 16 31 16q24 0 55 -30q70 -66 129 -81t121 -19l125 541q-40 22 -86 51q-55 34 -94 77t-67.5 105t-28.5 173q0 161 98.5 248t184.5 108.5t175 25.5l28 120q10 45 45 45h50q35 0 25 -45l-29 -125q56 -8 123 -36t106 -67q28 -28 28 -52q0 -15 -11 -28 l-48 -59q-12 -15 -27 -15q-17 0 -37 19q-41 38 -93.5 56.5t-76.5 24.5l-117 -505q63 -30 125 -74q52 -37 85.5 -75.5t57.5 -99t24 -150.5q0 -141 -97.5 -244t-192 -134t-190.5 -36l-31 -136q-10 -45 -45 -45h-50q-35 0 -25 45l32 137q-108 7 -187 37.5t-139 89.5 q-32 31 -32 57q0 15 12 29zM449 1084q0 -58 14 -112.5t71 -99.5q22 -17 46 -33l107 462q-93 -6 -165.5 -64t-72.5 -153zM535 125q75 14 161.5 81.5t86.5 175.5q0 50 -13.5 103t-83.5 97q-19 13 -40 24z" />
<glyph unicode="%" horiz-adv-x="1782" d="M121 1052q0 168 113 311.5t262 143.5q143 0 199 -86.5t56 -228.5q0 -168 -113 -311.5t-262 -143.5q-143 0 -199 86.5t-56 228.5zM191 -40q-13 11 -13 25t15 31l1280 1496q17 21 34 21q11 0 22 -9l38 -33q25 -22 -4 -56l-1278 -1497q-19 -21 -36 -21q-11 0 -22 9z M281 1032q0 -80 20 -130t85 -50q80 0 142.5 110t62.5 250q0 80 -20 130t-85 50q-80 0 -142.5 -110t-62.5 -250zM1006 258q0 168 113 311.5t262 143.5q143 0 199 -86.5t56 -228.5q0 -168 -113 -311.5t-262 -143.5q-143 0 -199 86.5t-56 228.5zM1166 238q0 -80 20 -130t85 -50 q80 0 142.5 110t62.5 250q0 80 -20 130t-85 50q-80 0 -142.5 -110t-62.5 -250z" />
<glyph unicode="&#x26;" horiz-adv-x="1354" d="M71 290q0 103 91.5 238t334.5 289q-25 51 -60.5 139.5t-35.5 200.5q0 120 87 213.5t281 93.5q106 0 202 -64t96 -221q0 -95 -101.5 -196t-246.5 -190l235 -387q49 42 109.5 124t80.5 129q14 33 37 33q8 0 17 -4l67 -30q29 -13 29 -36q0 -10 -5 -21q-38 -87 -121 -181.5 t-138 -139.5l135 -222q12 -20 12 -33q0 -25 -43 -25h-81q-58 0 -84 43l-80 130q-114 -91 -200.5 -147t-239.5 -56q-172 0 -275 77t-103 243zM266 307q0 -92 47.5 -142t169.5 -50q92 0 171 53t162 125l-245 405q-153 -92 -229 -196.5t-76 -194.5zM581 1143q0 -91 19.5 -140 t43.5 -92q132 89 187.5 155t55.5 129q0 56 -35 93t-109 37q-66 0 -114 -44.5t-48 -137.5z" />
<glyph unicode="'" horiz-adv-x="478" d="M253 869l104 545q11 55 49 55h104q27 0 27 -28q0 -11 -4 -27l-146 -545q-13 -45 -46 -45h-64q-26 0 -26 28q0 7 2 17z" />
<glyph unicode="(" horiz-adv-x="670" d="M90 316q0 287 151.5 588.5t472.5 592.5q43 39 70 14l32 -30q28 -26 -7 -58q-122 -109 -322.5 -431.5t-200.5 -705.5q0 -241 31 -397t73 -232q23 -41 -4 -59l-37 -24q-30 -19 -66 26q-94 118 -143.5 332t-49.5 384z" />
<glyph unicode=")" horiz-adv-x="670" d="M-135 -393q-28 26 7 58q122 109 322.5 431.5t200.5 705.5q0 241 -31 397t-73 232q-23 41 4 59l37 24q30 19 66 -26q94 -118 143.5 -332t49.5 -384q0 -287 -151.5 -588.5t-472.5 -592.5q-43 -39 -70 -14z" />
<glyph unicode="*" horiz-adv-x="940" d="M193 859q-5 15 -5 28q0 50 71 78l235 92l-193 93q-41 20 -41 51q0 24 25 55l8 10q32 40 66 40q25 0 50 -23l155 -139l27 232q10 88 91 88h12q59 0 59 -47q0 -17 -8 -41l-81 -232l219 139q36 23 61 23q33 0 47 -40l4 -10q5 -15 5 -29q0 -50 -71 -77l-235 -93l193 -92 q41 -20 41 -51q0 -24 -25 -55l-8 -10q-33 -40 -66 -40q-25 0 -50 22l-155 140l-26 -232q-11 -88 -92 -88h-12q-59 0 -59 46q0 18 9 42l80 232l-219 -140q-35 -22 -60 -22q-34 0 -48 40z" />
<glyph unicode="+" horiz-adv-x="1280" d="M127 700v50q0 35 45 35h454v454q0 45 35 45h50q35 0 35 -45v-454h456q45 0 45 -35v-50q0 -35 -45 -35h-456v-456q0 -45 -35 -45h-50q-35 0 -35 45v456h-454q-45 0 -45 35z" />
<glyph unicode="," horiz-adv-x="600" d="M35 -241q-5 5 -5 11q0 11 18 24q35 26 74 88.5t52 117.5h-52q-37 0 -37 29q0 7 2 16l29 122q11 45 55 45h116q37 0 37 -29q0 -7 -2 -16l-29 -122q-30 -127 -67.5 -192t-115.5 -127q-16 -12 -26 -12q-7 0 -12 5z" />
<glyph unicode="-" horiz-adv-x="680" d="M56 518l16 70q8 35 53 35h478q38 0 38 -25q0 -5 -1 -10l-16 -70q-8 -35 -53 -35h-478q-38 0 -38 25q0 5 1 10z" />
<glyph unicode="." horiz-adv-x="600" d="M89 45l29 122q10 45 55 45h112q37 0 37 -30q0 -7 -2 -15l-29 -122q-10 -45 -55 -45h-112q-37 0 -37 30q0 7 2 15z" />
<glyph unicode="/" horiz-adv-x="840" d="M-192 -332l1124 1771q20 32 42 32q7 0 15 -4l47 -24q15 -7 15 -22q0 -13 -13 -33l-1124 -1771q-20 -32 -41 -32q-7 0 -14 3l-47 24q-16 8 -16 24q0 13 12 32z" />
<glyph unicode="0" horiz-adv-x="1110" d="M104 440q0 365 144 688.5t469 323.5q190 0 278.5 -135t88.5 -335q0 -365 -144 -688.5t-469 -323.5q-190 0 -278.5 135t-88.5 335zM290 410q0 -100 44 -198t149 -98q195 0 305 274t110 624q0 100 -44 198t-149 98q-195 0 -305 -274t-110 -624z" />
<glyph unicode="1" horiz-adv-x="827" d="M302 1148q-11 30 35 46q70 24 163 92t144 118q37 36 64 36h85q46 0 36 -45l-312 -1350q-10 -45 -55 -45h-86q-45 0 -35 45l248 1074q3 14 16 60h-4q-34 -40 -106.5 -79t-118.5 -52q-34 -10 -45 20z" />
<glyph unicode="2" horiz-adv-x="1110" d="M-16 45l11 48q9 38 50 72l483 395q215 176 307 294t92 247q0 78 -51 139.5t-172 61.5q-125 0 -203 -72t-120 -173q-17 -42 -45 -42q-9 0 -18 4l-75 29q-19 7 -19 34q0 21 11 52q41 120 170 219t301 99q212 0 314.5 -94.5t102.5 -253.5q0 -195 -133.5 -333t-320.5 -286 l-403 -319l-1 -4q41 2 81 2h531q46 0 46 -32q0 -6 -2 -13l-17 -74q-10 -45 -65 -45h-810q-47 0 -47 32q0 6 2 13z" />
<glyph unicode="3" horiz-adv-x="1110" d="M30 224l57 58q11 12 24 12q24 0 55 -37q56 -65 129.5 -101t149.5 -36q146 0 249 92t103 229q0 129 -51 192t-165 63h-108q-46 0 -38 33l17 74q8 35 53 35h71q132 0 232.5 92.5t100.5 200.5q0 81 -57 126t-163 45q-98 0 -174.5 -45t-115.5 -87q-23 -25 -43 -25 q-16 0 -30 16l-54 62q-9 10 -9 22q0 25 39 58q70 59 176.5 104t223.5 45q198 0 296.5 -90t98.5 -244q0 -126 -115 -227.5t-211 -112.5l-1 -4q100 -27 161.5 -117t61.5 -230q0 -151 -138 -304t-424 -153q-152 0 -248.5 57t-143.5 121q-21 28 -21 49q0 15 12 27z" />
<glyph unicode="4" horiz-adv-x="1110" d="M36 399l20 88q8 32 40 69l745 848q31 36 64 36h91q38 0 38 -30q0 -7 -2 -15l-202 -877h171q36 0 36 -29q0 -7 -2 -16l-17 -74q-10 -45 -54 -45h-172l-72 -309q-10 -45 -55 -45h-86q-37 0 -37 30q0 7 2 15l72 309h-545q-37 0 -37 30q0 7 2 15zM255 518h399l127 555 q7 30 16 60h-2z" />
<glyph unicode="5" horiz-adv-x="1110" d="M46 245l67 49q12 9 24 9q25 0 52 -40q24 -36 88.5 -89.5t191.5 -53.5q149 0 240.5 108t91.5 273q0 129 -55.5 182t-167.5 53q-47 0 -95.5 -13.5t-126.5 -64.5q-50 -33 -88 -33h-47q-36 0 -36 30q0 7 2 15l163 707q10 45 55 45h690q37 0 37 -30q0 -7 -2 -15l-17 -74 q-10 -45 -56 -45h-559l-91 -395q-5 -24 -16 -60h4q45 43 114.5 63t123.5 20q207 0 285.5 -114.5t78.5 -291.5q0 -219 -152 -364.5t-385 -145.5q-178 0 -275.5 68.5t-135.5 130.5q-18 28 -18 47q0 18 15 29z" />
<glyph unicode="6" horiz-adv-x="1110" d="M116 449q0 415 179 709t495 294q102 0 185.5 -34t131.5 -89q24 -27 24 -46q0 -12 -10 -20l-62 -50q-15 -13 -30 -13q-21 0 -42 26q-27 34 -85 55t-134 21q-156 0 -280.5 -157.5t-179.5 -401.5h2q57 78 152.5 117t185.5 39q168 0 270 -98.5t102 -290.5 q0 -207 -136.5 -373.5t-370.5 -166.5q-189 0 -293 127.5t-104 351.5zM305 384q0 -123 56 -193.5t159 -70.5q125 0 214.5 129t89.5 275q0 106 -59 164t-159 58q-132 0 -216.5 -120.5t-84.5 -241.5z" />
<glyph unicode="7" horiz-adv-x="1100" d="M242 39l14 59q90 381 282 645.5t453 514.5l1 2q-31 -2 -61 -2h-628q-36 0 -36 29q0 7 2 16l17 74q10 45 55 45h834q37 0 37 -30q0 -7 -2 -15l-16 -69q-8 -31 -53 -72q-252 -227 -438 -509t-258 -594l-22 -94q-10 -45 -55 -45h-91q-37 0 -37 30q0 7 2 15z" />
<glyph unicode="8" horiz-adv-x="1110" d="M57 350q0 160 117 278.5t229 143.5v3q-76 48 -112 112t-36 161q0 165 135 284.5t337 119.5q205 0 297.5 -93t92.5 -231q0 -158 -110 -253t-204 -109v-2q94 -35 140.5 -116t46.5 -188q0 -202 -148.5 -346t-368.5 -144q-194 0 -305 96t-111 284zM252 356q0 -113 54 -174.5 t178 -61.5q131 0 220.5 96t89.5 230q0 94 -41.5 166t-151.5 72q-148 0 -248.5 -99t-100.5 -229zM443 1068q0 -129 50 -175.5t121 -46.5q124 0 219.5 75t95.5 187q0 88 -50.5 141t-162.5 53q-114 0 -193.5 -78t-79.5 -156z" />
<glyph unicode="9" horiz-adv-x="1110" d="M78 159l62 50q15 13 30 13q21 0 42 -26q27 -34 85 -55t134 -21q156 0 280.5 157.5t179.5 401.5h-2q-57 -78 -152.5 -117t-185.5 -39q-168 0 -270 98.5t-102 290.5q0 207 136.5 373.5t370.5 166.5q189 0 293 -127.5t104 -351.5q0 -415 -179 -709t-495 -294 q-102 0 -185.5 34t-131.5 89q-24 27 -24 46q0 12 10 20zM375 898q0 -106 59 -164t159 -58q132 0 216.5 120.5t84.5 241.5q0 123 -56 193.5t-159 70.5q-125 0 -214.5 -129t-89.5 -275z" />
<glyph unicode=":" horiz-adv-x="600" d="M89 45l29 122q10 45 55 45h112q37 0 37 -30q0 -7 -2 -15l-29 -122q-10 -45 -55 -45h-112q-37 0 -37 30q0 7 2 15zM282 883l29 122q10 45 55 45h112q37 0 37 -30q0 -7 -2 -15l-29 -122q-10 -45 -55 -45h-112q-37 0 -37 30q0 7 2 15z" />
<glyph unicode=";" horiz-adv-x="600" d="M35 -241q-5 5 -5 11q0 11 18 24q35 26 74 88.5t52 117.5h-52q-37 0 -37 29q0 7 2 16l29 122q11 45 55 45h116q37 0 37 -29q0 -7 -2 -16l-29 -122q-30 -127 -67.5 -192t-115.5 -127q-16 -12 -26 -12q-7 0 -12 5zM282 883l29 122q10 45 55 45h112q37 0 37 -30q0 -7 -2 -15 l-29 -122q-10 -45 -55 -45h-112q-37 0 -37 30q0 7 2 15z" />
<glyph unicode="&#x3c;" horiz-adv-x="1280" d="M152 719v32q0 20 25 34l952 550q17 10 29 10q18 0 28 -18l25 -43q6 -9 6 -18q0 -19 -28 -35l-859 -495v-2l859 -495q28 -16 28 -35q0 -9 -6 -18l-25 -43q-10 -18 -28 -18q-12 0 -29 10l-952 550q-25 14 -25 34z" />
<glyph unicode="=" horiz-adv-x="1280" d="M127 530v50q0 35 45 35h1030q45 0 45 -35v-50q0 -35 -45 -35h-1030q-45 0 -45 35zM127 870v50q0 35 45 35h1030q45 0 45 -35v-50q0 -35 -45 -35h-1030q-45 0 -45 35z" />
<glyph unicode="&#x3e;" horiz-adv-x="1280" d="M163 186q-18 30 22 53l859 495v2l-859 495q-40 23 -22 53l25 43q18 31 57 8l952 -550q25 -14 25 -34v-32q0 -20 -25 -34l-952 -550q-39 -23 -57 8z" />
<glyph unicode="?" horiz-adv-x="1016" d="M251 1170q-16 9 -16 29q0 22 20 57q42 73 147 140.5t268 67.5q198 0 287.5 -81t89.5 -250q0 -159 -231 -365t-258 -330l-5 -23q-10 -45 -56 -45h-86q-36 0 -36 30q0 7 2 15l8 37q38 176 252 373.5t214 318.5q0 98 -53.5 134t-133.5 36q-88 0 -167.5 -51t-106.5 -104 q-19 -36 -44 -36q-11 0 -24 7zM277 45l29 122q10 45 55 45h112q37 0 37 -30q0 -7 -2 -15l-29 -122q-10 -45 -55 -45h-112q-37 0 -37 30q0 7 2 15z" />
<glyph unicode="@" horiz-adv-x="1992" d="M120 551q0 381 260 651.5t680 270.5q306 0 559 -178.5t253 -578.5q0 -294 -141 -449.5t-371 -155.5q-130 0 -166 57t-36 164h-2q-38 -89 -130 -155t-183 -66q-134 0 -215.5 96t-81.5 260q0 206 131.5 390.5t328.5 184.5q191 0 235 -176h4l23 106q7 34 42 34h110 q35 0 27 -35l-131 -591q-10 -45 -10 -75q0 -35 14 -49q26 -25 71 -25q146 0 252.5 111.5t106.5 373.5q0 304 -194 470.5t-494 166.5q-342 0 -581 -218.5t-239 -598.5q0 -332 228.5 -540t549.5 -208q150 0 302.5 54.5t283.5 160.5q27 22 43 0l39 -54q17 -24 -10 -42 q-163 -115 -322.5 -177t-344.5 -62q-359 0 -625 238t-266 645zM717 447q0 -123 44.5 -169.5t123.5 -46.5q101 0 188.5 142.5t103.5 208.5q15 64 15 145q0 69 -41 133t-121 64q-134 0 -223.5 -144t-89.5 -333z" />
<glyph unicode="A" horiz-adv-x="1360" d="M-59 66l770 1307q36 61 80 61h140q41 0 52 -61l226 -1307q2 -11 2 -21q0 -45 -44 -45h-91q-53 0 -61 49l-57 331h-615l-195 -331q-29 -49 -83 -49h-112q-29 0 -29 21q0 16 17 45zM441 544h488l-70 400q-13 72 -21 157.5t-8 159.5h-4q-18 -71 -56 -145t-95 -172z" />
<glyph unicode="B" horiz-adv-x="1338" d="M63 55l305 1324q13 55 63 55h370q273 0 379 -100.5t106 -249.5q0 -139 -95.5 -221.5t-237.5 -112.5v-3q103 -21 183.5 -100.5t80.5 -215.5q0 -167 -151 -299t-496 -132h-470q-40 0 -40 35q0 9 3 20zM280 164h296q210 0 323 71t113 204q0 121 -102.5 173t-278.5 52h-236z M429 808h271q142 0 266.5 76t124.5 192q0 103 -73 148.5t-252 45.5h-231z" />
<glyph unicode="C" horiz-adv-x="1392" d="M110 580q0 395 210.5 639.5t587.5 244.5q184 0 298 -64t161 -170q23 -53 -23 -80l-78 -46q-27 -16 -52 28q-30 54 -109 115t-214 61q-250 0 -413 -183t-163 -568q0 -182 96 -306.5t326 -124.5q136 0 230.5 71.5t146.5 143.5q42 58 78 35l90 -58q33 -21 -8 -80 q-79 -115 -213 -191.5t-351 -76.5q-302 0 -451 172.5t-149 437.5z" />
<glyph unicode="D" horiz-adv-x="1406" d="M63 55l305 1324q13 55 63 55h319q358 0 496 -175t138 -411q0 -340 -210 -594t-655 -254h-419q-40 0 -40 35q0 9 3 20zM280 164h268q332 0 481.5 212t149.5 484q0 172 -81.5 292t-393.5 120h-168z" />
<glyph unicode="E" horiz-adv-x="1270" d="M63 55l305 1324q13 55 63 55h875q47 0 47 -32q0 -6 -2 -13l-17 -74q-11 -45 -66 -45h-733l-102 -444h673q46 0 46 -31q0 -6 -2 -14l-17 -74q-10 -45 -65 -45h-673l-115 -498h763q46 0 46 -31q0 -6 -2 -14l-17 -74q-10 -45 -65 -45h-905q-40 0 -40 35q0 9 3 20z" />
<glyph unicode="F" horiz-adv-x="1166" d="M63 55l305 1324q13 55 63 55h815q47 0 47 -32q0 -6 -2 -13l-17 -74q-11 -45 -66 -45h-673l-109 -474h587q46 0 46 -31q0 -6 -2 -14l-17 -74q-10 -45 -65 -45h-587l-133 -577q-13 -55 -63 -55h-92q-40 0 -40 35q0 9 3 20z" />
<glyph unicode="G" horiz-adv-x="1470" d="M110 580q0 395 210.5 639.5t595.5 244.5q194 0 308 -66t158 -150q26 -51 -19 -81l-76 -50q-28 -19 -53 25q-25 43 -109 104.5t-226 61.5q-257 0 -420.5 -183t-163.5 -568q0 -182 96 -306.5t326 -124.5q130 0 240 40t162 96l57 248h-297q-55 0 -45 45l17 74q11 45 66 45 h434q55 0 44 -45l-109 -472q-142 -106 -270 -146.5t-326 -40.5q-302 0 -451 172.5t-149 437.5z" />
<glyph unicode="H" horiz-adv-x="1422" d="M63 55l305 1324q13 55 63 55h92q40 0 40 -35q0 -9 -3 -20l-127 -551h698l127 551q13 55 63 55h92q40 0 40 -35q0 -9 -3 -20l-305 -1324q-13 -55 -63 -55h-92q-40 0 -40 35q0 9 3 20l140 609h-698l-140 -609q-13 -55 -63 -55h-92q-40 0 -40 35q0 9 3 20z" />
<glyph unicode="I" horiz-adv-x="532" d="M63 55l305 1324q13 55 63 55h92q40 0 39 -35q0 -9 -2 -20l-305 -1324q-13 -55 -63 -55h-92q-40 0 -40 35q0 9 3 20z" />
<glyph unicode="J" horiz-adv-x="824" d="M-50 94l36 71q15 30 38 30q17 0 38 -16q70 -53 132 -53q97 0 152 65t83 187l231 1001q13 55 63 55h92q40 0 40 -35q0 -9 -3 -20l-225 -978q-40 -176 -132 -303.5t-320 -127.5q-116 0 -212 59q-21 13 -21 34q0 14 8 31z" />
<glyph unicode="K" horiz-adv-x="1328" d="M63 55l305 1324q13 55 63 55h92q40 0 40 -35q0 -9 -3 -20l-130 -565q-5 -22 -21 -80h4l799 661q47 39 79 39h143q42 0 42 -17q0 -16 -39 -49l-628 -518l354 -784q10 -21 10 -36q0 -30 -43 -30h-107q-43 0 -61 39l-307 684l-304 -252l-96 -416q-13 -55 -63 -55h-92 q-40 0 -40 35q0 9 3 20z" />
<glyph unicode="L" horiz-adv-x="1136" d="M63 55l305 1324q13 55 63 55h92q40 0 40 -35q0 -9 -3 -20l-280 -1215h663q46 0 46 -31q0 -6 -2 -14l-17 -74q-10 -45 -65 -45h-805q-40 0 -40 35q0 9 3 20z" />
<glyph unicode="M" horiz-adv-x="1708" d="M63 55l305 1324q13 55 63 55h201q38 0 43 -60l79 -897q7 -82 10 -146.5t3 -124.5h6q27 63 59 125l78 146l493 897q33 60 71 60h225q40 0 40 -35q0 -9 -3 -20l-305 -1324q-13 -55 -63 -55h-92q-40 0 -40 35q0 9 3 20l242 1049q10 45 20 80h-4l-628 -1123q-34 -61 -80 -61 h-110q-46 0 -52 61l-110 1123h-4q-8 -44 -16 -80l-242 -1049q-13 -55 -63 -55h-92q-40 0 -40 35q0 9 3 20z" />
<glyph unicode="N" horiz-adv-x="1438" d="M63 55l305 1324q13 55 63 55h121q71 0 89 -50l388 -1060h4q9 46 17 80l224 975q13 55 63 55h92q40 0 40 -35q0 -9 -3 -20l-305 -1324q-13 -55 -63 -55h-82q-70 0 -88 50l-413 1125h-4q-8 -44 -16 -80l-240 -1040q-13 -55 -63 -55h-92q-40 0 -40 35q0 9 3 20z" />
<glyph unicode="O" horiz-adv-x="1514" d="M110 580q0 400 214 642t554 242q305 0 461 -162.5t156 -447.5q0 -400 -214 -642t-554 -242q-305 0 -461 162.5t-156 447.5zM315 556q0 -205 106.5 -317.5t316.5 -112.5q220 0 386 183.5t166 568.5q0 205 -106.5 317.5t-316.5 112.5q-220 0 -386 -183.5t-166 -568.5z" />
<glyph unicode="P" horiz-adv-x="1298" d="M63 55l305 1324q13 55 63 55h410q234 0 355.5 -105t121.5 -284q0 -181 -145.5 -325t-499.5 -144h-298l-120 -521q-13 -55 -63 -55h-92q-40 0 -40 35q0 9 3 20zM413 740h311q207 0 303 78.5t96 206.5q0 136 -75 190.5t-242 54.5h-271z" />
<glyph unicode="Q" horiz-adv-x="1514" d="M110 580q0 400 214 642t554 242q305 0 461 -162.5t156 -447.5q0 -400 -214 -642q-185 -209 -464 -238q1 -123 52.5 -167t166.5 -44q51 0 116 13q40 7 43 -15l12 -90q3 -24 -28 -28q-122 -20 -175 -20q-205 0 -292 84.5t-87 267.5q-230 23 -359 157q-156 163 -156 448z M315 556q0 -205 106.5 -317.5t316.5 -112.5q220 0 386 183.5t166 568.5q0 205 -106.5 317.5t-316.5 112.5q-220 0 -386 -183.5t-166 -568.5z" />
<glyph unicode="R" horiz-adv-x="1384" d="M63 55l305 1324q13 55 63 55h453q252 0 360 -108t108 -270q0 -165 -137.5 -274t-333.5 -125l-1 -2q85 -76 109 -118.5t46 -103.5l131 -367q7 -20 7 -33q0 -33 -40 -33h-93q-48 0 -61 39l-116 357q-24 74 -95.5 149.5t-208.5 75.5h-174l-130 -566q-13 -55 -63 -55h-92 q-40 0 -40 35q0 9 3 20zM423 785h309q180 0 302.5 62t122.5 191q0 144 -89.5 188t-235.5 44h-297z" />
<glyph unicode="S" horiz-adv-x="1217" d="M64 198l57 70q13 16 31 16q24 0 55 -29q65 -61 141 -95t194 -34q100 0 169 28.5t122.5 83t53.5 135.5q0 43 -12.5 89t-52 81t-87.5 54q-55 22 -117 42.5t-138 58.5q-64 32 -110 81t-73 117t-27 145q0 141 90 250.5t201 141t206 31.5q133 0 223 -33t164 -90q30 -23 30 -47 q0 -16 -13 -33l-58 -75q-10 -13 -25 -13q-19 0 -44 21q-36 30 -118 65t-171 35q-57 0 -123 -19t-118 -77.5t-52 -142.5q0 -44 12 -84.5t44.5 -70.5t69.5 -48q58 -28 119.5 -48t111.5 -40q80 -32 146.5 -83t95.5 -128.5t29 -147.5q0 -141 -76 -236t-187 -147t-301 -52 q-164 0 -271 40t-171 102q-31 31 -31 57q0 15 11 29z" />
<glyph unicode="T" horiz-adv-x="1240" d="M218 1307l19 82q10 45 65 45h1058q47 0 47 -32q0 -6 -2 -13l-19 -82q-11 -45 -66 -45h-433l-278 -1207q-13 -55 -63 -55h-92q-40 0 -40 35q0 9 3 20l278 1207h-433q-46 0 -46 31q0 7 2 14z" />
<glyph unicode="U" horiz-adv-x="1402" d="M176 547l192 832q13 55 63 55h92q50 0 37 -55l-185 -802q-64 -280 -5 -365.5t240 -85.5q146 0 262.5 85.5t180.5 365.5l185 802q13 55 63 55h92q50 0 37 -55l-192 -832q-73 -317 -234 -447t-430 -130q-199 0 -335 130t-63 447z" />
<glyph unicode="V" horiz-adv-x="1338" d="M242 1368q-9 66 42 66h90q55 0 61 -49l118 -895q8 -59 15 -157t7 -160h4q26 63 81.5 164t86.5 153l532 895q29 49 83 49h114q52 0 12 -66l-789 -1307q-37 -61 -80 -61h-140q-43 0 -52 61z" />
<glyph unicode="W" horiz-adv-x="1888" d="M240 1374q-3 60 40 60h107q31 0 32 -46l23 -961q1 -61 -1 -117.5t-2 -136.5h5q24 59 50 117l62 136l439 954q25 54 76 54h135q51 0 52 -54l18 -954q1 -49 0 -115.5t-1 -137.5h5l63 133q36 74 57 121l434 961q21 46 54 46h132q41 0 12 -60l-633 -1297q-38 -77 -92 -77 h-125q-50 0 -52 84l-26 959q-2 76 0.5 117.5t2.5 98.5h-2q-21 -61 -37 -103.5t-49 -112.5l-453 -959q-40 -84 -90 -84h-125q-53 0 -56 77z" />
<glyph unicode="X" horiz-adv-x="1298" d="M-45 66l638 686l-299 616q-11 22 -11 36q0 30 44 30h98q43 0 61 -39l235 -522l456 522q34 39 79 39h138q33 0 33 -17q0 -16 -30 -49l-591 -641l326 -661q11 -22 11 -37q0 -29 -44 -29h-105q-44 0 -61 39l-254 568l-497 -568q-34 -39 -79 -39h-145q-33 0 -33 17t30 49z " />
<glyph unicode="Y" horiz-adv-x="1302" d="M250 1368q-27 66 42 66h93q44 0 61 -49l156 -437l37 -110q24 -69 38 -129h4l82 112l103 127l358 437q40 49 83 49h125q70 0 12 -66l-681 -778l-123 -535q-13 -55 -63 -55h-92q-50 0 -37 55l123 535z" />
<glyph unicode="Z" horiz-adv-x="1216" d="M-45 45l11 48q10 45 51 89l1010 1086l1 4q-41 -2 -81 -2h-622q-46 0 -46 32q0 6 2 13l17 74q10 45 65 45h922q47 0 47 -32q0 -6 -2 -13l-7 -31q-7 -30 -35 -61l-1034 -1131l-1 -4q28 2 81 2h680q46 0 46 -32q0 -6 -2 -13l-17 -74q-10 -45 -65 -45h-976q-47 0 -47 32 q0 6 2 13z" />
<glyph unicode="[" horiz-adv-x="658" d="M-34 -363l419 1814q10 45 55 45h328q38 0 38 -25q0 -5 -1 -10l-14 -60q-8 -35 -53 -35h-197l-379 -1644h197q45 0 37 -35l-14 -60q-8 -35 -53 -35h-328q-37 0 -37 30q0 7 2 15z" />
<glyph unicode="\" horiz-adv-x="840" d="M147 1394q-12 46 23 55l47 12q37 9 47 -28l466 -1771q12 -46 -25 -56l-46 -12q-35 -9 -45 29z" />
<glyph unicode="]" horiz-adv-x="658" d="M-137 -373l14 60q8 35 53 35h197l379 1644h-197q-45 0 -37 35l14 60q8 35 53 35h328q37 0 37 -30q0 -7 -2 -15l-419 -1814q-10 -45 -55 -45h-328q-38 0 -38 25q0 5 1 10z" />
<glyph unicode="^" horiz-adv-x="866" d="M183 979l263 421q21 34 65 34h42q44 0 65 -34l263 -421q10 -16 10 -29q0 -16 -16 -27l-49 -32q-9 -6 -19 -6q-18 0 -35 26l-239 379h-2l-239 -379q-17 -26 -35 -26q-10 0 -19 6l-49 32q-16 11 -16 27q0 13 10 29z" />
<glyph unicode="_" horiz-adv-x="1100" d="M-219 -295q0 35 45 35h1058q45 0 45 -35v-60q0 -35 -45 -35h-1058q-45 0 -45 35v60z" />
<glyph unicode="`" horiz-adv-x="614" d="M369 1383q-38 52 22 52h101q54 0 75 -37l112 -195q30 -53 -19 -53h-64q-56 0 -77 29z" />
<glyph unicode="a" horiz-adv-x="1099" d="M66 339q0 275 186.5 501.5t391.5 226.5q90 0 148 -37.5t86 -87.5h2l21 63q15 45 49 45h84q37 0 37 -30q0 -7 -2 -15l-222 -960q-10 -45 -55 -45h-81q-37 0 -37 31q0 6 2 14l25 120h-2q-49 -65 -130.5 -123.5t-181.5 -58.5q-145 0 -233 87.5t-88 268.5zM252 332 q0 -66 35.5 -142.5t145.5 -76.5q90 0 199 119t139 248l67 290q0 90 -57.5 128.5t-142.5 38.5q-140 0 -263 -179.5t-123 -425.5z" />
<glyph unicode="b" horiz-adv-x="1119" d="M32 45l320 1386q10 45 55 45h86q37 0 37 -30q0 -7 -2 -15l-112 -485q-7 -29 -16 -61h2q44 79 137 130.5t173 51.5q190 0 264.5 -116.5t74.5 -279.5q0 -255 -161 -471.5t-379 -216.5q-111 0 -173 33.5t-113 101.5h-2l-23 -73q-14 -45 -49 -45h-84q-37 0 -37 30q0 7 2 15z M265 290q10 -100 65 -138.5t167 -38.5q152 0 260 169.5t108 395.5q0 104 -45 181.5t-158 77.5q-98 0 -199.5 -117.5t-132.5 -249.5z" />
<glyph unicode="c" horiz-adv-x="1026" d="M68 402q0 265 163.5 465t428.5 200q162 0 231 -56.5t100 -124.5q16 -36 -14 -52l-66 -35q-34 -18 -53 25q-14 32 -64 72.5t-147 40.5q-156 0 -274.5 -140t-118.5 -410q0 -122 58.5 -198t188.5 -76q103 0 169 53.5t94 95.5q23 35 53 14l63 -46q29 -21 5 -55 q-29 -40 -127 -116t-270 -76q-234 0 -327 133.5t-93 285.5z" />
<glyph unicode="d" horiz-adv-x="1119" d="M70 379q0 255 161 471.5t379 216.5q111 0 173 -33.5t113 -101.5h2q3 24 12 61l101 438q10 45 55 45h86q37 0 37 -30q0 -7 -2 -15l-320 -1386q-10 -45 -55 -45h-84q-30 0 -30 30q0 7 1 15l22 120h-2q-44 -79 -137 -130.5t-173 -51.5q-190 0 -264.5 116.5t-74.5 279.5z M256 372q0 -104 45 -181.5t158 -77.5q98 0 199.5 117.5t132.5 249.5l65 280q-10 100 -65 138.5t-167 38.5q-152 0 -260 -169.5t-108 -395.5z" />
<glyph unicode="e" horiz-adv-x="1078" d="M68 396q0 300 156.5 485.5t427.5 185.5q155 0 250.5 -88.5t95.5 -200.5q0 -148 -141.5 -218t-350.5 -112l-246 -49q-6 -38 -6 -40q0 -99 54 -172t189 -73q115 0 185 42t95 76q23 30 42 30q11 0 21 -9l59 -51q19 -17 -6 -56q-23 -36 -124 -99.5t-296 -63.5 q-213 0 -309 123.5t-96 289.5zM265 538l205 40q140 27 246 74.5t106 133.5q0 68 -61.5 109.5t-141.5 41.5q-121 0 -215.5 -92t-138.5 -307z" />
<glyph unicode="f" horiz-adv-x="652" d="M-5 -355l294 1273h-107q-45 0 -37 35l14 62q8 35 53 35h107l35 149q38 167 143 230.5t221 63.5q69 0 109.5 -7t93.5 -31q12 -5 12 -15q0 -8 -6 -17l-50 -79q-12 -20 -37 -8q-19 10 -49 18.5t-67 8.5q-83 0 -129 -40t-72 -153l-28 -120h183q45 0 37 -35l-14 -62 q-8 -35 -53 -35h-183l-294 -1273q-10 -45 -55 -45h-86q-37 0 -37 30q0 7 2 15z" />
<glyph unicode="g" horiz-adv-x="1119" d="M-16 -298q-10 16 -10 30q0 16 14 30l50 48q11 11 23 11q15 0 33 -19q38 -40 96 -64.5t164 -24.5q124 0 208.5 67.5t121.5 230.5l21 93q6 27 16 61h-2q-44 -79 -137 -130.5t-173 -51.5q-190 0 -264.5 116.5t-74.5 279.5q0 255 161 471.5t379 216.5q111 0 173 -33.5 t113 -101.5h2l23 73q14 45 49 45h84q37 0 37 -30q0 -7 -2 -15l-234 -1013q-47 -205 -160 -307t-372 -102q-135 0 -221 32.5t-118 86.5zM256 372q0 -104 45 -181.5t158 -77.5q98 0 199.5 117.5t132.5 249.5l65 280q-10 100 -65 138.5t-167 38.5q-152 0 -260 -169.5 t-108 -395.5z" />
<glyph unicode="h" horiz-adv-x="1128" d="M32 45l320 1386q10 45 56 45h86q36 0 36 -30q0 -7 -2 -15l-112 -486q-6 -28 -15 -60h4q59 73 153.5 127.5t214.5 54.5q170 -1 232 -103q37 -62 38 -150q0 -59 -17 -130l-148 -639q-10 -45 -55 -45h-86q-37 0 -37 30q0 7 2 15l137 591q22 95 22 156q0 64 -25 92 q-48 52 -158 53q-120 0 -218.5 -116.5t-133.5 -266.5l-118 -509q-10 -45 -55 -45h-86q-37 0 -37 30q0 7 2 15z" />
<glyph unicode="i" horiz-adv-x="460" d="M32 45l222 960q10 45 55 45h86q37 0 37 -30q0 -7 -2 -15l-222 -960q-10 -45 -55 -45h-86q-37 0 -37 30q0 7 2 15zM319 1285l20 86q10 45 55 45h86q37 0 37 -30q0 -7 -2 -15l-20 -86q-11 -45 -56 -45h-86q-36 0 -36 29q0 7 2 16z" />
<glyph unicode="j" horiz-adv-x="466" d="M-300 -365l25 81q8 26 29 15q35 -18 91 -18q59 0 101 57t83 236l231 999q10 45 55 45h86q37 0 37 -30q0 -7 -2 -15l-253 -1098q-45 -194 -136 -259t-200 -65q-99 0 -137 20q-12 6 -12 20q0 5 2 12zM325 1285l20 86q10 45 55 45h86q37 0 37 -30q0 -7 -2 -15l-20 -86 q-11 -45 -56 -45h-86q-36 0 -36 29q0 7 2 16z" />
<glyph unicode="k" horiz-adv-x="1003" d="M32 45l320 1386q10 45 56 45h86q36 0 36 -30q0 -7 -2 -15l-189 -820q-7 -29 -16 -60h2l505 473q28 26 59 26h111q42 0 42 -18q0 -15 -29 -41l-409 -380l228 -552q7 -16 7 -28q0 -31 -47 -31h-81q-33 0 -48 37l-186 454l-211 -198l-58 -248q-11 -45 -55 -45h-86 q-37 0 -37 30q0 7 2 15z" />
<glyph unicode="l" horiz-adv-x="460" d="M32 45l289 1248q4 20 18 38l100 127q27 35 39 35h35q24 0 24 -22q0 -6 -2 -13l-327 -1413q-10 -45 -55 -45h-86q-37 0 -37 30q0 7 2 15z" />
<glyph unicode="m" horiz-adv-x="1678" d="M32 45l222 960q10 45 55 45h84q37 0 37 -30q0 -7 -2 -15l-27 -120h4q59 72 148.5 127t179.5 55q110 0 172.5 -69.5t62.5 -164.5h4q63 82 159.5 158t211.5 76q140 -1 207 -103q42 -64 41 -156q0 -57 -15 -124l-148 -639q-10 -45 -55 -45h-86q-37 0 -37 30q0 7 2 15 l135 581q26 114 26 181q0 48 -13 72q-32 58 -142 58q-90 0 -189.5 -120.5t-132.5 -262.5l-118 -509q-10 -45 -55 -45h-86q-37 0 -37 30q0 7 2 15l135 581q26 114 26 181q0 48 -13 72q-32 58 -142 58q-90 0 -188.5 -116.5t-133.5 -266.5l-118 -509q-10 -45 -55 -45h-86 q-37 0 -37 30q0 7 2 15z" />
<glyph unicode="n" horiz-adv-x="1128" d="M32 45l222 960q10 45 55 45h84q37 0 37 -30q0 -7 -2 -15l-27 -120h4q59 73 153.5 127.5t214.5 54.5q170 -1 232 -103q37 -62 38 -150q0 -59 -17 -130l-148 -639q-10 -45 -55 -45h-86q-37 0 -37 30q0 7 2 15l137 591q22 95 22 156q0 64 -25 92q-48 52 -158 53 q-120 0 -218.5 -116.5t-133.5 -266.5l-118 -509q-10 -45 -55 -45h-86q-37 0 -37 30q0 7 2 15z" />
<glyph unicode="o" horiz-adv-x="1148" d="M68 402q0 264 163.5 464.5t428.5 200.5q234 0 327 -134.5t93 -284.5q0 -264 -163.5 -464.5t-428.5 -200.5q-234 0 -327 134.5t-93 284.5zM254 387q0 -125 58.5 -199.5t188.5 -74.5q156 0 274.5 141.5t118.5 408.5q0 125 -58.5 199.5t-188.5 74.5q-156 0 -274.5 -141.5 t-118.5 -408.5z" />
<glyph unicode="p" horiz-adv-x="1119" d="M-60 -355l314 1360q10 45 55 45h84q30 0 30 -30q0 -7 -1 -15l-22 -120h2q44 79 137 130.5t173 51.5q190 0 264.5 -116.5t74.5 -279.5q0 -255 -161 -471.5t-379 -216.5q-111 0 -173 33.5t-113 101.5h-2q-4 -28 -12 -61l-95 -412q-10 -45 -55 -45h-86q-37 0 -37 30 q0 7 2 15zM265 290q10 -100 65 -138.5t167 -38.5q152 0 260 169.5t108 395.5q0 104 -45 181.5t-158 77.5q-98 0 -199.5 -117.5t-132.5 -249.5z" />
<glyph unicode="q" horiz-adv-x="1119" d="M70 379q0 255 161 471.5t379 216.5q111 0 173 -33.5t113 -101.5h2l23 73q14 45 49 45h84q37 0 37 -30q0 -7 -2 -15l-314 -1360q-10 -45 -55 -45h-86q-37 0 -37 30q0 7 2 15l106 459q9 37 16 61h-2q-44 -79 -137 -130.5t-173 -51.5q-190 0 -264.5 116.5t-74.5 279.5z M256 372q0 -104 45 -181.5t158 -77.5q98 0 199.5 117.5t132.5 249.5l65 280q-10 100 -65 138.5t-167 38.5q-152 0 -260 -169.5t-108 -395.5z" />
<glyph unicode="r" horiz-adv-x="722" d="M32 45l222 960q10 45 55 45h84q37 0 37 -30q0 -7 -2 -15l-37 -160h4q72 113 147.5 167.5t178.5 54.5q59 0 83 -11q13 -5 13 -17q0 -6 -3 -13l-33 -82q-7 -18 -29 -14q-34 7 -69 7q-109 0 -221 -141.5t-147 -291.5l-107 -459q-10 -45 -55 -45h-86q-37 0 -37 30q0 7 2 15z " />
<glyph unicode="s" horiz-adv-x="937" d="M20 157l50 59q9 10 22 10q18 0 43 -19q57 -43 122.5 -68.5t137.5 -25.5q54 0 107.5 14.5t88.5 57.5t35 86t-12.5 73t-43.5 51t-62 33l-96 38q-54 22 -102 44q-46 22 -82 63t-53 89.5t-17 103.5q0 82 50 160.5t144.5 109.5t205.5 31q96 0 173 -27.5t131 -72.5 q16 -13 16 -28q0 -13 -12 -26l-50 -56q-8 -8 -19 -8q-18 0 -45 19q-40 28 -92 46t-107 18q-48 0 -101.5 -14t-85.5 -50t-32 -86q0 -36 10 -66t35.5 -50.5t54.5 -33.5q52 -24 100.5 -41t88.5 -35q70 -30 114 -70t59.5 -89t15.5 -106q0 -111 -69.5 -184t-158.5 -98.5 t-204 -25.5q-143 0 -228.5 39.5t-123.5 79.5q-17 18 -17 34q0 11 9 21z" />
<glyph unicode="t" horiz-adv-x="757" d="M146 953l14 62q8 35 53 35h118l21 90q5 19 19 38l99 127q27 35 39 35h35q30 0 22 -35l-59 -255h213q38 0 38 -25q0 -4 -1 -10l-14 -62q-8 -35 -53 -35h-213l-147 -637q-12 -52 -11 -86q0 -35 11 -51q24 -32 60 -31q46 0 95 17.5t66 28.5q22 14 29 -6l26 -72 q6 -18 -11 -29q-41 -26 -119.5 -47.5t-167.5 -21.5q-88 0 -138 75q-31 46 -31 115q0 44 12 97l150 648h-118q-38 0 -38 25q0 5 1 10z" />
<glyph unicode="u" horiz-adv-x="1120" d="M104 366l148 639q10 45 55 45h86q45 0 35 -45l-136 -591q-45 -197 3 -249t153 -52q147 0 230 116.5t118 266.5l118 509q10 45 55 45h86q45 0 35 -45l-222 -960q-10 -45 -55 -45h-84q-45 0 -35 45l28 120h-4q-59 -73 -154.5 -127.5t-210.5 -54.5q-160 0 -225 102.5 t-24 280.5z" />
<glyph unicode="v" horiz-adv-x="986" d="M156 1001q-6 49 38 49h99q32 0 36 -39l60 -660q4 -40 7 -91t3 -96h4q18 46 35 76l61 111l364 660q22 39 54 39h119q44 0 16 -49l-545 -940q-35 -61 -68 -61h-132q-33 0 -40 61z" />
<glyph unicode="w" horiz-adv-x="1444" d="M156 1001q-2 49 38 49h97q36 0 36 -39l-3 -660q0 -45 -1 -98t-1 -84h4q11 28 38 87.5t45 94.5l328 660q19 39 54 39h90q35 0 36 -39l24 -660q1 -36 0 -84.5t-1 -97.5h4l41 91l43 91l299 660q18 39 54 39h113q40 0 16 -49l-465 -940q-30 -61 -68 -61h-120q-38 0 -40 61 l-17 661q-1 58 0.5 92t4.5 59h-2q-9 -25 -26 -66t-39 -85l-323 -661q-30 -61 -68 -61h-120q-38 0 -40 61z" />
<glyph unicode="x" horiz-adv-x="968" d="M-56 59l452 506l-193 426q-8 17 -8 29q0 30 47 30h74q36 0 47 -26l148 -348l287 348q21 26 59 26h109q37 0 37 -18q0 -15 -24 -41l-400 -449l221 -483q8 -17 8 -29q0 -30 -48 -30h-78q-36 0 -47 26l-170 405l-338 -405q-22 -26 -59 -26h-112q-36 0 -36 18q0 14 24 41z " />
<glyph unicode="y" horiz-adv-x="1128" d="M0 -306q-14 19 -14 36q0 18 16 32l56 52q32 29 50 0q30 -48 87 -74.5t170 -26.5q121 0 206.5 68.5t122.5 228.5q23 102 37 155h-4q-59 -73 -150 -127.5t-218 -54.5q-170 0 -232 103q-37 61 -37 150q0 59 16 130l148 639q10 45 55 45h86q37 0 37 -30q0 -7 -2 -15 l-136 -591q-22 -96 -22 -157q0 -65 24 -92q48 -52 158 -52q106 0 211.5 113.5t141.5 269.5l117 509q10 45 55 45h86q37 0 37 -30q0 -7 -2 -15l-234 -1014q-47 -205 -158 -306.5t-374 -101.5q-171 0 -236 33t-98 78z" />
<glyph unicode="z" horiz-adv-x="950" d="M-57 35l12 51q8 34 53 80l737 752v2q-30 -2 -60 -2h-469q-45 0 -37 35l14 62q8 35 53 35h702q38 0 38 -25q0 -4 -1 -10l-11 -47q-7 -28 -55 -78l-740 -758v-2q30 2 60 2h521q45 0 37 -35l-14 -62q-8 -35 -53 -35h-750q-38 0 -38 25q0 5 1 10z" />
<glyph unicode="{" horiz-adv-x="776" d="M91 524l9 40q11 45 46 45q64 0 159 64.5t140 257.5l54 235q39 170 100 250t287 80q38 0 38 -25q0 -5 -1 -10l-14 -60q-8 -35 -53 -35q-98 0 -125.5 -41.5t-49.5 -135.5l-67 -286q-54 -234 -156 -293t-173 -65l-1 -2q75 -19 139 -109q40 -56 40 -141q0 -49 -14 -108 l-66 -286q-16 -67 -16 -108q0 -16 3 -28q9 -41 107 -41q45 0 37 -35l-14 -60q-8 -35 -53 -35q-180 0 -222 99q-25 58 -25 127q0 49 12 104l54 235q18 79 18 137q0 72 -28 112q-50 73 -140 73q-27 0 -27 27q0 8 2 18z" />
<glyph unicode="|" horiz-adv-x="590" d="M232 -395v1846q0 45 35 45h60q35 0 35 -45v-1846q0 -45 -35 -45h-60q-35 0 -35 45z" />
<glyph unicode="}" horiz-adv-x="776" d="M-136 -373l14 60q8 35 53 35q98 0 125.5 41.5t49.5 135.5l67 286q54 234 156 293t173 65l1 2q-75 19 -139 108q-40 57 -40 142q0 49 14 108l66 286q16 67 16 108q0 16 -3 28q-9 41 -107 41q-45 0 -37 35l14 60q8 35 53 35q180 0 222 -99q25 -58 25 -127q0 -49 -12 -104 l-54 -235q-18 -79 -18 -137q0 -72 28 -112q50 -73 140 -73q27 0 27 -27q0 -8 -2 -18l-9 -40q-11 -45 -46 -45q-64 0 -159 -64.5t-140 -257.5l-54 -235q-39 -170 -100 -250t-287 -80q-38 0 -38 25q0 5 1 10z" />
<glyph unicode="~" horiz-adv-x="1280" d="M135 671q35 110 116 174.5t196 64.5t278.5 -120t238.5 -120q69 0 113 45t69 101q13 30 37 21l43 -15q16 -5 16 -24q0 -8 -3 -19q-35 -110 -116 -174.5t-196 -64.5t-278.5 120t-238.5 120q-69 0 -113 -45t-69 -101q-13 -30 -37 -21l-43 15q-16 5 -16 24q0 8 3 19z" />
<glyph unicode="&#xa1;" horiz-adv-x="600" d="M2 -329l239 944q11 45 55 45h72q37 0 37 -30q0 -7 -2 -15l-197 -944q-11 -55 -63 -55h-104q-40 0 -40 35q0 9 3 20zM282 883l29 122q10 45 55 45h112q37 0 37 -30q0 -7 -2 -15l-29 -122q-10 -45 -55 -45h-112q-37 0 -37 30q0 7 2 15z" />
<glyph unicode="&#xa2;" horiz-adv-x="1110" d="M118 402q0 265 158.5 459t401.5 205l43 186q10 45 45 45h50q35 0 25 -45l-44 -190q95 -12 154 -60t90 -116q6 -13 6 -23q0 -19 -20 -29l-66 -35q-10 -5 -19 -5q-21 0 -34 30q-14 32 -54 64.5t-87 42.5l-189 -817q85 6 146.5 56t89.5 92q23 35 53 14l63 -46q29 -21 5 -55 q-29 -40 -125.5 -115t-261.5 -77l-43 -185q-10 -45 -45 -45h-50q-35 0 -25 45l45 193q-149 25 -230.5 142t-81.5 269zM304 387q0 -122 47 -183t109 -79l187 808q-126 -19 -234.5 -147.5t-108.5 -398.5z" />
<glyph unicode="&#xa3;" horiz-adv-x="1110" d="M-31 45l14 57q10 41 51 73q54 41 135 124t106 193l31 136h-158q-36 0 -36 30q0 7 2 15l17 74q10 45 56 45h157l51 221q57 247 175 343t321 96q108 0 178.5 -36.5t107.5 -80.5q13 -16 13 -31t-14 -30l-41 -44q-14 -16 -30 -16q-17 0 -36 18q-31 28 -82 49t-120 21 q-114 0 -186.5 -63t-104.5 -204l-56 -243h285q36 0 36 -30q0 -7 -2 -15l-17 -74q-10 -45 -54 -45h-286l-31 -133q-31 -133 -96.5 -217t-117.5 -112v-4q27 2 81 2h571q46 0 46 -32q0 -6 -2 -13l-17 -74q-10 -45 -65 -45h-837q-47 0 -47 31q0 7 2 14z" />
<glyph unicode="&#xa4;" horiz-adv-x="1110" d="M140 289q-12 11 -12 24q0 15 17 33l131 140q-74 106 -74 242t74 242l-131 140q-17 18 -17 33q0 13 12 24l37 34q11 10 23 10q16 0 33 -19l124 -133q104 85 248 85t248 -85l124 133q17 19 33 19q12 0 23 -10l37 -34q12 -11 12 -24q0 -15 -17 -33l-131 -140 q74 -106 74 -242t-74 -242l131 -140q17 -18 17 -33q0 -13 -12 -24l-37 -34q-11 -10 -23 -10q-16 0 -33 19l-124 133q-104 -85 -248 -85t-248 85l-124 -133q-17 -19 -33 -19q-12 0 -23 10zM335 728q0 -117 75 -201.5t195 -84.5t195 84.5t75 201.5t-75 201.5t-195 84.5 t-195 -84.5t-75 -201.5z" />
<glyph unicode="&#xa5;" horiz-adv-x="1110" d="M99 305l14 59q11 45 55 45h273l42 181h-273q-36 0 -36 30q0 7 2 15l13 59q10 45 56 45h186l-220 629q-6 17 -6 30q0 36 48 36h80q47 0 61 -49l125 -437l37 -130q15 -49 29 -109h4l80 111l96 128l327 437q37 49 83 49h104q36 0 36 -20q0 -16 -24 -46l-510 -629h176 q36 0 36 -30q0 -7 -2 -15l-13 -59q-10 -45 -56 -45h-263l-42 -181h263q37 0 37 -29q0 -7 -2 -16l-14 -59q-11 -45 -55 -45h-263l-50 -215q-10 -45 -55 -45h-86q-37 0 -37 30q0 7 2 15l50 215h-273q-37 0 -37 29q0 7 2 16z" />
<glyph unicode="&#xa6;" horiz-adv-x="590" d="M230 -293v644q0 45 35 45h60q35 0 35 -45v-644q0 -45 -35 -45h-60q-35 0 -35 45zM230 705v644q0 45 35 45h60q35 0 35 -45v-644q0 -45 -35 -45h-60q-35 0 -35 45z" />
<glyph unicode="&#xa7;" horiz-adv-x="1160" d="M122 565q0 122 94.5 214t246.5 201q-40 76 -40 150q0 138 112.5 236t251.5 98q117 0 172 -32t87 -82q11 -17 11 -31t-12 -24l-60 -51q-17 -16 -43 18q-28 37 -61 54.5t-99 17.5q-83 0 -130 -56.5t-47 -114.5q0 -140 222.5 -314t222.5 -324q0 -122 -94.5 -214t-246.5 -201 q40 -76 40 -150q0 -138 -112.5 -236t-251.5 -98q-117 0 -172 32t-87 82q-11 17 -11 31t12 24l60 51q17 16 43 -18q28 -37 61 -54.5t99 -17.5q83 0 130 56.5t47 114.5q0 140 -222.5 314t-222.5 324zM293 608q0 -94 150 -218.5t200 -182.5l117 89q119 91 119 186 q0 94 -150 218.5t-200 182.5l-117 -89q-119 -91 -119 -186z" />
<glyph unicode="&#xa8;" horiz-adv-x="614" d="M193 1285l20 86q10 45 55 45h86q37 0 37 -30q0 -7 -2 -15l-20 -86q-11 -45 -56 -45h-86q-36 0 -36 29q0 7 2 16zM599 1285l20 86q10 45 55 45h86q37 0 37 -30q0 -7 -2 -15l-20 -86q-11 -45 -56 -45h-86q-36 0 -36 29q0 7 2 16z" />
<glyph unicode="&#xa9;" horiz-adv-x="1654" d="M100 717q0 152 59.5 290t159.5 238t238 159.5t290 59.5t290 -59.5t238 -159.5t159.5 -238t59.5 -290t-59.5 -290t-159.5 -238t-238 -159.5t-290 -59.5t-290 59.5t-238 159.5t-159.5 238t-59.5 290zM200 717q0 -132 51.5 -251.5t138 -206t206 -140t251.5 -53.5t251.5 53.5 t206 140t138 206t51.5 251.5t-51.5 251.5t-138 206t-206 140t-251.5 53.5t-251.5 -53.5t-206 -140t-138 -206t-51.5 -251.5zM450 717q0 203 103 318t292 115q110 0 184.5 -38t105.5 -103q16 -34 -5 -46l-58 -32q-23 -13 -41 22q-19 37 -59 64.5t-122 27.5q-145 0 -207.5 -83 t-62.5 -245t62.5 -245t207.5 -83q84 0 130.5 34.5t69.5 76.5q18 33 42 20l60 -33q11 -6 11 -20q0 -11 -8 -27q-34 -67 -113.5 -111.5t-196.5 -44.5q-188 0 -291.5 115t-103.5 318z" />
<glyph unicode="&#xaa;" horiz-adv-x="750" d="M188 1019q0 189 121 331.5t275 142.5q61 0 94 -24.5t52 -57.5h1l15 41q11 29 33 29h67q25 0 25 -19q0 -5 -1 -10l-147 -624q-7 -29 -37 -29h-66q-29 0 -23 29l17 78h-2q-33 -42 -88.5 -80t-120.5 -38q-99 0 -157 56.5t-58 174.5zM326 1015q0 -43 24 -81t87 -38 q59 0 131.5 74t91.5 151l40 164q-10 61 -43 80.5t-70 19.5q-95 0 -178 -108.5t-83 -261.5z" />
<glyph unicode="&#xab;" horiz-adv-x="1032" d="M120 517q-5 8 -5 17q0 14 16 29l411 380q17 15 29 15q9 0 16 -7l45 -49q16 -17 -13 -44l-359 -334l205 -334q16 -26 -8 -44l-49 -36q-10 -7 -19 -7q-13 0 -22 15zM470 517q-5 8 -5 17q0 14 16 29l411 380q17 15 29 15q9 0 16 -7l45 -49q6 -6 6 -13q0 -14 -19 -31 l-359 -334l205 -334q16 -26 -8 -44l-49 -36q-10 -7 -19 -7q-13 0 -22 15z" />
<glyph unicode="&#xac;" horiz-adv-x="1110" d="M130 843v50q0 35 45 35h860q45 0 45 -35v-420q0 -45 -35 -45h-50q-35 0 -35 45v335h-785q-45 0 -45 35z" />
<glyph unicode="&#xad;" horiz-adv-x="680" d="M56 518l16 70q8 35 53 35h478q38 0 38 -25q0 -5 -1 -10l-16 -70q-8 -35 -53 -35h-478q-38 0 -38 25q0 5 1 10z" />
<glyph unicode="&#xae;" horiz-adv-x="1654" d="M100 717q0 152 59.5 290t159.5 238t238 159.5t290 59.5t290 -59.5t238 -159.5t159.5 -238t59.5 -290t-59.5 -290t-159.5 -238t-238 -159.5t-290 -59.5t-290 59.5t-238 159.5t-159.5 238t-59.5 290zM200 717q0 -132 51.5 -251.5t138 -206t206 -140t251.5 -53.5t251.5 53.5 t206 140t138 206t51.5 251.5t-51.5 251.5t-138 206t-206 140t-251.5 53.5t-251.5 -53.5t-206 -140t-138 -206t-51.5 -251.5zM560 315v768q0 32 29 32h280q168 0 243 -63t75 -165q0 -90 -58.5 -152.5t-174.5 -76.5v-1q57 -35 77 -59t44 -64l131 -212q10 -16 10 -25 q0 -14 -21 -14h-76q-26 0 -40 23l-116 197q-23 39 -75.5 84.5t-125.5 45.5h-82v-318q0 -32 -29 -32h-62q-29 0 -29 32zM680 743h149q113 0 173 32.5t60 108.5q0 70 -55 95.5t-150 25.5h-177v-262z" />
<glyph unicode="&#xaf;" horiz-adv-x="614" d="M172 1275l10 40q8 35 53 35h528q38 0 38 -25q0 -5 -1 -10l-10 -40q-8 -35 -53 -35h-528q-38 0 -38 25q0 5 1 10z" />
<glyph unicode="&#xb0;" horiz-adv-x="560" d="M246 1240q0 83 58.5 141.5t141.5 58.5t141.5 -58.5t58.5 -141.5t-58.5 -141.5t-141.5 -58.5t-141.5 58.5t-58.5 141.5zM346 1240q0 -42 29 -71t71 -29t71 29t29 71t-29 71t-71 29t-71 -29t-29 -71z" />
<glyph unicode="&#xb1;" horiz-adv-x="1280" d="M127 -25v50q0 35 45 35h1030q45 0 45 -35v-50q0 -35 -45 -35h-1030q-45 0 -45 35zM127 700v50q0 35 45 35h454v454q0 45 35 45h50q35 0 35 -45v-454h456q45 0 45 -35v-50q0 -35 -45 -35h-456v-456q0 -45 -35 -45h-50q-35 0 -35 45v456h-454q-45 0 -45 35z" />
<glyph unicode="&#xb2;" horiz-adv-x="590" d="M99 735l9 41q4 20 26 38l287 235q91 74 123.5 123t32.5 106q0 44 -28.5 66t-75.5 22q-41 0 -81 -27t-69 -84q-15 -30 -31 -23l-51 23q-22 10 -7 44q32 70 99 118.5t148 48.5q113 0 166.5 -48t53.5 -128q0 -64 -34.5 -130t-153.5 -161l-223 -179v-2q21 1 41 1h248 q29 0 24 -23l-14 -61q-5 -23 -35 -23h-433q-23 0 -23 16q0 3 1 7z" />
<glyph unicode="&#xb3;" horiz-adv-x="594" d="M122 788q-20 25 0 39l46 33q20 14 40 -10q28 -34 57 -44t67 -10q86 0 133 44t47 106q0 46 -30 81.5t-92 35.5h-41q-23 0 -19 17l14 60q4 18 27 18h29q66 0 113.5 39.5t47.5 90.5q0 40 -24 59t-74 19q-40 0 -71.5 -12t-61.5 -35q-29 -22 -40 -8l-37 46q-14 17 21 43 q40 30 88 48t111 18q107 0 157.5 -47.5t50.5 -113.5q0 -88 -54.5 -130.5t-119.5 -58.5l-1 -2q59 -17 94.5 -62t35.5 -115q0 -96 -88 -168.5t-222 -72.5q-78 0 -126 27t-78 65z" />
<glyph unicode="&#xb4;" horiz-adv-x="614" d="M330 1203l166 195q32 37 87 37h121q31 0 31 -14q0 -13 -25 -38l-206 -204q-30 -29 -85 -29h-84q-26 0 -26 15q0 13 21 38z" />
<glyph unicode="&#xb5;" horiz-adv-x="1160" d="M-58 -372l318 1376q10 45 55 45h86q37 0 37 -30q0 -7 -2 -15l-127 -549q-17 -73 -17 -133q0 -66 21 -116q39 -94 159 -94q96 0 207 92t148 252l127 549q10 45 55 45h86q37 0 37 -30q0 -7 -2 -15l-222 -960q-10 -45 -55 -45h-84q-37 0 -37 29q0 7 2 16l19 80h-4 q-84 -79 -151 -111t-144 -32q-61 0 -121 32t-98 110h-4q-5 -29 -12 -60l-101 -436q-10 -45 -55 -45h-86q-37 0 -37 30q0 7 2 15z" />
<glyph unicode="&#xb6;" horiz-adv-x="1022" d="M83 1084q0 142 104 246t246 104h95q35 0 35 -45v-1714q0 -45 -35 -45h-60q-35 0 -35 45v1059q-142 0 -246 104t-104 246zM753 -325v1714q0 45 35 45h60q35 0 35 -45v-1714q0 -45 -35 -45h-60q-35 0 -35 45z" />
<glyph unicode="&#xb7;" horiz-adv-x="600" d="M246 664v122q0 45 45 45h112q45 0 45 -45v-122q0 -45 -45 -45h-112q-45 0 -45 45z" />
<glyph unicode="&#xb8;" horiz-adv-x="614" d="M-85 -359l13 38q11 32 40 17q24 -12 86 -12q48 0 79 19t31 52q0 25 -24.5 40.5t-73.5 15.5h-28q-22 0 -18 25q7 42 18 55l89 109q18 22 45 22h69q32 0 14 -22l-78 -96l-1 -3q67 -13 90 -43t23 -89q0 -82 -70 -133.5t-168 -51.5q-69 0 -125 21q-14 5 -14 20q0 7 3 16z" />
<glyph unicode="&#xb9;" horiz-adv-x="480" d="M260 1314q-5 14 17 24q26 12 78.5 41t86.5 62q19 19 33 19h72q24 0 19 -23l-162 -702q-5 -23 -30 -23h-72q-23 0 -18 23l127 552q3 15 10 31h-3q-21 -20 -51.5 -39.5t-58.5 -29.5q-22 -8 -28 9z" />
<glyph unicode="&#xba;" horiz-adv-x="780" d="M190 1060q0 172 111.5 302.5t291.5 130.5q165 0 225 -84t60 -189q0 -172 -111 -302t-291 -130q-165 0 -225.5 83.5t-60.5 188.5zM328 1051q0 -75 35.5 -115t123.5 -40q100 0 176.5 84.5t76.5 249.5q0 75 -35 115t-123 40q-100 0 -177 -84.5t-77 -249.5z" />
<glyph unicode="&#xbb;" horiz-adv-x="1032" d="M59 178q-6 6 -6 13q0 14 19 31l359 334l-205 334q-16 26 8 44l49 36q10 7 19 7q13 0 22 -15l247 -399q14 -23 -11 -46l-411 -380q-17 -15 -29 -15q-9 0 -16 7zM409 178q-6 6 -6 13q0 14 19 31l359 334l-205 334q-16 26 8 44l49 36q10 7 19 7q13 0 22 -15l247 -399 q5 -8 5 -17q0 -14 -16 -29l-411 -380q-17 -15 -29 -15q-9 0 -16 7z" />
<glyph unicode="&#xbc;" horiz-adv-x="1756" d="M239 -40q-13 11 -13 25t15 31l1280 1496q17 21 34 21q11 0 22 -9l38 -33q12 -10 12 -23q0 -15 -16 -33l-1278 -1497q-19 -21 -36 -21q-11 0 -22 9zM370 1314q-1 3 -1 5q0 11 18 19q26 12 78.5 41t86.5 62q19 19 33 19h72q24 0 19 -23l-162 -702q-5 -23 -30 -23h-72 q-23 0 -18 23l127 552q3 15 10 31h-3q-21 -20 -51.5 -39.5t-58.5 -29.5q-22 -8 -28 9zM1019 196l15 71q3 14 22 36l373 426q17 19 33 19h88q20 0 20 -16q0 -3 -1 -7l-103 -445h70q23 0 18 -23l-14 -61q-5 -23 -28 -23h-71l-34 -150q-5 -23 -29 -23h-74q-22 0 -17 23l34 150 h-284q-19 0 -19 16q0 3 1 7zM1162 280h184l61 262q3 14 10 31h-3z" />
<glyph unicode="&#xbd;" horiz-adv-x="1756" d="M239 -40q-13 11 -13 25t15 31l1280 1496q17 21 34 21q11 0 22 -9l38 -33q25 -22 -4 -56l-1278 -1497q-19 -21 -36 -21q-11 0 -22 9zM370 1314q-1 3 -1 5q0 11 18 19q26 12 78.5 41t86.5 62q19 19 33 19h72q24 0 19 -23l-162 -702q-5 -23 -30 -23h-72q-23 0 -18 23 l127 552q3 15 10 31h-3q-21 -20 -51.5 -39.5t-58.5 -29.5q-22 -8 -28 9zM1028 23l9 41q4 20 26 38l287 235q91 74 123.5 123t32.5 106q0 44 -28.5 66t-75.5 22q-41 0 -81 -27t-69 -84q-15 -30 -31 -23l-51 23q-22 10 -7 44q32 70 99 118.5t148 48.5q113 0 166.5 -48 t53.5 -128q0 -64 -34.5 -130t-153.5 -161l-223 -179v-2q21 1 41 1h248q29 0 24 -23l-14 -61q-5 -23 -35 -23h-433q-23 0 -23 16q0 3 1 7z" />
<glyph unicode="&#xbe;" horiz-adv-x="1756" d="M177 788q-10 13 -10 22.5t10 16.5l46 33q20 14 40 -10q28 -34 57 -44t67 -10q86 0 133 44t47 106q0 46 -30 81.5t-92 35.5h-41q-23 0 -19 17l14 60q4 18 27 18h29q66 0 113.5 39.5t47.5 90.5q0 40 -24 59t-74 19q-40 0 -71.5 -12t-61.5 -35q-29 -22 -40 -8l-37 46 q-14 17 21 43q40 30 88 48t111 18q107 0 157.5 -47.5t50.5 -113.5q0 -88 -54.5 -130.5t-119.5 -58.5l-1 -2q59 -17 94.5 -62t35.5 -115q0 -96 -88 -168.5t-222 -72.5q-78 0 -126 27t-78 65zM239 -40q-13 11 -13 25t15 31l1280 1496q17 21 34 21q11 0 22 -9l38 -33 q12 -10 12 -23q0 -15 -16 -33l-1278 -1497q-19 -21 -36 -21q-11 0 -22 9zM1029 196l15 71q3 14 22 36l373 426q17 19 33 19h88q20 0 20 -16q0 -3 -1 -7l-103 -445h70q23 0 18 -23l-14 -61q-5 -23 -28 -23h-71l-34 -150q-5 -23 -29 -23h-74q-22 0 -17 23l34 150h-284 q-19 0 -19 16q0 3 1 7zM1172 280h184l61 262q3 14 10 31h-3z" />
<glyph unicode="&#xbf;" horiz-adv-x="1016" d="M-29 -83q0 159 231 365t258 330l5 23q10 45 56 45h86q36 0 36 -30q0 -7 -2 -15l-8 -37q-38 -176 -252 -373.5t-214 -318.5q0 -98 53.5 -134t133.5 -36q88 0 167.5 51t106.5 104q19 36 44 36q11 0 24 -7l71 -40q16 -9 16 -29q0 -22 -20 -57q-42 -73 -147 -140.5 t-268 -67.5q-198 0 -287.5 81t-89.5 250zM510 883l29 122q10 45 55 45h112q37 0 37 -30q0 -7 -2 -15l-29 -122q-10 -45 -55 -45h-112q-37 0 -37 30q0 7 2 15z" />
<glyph unicode="&#xc0;" horiz-adv-x="1360" d="M-59 66l770 1307q36 61 80 61h140q41 0 52 -61l226 -1307q2 -11 2 -21q0 -45 -44 -45h-91q-53 0 -61 49l-57 331h-615l-195 -331q-29 -49 -83 -49h-112q-29 0 -29 21q0 16 17 45zM441 544h488l-70 400q-13 72 -21 157.5t-8 159.5h-4q-18 -71 -56 -145t-95 -172zM619 1733 q-24 22 -24 35q0 17 45 17h145q49 0 76 -37l111 -155q15 -21 15 -34q0 -19 -35 -19h-82q-46 0 -76 29z" />
<glyph unicode="&#xc1;" horiz-adv-x="1360" d="M-59 66l770 1307q36 61 80 61h140q41 0 52 -61l226 -1307q2 -11 2 -21q0 -45 -44 -45h-91q-53 0 -61 49l-57 331h-615l-195 -331q-29 -49 -83 -49h-112q-29 0 -29 21q0 16 17 45zM441 544h488l-70 400q-13 72 -21 157.5t-8 159.5h-4q-18 -71 -56 -145t-95 -172zM824 1593 l155 155q37 37 86 37h169q40 0 40 -14q0 -13 -33 -38l-221 -164q-40 -29 -86 -29h-106q-30 0 -30 14q0 13 26 39z" />
<glyph unicode="&#xc2;" horiz-adv-x="1360" d="M-59 66l770 1307q36 61 80 61h140q41 0 52 -61l226 -1307q2 -11 2 -21q0 -45 -44 -45h-91q-53 0 -61 49l-57 331h-615l-195 -331q-29 -49 -83 -49h-112q-29 0 -29 21q0 16 17 45zM441 544h488l-70 400q-13 72 -21 157.5t-8 159.5h-4q-18 -71 -56 -145t-95 -172zM529 1589 q-1 5 -1 9q0 26 39 42l248 104q43 18 68 18h70q25 0 60 -18l234 -122q22 -12 22 -29q0 -10 -8 -22l-28 -41q-13 -20 -33 -20q-12 0 -26 7l-257 132h-2l-319 -132q-17 -7 -28 -7q-20 0 -25 20z" />
<glyph unicode="&#xc3;" horiz-adv-x="1360" d="M-59 66l770 1307q36 61 80 61h140q41 0 52 -61l226 -1307q2 -11 2 -21q0 -45 -44 -45h-91q-53 0 -61 49l-57 331h-615l-195 -331q-29 -49 -83 -49h-112q-29 0 -29 21q0 16 17 45zM441 544h488l-70 400q-13 72 -21 157.5t-8 159.5h-4q-18 -71 -56 -145t-95 -172zM544 1620 q28 65 85.5 108t146.5 43q75 0 159 -49t128 -49q48 0 81 27t49 52q14 21 28 21q5 0 10 -3l42 -25q14 -8 14 -24q0 -9 -5 -21q-28 -65 -85.5 -108t-146.5 -43q-75 0 -159 49t-128 49q-48 0 -81 -27t-49 -52q-14 -21 -28 -21q-5 0 -10 3l-42 25q-14 8 -14 24q0 9 5 21z" />
<glyph unicode="&#xc4;" horiz-adv-x="1360" d="M-59 66l770 1307q36 61 80 61h140q41 0 52 -61l226 -1307q2 -11 2 -21q0 -45 -44 -45h-91q-53 0 -61 49l-57 331h-615l-195 -331q-29 -49 -83 -49h-112q-29 0 -29 21q0 16 17 45zM441 544h488l-70 400q-13 72 -21 157.5t-8 159.5h-4q-18 -71 -56 -145t-95 -172zM568 1595 l21 92q11 45 56 45h92q36 0 36 -29q0 -7 -2 -16l-21 -92q-10 -45 -55 -45h-92q-37 0 -37 30q0 7 2 15zM1046 1595l21 92q11 45 56 45h92q36 0 36 -29q0 -7 -2 -16l-21 -92q-10 -45 -55 -45h-92q-37 0 -37 30q0 7 2 15z" />
<glyph unicode="&#xc5;" horiz-adv-x="1360" d="M-59 66l770 1307q36 61 80 61h140q41 0 52 -61l226 -1307q2 -11 2 -21q0 -45 -44 -45h-91q-53 0 -61 49l-57 331h-615l-195 -331q-29 -49 -83 -49h-112q-29 0 -29 21q0 16 17 45zM441 544h488l-70 400q-13 72 -21 157.5t-8 159.5h-4q-18 -71 -56 -145t-95 -172zM709 1647 q0 75 52 124t130 49t130 -50t52 -123t-52 -123t-130 -50t-130 49t-52 124zM787 1647q0 -42 29 -70.5t75 -28.5t75 28.5t29 70.5t-29 70.5t-75 28.5t-75 -28.5t-29 -70.5z" />
<glyph unicode="&#xc6;" horiz-adv-x="1957" d="M-59 66l924 1316q37 52 79 52h1049q47 0 47 -32q0 -6 -2 -13l-17 -74q-10 -45 -66 -45h-693l-102 -444h633q46 0 46 -32q0 -6 -2 -13l-17 -74q-10 -45 -65 -45h-633l-115 -498h723q46 0 46 -32q0 -6 -2 -13l-17 -74q-10 -45 -65 -45h-865q-40 0 -40 35q0 9 3 20l75 325 h-474l-232 -331q-34 -49 -78 -49h-127q-33 0 -33 21q0 16 20 45zM506 544h397l167 726h-72q-30 -59 -66 -115l-69 -102z" />
<glyph unicode="&#xc7;" horiz-adv-x="1392" d="M110 580q0 395 210.5 639.5t587.5 244.5q184 0 298 -64t161 -170q8 -18 8 -32q0 -30 -31 -48l-78 -46q-7 -4 -14 -4q-20 0 -38 32q-30 54 -109 115t-214 61q-250 0 -413 -183t-163 -568q0 -182 96 -306.5t326 -124.5q136 0 230.5 71.5t146.5 143.5q30 42 57 42 q11 0 21 -7l90 -58q15 -9 15 -26q0 -21 -23 -54q-79 -115 -213 -191.5t-351 -76.5q-302 0 -451 172.5t-149 437.5zM419 -359l13 38q11 32 40 17q24 -12 86 -12q48 0 79 19t31 52q0 25 -24.5 40.5t-73.5 15.5h-28q-22 0 -18 25q7 42 18 55l89 109q18 22 45 22h69q32 0 14 -22 l-78 -96l-1 -3q67 -13 90 -43t23 -89q0 -82 -70 -133.5t-168 -51.5q-69 0 -125 21q-14 5 -14 20q0 7 3 16z" />
<glyph unicode="&#xc8;" horiz-adv-x="1270" d="M63 55l305 1324q13 55 63 55h875q47 0 47 -32q0 -6 -2 -13l-17 -74q-11 -45 -66 -45h-733l-102 -444h673q46 0 46 -31q0 -7 -2 -14l-17 -74q-10 -45 -65 -45h-673l-115 -498h763q46 0 46 -31q0 -7 -2 -14l-17 -74q-10 -45 -65 -45h-905q-40 0 -40 35q0 9 3 20zM644 1733 q-24 22 -24 35q0 17 45 17h145q49 0 76 -37l111 -155q15 -21 15 -34q0 -19 -35 -19h-82q-46 0 -76 29z" />
<glyph unicode="&#xc9;" horiz-adv-x="1270" d="M63 55l305 1324q13 55 63 55h875q47 0 47 -32q0 -6 -2 -13l-17 -74q-11 -45 -66 -45h-733l-102 -444h673q46 0 46 -31q0 -7 -2 -14l-17 -74q-10 -45 -65 -45h-673l-115 -498h763q46 0 46 -31q0 -7 -2 -14l-17 -74q-10 -45 -65 -45h-905q-40 0 -40 35q0 9 3 20zM849 1593 l155 155q37 37 86 37h169q40 0 40 -14q0 -13 -33 -38l-221 -164q-40 -29 -86 -29h-106q-30 0 -30 14q0 13 26 39z" />
<glyph unicode="&#xca;" horiz-adv-x="1270" d="M63 55l305 1324q13 55 63 55h875q47 0 47 -32q0 -6 -2 -13l-17 -74q-11 -45 -66 -45h-733l-102 -444h673q46 0 46 -31q0 -7 -2 -14l-17 -74q-10 -45 -65 -45h-673l-115 -498h763q46 0 46 -31q0 -7 -2 -14l-17 -74q-10 -45 -65 -45h-905q-40 0 -40 35q0 9 3 20zM554 1589 q-1 5 -1 9q0 26 39 42l248 104q43 18 68 18h70q25 0 60 -18l234 -122q22 -12 22 -29q0 -10 -8 -22l-28 -41q-13 -20 -33 -20q-12 0 -26 7l-257 132h-2l-319 -132q-17 -7 -28 -7q-20 0 -25 20z" />
<glyph unicode="&#xcb;" horiz-adv-x="1270" d="M63 55l305 1324q13 55 63 55h875q47 0 47 -32q0 -6 -2 -13l-17 -74q-11 -45 -66 -45h-733l-102 -444h673q46 0 46 -31q0 -7 -2 -14l-17 -74q-10 -45 -65 -45h-673l-115 -498h763q46 0 46 -31q0 -7 -2 -14l-17 -74q-10 -45 -65 -45h-905q-40 0 -40 35q0 9 3 20zM593 1595 l21 92q11 45 56 45h92q36 0 36 -29q0 -7 -2 -16l-21 -92q-10 -45 -55 -45h-92q-37 0 -37 30q0 7 2 15zM1071 1595l21 92q11 45 56 45h92q36 0 36 -29q0 -7 -2 -16l-21 -92q-10 -45 -55 -45h-92q-37 0 -37 30q0 7 2 15z" />
<glyph unicode="&#xcc;" horiz-adv-x="532" d="M63 55l305 1324q13 55 63 55h92q40 0 40 -35q0 -9 -3 -20l-305 -1324q-13 -55 -63 -55h-92q-40 0 -40 35q0 9 3 20zM234 1733q-24 22 -24 35q0 17 45 17h145q49 0 76 -37l111 -155q15 -21 15 -34q0 -19 -35 -19h-82q-46 0 -76 29z" />
<glyph unicode="&#xcd;" horiz-adv-x="532" d="M63 55l305 1324q13 55 63 55h92q40 0 40 -35q0 -9 -3 -20l-305 -1324q-13 -55 -63 -55h-92q-40 0 -40 35q0 9 3 20zM439 1593l155 155q37 37 86 37h169q40 0 40 -14q0 -13 -33 -38l-221 -164q-40 -29 -86 -29h-106q-30 0 -30 14q0 13 26 39z" />
<glyph unicode="&#xce;" horiz-adv-x="532" d="M63 55l305 1324q13 55 63 55h92q40 0 40 -35q0 -9 -3 -20l-305 -1324q-13 -55 -63 -55h-92q-40 0 -40 35q0 9 3 20zM144 1589q-1 5 -1 9q0 26 39 42l248 104q43 18 68 18h70q25 0 60 -18l234 -122q22 -12 22 -29q0 -10 -8 -22l-28 -41q-13 -20 -33 -20q-12 0 -26 7 l-257 132h-2l-319 -132q-17 -7 -28 -7q-20 0 -25 20z" />
<glyph unicode="&#xcf;" horiz-adv-x="532" d="M63 55l305 1324q13 55 63 55h92q40 0 40 -35q0 -9 -3 -20l-305 -1324q-13 -55 -63 -55h-92q-40 0 -40 35q0 9 3 20zM226 1595l21 92q11 45 56 45h92q36 0 36 -29q0 -7 -2 -16l-21 -92q-10 -45 -55 -45h-92q-37 0 -37 30q0 7 2 15zM620 1595l21 92q11 45 56 45h92 q36 0 36 -29q0 -7 -2 -16l-21 -92q-10 -45 -55 -45h-92q-37 0 -37 30q0 7 2 15z" />
<glyph unicode="&#xd0;" horiz-adv-x="1446" d="M81 699l17 74q10 45 66 45h115l129 561q13 55 63 55h319q358 0 496 -175t138 -411q0 -340 -210 -594t-655 -254h-419q-40 0 -40 35q0 9 3 20l138 599h-115q-47 0 -47 32q0 6 2 13zM320 164h268q332 0 481.5 212t149.5 484q0 172 -81.5 292t-393.5 120h-168l-105 -454h321 q46 0 46 -31q0 -7 -2 -14l-17 -74q-10 -45 -65 -45h-321z" />
<glyph unicode="&#xd1;" horiz-adv-x="1438" d="M63 55l305 1324q13 55 63 55h121q71 0 89 -50l388 -1060h4q9 46 17 80l224 975q13 55 63 55h92q40 0 40 -35q0 -9 -3 -20l-305 -1324q-13 -55 -63 -55h-82q-70 0 -88 50l-413 1125h-4q-8 -44 -16 -80l-240 -1040q-13 -55 -63 -55h-92q-40 0 -40 35q0 9 3 20zM612 1620 q28 65 85.5 108t146.5 43q75 0 159 -49t128 -49q48 0 81 27t49 52q14 21 28 21q5 0 10 -3l42 -25q14 -8 14 -24q0 -9 -5 -21q-28 -65 -85.5 -108t-146.5 -43q-75 0 -159 49t-128 49q-48 0 -81 -27t-49 -52q-14 -21 -28 -21q-5 0 -10 3l-42 25q-14 8 -14 24q0 9 5 21z" />
<glyph unicode="&#xd2;" horiz-adv-x="1514" d="M110 580q0 400 214 642t554 242q305 0 461 -162.5t156 -447.5q0 -400 -214 -642t-554 -242q-305 0 -461 162.5t-156 447.5zM315 556q0 -205 106.5 -317.5t316.5 -112.5q220 0 386 183.5t166 568.5q0 205 -106.5 317.5t-316.5 112.5q-220 0 -386 -183.5t-166 -568.5z M629 1733q-24 22 -24 35q0 17 45 17h145q49 0 76 -37l111 -155q15 -21 15 -34q0 -19 -35 -19h-82q-46 0 -76 29z" />
<glyph unicode="&#xd3;" horiz-adv-x="1514" d="M110 580q0 400 214 642t554 242q305 0 461 -162.5t156 -447.5q0 -400 -214 -642t-554 -242q-305 0 -461 162.5t-156 447.5zM315 556q0 -205 106.5 -317.5t316.5 -112.5q220 0 386 183.5t166 568.5q0 205 -106.5 317.5t-316.5 112.5q-220 0 -386 -183.5t-166 -568.5z M834 1593l155 155q37 37 86 37h169q40 0 40 -14q0 -13 -33 -38l-221 -164q-40 -29 -86 -29h-106q-30 0 -30 14q0 13 26 39z" />
<glyph unicode="&#xd4;" horiz-adv-x="1514" d="M110 580q0 400 214 642t554 242q305 0 461 -162.5t156 -447.5q0 -400 -214 -642t-554 -242q-305 0 -461 162.5t-156 447.5zM315 556q0 -205 106.5 -317.5t316.5 -112.5q220 0 386 183.5t166 568.5q0 205 -106.5 317.5t-316.5 112.5q-220 0 -386 -183.5t-166 -568.5z M539 1589q-1 5 -1 9q0 26 39 42l248 104q43 18 68 18h70q25 0 60 -18l234 -122q22 -12 22 -29q0 -10 -8 -22l-28 -41q-13 -20 -33 -20q-12 0 -26 7l-257 132h-2l-319 -132q-17 -7 -28 -7q-20 0 -25 20z" />
<glyph unicode="&#xd5;" horiz-adv-x="1514" d="M110 580q0 400 214 642t554 242q305 0 461 -162.5t156 -447.5q0 -400 -214 -642t-554 -242q-305 0 -461 162.5t-156 447.5zM315 556q0 -205 106.5 -317.5t316.5 -112.5q220 0 386 183.5t166 568.5q0 205 -106.5 317.5t-316.5 112.5q-220 0 -386 -183.5t-166 -568.5z M554 1620q28 65 85.5 108t146.5 43q75 0 159 -49t128 -49q48 0 81 27t49 52q14 21 28 21q5 0 10 -3l42 -25q14 -8 14 -24q0 -9 -5 -21q-28 -65 -85.5 -108t-146.5 -43q-75 0 -159 49t-128 49q-48 0 -81 -27t-49 -52q-14 -21 -28 -21q-5 0 -10 3l-42 25q-14 8 -14 24 q0 9 5 21z" />
<glyph unicode="&#xd6;" horiz-adv-x="1514" d="M110 580q0 400 214 642t554 242q305 0 461 -162.5t156 -447.5q0 -400 -214 -642t-554 -242q-305 0 -461 162.5t-156 447.5zM315 556q0 -205 106.5 -317.5t316.5 -112.5q220 0 386 183.5t166 568.5q0 205 -106.5 317.5t-316.5 112.5q-220 0 -386 -183.5t-166 -568.5z M575 1595l21 92q11 45 56 45h92q36 0 36 -29q0 -7 -2 -16l-21 -92q-10 -45 -55 -45h-92q-37 0 -37 30q0 7 2 15zM1053 1595l21 92q11 45 56 45h92q36 0 36 -29q0 -7 -2 -16l-21 -92q-10 -45 -55 -45h-92q-37 0 -37 30q0 7 2 15z" />
<glyph unicode="&#xd7;" horiz-adv-x="1280" d="M272 347q-25 25 8 57l321 321l-321 321q-32 32 -8 56l36 36q25 25 56 -7l321 -321l323 322q32 32 56 7l36 -35q25 -25 -7 -57l-322 -322l322 -323q32 -32 7 -56l-36 -36q-25 -25 -56 7l-323 323l-321 -321q-32 -32 -56 -7z" />
<glyph unicode="&#xd9;" horiz-adv-x="1402" d="M176 547l192 832q13 55 63 55h92q40 0 40 -35q0 -9 -3 -20l-185 -802q-33 -146 -33 -239q0 -85 28 -126q59 -86 240 -86q146 0 262.5 85.5t180.5 365.5l185 802q13 55 63 55h92q40 0 40 -35q0 -9 -3 -20l-192 -832q-73 -317 -234 -447t-430 -130q-199 0 -335 130 q-88 85 -88 248q0 88 25 199zM669 1733q-24 22 -24 35q0 17 45 17h145q49 0 76 -37l111 -155q15 -21 15 -34q0 -19 -35 -19h-82q-46 0 -76 29z" />
<glyph unicode="&#xda;" horiz-adv-x="1402" d="M176 547l192 832q13 55 63 55h92q40 0 40 -35q0 -9 -3 -20l-185 -802q-33 -146 -33 -239q0 -85 28 -126q59 -86 240 -86q146 0 262.5 85.5t180.5 365.5l185 802q13 55 63 55h92q40 0 40 -35q0 -9 -3 -20l-192 -832q-73 -317 -234 -447t-430 -130q-199 0 -335 130 q-88 85 -88 248q0 88 25 199zM874 1593l155 155q37 37 86 37h169q40 0 40 -14q0 -13 -33 -38l-221 -164q-40 -29 -86 -29h-106q-30 0 -30 14q0 13 26 39z" />
<glyph unicode="&#xdb;" horiz-adv-x="1402" d="M176 547l192 832q13 55 63 55h92q40 0 40 -35q0 -9 -3 -20l-185 -802q-33 -146 -33 -239q0 -85 28 -126q59 -86 240 -86q146 0 262.5 85.5t180.5 365.5l185 802q13 55 63 55h92q40 0 40 -35q0 -9 -3 -20l-192 -832q-73 -317 -234 -447t-430 -130q-199 0 -335 130 q-88 85 -88 248q0 88 25 199zM579 1589q-1 5 -1 9q0 26 39 42l248 104q43 18 68 18h70q25 0 60 -18l234 -122q22 -12 22 -29q0 -10 -8 -22l-28 -41q-13 -20 -33 -20q-12 0 -26 7l-257 132h-2l-319 -132q-17 -7 -28 -7q-20 0 -25 20z" />
<glyph unicode="&#xdc;" horiz-adv-x="1402" d="M176 547l192 832q13 55 63 55h92q40 0 40 -35q0 -9 -3 -20l-185 -802q-33 -146 -33 -239q0 -85 28 -126q59 -86 240 -86q146 0 262.5 85.5t180.5 365.5l185 802q13 55 63 55h92q40 0 40 -35q0 -9 -3 -20l-192 -832q-73 -317 -234 -447t-430 -130q-199 0 -335 130 q-88 85 -88 248q0 88 25 199zM618 1595l21 92q11 45 56 45h92q36 0 36 -29q0 -7 -2 -16l-21 -92q-10 -45 -55 -45h-92q-37 0 -37 30q0 7 2 15zM1096 1595l21 92q11 45 56 45h92q36 0 36 -29q0 -7 -2 -16l-21 -92q-10 -45 -55 -45h-92q-37 0 -37 30q0 7 2 15z" />
<glyph unicode="&#xdd;" horiz-adv-x="1302" d="M250 1368q-8 19 -8 32q0 34 50 34h93q44 0 61 -49l156 -437l38 -110q23 -69 37 -129h4q42 60 83 112l102 127l358 437q40 49 83 49h125q38 0 38 -20q0 -16 -26 -46l-681 -778l-123 -535q-13 -55 -63 -55h-92q-40 0 -40 35q0 9 3 20l123 535zM824 1593l155 155 q37 37 86 37h169q40 0 40 -14q0 -13 -33 -38l-221 -164q-40 -29 -86 -29h-106q-30 0 -30 14q0 13 26 39z" />
<glyph unicode="&#xdf;" horiz-adv-x="1216" d="M-60 -355l345 1494q47 202 182.5 278t321.5 76q183 0 268 -83.5t85 -206.5q0 -137 -88 -229t-260 -187l-1 -3q163 -26 228 -132t65 -230q0 -177 -135 -308t-326 -131q-96 0 -152 13.5t-99 51.5q-22 19 1 54l38 58q11 16 26 16q16 0 38 -18q17 -14 59 -29.5t95 -15.5 q101 0 185 86t84 213q0 161 -75 211t-203 50q-12 0 -14 25l-10 114q-2 20 22 33l92 49q94 50 174 122.5t80 171.5q0 87 -40 131t-152 44q-102 0 -194.5 -55t-125.5 -198l-338 -1465q-10 -45 -55 -45h-86q-37 0 -37 30q0 7 2 15z" />
<glyph unicode="&#xe0;" horiz-adv-x="1099" d="M66 339q0 275 186.5 501.5t391.5 226.5q90 0 148 -37.5t86 -87.5h2l21 63q15 45 49 45h84q37 0 37 -30q0 -7 -2 -15l-222 -960q-10 -45 -55 -45h-81q-37 0 -37 31q0 6 2 14l25 120h-2q-49 -65 -130.5 -123.5t-181.5 -58.5q-145 0 -233 87.5t-88 268.5zM252 332 q0 -66 35.5 -142.5t145.5 -76.5q90 0 199 119t139 248l67 290q0 90 -57.5 128.5t-142.5 38.5q-140 0 -263 -179.5t-123 -425.5zM468 1383q-15 20 -15 33q0 19 37 19h101q54 0 75 -37l112 -195q11 -20 11 -33q0 -20 -30 -20h-64q-56 0 -77 29z" />
<glyph unicode="&#xe1;" horiz-adv-x="1099" d="M66 339q0 275 186.5 501.5t391.5 226.5q90 0 148 -37.5t86 -87.5h2l21 63q15 45 49 45h84q37 0 37 -30q0 -7 -2 -15l-222 -960q-10 -45 -55 -45h-81q-37 0 -37 31q0 6 2 14l25 120h-2q-49 -65 -130.5 -123.5t-181.5 -58.5q-145 0 -233 87.5t-88 268.5zM252 332 q0 -66 35.5 -142.5t145.5 -76.5q90 0 199 119t139 248l67 290q0 90 -57.5 128.5t-142.5 38.5q-140 0 -263 -179.5t-123 -425.5zM579 1203l166 195q32 37 87 37h121q31 0 31 -14q0 -13 -25 -38l-206 -204q-30 -29 -85 -29h-84q-26 0 -26 15q0 13 21 38z" />
<glyph unicode="&#xe2;" horiz-adv-x="1099" d="M66 339q0 275 186.5 501.5t391.5 226.5q90 0 148 -37.5t86 -87.5h2l21 63q15 45 49 45h84q37 0 37 -30q0 -7 -2 -15l-222 -960q-10 -45 -55 -45h-81q-37 0 -37 31q0 6 2 14l25 120h-2q-49 -65 -130.5 -123.5t-181.5 -58.5q-145 0 -233 87.5t-88 268.5zM252 332 q0 -66 35.5 -142.5t145.5 -76.5q90 0 199 119t139 248l67 290q0 90 -57.5 128.5t-142.5 38.5q-140 0 -263 -179.5t-123 -425.5zM374 1190q-5 7 -5 15q0 19 30 40l234 163q37 26 62 26h50q25 0 50 -26l174 -179q14 -14 14 -28t-15 -27l-25 -23q-14 -13 -28 -13t-29 15 l-172 179h-2l-256 -179q-21 -15 -35 -15t-22 13z" />
<glyph unicode="&#xe3;" horiz-adv-x="1099" d="M66 339q0 275 186.5 501.5t391.5 226.5q90 0 148 -37.5t86 -87.5h2l21 63q15 45 49 45h84q37 0 37 -30q0 -7 -2 -15l-222 -960q-10 -45 -55 -45h-81q-37 0 -37 31q0 6 2 14l25 120h-2q-49 -65 -130.5 -123.5t-181.5 -58.5q-145 0 -233 87.5t-88 268.5zM252 332 q0 -66 35.5 -142.5t145.5 -76.5q90 0 199 119t139 248l67 290q0 90 -57.5 128.5t-142.5 38.5q-140 0 -263 -179.5t-123 -425.5zM371 1219q21 71 71.5 116t130.5 45q68 0 138 -55t109 -55q43 0 64 22t37 60q13 30 37 20l39 -17q15 -7 15 -25q0 -8 -3 -19q-21 -71 -71.5 -116 t-130.5 -45q-68 0 -138 55t-109 55q-43 0 -64 -22t-37 -60q-13 -30 -37 -20l-39 17q-15 7 -15 25q0 8 3 19z" />
<glyph unicode="&#xe4;" horiz-adv-x="1099" d="M66 339q0 275 186.5 501.5t391.5 226.5q90 0 148 -37.5t86 -87.5h2l21 63q15 45 49 45h84q37 0 37 -30q0 -7 -2 -15l-222 -960q-10 -45 -55 -45h-81q-37 0 -37 31q0 6 2 14l25 120h-2q-49 -65 -130.5 -123.5t-181.5 -58.5q-145 0 -233 87.5t-88 268.5zM252 332 q0 -66 35.5 -142.5t145.5 -76.5q90 0 199 119t139 248l67 290q0 90 -57.5 128.5t-142.5 38.5q-140 0 -263 -179.5t-123 -425.5zM407 1285l20 86q10 45 55 45h86q37 0 37 -30q0 -7 -2 -15l-20 -86q-11 -45 -56 -45h-86q-36 0 -36 29q0 7 2 16zM813 1285l20 86q10 45 55 45h86 q37 0 37 -30q0 -7 -2 -15l-20 -86q-11 -45 -56 -45h-86q-36 0 -36 29q0 7 2 16z" />
<glyph unicode="&#xe5;" horiz-adv-x="1099" d="M66 339q0 275 186.5 501.5t391.5 226.5q90 0 148 -37.5t86 -87.5h2l21 63q15 45 49 45h84q37 0 37 -30q0 -7 -2 -15l-222 -960q-10 -45 -55 -45h-81q-37 0 -37 31q0 6 2 14l25 120h-2q-49 -65 -130.5 -123.5t-181.5 -58.5q-145 0 -233 87.5t-88 268.5zM252 332 q0 -66 35.5 -142.5t145.5 -76.5q90 0 199 119t139 248l67 290q0 90 -57.5 128.5t-142.5 38.5q-140 0 -263 -179.5t-123 -425.5zM479 1313q0 75 52.5 127.5t127.5 52.5t127.5 -52.5t52.5 -127.5t-52.5 -127.5t-127.5 -52.5t-127.5 52.5t-52.5 127.5zM555 1313q0 -44 30 -74 t74 -30t74 30t30 74t-30 74t-74 30t-74 -30t-30 -74z" />
<glyph unicode="&#xe6;" horiz-adv-x="1698" d="M35 220q0 182 165.5 290t564.5 128l16 68q10 44 10 80q0 52 -20 88q-36 63 -157 63q-92 0 -155 -24.5t-134 -92.5q-29 -28 -51 -3l-47 55q-9 11 -9 22q0 18 24 38q88 72 196 103.5t192 31.5q106 0 180 -31.5t111 -112.5h2q39 40 133 92t236 52q154 0 240 -92.5t86 -196.5 q0 -142 -117.5 -212.5t-361.5 -120.5l-224 -46q-6 -38 -6 -40q0 -103 55 -174t173 -71q98 0 167.5 45t92.5 73q24 29 44 29q10 0 19 -8l56 -51q23 -21 -6 -56q-31 -38 -121 -100.5t-276 -62.5q-117 0 -205.5 48t-132.5 151h-2q-94 -92 -204 -145.5t-206 -53.5 q-187 0 -257.5 63.5t-70.5 173.5zM217 242q0 -62 36.5 -93t124.5 -31q100 0 191.5 41.5t164.5 118.5q-11 45 -11 97q0 62 16 132q-325 -21 -423.5 -95t-98.5 -170zM920 538l183 37q200 40 269.5 82.5t69.5 128.5q0 68 -44.5 109.5t-138.5 41.5q-107 0 -201 -92t-138 -307z " />
<glyph unicode="&#xe7;" horiz-adv-x="1026" d="M68 402q0 265 163.5 465t428.5 200q162 0 231 -56.5t100 -124.5q6 -13 6 -23q0 -19 -20 -29l-66 -35q-10 -5 -19 -5q-21 0 -34 30q-14 32 -64 72.5t-147 40.5q-156 0 -274.5 -140t-118.5 -410q0 -122 58.5 -198t188.5 -76q103 0 169 53.5t94 95.5q23 35 53 14l63 -46 q29 -21 5 -55q-29 -40 -127 -116t-270 -76q-234 0 -327 133.5t-93 285.5zM205 -359l13 38q11 32 40 17q24 -12 86 -12q48 0 79 19t31 52q0 25 -24.5 40.5t-73.5 15.5h-28q-22 0 -18 25q7 42 18 55l89 109q18 22 45 22h69q32 0 14 -22l-78 -96l-1 -3q67 -13 90 -43t23 -89 q0 -82 -70 -133.5t-168 -51.5q-69 0 -125 21q-14 5 -14 20q0 7 3 16z" />
<glyph unicode="&#xe8;" horiz-adv-x="1078" d="M68 396q0 300 156.5 485.5t427.5 185.5q155 0 250.5 -88.5t95.5 -200.5q0 -148 -141.5 -218t-350.5 -112l-246 -49q-6 -38 -6 -40q0 -99 54 -172t189 -73q115 0 185 42t95 76q23 30 42 30q11 0 21 -9l59 -51q19 -17 -6 -56q-23 -36 -124 -99.5t-296 -63.5 q-213 0 -309 123.5t-96 289.5zM265 538l205 40q140 27 246 74.5t106 133.5q0 68 -61.5 109.5t-141.5 41.5q-121 0 -215.5 -92t-138.5 -307zM476 1383q-15 20 -15 33q0 19 37 19h101q54 0 75 -37l112 -195q11 -20 11 -33q0 -20 -30 -20h-64q-56 0 -77 29z" />
<glyph unicode="&#xe9;" horiz-adv-x="1078" d="M68 396q0 300 156.5 485.5t427.5 185.5q155 0 250.5 -88.5t95.5 -200.5q0 -148 -141.5 -218t-350.5 -112l-246 -49q-6 -38 -6 -40q0 -99 54 -172t189 -73q115 0 185 42t95 76q23 30 42 30q11 0 21 -9l59 -51q19 -17 -6 -56q-23 -36 -124 -99.5t-296 -63.5 q-213 0 -309 123.5t-96 289.5zM265 538l205 40q140 27 246 74.5t106 133.5q0 68 -61.5 109.5t-141.5 41.5q-121 0 -215.5 -92t-138.5 -307zM587 1203l166 195q32 37 87 37h121q31 0 31 -14q0 -13 -25 -38l-206 -204q-30 -29 -85 -29h-84q-26 0 -26 15q0 13 21 38z" />
<glyph unicode="&#xea;" horiz-adv-x="1078" d="M68 396q0 300 156.5 485.5t427.5 185.5q155 0 250.5 -88.5t95.5 -200.5q0 -148 -141.5 -218t-350.5 -112l-246 -49q-6 -38 -6 -40q0 -99 54 -172t189 -73q115 0 185 42t95 76q23 30 42 30q11 0 21 -9l59 -51q19 -17 -6 -56q-23 -36 -124 -99.5t-296 -63.5 q-213 0 -309 123.5t-96 289.5zM265 538l205 40q140 27 246 74.5t106 133.5q0 68 -61.5 109.5t-141.5 41.5q-121 0 -215.5 -92t-138.5 -307zM382 1190q-5 7 -5 15q0 19 30 40l234 163q37 26 62 26h50q25 0 50 -26l174 -179q14 -14 14 -28t-15 -27l-25 -23q-14 -13 -28 -13 t-29 15l-172 179h-2l-256 -179q-21 -15 -35 -15t-22 13z" />
<glyph unicode="&#xeb;" horiz-adv-x="1078" d="M68 396q0 300 156.5 485.5t427.5 185.5q155 0 250.5 -88.5t95.5 -200.5q0 -148 -141.5 -218t-350.5 -112l-246 -49q-6 -38 -6 -40q0 -99 54 -172t189 -73q115 0 185 42t95 76q23 30 42 30q11 0 21 -9l59 -51q19 -17 -6 -56q-23 -36 -124 -99.5t-296 -63.5 q-213 0 -309 123.5t-96 289.5zM265 538l205 40q140 27 246 74.5t106 133.5q0 68 -61.5 109.5t-141.5 41.5q-121 0 -215.5 -92t-138.5 -307zM415 1285l20 86q10 45 55 45h86q37 0 37 -30q0 -7 -2 -15l-20 -86q-11 -45 -56 -45h-86q-36 0 -36 29q0 7 2 16zM821 1285l20 86 q10 45 55 45h86q37 0 37 -30q0 -7 -2 -15l-20 -86q-11 -45 -56 -45h-86q-36 0 -36 29q0 7 2 16z" />
<glyph unicode="&#xf1;" horiz-adv-x="1128" d="M32 45l222 960q10 45 55 45h84q37 0 37 -30q0 -7 -2 -15l-27 -120h4q59 73 153.5 127.5t214.5 54.5q170 0 232 -103q37 -61 37 -150q0 -59 -16 -130l-148 -639q-10 -45 -55 -45h-86q-37 0 -37 30q0 7 2 15l137 591q22 95 22 156q0 65 -25 92q-48 53 -158 53 q-120 0 -218.5 -116.5t-133.5 -266.5l-118 -509q-10 -45 -55 -45h-86q-37 0 -37 30q0 7 2 15zM418 1219q21 71 71.5 116t130.5 45q68 0 138 -55t109 -55q43 0 64 22t37 60q13 30 37 20l39 -17q15 -7 15 -25q0 -8 -3 -19q-21 -71 -71.5 -116t-130.5 -45q-68 0 -138 55 t-109 55q-43 0 -64 -22t-37 -60q-13 -30 -37 -20l-39 17q-15 7 -15 25q0 8 3 19z" />
<glyph unicode="&#xf2;" horiz-adv-x="1148" d="M68 402q0 264 163.5 464.5t428.5 200.5q234 0 327 -134.5t93 -284.5q0 -264 -163.5 -464.5t-428.5 -200.5q-234 0 -327 134.5t-93 284.5zM254 387q0 -125 58.5 -199.5t188.5 -74.5q156 0 274.5 141.5t118.5 408.5q0 125 -58.5 199.5t-188.5 74.5q-156 0 -274.5 -141.5 t-118.5 -408.5zM484 1383q-15 20 -15 33q0 19 37 19h101q54 0 75 -37l112 -195q11 -20 11 -33q0 -20 -30 -20h-64q-56 0 -77 29z" />
<glyph unicode="&#xf3;" horiz-adv-x="1148" d="M68 402q0 264 163.5 464.5t428.5 200.5q234 0 327 -134.5t93 -284.5q0 -264 -163.5 -464.5t-428.5 -200.5q-234 0 -327 134.5t-93 284.5zM254 387q0 -125 58.5 -199.5t188.5 -74.5q156 0 274.5 141.5t118.5 408.5q0 125 -58.5 199.5t-188.5 74.5q-156 0 -274.5 -141.5 t-118.5 -408.5zM595 1203l166 195q32 37 87 37h121q31 0 31 -14q0 -13 -25 -38l-206 -204q-30 -29 -85 -29h-84q-26 0 -26 15q0 13 21 38z" />
<glyph unicode="&#xf4;" horiz-adv-x="1148" d="M68 402q0 264 163.5 464.5t428.5 200.5q234 0 327 -134.5t93 -284.5q0 -264 -163.5 -464.5t-428.5 -200.5q-234 0 -327 134.5t-93 284.5zM254 387q0 -125 58.5 -199.5t188.5 -74.5q156 0 274.5 141.5t118.5 408.5q0 125 -58.5 199.5t-188.5 74.5q-156 0 -274.5 -141.5 t-118.5 -408.5zM390 1190q-5 7 -5 15q0 19 30 40l234 163q37 26 62 26h50q25 0 50 -26l174 -179q14 -14 14 -28t-15 -27l-25 -23q-14 -13 -28 -13t-29 15l-172 179h-2l-256 -179q-21 -15 -35 -15t-22 13z" />
<glyph unicode="&#xf5;" horiz-adv-x="1148" d="M68 402q0 264 163.5 464.5t428.5 200.5q234 0 327 -134.5t93 -284.5q0 -264 -163.5 -464.5t-428.5 -200.5q-234 0 -327 134.5t-93 284.5zM254 387q0 -125 58.5 -199.5t188.5 -74.5q156 0 274.5 141.5t118.5 408.5q0 125 -58.5 199.5t-188.5 74.5q-156 0 -274.5 -141.5 t-118.5 -408.5zM387 1219q21 71 71.5 116t130.5 45q68 0 138 -55t109 -55q43 0 64 22t37 60q13 30 37 20l39 -17q15 -7 15 -25q0 -8 -3 -19q-21 -71 -71.5 -116t-130.5 -45q-68 0 -138 55t-109 55q-43 0 -64 -22t-37 -60q-13 -30 -37 -20l-39 17q-15 7 -15 25q0 8 3 19z" />
<glyph unicode="&#xf6;" horiz-adv-x="1148" d="M68 402q0 264 163.5 464.5t428.5 200.5q234 0 327 -134.5t93 -284.5q0 -264 -163.5 -464.5t-428.5 -200.5q-234 0 -327 134.5t-93 284.5zM254 387q0 -125 58.5 -199.5t188.5 -74.5q156 0 274.5 141.5t118.5 408.5q0 125 -58.5 199.5t-188.5 74.5q-156 0 -274.5 -141.5 t-118.5 -408.5zM440 1285l20 86q10 45 55 45h86q37 0 37 -30q0 -7 -2 -15l-20 -86q-11 -45 -56 -45h-86q-36 0 -36 29q0 7 2 16zM846 1285l20 86q10 45 55 45h86q37 0 37 -30q0 -7 -2 -15l-20 -86q-11 -45 -56 -45h-86q-36 0 -36 29q0 7 2 16z" />
<glyph unicode="&#xf7;" horiz-adv-x="1280" d="M127 700v50q0 35 45 35h1030q45 0 45 -35v-50q0 -35 -45 -35h-1030q-45 0 -45 35zM586 280v122q0 45 45 45h112q45 0 45 -45v-122q0 -45 -45 -45h-112q-45 0 -45 45zM586 1048v122q0 45 45 45h112q45 0 45 -45v-122q0 -45 -45 -45h-112q-45 0 -45 45z" />
<glyph unicode="&#xf9;" horiz-adv-x="1120" d="M104 366l148 639q10 45 55 45h86q37 0 37 -30q0 -7 -2 -15l-136 -591q-22 -95 -22 -157q0 -65 25 -92q48 -52 153 -52q147 0 230 116.5t118 266.5l118 509q10 45 55 45h86q37 0 37 -30q0 -7 -2 -15l-222 -960q-10 -45 -55 -45h-84q-37 0 -37 30q0 7 2 15l28 120h-4 q-59 -73 -154.5 -127.5t-210.5 -54.5q-160 0 -225 103q-40 62 -40 154q0 57 16 126zM509 1383q-15 20 -15 33q0 19 37 19h101q54 0 75 -37l112 -195q11 -20 11 -33q0 -20 -30 -20h-64q-56 0 -77 29z" />
<glyph unicode="&#xfa;" horiz-adv-x="1120" d="M104 366l148 639q10 45 55 45h86q37 0 37 -30q0 -7 -2 -15l-136 -591q-22 -95 -22 -157q0 -65 25 -92q48 -52 153 -52q147 0 230 116.5t118 266.5l118 509q10 45 55 45h86q37 0 37 -30q0 -7 -2 -15l-222 -960q-10 -45 -55 -45h-84q-37 0 -37 30q0 7 2 15l28 120h-4 q-59 -73 -154.5 -127.5t-210.5 -54.5q-160 0 -225 103q-40 62 -40 154q0 57 16 126zM620 1203l166 195q32 37 87 37h121q31 0 31 -14q0 -13 -25 -38l-206 -204q-30 -29 -85 -29h-84q-26 0 -26 15q0 13 21 38z" />
<glyph unicode="&#xfb;" horiz-adv-x="1120" d="M104 366l148 639q10 45 55 45h86q37 0 37 -30q0 -7 -2 -15l-136 -591q-22 -95 -22 -157q0 -65 25 -92q48 -52 153 -52q147 0 230 116.5t118 266.5l118 509q10 45 55 45h86q37 0 37 -30q0 -7 -2 -15l-222 -960q-10 -45 -55 -45h-84q-37 0 -37 30q0 7 2 15l28 120h-4 q-59 -73 -154.5 -127.5t-210.5 -54.5q-160 0 -225 103q-40 62 -40 154q0 57 16 126zM415 1190q-5 7 -5 15q0 19 30 40l234 163q37 26 62 26h50q25 0 50 -26l174 -179q14 -14 14 -28t-15 -27l-25 -23q-14 -13 -28 -13t-29 15l-172 179h-2l-256 -179q-21 -15 -35 -15t-22 13z " />
<glyph unicode="&#xfc;" horiz-adv-x="1120" d="M104 366l148 639q10 45 55 45h86q37 0 37 -30q0 -7 -2 -15l-136 -591q-22 -95 -22 -157q0 -65 25 -92q48 -52 153 -52q147 0 230 116.5t118 266.5l118 509q10 45 55 45h86q37 0 37 -30q0 -7 -2 -15l-222 -960q-10 -45 -55 -45h-84q-37 0 -37 30q0 7 2 15l28 120h-4 q-59 -73 -154.5 -127.5t-210.5 -54.5q-160 0 -225 103q-40 62 -40 154q0 57 16 126zM444 1285l20 86q10 45 55 45h86q37 0 37 -30q0 -7 -2 -15l-20 -86q-11 -45 -56 -45h-86q-36 0 -36 29q0 7 2 16zM850 1285l20 86q10 45 55 45h86q37 0 37 -30q0 -7 -2 -15l-20 -86 q-11 -45 -56 -45h-86q-36 0 -36 29q0 7 2 16z" />
<glyph unicode="&#xfd;" horiz-adv-x="1128" d="M0 -306q-14 19 -14 36q0 18 16 32l56 52q32 29 50 0q30 -48 87 -74.5t170 -26.5q121 0 206.5 68.5t122.5 228.5q23 102 37 155h-4q-59 -73 -150 -127.5t-218 -54.5q-170 0 -232 103q-37 61 -37 150q0 59 16 130l148 639q10 45 55 45h86q37 0 37 -30q0 -7 -2 -15 l-136 -591q-22 -96 -22 -157q0 -65 24 -92q48 -52 158 -52q106 0 211.5 113.5t141.5 269.5l117 509q10 45 55 45h86q37 0 37 -30q0 -7 -2 -15l-234 -1014q-47 -205 -158 -306.5t-374 -101.5q-171 0 -236 33t-98 78zM626 1203l166 195q32 37 87 37h121q31 0 31 -14 q0 -13 -25 -38l-206 -204q-30 -29 -85 -29h-84q-26 0 -26 15q0 13 21 38z" />
<glyph unicode="&#xfe;" horiz-adv-x="1119" d="M-60 -355l412 1786q10 45 55 45h86q37 0 37 -30q0 -7 -2 -15l-112 -485q-7 -29 -16 -61h2q44 79 137 130.5t173 51.5q190 0 264.5 -116.5t74.5 -279.5q0 -255 -161 -471.5t-379 -216.5q-111 0 -173 33.5t-113 101.5h-2q-4 -28 -12 -61l-95 -412q-10 -45 -55 -45h-86 q-37 0 -37 30q0 7 2 15zM265 290q10 -100 65 -138.5t167 -38.5q152 0 260 169.5t108 395.5q0 104 -45 181.5t-158 77.5q-98 0 -199.5 -117.5t-132.5 -249.5z" />
<glyph unicode="&#xff;" horiz-adv-x="1128" d="M0 -306q-14 19 -14 36q0 18 16 32l56 52q32 29 50 0q30 -48 87 -74.5t170 -26.5q121 0 206.5 68.5t122.5 228.5q23 102 37 155h-4q-59 -73 -150 -127.5t-218 -54.5q-170 0 -232 103q-37 61 -37 150q0 59 16 130l148 639q10 45 55 45h86q37 0 37 -30q0 -7 -2 -15 l-136 -591q-22 -96 -22 -157q0 -65 24 -92q48 -52 158 -52q106 0 211.5 113.5t141.5 269.5l117 509q10 45 55 45h86q37 0 37 -30q0 -7 -2 -15l-234 -1014q-47 -205 -158 -306.5t-374 -101.5q-171 0 -236 33t-98 78zM450 1285l20 86q10 45 55 45h86q37 0 37 -30q0 -7 -2 -15 l-20 -86q-11 -45 -56 -45h-86q-36 0 -36 29q0 7 2 16zM856 1285l20 86q10 45 55 45h86q37 0 37 -30q0 -7 -2 -15l-20 -86q-11 -45 -56 -45h-86q-36 0 -36 29q0 7 2 16z" />
<glyph unicode="&#x100;" horiz-adv-x="1360" d="M-59 66l770 1307q36 61 80 61h140q41 0 52 -61l226 -1307q2 -11 2 -21q0 -45 -44 -45h-91q-53 0 -61 49l-57 331h-615l-195 -331q-29 -49 -83 -49h-112q-29 0 -29 21q0 16 17 45zM441 544h488l-70 400q-13 72 -21 157.5t-8 159.5h-4q-18 -71 -56 -145t-95 -172zM534 1598 l11 50q10 40 55 40h640q37 0 37 -27q0 -6 -2 -13l-11 -50q-9 -40 -54 -40h-640q-38 0 -38 28q0 5 2 12z" />
<glyph unicode="&#x101;" horiz-adv-x="1099" d="M66 339q0 275 186.5 501.5t391.5 226.5q90 0 148 -37.5t86 -87.5h2l21 63q15 45 49 45h84q37 0 37 -30q0 -7 -2 -15l-222 -960q-10 -45 -55 -45h-81q-37 0 -37 31q0 6 2 14l25 120h-2q-49 -65 -130.5 -123.5t-181.5 -58.5q-145 0 -233 87.5t-88 268.5zM252 332 q0 -66 35.5 -142.5t145.5 -76.5q90 0 199 119t139 248l67 290q0 90 -57.5 128.5t-142.5 38.5q-140 0 -263 -179.5t-123 -425.5zM383 1275l10 40q8 35 53 35h528q38 0 38 -25q0 -5 -1 -10l-10 -40q-8 -35 -53 -35h-528q-38 0 -38 25q0 5 1 10z" />
<glyph unicode="&#x102;" horiz-adv-x="1360" d="M-59 66l770 1307q36 61 80 61h140q41 0 52 -61l226 -1307q2 -11 2 -21q0 -45 -44 -45h-91q-53 0 -61 49l-57 331h-615l-195 -331q-29 -49 -83 -49h-112q-29 0 -29 21q0 16 17 45zM441 544h488l-70 400q-13 72 -21 157.5t-8 159.5h-4q-18 -71 -56 -145t-95 -172zM589 1784 q-4 14 -4 24q0 27 25 34l52 15q7 2 13 2q24 0 37 -30q26 -60 69.5 -95.5t141.5 -35.5q84 0 154.5 45t111.5 96q16 20 35 20q10 0 22 -7l45 -28q17 -11 17 -28q0 -15 -12 -34q-66 -108 -174.5 -161t-215.5 -53q-111 0 -196.5 57t-120.5 179z" />
<glyph unicode="&#x103;" horiz-adv-x="1099" d="M66 339q0 275 186.5 501.5t391.5 226.5q90 0 148 -37.5t86 -87.5h2l21 63q15 45 49 45h84q37 0 37 -30q0 -7 -2 -15l-222 -960q-10 -45 -55 -45h-81q-37 0 -37 31q0 6 2 14l25 120h-2q-49 -65 -130.5 -123.5t-181.5 -58.5q-145 0 -233 87.5t-88 268.5zM252 332 q0 -66 35.5 -142.5t145.5 -76.5q90 0 199 119t139 248l67 290q0 90 -57.5 128.5t-142.5 38.5q-140 0 -263 -179.5t-123 -425.5zM405 1370q-5 13 -5 23q0 22 23 30l48 18q8 3 14 3q20 0 30 -25q27 -67 62 -105t112 -38q90 0 144.5 42.5t93.5 103.5q13 20 29 20q8 0 17 -5 l45 -27q18 -10 18 -27q0 -12 -10 -28q-64 -112 -160.5 -160.5t-195.5 -48.5q-106 0 -164 52t-101 172z" />
<glyph unicode="&#x105;" horiz-adv-x="1067" d="M66 339q0 275 186.5 501.5t391.5 226.5q90 0 148 -37.5t86 -87.5h2l21 63q15 45 49 45h84q37 0 37 -30q0 -7 -2 -15l-222 -960q-7 -30 -27 -45l-166 -128q-73 -58 -73 -105q0 -27 15 -40.5t51 -13.5q43 0 73 6q25 5 27 -22l6 -77q2 -24 -18 -28q-58 -9 -118 -9 q-100 0 -148 37.5t-48 95.5q0 52 17.5 93.5t63.5 80t147 104.5q19 13 27 51l25 120h-2q-49 -65 -130.5 -123.5t-181.5 -58.5q-145 0 -233 87.5t-88 268.5zM252 332q0 -66 35.5 -142.5t145.5 -76.5q90 0 199 119t139 248l67 290q0 90 -57.5 128.5t-142.5 38.5 q-140 0 -263 -179.5t-123 -425.5z" />
<glyph unicode="&#x106;" horiz-adv-x="1392" d="M110 580q0 395 210.5 639.5t587.5 244.5q184 0 298 -64t161 -170q8 -18 8 -32q0 -30 -31 -48l-78 -46q-7 -4 -14 -4q-20 0 -38 32q-30 54 -109 115t-214 61q-250 0 -413 -183t-163 -568q0 -182 96 -306.5t326 -124.5q136 0 230.5 71.5t146.5 143.5q30 42 57 42 q11 0 21 -7l90 -58q15 -9 15 -26q0 -21 -23 -54q-79 -115 -213 -191.5t-351 -76.5q-302 0 -451 172.5t-149 437.5zM864 1593l155 155q37 37 86 37h169q40 0 40 -14q0 -13 -33 -38l-221 -164q-40 -29 -86 -29h-106q-30 0 -30 14q0 13 26 39z" />
<glyph unicode="&#x107;" horiz-adv-x="1026" d="M68 402q0 265 163.5 465t428.5 200q162 0 231 -56.5t100 -124.5q6 -13 6 -23q0 -19 -20 -29l-66 -35q-10 -5 -19 -5q-21 0 -34 30q-14 32 -64 72.5t-147 40.5q-156 0 -274.5 -140t-118.5 -410q0 -122 58.5 -198t188.5 -76q103 0 169 53.5t94 95.5q23 35 53 14l63 -46 q29 -21 5 -55q-29 -40 -127 -116t-270 -76q-234 0 -327 133.5t-93 285.5zM595 1203l166 195q32 37 87 37h121q31 0 31 -14q0 -13 -25 -38l-206 -204q-30 -29 -85 -29h-84q-26 0 -26 15q0 13 21 38z" />
<glyph unicode="&#x108;" horiz-adv-x="1392" d="M110 580q0 395 210.5 639.5t587.5 244.5q184 0 298 -64t161 -170q8 -18 8 -32q0 -30 -31 -48l-78 -46q-7 -4 -14 -4q-20 0 -38 32q-30 54 -109 115t-214 61q-250 0 -413 -183t-163 -568q0 -182 96 -306.5t326 -124.5q136 0 230.5 71.5t146.5 143.5q30 42 57 42 q11 0 21 -7l90 -58q15 -9 15 -26q0 -21 -23 -54q-79 -115 -213 -191.5t-351 -76.5q-302 0 -451 172.5t-149 437.5zM569 1589q-1 5 -1 9q0 26 39 42l248 104q43 18 68 18h70q25 0 60 -18l234 -122q22 -12 22 -29q0 -10 -8 -22l-28 -41q-13 -20 -33 -20q-12 0 -26 7l-257 132 h-2l-319 -132q-17 -7 -28 -7q-20 0 -25 20z" />
<glyph unicode="&#x109;" horiz-adv-x="1026" d="M68 402q0 265 163.5 465t428.5 200q162 0 231 -56.5t100 -124.5q6 -13 6 -23q0 -19 -20 -29l-66 -35q-10 -5 -19 -5q-21 0 -34 30q-14 32 -64 72.5t-147 40.5q-156 0 -274.5 -140t-118.5 -410q0 -122 58.5 -198t188.5 -76q103 0 169 53.5t94 95.5q23 35 53 14l63 -46 q29 -21 5 -55q-29 -40 -127 -116t-270 -76q-234 0 -327 133.5t-93 285.5zM390 1190q-5 7 -5 15q0 19 30 40l234 163q37 26 62 26h50q25 0 50 -26l174 -179q14 -14 14 -28t-15 -27l-25 -23q-14 -13 -28 -13t-29 15l-172 179h-2l-256 -179q-21 -15 -35 -15t-22 13z" />
<glyph unicode="&#x10a;" horiz-adv-x="1392" d="M110 580q0 395 210.5 639.5t587.5 244.5q184 0 298 -64t161 -170q8 -18 8 -32q0 -30 -31 -48l-78 -46q-7 -4 -14 -4q-20 0 -38 32q-30 54 -109 115t-214 61q-250 0 -413 -183t-163 -568q0 -182 96 -306.5t326 -124.5q136 0 230.5 71.5t146.5 143.5q30 42 57 42 q11 0 21 -7l90 -58q15 -9 15 -26q0 -21 -23 -54q-79 -115 -213 -191.5t-351 -76.5q-302 0 -451 172.5t-149 437.5zM841 1590l24 102q10 45 55 45h102q37 0 37 -30q0 -7 -2 -15l-24 -102q-10 -45 -55 -45h-102q-37 0 -37 30q0 7 2 15z" />
<glyph unicode="&#x10b;" horiz-adv-x="1026" d="M68 402q0 265 163.5 465t428.5 200q162 0 231 -56.5t100 -124.5q6 -13 6 -23q0 -19 -20 -29l-66 -35q-10 -5 -19 -5q-21 0 -34 30q-14 32 -64 72.5t-147 40.5q-156 0 -274.5 -140t-118.5 -410q0 -122 58.5 -198t188.5 -76q103 0 169 53.5t94 95.5q23 35 53 14l63 -46 q29 -21 5 -55q-29 -40 -127 -116t-270 -76q-234 0 -327 133.5t-93 285.5zM622 1285l20 86q10 45 55 45h86q37 0 37 -30q0 -7 -2 -15l-20 -86q-11 -45 -56 -45h-86q-36 0 -36 29q0 7 2 16z" />
<glyph unicode="&#x10c;" horiz-adv-x="1392" d="M110 580q0 395 210.5 639.5t587.5 244.5q184 0 298 -64t161 -170q8 -18 8 -32q0 -30 -31 -48l-78 -46q-7 -4 -14 -4q-20 0 -38 32q-30 54 -109 115t-214 61q-250 0 -413 -183t-163 -568q0 -182 96 -306.5t326 -124.5q136 0 230.5 71.5t146.5 143.5q30 42 57 42 q11 0 21 -7l90 -58q15 -9 15 -26q0 -21 -23 -54q-79 -115 -213 -191.5t-351 -76.5q-302 0 -451 172.5t-149 437.5zM594 1701l28 41q13 20 33 20q12 0 26 -7l257 -132h2l319 132q17 7 28 7q20 0 25 -20l14 -59q1 -5 1 -9q0 -26 -39 -42l-248 -104q-43 -18 -68 -18h-70 q-25 0 -60 18l-234 122q-22 12 -22 29q0 10 8 22z" />
<glyph unicode="&#x10d;" horiz-adv-x="1026" d="M68 402q0 265 163.5 465t428.5 200q162 0 231 -56.5t100 -124.5q16 -36 -14 -52l-66 -35q-10 -5 -19 -5q-21 0 -34 30q-14 32 -64 72.5t-147 40.5q-156 0 -274.5 -140t-118.5 -410q0 -122 58.5 -198t188.5 -76q103 0 169 53.5t94 95.5q23 35 53 14l63 -46q29 -21 5 -55 q-29 -40 -127 -116t-270 -76q-234 0 -327 133.5t-93 285.5zM427 1343q-14 14 -14 28t15 27l25 23q14 13 28 13t29 -15l172 -179h2l256 179q21 15 35 15t22 -13l25 -39q5 -7 5 -15q0 -19 -30 -40l-234 -163q-37 -26 -62 -26h-50q-25 0 -50 26z" />
<glyph unicode="&#x10e;" horiz-adv-x="1406" d="M63 55l305 1324q13 55 63 55h319q358 0 496 -175t138 -411q0 -340 -210 -594t-655 -254h-419q-40 0 -40 35q0 9 3 20zM280 164h268q332 0 481.5 212t149.5 484q0 172 -81.5 292t-393.5 120h-168zM611 1701l28 41q13 20 33 20q12 0 26 -7l257 -132h2l319 132q17 7 28 7 q20 0 25 -20l14 -59q1 -5 1 -9q0 -26 -39 -42l-248 -104q-43 -18 -68 -18h-70q-25 0 -60 18l-234 122q-22 12 -22 29q0 10 8 22z" />
<glyph unicode="&#x10f;" horiz-adv-x="1346" d="M70 379q0 255 161 471.5t379 216.5q111 0 173 -33.5t113 -101.5h2q3 24 12 61l101 438q10 45 55 45h86q37 0 37 -30q0 -7 -2 -15l-320 -1386q-10 -45 -55 -45h-84q-30 0 -30 30q0 7 1 15l22 120h-2q-44 -79 -137 -130.5t-173 -51.5q-190 0 -264.5 116.5t-74.5 279.5z M256 372q0 -104 45 -181.5t158 -77.5q98 0 199.5 117.5t132.5 249.5l65 280q-10 100 -65 138.5t-167 38.5q-152 0 -260 -169.5t-108 -395.5zM1260 1156q-10 7 -10 18q0 13 15 32q27 34 50 82t33 96l10 47q10 45 56 45h86q36 0 36 -30q0 -7 -2 -15l-7 -32 q-23 -105 -67 -166.5t-89 -96.5q-26 -20 -41 -20q-6 0 -11 3z" />
<glyph unicode="&#x110;" horiz-adv-x="1446" d="M81 699l17 74q10 45 66 45h115l129 561q13 55 63 55h319q358 0 496 -175t138 -411q0 -340 -210 -594t-655 -254h-419q-40 0 -40 35q0 9 3 20l138 599h-115q-47 0 -47 32q0 6 2 13zM320 164h268q332 0 481.5 212t149.5 484q0 172 -81.5 292t-393.5 120h-168l-105 -454h321 q46 0 46 -31q0 -7 -2 -14l-17 -74q-10 -45 -65 -45h-321z" />
<glyph unicode="&#x111;" horiz-adv-x="1156" d="M70 379q0 255 161 471.5t379 216.5q111 0 173 -33.5t113 -101.5h2q3 24 12 61l50 215h-308q-45 0 -37 35l14 62q8 35 53 35h308l21 91q10 45 55 45h86q37 0 37 -30q0 -7 -2 -15l-21 -91h114q38 0 38 -25q0 -5 -1 -10l-14 -62q-8 -35 -53 -35h-114l-269 -1163 q-10 -45 -55 -45h-84q-30 0 -30 30q0 7 1 15l22 120h-2q-44 -79 -137 -130.5t-173 -51.5q-190 0 -264.5 116.5t-74.5 279.5zM256 372q0 -104 45 -181.5t158 -77.5q98 0 199.5 117.5t132.5 249.5l65 280q-10 100 -65 138.5t-167 38.5q-152 0 -260 -169.5t-108 -395.5z" />
<glyph unicode="&#x112;" horiz-adv-x="1270" d="M63 55l305 1324q13 55 63 55h875q47 0 47 -32q0 -6 -2 -13l-17 -74q-11 -45 -66 -45h-733l-102 -444h673q46 0 46 -31q0 -7 -2 -14l-17 -74q-10 -45 -65 -45h-673l-115 -498h763q46 0 46 -31q0 -7 -2 -14l-17 -74q-10 -45 -65 -45h-905q-40 0 -40 35q0 9 3 20zM559 1598 l11 50q10 40 55 40h640q37 0 37 -27q0 -6 -2 -13l-11 -50q-9 -40 -54 -40h-640q-37 0 -37 28q0 5 1 12z" />
<glyph unicode="&#x113;" horiz-adv-x="1078" d="M68 396q0 300 156.5 485.5t427.5 185.5q155 0 250.5 -88.5t95.5 -200.5q0 -148 -141.5 -218t-350.5 -112l-246 -49q-6 -38 -6 -40q0 -99 54 -172t189 -73q115 0 185 42t95 76q23 30 42 30q11 0 21 -9l59 -51q19 -17 -6 -56q-23 -36 -124 -99.5t-296 -63.5 q-213 0 -309 123.5t-96 289.5zM265 538l205 40q140 27 246 74.5t106 133.5q0 68 -61.5 109.5t-141.5 41.5q-121 0 -215.5 -92t-138.5 -307zM391 1275l10 40q8 35 53 35h528q38 0 38 -25q0 -5 -1 -10l-10 -40q-8 -35 -53 -35h-528q-38 0 -38 25q0 5 1 10z" />
<glyph unicode="&#x114;" horiz-adv-x="1270" d="M63 55l305 1324q13 55 63 55h875q47 0 47 -32q0 -6 -2 -13l-17 -74q-11 -45 -66 -45h-733l-102 -444h673q46 0 46 -31q0 -7 -2 -14l-17 -74q-10 -45 -65 -45h-673l-115 -498h763q46 0 46 -31q0 -7 -2 -14l-17 -74q-10 -45 -65 -45h-905q-40 0 -40 35q0 9 3 20zM614 1784 q-4 14 -4 24q0 27 25 34l52 15q7 2 13 2q24 0 37 -30q26 -60 69.5 -95.5t141.5 -35.5q84 0 154.5 45t111.5 96q16 20 35 20q10 0 22 -7l45 -28q17 -11 17 -28q0 -15 -12 -34q-66 -108 -174.5 -161t-215.5 -53q-111 0 -196.5 57t-120.5 179z" />
<glyph unicode="&#x115;" horiz-adv-x="1078" d="M68 396q0 300 156.5 485.5t427.5 185.5q155 0 250.5 -88.5t95.5 -200.5q0 -148 -141.5 -218t-350.5 -112l-246 -49q-6 -38 -6 -40q0 -99 54 -172t189 -73q115 0 185 42t95 76q23 30 42 30q11 0 21 -9l59 -51q19 -17 -6 -56q-23 -36 -124 -99.5t-296 -63.5 q-213 0 -309 123.5t-96 289.5zM265 538l205 40q140 27 246 74.5t106 133.5q0 68 -61.5 109.5t-141.5 41.5q-121 0 -215.5 -92t-138.5 -307zM413 1370q-5 13 -5 23q0 22 23 30l48 18q8 3 14 3q20 0 30 -25q27 -67 62 -105t112 -38q90 0 144.5 42.5t93.5 103.5q13 20 29 20 q8 0 17 -5l45 -27q18 -10 18 -27q0 -12 -10 -28q-64 -112 -160.5 -160.5t-195.5 -48.5q-106 0 -164 52t-101 172z" />
<glyph unicode="&#x116;" horiz-adv-x="1270" d="M63 55l305 1324q13 55 63 55h875q47 0 47 -32q0 -6 -2 -13l-17 -74q-11 -45 -66 -45h-733l-102 -444h673q46 0 46 -31q0 -7 -2 -14l-17 -74q-10 -45 -65 -45h-673l-115 -498h763q46 0 46 -31q0 -7 -2 -14l-17 -74q-10 -45 -65 -45h-905q-40 0 -40 35q0 9 3 20zM826 1590 l24 102q10 45 55 45h102q37 0 37 -30q0 -7 -2 -15l-24 -102q-10 -45 -55 -45h-102q-37 0 -37 30q0 7 2 15z" />
<glyph unicode="&#x117;" horiz-adv-x="1078" d="M68 396q0 300 156.5 485.5t427.5 185.5q155 0 250.5 -88.5t95.5 -200.5q0 -148 -141.5 -218t-350.5 -112l-246 -49q-6 -38 -6 -40q0 -99 54 -172t189 -73q115 0 185 42t95 76q23 30 42 30q11 0 21 -9l59 -51q19 -17 -6 -56q-23 -36 -124 -99.5t-296 -63.5 q-213 0 -309 123.5t-96 289.5zM265 538l205 40q140 27 246 74.5t106 133.5q0 68 -61.5 109.5t-141.5 41.5q-121 0 -215.5 -92t-138.5 -307zM614 1285l20 86q10 45 55 45h86q37 0 37 -30q0 -7 -2 -15l-20 -86q-11 -45 -56 -45h-86q-36 0 -36 29q0 7 2 16z" />
<glyph unicode="&#x118;" horiz-adv-x="1270" d="M63 55l305 1324q13 55 63 55h875q47 0 47 -32q0 -6 -2 -13l-17 -74q-10 -45 -66 -45h-733l-102 -444h673q46 0 46 -32q0 -6 -2 -13l-17 -74q-10 -45 -65 -45h-673l-115 -498h763q46 0 46 -32q0 -6 -2 -13l-17 -74q-10 -45 -65 -45h-7q-104 -70 -175 -128t-71 -105 q0 -27 15 -40.5t51 -13.5q43 0 73 6q25 5 27 -22l6 -77q2 -24 -18 -28q-58 -9 -118 -9q-100 0 -148 37.5t-48 95.5q0 52 17.5 93.5t62.5 82t146 106.5v4q-40 -2 -80 -2h-638q-40 0 -40 35q0 9 3 20z" />
<glyph unicode="&#x119;" horiz-adv-x="1078" d="M68 396q0 300 156.5 485.5t427.5 185.5q155 0 250.5 -88.5t95.5 -200.5q0 -148 -142 -218.5t-350 -111.5l-246 -49q-6 -38 -6 -40q0 -99 54 -172t189 -73q115 0 185 42t95 76q23 30 42 30q11 0 21 -9l59 -51q20 -17 -6 -56q-20 -30 -83 -72.5t-109 -76.5l-126 -93 q-113 -84 -113 -137q0 -27 15 -40.5t51 -13.5q43 0 73 6q25 5 27 -22l6 -77q2 -24 -18 -28q-58 -9 -118 -9q-100 0 -148 37.5t-48 95.5q0 52 17.5 93.5t59 77t138.5 94.5v5q-26 -3 -44 -3q-213 0 -309 123.5t-96 289.5zM265 538l205 40q140 27 246 74.5t106 133.5 q0 68 -61.5 109.5t-141.5 41.5q-121 0 -215.5 -92t-138.5 -307z" />
<glyph unicode="&#x11a;" horiz-adv-x="1270" d="M63 55l305 1324q13 55 63 55h875q47 0 47 -32q0 -6 -2 -13l-17 -74q-11 -45 -66 -45h-733l-102 -444h673q46 0 46 -31q0 -7 -2 -14l-17 -74q-10 -45 -65 -45h-673l-115 -498h763q46 0 46 -31q0 -7 -2 -14l-17 -74q-10 -45 -65 -45h-905q-40 0 -40 35q0 9 3 20zM579 1701 l28 41q13 20 33 20q12 0 26 -7l257 -132h2l319 132q17 7 28 7q20 0 25 -20l14 -59q1 -5 1 -9q0 -26 -39 -42l-248 -104q-43 -18 -68 -18h-70q-25 0 -60 18l-234 122q-22 12 -22 29q0 10 8 22z" />
<glyph unicode="&#x11b;" horiz-adv-x="1078" d="M68 396q0 300 156.5 485.5t427.5 185.5q155 0 250.5 -88.5t95.5 -200.5q0 -148 -141.5 -218t-350.5 -112l-246 -49q-6 -38 -6 -40q0 -99 54 -172t189 -73q115 0 185 42t95 76q23 30 42 30q11 0 21 -9l59 -51q19 -17 -6 -56q-23 -36 -124 -99.5t-296 -63.5 q-213 0 -309 123.5t-96 289.5zM265 538l205 40q140 27 246 74.5t106 133.5q0 68 -61.5 109.5t-141.5 41.5q-121 0 -215.5 -92t-138.5 -307zM419 1343q-14 14 -14 28t15 27l25 23q14 13 28 13t29 -15l172 -179h2l256 179q21 15 35 15t22 -13l25 -39q5 -7 5 -15q0 -19 -30 -40 l-234 -163q-37 -26 -62 -26h-50q-25 0 -50 26z" />
<glyph unicode="&#x11c;" horiz-adv-x="1470" d="M110 580q0 395 210.5 639.5t595.5 244.5q194 0 308 -66t158 -150q10 -19 10 -35q0 -27 -29 -46l-76 -50q-8 -6 -17 -6q-19 0 -36 31q-25 43 -109 104.5t-226 61.5q-257 0 -420.5 -183t-163.5 -568q0 -182 96 -306.5t326 -124.5q130 0 240 40t162 96l57 248h-297 q-47 0 -47 32q0 6 2 13l17 74q11 45 66 45h434q46 0 46 -31q0 -7 -2 -14l-109 -472q-142 -106 -270 -146.5t-326 -40.5q-302 0 -451 172.5t-149 437.5zM577 1589q-1 5 -1 9q0 26 39 42l248 104q43 18 68 18h70q25 0 60 -18l234 -122q22 -12 22 -29q0 -10 -8 -22l-28 -41 q-13 -20 -33 -20q-12 0 -26 7l-257 132h-2l-319 -132q-17 -7 -28 -7q-20 0 -25 20z" />
<glyph unicode="&#x11d;" horiz-adv-x="1119" d="M-16 -298q-10 16 -10 30q0 16 14 30l50 48q11 11 23 11q15 0 33 -19q38 -40 96 -64.5t164 -24.5q124 0 208.5 67.5t121.5 230.5l21 93q6 27 16 61h-2q-44 -79 -137 -130.5t-173 -51.5q-190 0 -264.5 116.5t-74.5 279.5q0 255 161 471.5t379 216.5q111 0 173 -33.5 t113 -101.5h2l23 73q14 45 49 45h84q37 0 37 -30q0 -7 -2 -15l-234 -1013q-47 -205 -160 -307t-372 -102q-135 0 -221 32.5t-118 86.5zM256 372q0 -104 45 -181.5t158 -77.5q98 0 199.5 117.5t132.5 249.5l65 280q-10 100 -65 138.5t-167 38.5q-152 0 -260 -169.5 t-108 -395.5zM386 1190q-5 7 -5 15q0 19 30 40l234 163q37 26 62 26h50q25 0 50 -26l174 -179q14 -14 14 -28t-15 -27l-25 -23q-14 -13 -28 -13t-29 15l-172 179h-2l-256 -179q-21 -15 -35 -15t-22 13z" />
<glyph unicode="&#x11e;" horiz-adv-x="1470" d="M110 580q0 395 210.5 639.5t595.5 244.5q194 0 308 -66t158 -150q10 -19 10 -35q0 -27 -29 -46l-76 -50q-8 -6 -17 -6q-19 0 -36 31q-25 43 -109 104.5t-226 61.5q-257 0 -420.5 -183t-163.5 -568q0 -182 96 -306.5t326 -124.5q130 0 240 40t162 96l57 248h-297 q-47 0 -47 32q0 6 2 13l17 74q11 45 66 45h434q46 0 46 -31q0 -7 -2 -14l-109 -472q-142 -106 -270 -146.5t-326 -40.5q-302 0 -451 172.5t-149 437.5zM637 1784q-4 14 -4 24q0 27 25 34l52 15q7 2 13 2q24 0 37 -30q26 -60 69.5 -95.5t141.5 -35.5q84 0 154.5 45t111.5 96 q16 20 35 20q10 0 22 -7l45 -28q17 -11 17 -28q0 -15 -12 -34q-66 -108 -174.5 -161t-215.5 -53q-111 0 -196.5 57t-120.5 179z" />
<glyph unicode="&#x11f;" horiz-adv-x="1119" d="M-16 -298q-10 16 -10 30q0 16 14 30l50 48q11 11 23 11q15 0 33 -19q38 -40 96 -64.5t164 -24.5q124 0 208.5 67.5t121.5 230.5l21 93q6 27 16 61h-2q-44 -79 -137 -130.5t-173 -51.5q-190 0 -264.5 116.5t-74.5 279.5q0 255 161 471.5t379 216.5q111 0 173 -33.5 t113 -101.5h2l23 73q14 45 49 45h84q37 0 37 -30q0 -7 -2 -15l-234 -1013q-47 -205 -160 -307t-372 -102q-135 0 -221 32.5t-118 86.5zM256 372q0 -104 45 -181.5t158 -77.5q98 0 199.5 117.5t132.5 249.5l65 280q-10 100 -65 138.5t-167 38.5q-152 0 -260 -169.5 t-108 -395.5zM417 1370q-5 13 -5 23q0 22 23 30l48 18q8 3 14 3q20 0 30 -25q27 -67 62 -105t112 -38q90 0 144.5 42.5t93.5 103.5q13 20 29 20q8 0 17 -5l45 -27q18 -10 18 -27q0 -12 -10 -28q-64 -112 -160.5 -160.5t-195.5 -48.5q-106 0 -164 52t-101 172z" />
<glyph unicode="&#x120;" horiz-adv-x="1470" d="M110 580q0 395 210.5 639.5t595.5 244.5q194 0 308 -66t158 -150q10 -19 10 -35q0 -27 -29 -46l-76 -50q-8 -6 -17 -6q-19 0 -36 31q-25 43 -109 104.5t-226 61.5q-257 0 -420.5 -183t-163.5 -568q0 -182 96 -306.5t326 -124.5q130 0 240 40t162 96l57 248h-297 q-47 0 -47 32q0 6 2 13l17 74q11 45 66 45h434q46 0 46 -31q0 -7 -2 -14l-109 -472q-142 -106 -270 -146.5t-326 -40.5q-302 0 -451 172.5t-149 437.5zM849 1590l24 102q10 45 55 45h102q37 0 37 -30q0 -7 -2 -15l-24 -102q-10 -45 -55 -45h-102q-37 0 -37 30q0 7 2 15z" />
<glyph unicode="&#x121;" horiz-adv-x="1119" d="M-16 -298q-10 16 -10 30q0 16 14 30l50 48q11 11 23 11q15 0 33 -19q38 -40 96 -64.5t164 -24.5q124 0 208.5 67.5t121.5 230.5l21 93q6 27 16 61h-2q-44 -79 -137 -130.5t-173 -51.5q-190 0 -264.5 116.5t-74.5 279.5q0 255 161 471.5t379 216.5q111 0 173 -33.5 t113 -101.5h2l23 73q14 45 49 45h84q37 0 37 -30q0 -7 -2 -15l-234 -1013q-47 -205 -160 -307t-372 -102q-135 0 -221 32.5t-118 86.5zM256 372q0 -104 45 -181.5t158 -77.5q98 0 199.5 117.5t132.5 249.5l65 280q-10 100 -65 138.5t-167 38.5q-152 0 -260 -169.5 t-108 -395.5zM618 1285l20 86q10 45 55 45h86q37 0 37 -30q0 -7 -2 -15l-20 -86q-11 -45 -56 -45h-86q-36 0 -36 29q0 7 2 16z" />
<glyph unicode="&#x124;" horiz-adv-x="1422" d="M63 55l305 1324q13 55 63 55h92q40 0 40 -35q0 -9 -3 -20l-127 -551h698l127 551q13 55 63 55h92q40 0 40 -35q0 -9 -3 -20l-305 -1324q-13 -55 -63 -55h-92q-40 0 -40 35q0 9 3 20l140 609h-698l-140 -609q-13 -55 -63 -55h-92q-40 0 -40 35q0 9 3 20zM589 1589 q-1 5 -1 9q0 26 39 42l248 104q43 18 68 18h70q25 0 60 -18l234 -122q22 -12 22 -29q0 -10 -8 -22l-28 -41q-13 -20 -33 -20q-12 0 -26 7l-257 132h-2l-319 -132q-17 -7 -28 -7q-20 0 -25 20z" />
<glyph unicode="&#x125;" horiz-adv-x="1128" d="M32 45l320 1386q10 45 56 45h86q36 0 36 -30q0 -7 -2 -15l-112 -486q-6 -28 -15 -60h4q59 73 153.5 127.5t214.5 54.5q170 0 232 -103q37 -61 37 -150q0 -59 -16 -130l-148 -639q-10 -45 -55 -45h-86q-37 0 -37 30q0 7 2 15l137 591q22 95 22 156q0 65 -25 92 q-48 53 -158 53q-120 0 -218.5 -116.5t-133.5 -266.5l-118 -509q-10 -45 -55 -45h-86q-37 0 -37 30q0 7 2 15zM515 1599q-5 7 -5 15q0 19 30 40l234 163q37 26 62 26h50q25 0 50 -26l174 -179q14 -14 14 -28t-15 -27l-25 -23q-14 -13 -28 -13t-29 15l-172 179h-2l-256 -179 q-21 -15 -35 -15t-22 13z" />
<glyph unicode="&#x127;" horiz-adv-x="1198" d="M102 45l269 1163h-137q-45 0 -37 35l14 62q8 35 53 35h137l21 91q10 45 56 45h86q36 0 36 -29q0 -7 -2 -16l-21 -91h363q45 0 37 -35l-14 -62q-8 -35 -53 -35h-363l-61 -263q-6 -28 -15 -60h4q59 73 153.5 127.5t214.5 54.5q170 0 232 -103q37 -61 37 -150 q0 -59 -16 -130l-148 -639q-10 -45 -55 -45h-86q-37 0 -37 30q0 7 2 15l137 591q22 95 22 156q0 65 -25 92q-48 53 -158 53q-120 0 -218.5 -116.5t-133.5 -266.5l-118 -509q-10 -45 -55 -45h-86q-37 0 -37 30q0 7 2 15z" />
<glyph unicode="&#x128;" horiz-adv-x="532" d="M63 55l305 1324q13 55 63 55h92q40 0 40 -35q0 -9 -3 -20l-305 -1324q-13 -55 -63 -55h-92q-40 0 -40 35q0 9 3 20zM159 1620q28 65 85.5 108t146.5 43q75 0 159 -49t128 -49q48 0 81 27t49 52q14 21 28 21q5 0 10 -3l42 -25q14 -8 14 -24q0 -9 -5 -21 q-28 -65 -85.5 -108t-146.5 -43q-75 0 -159 49t-128 49q-48 0 -81 -27t-49 -52q-14 -21 -28 -21q-5 0 -10 3l-42 25q-14 8 -14 24q0 9 5 21z" />
<glyph unicode="&#x129;" horiz-adv-x="460" d="M32 45l222 960q10 45 55 45h86q37 0 37 -30q0 -7 -2 -15l-222 -960q-10 -45 -55 -45h-86q-37 0 -37 30q0 7 2 15zM83 1219q21 71 71.5 116t130.5 45q68 0 138 -55t109 -55q43 0 64 22t37 60q13 30 37 20l39 -17q15 -7 15 -25q0 -8 -3 -19q-21 -71 -71.5 -116t-130.5 -45 q-68 0 -138 55t-109 55q-43 0 -64 -22t-37 -60q-13 -30 -37 -20l-39 17q-15 7 -15 25q0 8 3 19z" />
<glyph unicode="&#x12a;" horiz-adv-x="532" d="M63 55l305 1324q13 55 63 55h92q40 0 40 -35q0 -9 -3 -20l-305 -1324q-13 -55 -63 -55h-92q-40 0 -40 35q0 9 3 20zM149 1598l11 50q10 40 55 40h640q37 0 37 -27q0 -6 -2 -13l-11 -50q-9 -40 -54 -40h-640q-37 0 -37 28q0 5 1 12z" />
<glyph unicode="&#x12c;" horiz-adv-x="532" d="M63 55l305 1324q13 55 63 55h92q40 0 40 -35q0 -9 -3 -20l-305 -1324q-13 -55 -63 -55h-92q-40 0 -40 35q0 9 3 20zM204 1784q-4 14 -4 24q0 27 25 34l52 15q7 2 13 2q24 0 37 -30q26 -60 69.5 -95.5t141.5 -35.5q84 0 154.5 45t111.5 96q16 20 35 20q10 0 22 -7l45 -28 q17 -11 17 -28q0 -15 -12 -34q-66 -108 -174.5 -161t-215.5 -53q-111 0 -196.5 57t-120.5 179z" />
<glyph unicode="&#x130;" horiz-adv-x="532" d="M63 55l305 1324q13 55 63 55h92q40 0 40 -35q0 -9 -3 -20l-305 -1324q-13 -55 -63 -55h-92q-40 0 -40 35q0 9 3 20zM416 1590l24 102q10 45 55 45h102q37 0 37 -30q0 -7 -2 -15l-24 -102q-10 -45 -55 -45h-102q-37 0 -37 30q0 7 2 15z" />
<glyph unicode="&#x131;" horiz-adv-x="460" d="M32 45l222 960q10 45 55 45h86q37 0 37 -30q0 -7 -2 -15l-222 -960q-10 -45 -55 -45h-86q-37 0 -37 30q0 7 2 15z" />
<glyph unicode="&#x134;" horiz-adv-x="824" d="M-50 94l36 71q15 30 38 30q17 0 38 -16q70 -53 132 -53q97 0 152 65t83 187l231 1001q13 55 63 55h92q40 0 40 -35q0 -9 -3 -20l-225 -978q-40 -176 -132 -303.5t-320 -127.5q-116 0 -212 59q-21 13 -21 34q0 14 8 31zM436 1589q-1 5 -1 9q0 26 39 42l248 104 q43 18 68 18h70q25 0 60 -18l234 -122q22 -12 22 -29q0 -10 -8 -22l-28 -41q-13 -20 -33 -20q-12 0 -26 7l-257 132h-2l-319 -132q-17 -7 -28 -7q-20 0 -25 20z" />
<glyph unicode="&#x139;" horiz-adv-x="1136" d="M63 55l305 1324q13 55 63 55h92q40 0 40 -35q0 -9 -3 -20l-280 -1215h663q46 0 46 -31q0 -7 -2 -14l-17 -74q-10 -45 -65 -45h-805q-40 0 -40 35q0 9 3 20zM799 1593l155 155q37 37 86 37h169q40 0 40 -14q0 -13 -33 -38l-221 -164q-40 -29 -86 -29h-106q-30 0 -30 14 q0 13 26 39z" />
<glyph unicode="&#x13a;" horiz-adv-x="460" d="M32 45l289 1248q4 20 18 38l100 127q27 35 39 35h35q30 0 22 -35l-327 -1413q-10 -45 -55 -45h-86q-37 0 -37 30q0 7 2 15zM386 1612l166 195q32 37 87 37h121q31 0 31 -14q0 -13 -25 -38l-206 -204q-30 -29 -85 -29h-84q-26 0 -26 15q0 13 21 38z" />
<glyph unicode="&#x13d;" horiz-adv-x="1136" d="M63 55l305 1324q13 55 63 55h92q40 0 40 -35q0 -9 -3 -20l-280 -1215h663q46 0 46 -31q0 -7 -2 -14l-17 -74q-10 -45 -65 -45h-805q-40 0 -40 35q0 9 3 20zM801 1156q-10 7 -10 18q0 13 15 32q27 34 50 82t33 96l10 47q10 45 56 45h86q36 0 36 -30q0 -7 -2 -15l-7 -32 q-23 -105 -67 -166.5t-89 -96.5q-26 -20 -41 -20q-6 0 -11 3z" />
<glyph unicode="&#x13e;" horiz-adv-x="684" d="M32 45l289 1248q4 20 18 38l100 127q27 35 39 35h35q30 0 22 -35l-327 -1413q-10 -45 -55 -45h-86q-37 0 -37 30q0 7 2 15zM601 1156q-10 7 -10 18q0 13 15 32q27 34 50 82t33 96l10 47q10 45 56 45h86q36 0 36 -30q0 -7 -2 -15l-7 -32q-23 -105 -67 -166.5t-89 -96.5 q-26 -20 -41 -20q-6 0 -11 3z" />
<glyph unicode="&#x141;" horiz-adv-x="1241" d="M46 459l28 122q9 39 50 63l208 121l141 614q13 55 63 55h92q40 0 40 -35q0 -9 -3 -20l-92 -402q-10 -42 -21 -80h4l310 181q26 15 39 15q14 0 14 -16q0 -6 -2 -14l-28 -122q-9 -40 -49 -63l-335 -195l-120 -519h663q46 0 46 -32q0 -6 -2 -13l-17 -74q-10 -45 -65 -45 h-805q-40 0 -40 35q0 9 3 20l96 416q10 45 20 80h-4l-183 -107q-26 -15 -39 -15q-14 0 -14 16q0 6 2 14z" />
<glyph unicode="&#x142;" horiz-adv-x="660" d="M40 521l25 106q9 37 47 61l197 123l112 482q5 21 18 38l100 127q28 35 39 35h35q30 -2 22 -35l-105 -452q-7 -30 -16 -60h2l184 115q22 14 33 14t11 -14q0 -5 -2 -12l-24 -106q-8 -36 -47 -60l-198 -123l-165 -715q-10 -45 -55 -45h-86q-37 0 -37 30q0 7 2 15l120 520 q7 29 16 60h-2l-183 -115q-23 -15 -34 -15t-11 13q0 5 2 13z" />
<glyph unicode="&#x143;" horiz-adv-x="1438" d="M63 55l305 1324q13 55 63 55h121q71 0 89 -50l388 -1060h4q9 46 17 80l224 975q13 55 63 55h92q40 0 40 -35q0 -9 -3 -20l-305 -1324q-13 -55 -63 -55h-82q-70 0 -88 50l-413 1125h-4q-8 -44 -16 -80l-240 -1040q-13 -55 -63 -55h-92q-40 0 -40 35q0 9 3 20zM892 1593 l155 155q37 37 86 37h169q40 0 40 -14q0 -13 -33 -38l-221 -164q-40 -29 -86 -29h-106q-30 0 -30 14q0 13 26 39z" />
<glyph unicode="&#x144;" horiz-adv-x="1128" d="M32 45l222 960q10 45 55 45h84q37 0 37 -30q0 -7 -2 -15l-27 -120h4q59 73 153.5 127.5t214.5 54.5q170 0 232 -103q37 -61 37 -150q0 -59 -16 -130l-148 -639q-10 -45 -55 -45h-86q-37 0 -37 30q0 7 2 15l137 591q22 95 22 156q0 65 -25 92q-48 53 -158 53 q-120 0 -218.5 -116.5t-133.5 -266.5l-118 -509q-10 -45 -55 -45h-86q-37 0 -37 30q0 7 2 15zM626 1203l166 195q32 37 87 37h121q31 0 31 -14q0 -13 -25 -38l-206 -204q-30 -29 -85 -29h-84q-26 0 -26 15q0 13 21 38z" />
<glyph unicode="&#x147;" horiz-adv-x="1438" d="M63 55l305 1324q13 55 63 55h121q71 0 89 -50l388 -1060h4q9 46 17 80l224 975q13 55 63 55h92q40 0 40 -35q0 -9 -3 -20l-305 -1324q-13 -55 -63 -55h-82q-70 0 -88 50l-413 1125h-4q-8 -44 -16 -80l-240 -1040q-13 -55 -63 -55h-92q-40 0 -40 35q0 9 3 20zM622 1701 l28 41q13 20 33 20q12 0 26 -7l257 -132h2l319 132q17 7 28 7q20 0 25 -20l14 -59q1 -5 1 -9q0 -26 -39 -42l-248 -104q-43 -18 -68 -18h-70q-25 0 -60 18l-234 122q-22 12 -22 29q0 10 8 22z" />
<glyph unicode="&#x148;" horiz-adv-x="1128" d="M32 45l222 960q10 45 55 45h84q37 0 37 -30q0 -7 -2 -15l-27 -120h4q59 73 153.5 127.5t214.5 54.5q170 0 232 -103q37 -61 37 -150q0 -59 -16 -130l-148 -639q-10 -45 -55 -45h-86q-37 0 -37 30q0 7 2 15l137 591q22 95 22 156q0 65 -25 92q-48 53 -158 53 q-120 0 -218.5 -116.5t-133.5 -266.5l-118 -509q-10 -45 -55 -45h-86q-37 0 -37 30q0 7 2 15zM458 1343q-14 14 -14 28t15 27l25 23q14 13 28 13t29 -15l172 -179h2l256 179q21 15 35 15t22 -13l25 -39q5 -7 5 -15q0 -19 -30 -40l-234 -163q-37 -26 -62 -26h-50 q-25 0 -50 26z" />
<glyph unicode="&#x14b;" horiz-adv-x="1128" d="M32 45l222 960q10 45 55 45h84q37 0 37 -30q0 -7 -2 -15l-27 -120h4q59 73 153.5 127.5t214.5 54.5q170 0 232 -103q37 -61 37 -150q0 -59 -16 -130l-180 -777q-45 -194 -136 -259t-200 -65q-99 0 -137 20q-17 9 -10 32l25 81q8 26 29 15q35 -18 91 -18q59 0 101 57 t83 236l147 630q22 95 22 156q0 65 -25 92q-48 53 -158 53q-120 0 -218.5 -116.5t-133.5 -266.5l-118 -509q-10 -45 -55 -45h-86q-37 0 -37 30q0 7 2 15z" />
<glyph unicode="&#x14c;" horiz-adv-x="1514" d="M110 580q0 400 214 642t554 242q305 0 461 -162.5t156 -447.5q0 -400 -214 -642t-554 -242q-305 0 -461 162.5t-156 447.5zM315 556q0 -205 106.5 -317.5t316.5 -112.5q220 0 386 183.5t166 568.5q0 205 -106.5 317.5t-316.5 112.5q-220 0 -386 -183.5t-166 -568.5z M544 1598l11 50q10 40 55 40h640q37 0 37 -27q0 -6 -2 -13l-11 -50q-9 -40 -54 -40h-640q-38 0 -38 28q0 5 2 12z" />
<glyph unicode="&#x14d;" horiz-adv-x="1148" d="M68 402q0 264 163.5 464.5t428.5 200.5q234 0 327 -134.5t93 -284.5q0 -264 -163.5 -464.5t-428.5 -200.5q-234 0 -327 134.5t-93 284.5zM254 387q0 -125 58.5 -199.5t188.5 -74.5q156 0 274.5 141.5t118.5 408.5q0 125 -58.5 199.5t-188.5 74.5q-156 0 -274.5 -141.5 t-118.5 -408.5zM399 1275l10 40q8 35 53 35h528q38 0 38 -25q0 -5 -1 -10l-10 -40q-8 -35 -53 -35h-528q-38 0 -38 25q0 5 1 10z" />
<glyph unicode="&#x14e;" horiz-adv-x="1514" d="M110 580q0 400 214 642t554 242q305 0 461 -162.5t156 -447.5q0 -400 -214 -642t-554 -242q-305 0 -461 162.5t-156 447.5zM315 556q0 -205 106.5 -317.5t316.5 -112.5q220 0 386 183.5t166 568.5q0 205 -106.5 317.5t-316.5 112.5q-220 0 -386 -183.5t-166 -568.5z M599 1784q-4 14 -4 24q0 27 25 34l52 15q7 2 13 2q24 0 37 -30q26 -60 69.5 -95.5t141.5 -35.5q84 0 154.5 45t111.5 96q16 20 35 20q10 0 22 -7l45 -28q17 -11 17 -28q0 -15 -12 -34q-66 -108 -174.5 -161t-215.5 -53q-111 0 -196.5 57t-120.5 179z" />
<glyph unicode="&#x14f;" horiz-adv-x="1148" d="M68 402q0 264 163.5 464.5t428.5 200.5q234 0 327 -134.5t93 -284.5q0 -264 -163.5 -464.5t-428.5 -200.5q-234 0 -327 134.5t-93 284.5zM254 387q0 -125 58.5 -199.5t188.5 -74.5q156 0 274.5 141.5t118.5 408.5q0 125 -58.5 199.5t-188.5 74.5q-156 0 -274.5 -141.5 t-118.5 -408.5zM421 1370q-5 13 -5 23q0 22 23 30l48 18q8 3 14 3q20 0 30 -25q27 -67 62 -105t112 -38q90 0 144.5 42.5t93.5 103.5q13 20 29 20q8 0 17 -5l45 -27q18 -10 18 -27q0 -12 -10 -28q-64 -112 -160.5 -160.5t-195.5 -48.5q-106 0 -164 52t-101 172z" />
<glyph unicode="&#x150;" horiz-adv-x="1514" d="M110 580q0 400 214 642t554 242q305 0 461 -162.5t156 -447.5q0 -400 -214 -642t-554 -242q-305 0 -461 162.5t-156 447.5zM315 556q0 -205 106.5 -317.5t316.5 -112.5q220 0 386 183.5t166 568.5q0 205 -106.5 317.5t-316.5 112.5q-220 0 -386 -183.5t-166 -568.5z M667 1593l149 155q35 37 86 37h131q38 0 38 -14q0 -13 -31 -38l-210 -164q-38 -29 -82 -29h-77q-29 0 -29 14t25 39zM1037 1593l149 155q35 37 86 37h131q38 0 38 -14q0 -13 -31 -38l-210 -164q-38 -29 -82 -29h-77q-29 0 -29 14t25 39z" />
<glyph unicode="&#x151;" horiz-adv-x="1148" d="M68 402q0 264 163.5 464.5t428.5 200.5q234 0 327 -134.5t93 -284.5q0 -264 -163.5 -464.5t-428.5 -200.5q-234 0 -327 134.5t-93 284.5zM254 387q0 -125 58.5 -199.5t188.5 -74.5q156 0 274.5 141.5t118.5 408.5q0 125 -58.5 199.5t-188.5 74.5q-156 0 -274.5 -141.5 t-118.5 -408.5zM480 1203l126 195q24 37 87 37h107q29 0 29 -15q0 -13 -23 -37l-188 -204q-27 -29 -81 -29h-52q-21 0 -21 15q0 13 16 38zM780 1203l126 195q24 37 87 37h107q29 0 29 -15q0 -13 -23 -37l-188 -204q-27 -29 -81 -29h-52q-21 0 -21 15q0 13 16 38z" />
<glyph unicode="&#x154;" horiz-adv-x="1384" d="M63 55l305 1324q13 55 63 55h453q252 0 360 -108t108 -270q0 -165 -137.5 -274t-333.5 -125l-1 -2q85 -76 109 -118.5t46 -103.5l131 -367q7 -20 7 -33q0 -33 -40 -33h-93q-48 0 -61 39l-116 357q-24 74 -95.5 149.5t-208.5 75.5h-174l-130 -566q-13 -55 -63 -55h-92 q-40 0 -40 35q0 9 3 20zM423 785h309q180 0 302.5 62t122.5 191q0 144 -89.5 188t-235.5 44h-297zM818 1593l155 155q37 37 86 37h169q40 0 40 -14q0 -13 -33 -38l-221 -164q-40 -29 -86 -29h-106q-30 0 -30 14q0 13 26 39z" />
<glyph unicode="&#x155;" horiz-adv-x="722" d="M32 45l222 960q10 45 55 45h84q37 0 37 -30q0 -7 -2 -15l-37 -160h4q72 113 147.5 167.5t178.5 54.5q59 0 83 -11q19 -8 10 -30l-33 -82q-7 -18 -29 -14q-34 7 -69 7q-109 0 -221 -141.5t-147 -291.5l-107 -459q-10 -45 -55 -45h-86q-37 0 -37 30q0 7 2 15zM492 1203 l166 195q32 37 87 37h121q31 0 31 -14q0 -13 -25 -38l-206 -204q-30 -29 -85 -29h-84q-26 0 -26 15q0 13 21 38z" />
<glyph unicode="&#x158;" horiz-adv-x="1384" d="M63 55l305 1324q13 55 63 55h453q252 0 360 -108t108 -270q0 -165 -137.5 -274t-333.5 -125l-1 -2q85 -76 109 -118.5t46 -103.5l131 -367q7 -20 7 -33q0 -33 -40 -33h-93q-48 0 -61 39l-116 357q-24 74 -95.5 149.5t-208.5 75.5h-174l-130 -566q-13 -55 -63 -55h-92 q-40 0 -40 35q0 9 3 20zM423 785h309q180 0 302.5 62t122.5 191q0 144 -89.5 188t-235.5 44h-297zM548 1701l28 41q13 20 33 20q12 0 26 -7l257 -132h2l319 132q17 7 28 7q20 0 25 -20l14 -59q1 -5 1 -9q0 -26 -39 -42l-248 -104q-43 -18 -68 -18h-70q-25 0 -60 18l-234 122 q-22 12 -22 29q0 10 8 22z" />
<glyph unicode="&#x159;" horiz-adv-x="722" d="M32 45l222 960q10 45 55 45h84q37 0 37 -30q0 -7 -2 -15l-37 -160h4q72 113 147.5 167.5t178.5 54.5q59 0 83 -11q19 -8 10 -30l-33 -82q-7 -18 -29 -14q-34 7 -69 7q-109 0 -221 -141.5t-147 -291.5l-107 -459q-10 -45 -55 -45h-86q-37 0 -37 30q0 7 2 15zM324 1343 q-14 14 -14 28t15 27l25 23q14 13 28 13t29 -15l172 -179h2l256 179q21 15 35 15t22 -13l25 -39q5 -7 5 -15q0 -19 -30 -40l-234 -163q-37 -26 -62 -26h-50q-25 0 -50 26z" />
<glyph unicode="&#x15a;" horiz-adv-x="1217" d="M64 198l57 70q13 16 31 16q23 0 55 -29q65 -61 141 -95t194 -34q100 0 169 28.5t122.5 83t53.5 135.5q0 43 -12.5 89t-52 81t-87.5 54q-55 22 -117 42.5t-138 58.5q-64 32 -110 81t-73 117t-27 145q0 141 90 250.5t201 141t206 31.5q133 0 223 -33t164 -90q30 -23 30 -47 q0 -16 -13 -33l-58 -75q-10 -13 -25 -13q-18 0 -44 21q-36 30 -118 65t-171 35q-57 0 -123 -19t-118 -77.5t-52 -142.5q0 -44 12 -84.5t44.5 -70.5t69.5 -48q58 -28 119.5 -48t111.5 -40q80 -32 146.5 -83t95.5 -128.5t29 -147.5q0 -141 -76 -236t-187 -147t-301 -52 q-164 0 -271 40t-171 102q-31 31 -31 57q0 15 11 29zM723 1593l155 155q37 37 86 37h169q40 0 40 -14q0 -13 -33 -38l-221 -164q-40 -29 -86 -29h-106q-30 0 -30 14q0 13 26 39z" />
<glyph unicode="&#x15b;" horiz-adv-x="937" d="M20 157l50 59q9 10 22 10q18 0 43 -19q57 -43 122.5 -68.5t137.5 -25.5q54 0 107.5 14.5t88.5 57.5t35 86t-12.5 73t-43.5 51t-62 33l-96 38q-55 22 -102 44q-46 22 -82 63t-53 89.5t-17 103.5q0 82 50 160.5t144.5 109.5t205.5 31q96 0 173 -27.5t131 -72.5 q16 -13 16 -28q0 -13 -12 -26l-50 -56q-8 -8 -19 -8q-18 0 -45 19q-40 28 -92 46t-107 18q-48 0 -101.5 -14t-85.5 -50t-32 -86q0 -36 10 -66t35.5 -50.5t54.5 -33.5q52 -24 100.5 -41t88.5 -35q70 -30 114 -70t59.5 -89t15.5 -106q0 -111 -69.5 -184t-158.5 -98.5 t-204 -25.5q-143 0 -228.5 39.5t-123.5 79.5q-17 18 -17 34q0 11 9 21zM493 1203l166 195q32 37 87 37h121q31 0 31 -14q0 -13 -25 -38l-206 -204q-30 -29 -85 -29h-84q-26 0 -26 15q0 13 21 38z" />
<glyph unicode="&#x15c;" horiz-adv-x="1217" d="M64 198l57 70q13 16 31 16q23 0 55 -29q65 -61 141 -95t194 -34q100 0 169 28.5t122.5 83t53.5 135.5q0 43 -12.5 89t-52 81t-87.5 54q-55 22 -117 42.5t-138 58.5q-64 32 -110 81t-73 117t-27 145q0 141 90 250.5t201 141t206 31.5q133 0 223 -33t164 -90q30 -23 30 -47 q0 -16 -13 -33l-58 -75q-10 -13 -25 -13q-18 0 -44 21q-36 30 -118 65t-171 35q-57 0 -123 -19t-118 -77.5t-52 -142.5q0 -44 12 -84.5t44.5 -70.5t69.5 -48q58 -28 119.5 -48t111.5 -40q80 -32 146.5 -83t95.5 -128.5t29 -147.5q0 -141 -76 -236t-187 -147t-301 -52 q-164 0 -271 40t-171 102q-31 31 -31 57q0 15 11 29zM428 1589q-1 5 -1 9q0 26 39 42l248 104q43 18 68 18h70q25 0 60 -18l234 -122q22 -12 22 -29q0 -10 -8 -22l-28 -41q-13 -20 -33 -20q-12 0 -26 7l-257 132h-2l-319 -132q-17 -7 -28 -7q-20 0 -25 20z" />
<glyph unicode="&#x15d;" horiz-adv-x="937" d="M20 157l50 59q9 10 22 10q18 0 43 -19q57 -43 122.5 -68.5t137.5 -25.5q54 0 107.5 14.5t88.5 57.5t35 86t-12.5 73t-43.5 51t-62 33l-96 38q-55 22 -102 44q-46 22 -82 63t-53 89.5t-17 103.5q0 82 50 160.5t144.5 109.5t205.5 31q96 0 173 -27.5t131 -72.5 q30 -25 4 -54l-50 -56q-8 -8 -19 -8q-18 0 -45 19q-40 28 -92 46t-107 18q-48 0 -101.5 -14t-85.5 -50t-32 -86q0 -36 10 -66t35.5 -50.5t54.5 -33.5q52 -24 100.5 -41t88.5 -35q70 -30 114 -70t59.5 -89t15.5 -106q0 -111 -69.5 -184t-158.5 -98.5t-204 -25.5 q-143 0 -228.5 39.5t-123.5 79.5q-17 18 -17 34q0 11 9 21zM288 1190q-5 7 -5 15q0 19 30 40l234 163q37 26 62 26h50q25 0 50 -26l174 -179q14 -14 14 -28t-15 -27l-25 -23q-14 -13 -28 -13t-29 15l-172 179h-2l-256 -179q-21 -15 -35 -15t-22 13z" />
<glyph unicode="&#x160;" horiz-adv-x="1217" d="M64 198l57 70q13 16 31 16q23 0 55 -29q65 -61 141 -95t194 -34q100 0 169 28.5t122.5 83t53.5 135.5q0 43 -12.5 89t-52 81t-87.5 54q-55 22 -117 42.5t-138 58.5q-64 32 -110 81t-73 117t-27 145q0 141 90 250.5t201 141t206 31.5q133 0 223 -33t164 -90q30 -23 30 -47 q0 -16 -13 -33l-58 -75q-10 -13 -25 -13q-18 0 -44 21q-36 30 -118 65t-171 35q-57 0 -123 -19t-118 -77.5t-52 -142.5q0 -44 12 -84.5t44.5 -70.5t69.5 -48q58 -28 119.5 -48t111.5 -40q80 -32 146.5 -83t95.5 -128.5t29 -147.5q0 -141 -76 -236t-187 -147t-301 -52 q-164 0 -271 40t-171 102q-31 31 -31 57q0 15 11 29zM453 1701l28 41q13 20 33 20q12 0 26 -7l257 -132h2l319 132q17 7 28 7q20 0 25 -20l14 -59q1 -5 1 -9q0 -26 -39 -42l-248 -104q-43 -18 -68 -18h-70q-25 0 -60 18l-234 122q-22 12 -22 29q0 10 8 22z" />
<glyph unicode="&#x161;" horiz-adv-x="937" d="M20 157l50 59q9 10 22 10q18 0 43 -19q57 -43 122.5 -68.5t137.5 -25.5q54 0 107.5 14.5t88.5 57.5t35 86t-12.5 73t-43.5 51t-62 33l-96 38q-55 22 -102 44q-46 22 -82 63t-53 89.5t-17 103.5q0 82 50 160.5t144.5 109.5t205.5 31q96 0 173 -27.5t131 -72.5 q30 -25 4 -54l-50 -56q-8 -8 -19 -8q-18 0 -45 19q-40 28 -92 46t-107 18q-48 0 -101.5 -14t-85.5 -50t-32 -86q0 -36 10 -66t35.5 -50.5t54.5 -33.5q52 -24 100.5 -41t88.5 -35q70 -30 114 -70t59.5 -89t15.5 -106q0 -111 -69.5 -184t-158.5 -98.5t-204 -25.5 q-143 0 -228.5 39.5t-123.5 79.5q-17 18 -17 34q0 11 9 21zM325 1343q-14 14 -14 28t15 27l25 23q14 13 28 13t29 -15l172 -179h2l256 179q21 15 35 15t22 -13l25 -39q5 -7 5 -15q0 -19 -30 -40l-234 -163q-37 -26 -62 -26h-50q-25 0 -50 26z" />
<glyph unicode="&#x164;" horiz-adv-x="1240" d="M218 1307l19 82q10 45 65 45h1058q47 0 47 -32q0 -6 -2 -13l-19 -82q-11 -45 -66 -45h-433l-278 -1207q-13 -55 -63 -55h-92q-40 0 -40 35q0 9 3 20l278 1207h-433q-46 0 -46 31q0 7 2 14zM523 1701l28 41q13 20 33 20q12 0 26 -7l257 -132h2l319 132q17 7 28 7 q20 0 25 -20l14 -59q1 -5 1 -9q0 -26 -39 -42l-248 -104q-43 -18 -68 -18h-70q-25 0 -60 18l-234 122q-22 12 -22 29q0 10 8 22z" />
<glyph unicode="&#x165;" horiz-adv-x="757" d="M146 953l14 62q8 35 53 35h118l21 90q5 19 19 38l99 127q27 35 39 35h35q30 0 22 -35l-59 -255h213q45 0 37 -35l-14 -62q-8 -35 -53 -35h-213l-147 -637q-12 -52 -12 -86q0 -35 12 -51q25 -31 60 -31q46 0 95 17.5t66 28.5q22 14 29 -6l26 -72q6 -18 -11 -29 q-41 -26 -119.5 -47.5t-167.5 -21.5q-88 0 -138 75q-31 46 -31 115q0 44 12 97l150 648h-118q-38 0 -38 25q0 5 1 10zM640 1156q-10 7 -10 18q0 13 15 32q27 34 50 82t33 96l10 47q10 45 56 45h86q36 0 36 -30q0 -7 -2 -15l-7 -32q-23 -105 -67 -166.5t-89 -96.5 q-26 -20 -41 -20q-6 0 -11 3z" />
<glyph unicode="&#x168;" horiz-adv-x="1402" d="M176 547l192 832q13 55 63 55h92q40 0 40 -35q0 -9 -3 -20l-185 -802q-33 -146 -33 -239q0 -85 28 -126q59 -86 240 -86q146 0 262.5 85.5t180.5 365.5l185 802q13 55 63 55h92q40 0 40 -35q0 -9 -3 -20l-192 -832q-73 -317 -234 -447t-430 -130q-199 0 -335 130 q-88 85 -88 248q0 88 25 199zM594 1620q28 65 85.5 108t146.5 43q75 0 159 -49t128 -49q48 0 81 27t49 52q14 21 28 21q5 0 10 -3l42 -25q14 -8 14 -24q0 -9 -5 -21q-28 -65 -85.5 -108t-146.5 -43q-75 0 -159 49t-128 49q-48 0 -81 -27t-49 -52q-14 -21 -28 -21q-5 0 -10 3 l-42 25q-14 8 -14 24q0 9 5 21z" />
<glyph unicode="&#x169;" horiz-adv-x="1120" d="M104 366l148 639q10 45 55 45h86q37 0 37 -30q0 -7 -2 -15l-136 -591q-22 -95 -22 -157q0 -65 25 -92q48 -52 153 -52q147 0 230 116.5t118 266.5l118 509q10 45 55 45h86q37 0 37 -30q0 -7 -2 -15l-222 -960q-10 -45 -55 -45h-84q-37 0 -37 30q0 7 2 15l28 120h-4 q-59 -73 -154.5 -127.5t-210.5 -54.5q-160 0 -225 103q-40 62 -40 154q0 57 16 126zM412 1219q21 71 71.5 116t130.5 45q68 0 138 -55t109 -55q43 0 64 22t37 60q13 30 37 20l39 -17q15 -7 15 -25q0 -8 -3 -19q-21 -71 -71.5 -116t-130.5 -45q-68 0 -138 55t-109 55 q-43 0 -64 -22t-37 -60q-13 -30 -37 -20l-39 17q-15 7 -15 25q0 8 3 19z" />
<glyph unicode="&#x16a;" horiz-adv-x="1402" d="M176 547l192 832q13 55 63 55h92q40 0 40 -35q0 -9 -3 -20l-185 -802q-33 -146 -33 -239q0 -85 28 -126q59 -86 240 -86q146 0 262.5 85.5t180.5 365.5l185 802q13 55 63 55h92q40 0 40 -35q0 -9 -3 -20l-192 -832q-73 -317 -234 -447t-430 -130q-199 0 -335 130 q-88 85 -88 248q0 88 25 199zM584 1598l11 50q10 40 55 40h640q37 0 37 -27q0 -6 -2 -13l-11 -50q-9 -40 -54 -40h-640q-38 0 -38 28q0 5 2 12z" />
<glyph unicode="&#x16b;" horiz-adv-x="1120" d="M104 366l148 639q10 45 55 45h86q37 0 37 -30q0 -7 -2 -15l-136 -591q-22 -95 -22 -157q0 -65 25 -92q48 -52 153 -52q147 0 230 116.5t118 266.5l118 509q10 45 55 45h86q37 0 37 -30q0 -7 -2 -15l-222 -960q-10 -45 -55 -45h-84q-37 0 -37 30q0 7 2 15l28 120h-4 q-59 -73 -154.5 -127.5t-210.5 -54.5q-160 0 -225 103q-40 62 -40 154q0 57 16 126zM424 1275l10 40q8 35 53 35h528q38 0 38 -25q0 -5 -1 -10l-10 -40q-8 -35 -53 -35h-528q-38 0 -38 25q0 5 1 10z" />
<glyph unicode="&#x16c;" horiz-adv-x="1402" d="M176 547l192 832q13 55 63 55h92q40 0 40 -35q0 -9 -3 -20l-185 -802q-33 -146 -33 -239q0 -85 28 -126q59 -86 240 -86q146 0 262.5 85.5t180.5 365.5l185 802q13 55 63 55h92q40 0 40 -35q0 -9 -3 -20l-192 -832q-73 -317 -234 -447t-430 -130q-199 0 -335 130 q-88 85 -88 248q0 88 25 199zM639 1784q-4 14 -4 24q0 27 25 34l52 15q7 2 13 2q24 0 37 -30q26 -60 69.5 -95.5t141.5 -35.5q84 0 154.5 45t111.5 96q16 20 35 20q10 0 22 -7l45 -28q17 -11 17 -28q0 -15 -12 -34q-66 -108 -174.5 -161t-215.5 -53q-111 0 -196.5 57 t-120.5 179z" />
<glyph unicode="&#x16d;" horiz-adv-x="1120" d="M104 366l148 639q10 45 55 45h86q37 0 37 -30q0 -7 -2 -15l-136 -591q-22 -95 -22 -157q0 -65 25 -92q48 -52 153 -52q147 0 230 116.5t118 266.5l118 509q10 45 55 45h86q37 0 37 -30q0 -7 -2 -15l-222 -960q-10 -45 -55 -45h-84q-37 0 -37 30q0 7 2 15l28 120h-4 q-59 -73 -154.5 -127.5t-210.5 -54.5q-160 0 -225 103q-40 62 -40 154q0 57 16 126zM446 1370q-5 13 -5 23q0 22 23 30l48 18q8 3 14 3q20 0 30 -25q27 -67 62 -105t112 -38q90 0 144.5 42.5t93.5 103.5q13 20 29 20q8 0 17 -5l45 -27q18 -10 18 -27q0 -12 -10 -28 q-64 -112 -160.5 -160.5t-195.5 -48.5q-106 0 -164 52t-101 172z" />
<glyph unicode="&#x16e;" horiz-adv-x="1402" d="M176 547l192 832q13 55 63 55h92q40 0 40 -35q0 -9 -3 -20l-185 -802q-33 -146 -33 -239q0 -85 28 -126q59 -86 240 -86q146 0 262.5 85.5t180.5 365.5l185 802q13 55 63 55h92q40 0 40 -35q0 -9 -3 -20l-192 -832q-73 -317 -234 -447t-430 -130q-199 0 -335 130 q-88 85 -88 248q0 88 25 199zM792 1707q0 75 52 124t130 49t130 -50t52 -123t-52 -123t-130 -50t-130 49t-52 124zM870 1707q0 -42 29 -70.5t75 -28.5t75 28.5t29 70.5t-29 70.5t-75 28.5t-75 -28.5t-29 -70.5z" />
<glyph unicode="&#x16f;" horiz-adv-x="1120" d="M104 366l148 639q10 45 55 45h86q37 0 37 -30q0 -7 -2 -15l-136 -591q-22 -95 -22 -157q0 -65 25 -92q48 -52 153 -52q147 0 230 116.5t118 266.5l118 509q10 45 55 45h86q37 0 37 -30q0 -7 -2 -15l-222 -960q-10 -45 -55 -45h-84q-37 0 -37 30q0 7 2 15l28 120h-4 q-59 -73 -154.5 -127.5t-210.5 -54.5q-160 0 -225 103q-40 62 -40 154q0 57 16 126zM520 1313q0 75 52.5 127.5t127.5 52.5t127.5 -52.5t52.5 -127.5t-52.5 -127.5t-127.5 -52.5t-127.5 52.5t-52.5 127.5zM596 1313q0 -44 30 -74t74 -30t74 30t30 74t-30 74t-74 30t-74 -30 t-30 -74z" />
<glyph unicode="&#x170;" horiz-adv-x="1402" d="M176 547l192 832q13 55 63 55h92q40 0 40 -35q0 -9 -3 -20l-185 -802q-33 -146 -33 -239q0 -85 28 -126q59 -86 240 -86q146 0 262.5 85.5t180.5 365.5l185 802q13 55 63 55h92q40 0 40 -35q0 -9 -3 -20l-192 -832q-73 -317 -234 -447t-430 -130q-199 0 -335 130 q-88 85 -88 248q0 88 25 199zM707 1593l149 155q35 37 86 37h131q38 0 38 -14q0 -13 -31 -38l-210 -164q-38 -29 -82 -29h-77q-29 0 -29 14t25 39zM1077 1593l149 155q35 37 86 37h131q38 0 38 -14q0 -13 -31 -38l-210 -164q-38 -29 -82 -29h-77q-29 0 -29 14t25 39z" />
<glyph unicode="&#x171;" horiz-adv-x="1120" d="M104 366l148 639q10 45 55 45h86q37 0 37 -30q0 -7 -2 -15l-136 -591q-22 -95 -22 -157q0 -65 25 -92q48 -52 153 -52q147 0 230 116.5t118 266.5l118 509q10 45 55 45h86q37 0 37 -30q0 -7 -2 -15l-222 -960q-10 -45 -55 -45h-84q-37 0 -37 30q0 7 2 15l28 120h-4 q-59 -73 -154.5 -127.5t-210.5 -54.5q-160 0 -225 103q-40 62 -40 154q0 57 16 126zM506 1203l126 195q24 37 87 37h107q29 0 29 -15q0 -13 -23 -37l-188 -204q-27 -29 -81 -29h-52q-21 0 -21 15q0 13 16 38zM806 1203l126 195q24 37 87 37h107q29 0 29 -15q0 -13 -23 -37 l-188 -204q-27 -29 -81 -29h-52q-21 0 -21 15q0 13 16 38z" />
<glyph unicode="&#x174;" horiz-adv-x="1888" d="M240 1374v8q0 52 40 52h107q31 0 32 -46l23 -961v-40q0 -40 -1 -77q-2 -57 -2 -137h5q24 59 50 117l62 136l439 954q25 54 76 54h135q51 0 52 -54l18 -954q1 -25 1 -53.5t-1 -62.5q-1 -66 -1 -137h5l63 133q36 74 57 121l434 961q21 46 54 46h132q24 0 24 -21 q0 -14 -12 -39l-633 -1297q-38 -77 -92 -77h-125q-50 0 -52 84l-26 959q-1 34 -1 61q0 33 1 56q3 42 3 99h-2q-21 -61 -37 -103.5t-49 -112.5l-453 -959q-40 -84 -90 -84h-125q-53 0 -56 77zM822 1589q-1 5 -1 9q0 26 39 42l248 104q43 18 68 18h70q25 0 60 -18l234 -122 q22 -12 22 -29q0 -10 -8 -22l-28 -41q-13 -20 -33 -20q-12 0 -26 7l-257 132h-2l-319 -132q-17 -7 -28 -7q-20 0 -25 20z" />
<glyph unicode="&#x175;" horiz-adv-x="1444" d="M156 1001q-2 49 38 49h97q36 0 36 -39l-3 -660q0 -45 -1 -98t-1 -84h4q11 28 38 87.5t45 94.5l328 660q19 39 54 39h90q35 0 36 -39l24 -660q1 -18 1 -39t-1 -46q-1 -48 -1 -97h4l42 91l42 91l299 660q18 39 54 39h113q25 0 25 -19q0 -12 -9 -30l-465 -940 q-30 -61 -68 -61h-120q-38 0 -40 61l-17 661v43v49q2 34 5 59h-2q-9 -25 -26 -66t-39 -85l-323 -661q-30 -61 -68 -61h-120q-38 0 -40 61zM578 1190q-5 7 -5 15q0 19 30 40l234 163q37 26 62 26h50q25 0 50 -26l174 -179q14 -14 14 -28t-15 -27l-25 -23q-14 -13 -28 -13 t-29 15l-172 179h-2l-256 -179q-21 -15 -35 -15t-22 13z" />
<glyph unicode="&#x176;" horiz-adv-x="1302" d="M250 1368q-8 19 -8 32q0 34 50 34h93q44 0 61 -49l156 -437l38 -110q23 -69 37 -129h4q42 60 83 112l102 127l358 437q40 49 83 49h125q38 0 38 -20q0 -16 -26 -46l-681 -778l-123 -535q-13 -55 -63 -55h-92q-40 0 -40 35q0 9 3 20l123 535zM529 1589q-1 5 -1 9 q0 26 39 42l248 104q43 18 68 18h70q25 0 60 -18l234 -122q22 -12 22 -29q0 -10 -8 -22l-28 -41q-13 -20 -33 -20q-12 0 -26 7l-257 132h-2l-319 -132q-17 -7 -28 -7q-20 0 -25 20z" />
<glyph unicode="&#x177;" horiz-adv-x="1128" d="M0 -306q-14 19 -14 36q0 18 16 32l56 52q32 29 50 0q30 -48 87 -74.5t170 -26.5q121 0 206.5 68.5t122.5 228.5q23 102 37 155h-4q-59 -73 -150 -127.5t-218 -54.5q-170 0 -232 103q-37 61 -37 150q0 59 16 130l148 639q10 45 55 45h86q37 0 37 -30q0 -7 -2 -15 l-136 -591q-22 -96 -22 -157q0 -65 24 -92q48 -52 158 -52q106 0 211.5 113.5t141.5 269.5l117 509q10 45 55 45h86q37 0 37 -30q0 -7 -2 -15l-234 -1014q-47 -205 -158 -306.5t-374 -101.5q-171 0 -236 33t-98 78zM421 1190q-5 7 -5 15q0 19 30 40l234 163q37 26 62 26h50 q25 0 50 -26l174 -179q14 -14 14 -28t-15 -27l-25 -23q-14 -13 -28 -13t-29 15l-172 179h-2l-256 -179q-21 -15 -35 -15t-22 13z" />
<glyph unicode="&#x178;" horiz-adv-x="1302" d="M250 1368q-8 19 -8 32q0 34 50 34h93q44 0 61 -49l156 -437l38 -110q23 -69 37 -129h4q42 60 83 112l102 127l358 437q40 49 83 49h125q38 0 38 -20q0 -16 -26 -46l-681 -778l-123 -535q-13 -55 -63 -55h-92q-40 0 -40 35q0 9 3 20l123 535zM568 1595l21 92q11 45 56 45 h92q36 0 36 -29q0 -7 -2 -16l-21 -92q-10 -45 -55 -45h-92q-37 0 -37 30q0 7 2 15zM1046 1595l21 92q11 45 56 45h92q36 0 36 -29q0 -7 -2 -16l-21 -92q-10 -45 -55 -45h-92q-37 0 -37 30q0 7 2 15z" />
<glyph unicode="&#x179;" horiz-adv-x="1216" d="M-45 45l11 48q10 45 51 89l1010 1086l1 4q-41 -2 -81 -2h-622q-46 0 -46 32q0 6 2 13l17 74q10 45 65 45h922q47 0 47 -32q0 -6 -2 -13l-7 -31q-7 -30 -35 -61l-1034 -1131l-1 -4q28 2 81 2h680q46 0 46 -32q0 -6 -2 -13l-17 -74q-10 -45 -65 -45h-976q-47 0 -47 32 q0 6 2 13zM782 1593l155 155q37 37 86 37h169q40 0 40 -14q0 -13 -33 -38l-221 -164q-40 -29 -86 -29h-106q-30 0 -30 14q0 13 26 39z" />
<glyph unicode="&#x17a;" horiz-adv-x="950" d="M-57 35l12 51q8 34 53 80l737 752v2q-30 -2 -60 -2h-469q-45 0 -37 35l14 62q8 35 53 35h702q38 0 38 -25q0 -5 -1 -10l-11 -47q-7 -28 -55 -78l-740 -758v-2q30 2 60 2h521q45 0 37 -35l-14 -62q-8 -35 -53 -35h-750q-38 0 -38 25q0 5 1 10zM536 1203l166 195 q32 37 87 37h121q31 0 31 -14q0 -13 -25 -38l-206 -204q-30 -29 -85 -29h-84q-26 0 -26 15q0 13 21 38z" />
<glyph unicode="&#x17b;" horiz-adv-x="1216" d="M-45 45l11 48q10 45 51 89l1010 1086l1 4q-41 -2 -81 -2h-622q-46 0 -46 32q0 6 2 13l17 74q10 45 65 45h922q47 0 47 -32q0 -6 -2 -13l-7 -31q-7 -30 -35 -61l-1034 -1131l-1 -4q28 2 81 2h680q46 0 46 -32q0 -6 -2 -13l-17 -74q-10 -45 -65 -45h-976q-47 0 -47 32 q0 6 2 13zM759 1590l24 102q10 45 55 45h102q37 0 37 -30q0 -7 -2 -15l-24 -102q-10 -45 -55 -45h-102q-37 0 -37 30q0 7 2 15z" />
<glyph unicode="&#x17c;" horiz-adv-x="950" d="M-57 35l12 51q8 34 53 80l737 752v2q-30 -2 -60 -2h-469q-45 0 -37 35l14 62q8 35 53 35h702q38 0 38 -25q0 -5 -1 -10l-11 -47q-7 -28 -55 -78l-740 -758v-2q30 2 60 2h521q45 0 37 -35l-14 -62q-8 -35 -53 -35h-750q-38 0 -38 25q0 5 1 10zM563 1285l20 86q10 45 55 45 h86q37 0 37 -30q0 -7 -2 -15l-20 -86q-11 -45 -56 -45h-86q-36 0 -36 29q0 7 2 16z" />
<glyph unicode="&#x17d;" horiz-adv-x="1216" d="M-45 45l11 48q10 45 51 89l1010 1086l1 4q-41 -2 -81 -2h-622q-46 0 -46 32q0 6 2 13l17 74q10 45 65 45h922q47 0 47 -32q0 -6 -2 -13l-7 -31q-7 -30 -35 -61l-1034 -1131l-1 -4q28 2 81 2h680q46 0 46 -32q0 -6 -2 -13l-17 -74q-10 -45 -65 -45h-976q-47 0 -47 32 q0 6 2 13zM512 1701l28 41q13 20 33 20q12 0 26 -7l257 -132h2l319 132q17 7 28 7q20 0 25 -20l14 -59q1 -5 1 -9q0 -26 -39 -42l-248 -104q-43 -18 -68 -18h-70q-25 0 -60 18l-234 122q-22 12 -22 29q0 10 8 22z" />
<glyph unicode="&#x17e;" horiz-adv-x="950" d="M-57 35l12 51q8 34 53 80l737 752v2q-30 -2 -60 -2h-469q-45 0 -37 35l14 62q8 35 53 35h702q38 0 38 -25q0 -5 -1 -10l-11 -47q-7 -28 -55 -78l-740 -758v-2q30 2 60 2h521q45 0 37 -35l-14 -62q-8 -35 -53 -35h-750q-38 0 -38 25q0 5 1 10zM368 1343q-14 14 -14 28 t15 27l25 23q14 13 28 13t29 -15l172 -179h2l256 179q21 15 35 15t22 -13l25 -39q5 -7 5 -15q0 -19 -30 -40l-234 -163q-37 -26 -62 -26h-50q-25 0 -50 26z" />
<glyph unicode="&#x17f;" horiz-adv-x="580" d="M-60 -355l359 1554q39 167 144 230.5t210 63.5q67 0 105 -7t91 -31q12 -5 12 -15q0 -8 -6 -17l-50 -79q-13 -20 -37 -8q-19 10 -46.5 18.5t-62.5 8.5q-79 0 -123 -44.5t-68 -148.5l-352 -1525q-10 -45 -55 -45h-86q-37 0 -37 30q0 7 2 15z" />
<glyph unicode="&#x186;" horiz-adv-x="1392" d="M117 204q-23 53 23 80l78 46q27 16 52 -28q30 -54 109 -115t214 -61q250 0 413 183t163 568q0 182 -96 306.5t-326 124.5q-136 0 -230.5 -71.5t-146.5 -143.5q-42 -58 -78 -35l-90 58q-33 21 8 80q79 115 213 191.5t351 76.5q302 0 451 -172.5t149 -437.5 q0 -395 -210.5 -639.5t-587.5 -244.5q-184 0 -298 64t-161 170z" />
<glyph unicode="&#x189;" horiz-adv-x="1446" d="M81 699l17 74q10 45 66 45h115l129 561q13 55 63 55h319q358 0 496 -175t138 -411q0 -340 -210 -594t-655 -254h-419q-40 0 -40 35q0 9 3 20l138 599h-115q-47 0 -47 32q0 6 2 13zM320 164h268q332 0 481.5 212t149.5 484q0 172 -81.5 292t-393.5 120h-168l-105 -454h321 q46 0 46 -31q0 -7 -2 -14l-17 -74q-10 -45 -65 -45h-321z" />
<glyph unicode="&#x18f;" horiz-adv-x="1464" d="M87 547q0 98 25 208q15 63 74 65h1054q1 42 1 83q0 135 -87.5 270t-321.5 135q-134 0 -202 -26.5t-173 -90.5q-28 -17 -47.5 -17t-31.5 17l-46 64q-7 10 -7 21q0 24 39 51q83 57 210.5 97t290.5 40q242 0 411 -148.5t169 -468.5q0 -350 -200.5 -613.5t-569.5 -263.5 q-318 0 -453 187t-135 390zM290 530q0 -133 89 -268.5t316 -135.5q184 0 326 126t206 404h-922q-15 -65 -15 -126z" />
<glyph unicode="&#x197;" horiz-adv-x="702" d="M89 689l17 74q10 45 66 45h150l131 571q13 55 63 55h92q40 0 40 -35q0 -9 -3 -20l-131 -571h150q46 0 46 -31q0 -7 -2 -14l-17 -74q-10 -45 -65 -45h-150l-136 -589q-13 -55 -63 -55h-92q-40 0 -40 35q0 9 3 20l136 589h-150q-47 0 -47 32q0 6 2 13z" />
<glyph unicode="&#x19f;" horiz-adv-x="1514" d="M110 580q0 400 214 642t554 242q305 0 461 -162.5t156 -447.5q0 -400 -214 -642t-554 -242q-305 0 -461 162.5t-156 447.5zM315 556q0 -205 106.5 -317.5t316.5 -112.5q220 0 361 156t176 382h-956q-4 -52 -4 -108zM341 828h948q1 25 1 50q0 205 -106.5 317.5 t-316.5 112.5q-220 0 -353.5 -147.5t-172.5 -332.5z" />
<glyph unicode="&#x1a9;" horiz-adv-x="1208" d="M-36 45l11 48q10 46 51 89l515 552q22 24 22 48q0 12 -6 24l-257 493q-14 27 -6 61l7 29q11 45 65 45h898q47 0 47 -32q0 -6 -2 -13l-17 -74q-10 -45 -66 -45h-628q-40 0 -79 2l-1 -4l257 -498q6 -11 6 -23q0 -22 -21 -44l-506 -537l-1 -4q27 2 81 2h665q46 0 46 -32 q0 -6 -2 -13l-17 -74q-10 -45 -65 -45h-952q-47 0 -47 32q0 6 2 13z" />
<glyph unicode="&#x1b7;" horiz-adv-x="1257" d="M57 240l71 57q14 12 29 12q25 0 52 -33q51 -62 122 -106t216 -44q182 0 281.5 102t99.5 234q0 96 -62 152.5t-228 56.5h-113q-47 0 -47 31q0 5 2 12l16 70q12 51 44 80l447 404v4q-40 -2 -81 -2h-560q-46 0 -46 32q0 6 2 13l17 74q10 45 65 45h866q47 0 47 -32 q0 -6 -2 -13l-10 -45q-9 -38 -34 -61l-500 -446v-4q164 0 272 -98.5t108 -257.5q0 -191 -153 -349t-452 -158q-208 0 -307 61.5t-157 131.5q-21 26 -21 46q0 18 16 31z" />
<glyph unicode="&#x1cd;" horiz-adv-x="1360" d="M-59 66l770 1307q36 61 80 61h140q41 0 52 -61l226 -1307q2 -11 2 -21q0 -45 -44 -45h-91q-53 0 -61 49l-57 331h-615l-195 -331q-29 -49 -83 -49h-112q-29 0 -29 21q0 16 17 45zM441 544h488l-70 400q-13 72 -21 157.5t-8 159.5h-4q-18 -71 -56 -145t-95 -172zM554 1701 l28 41q13 20 33 20q12 0 26 -7l257 -132h2l319 132q17 7 28 7q20 0 25 -20l14 -59q1 -5 1 -9q0 -26 -39 -42l-248 -104q-43 -18 -68 -18h-70q-25 0 -60 18l-234 122q-22 12 -22 29q0 10 8 22z" />
<glyph unicode="&#x1ce;" horiz-adv-x="1099" d="M66 339q0 275 186.5 501.5t391.5 226.5q90 0 148 -37.5t86 -87.5h2l21 63q15 45 49 45h84q37 0 37 -30q0 -7 -2 -15l-222 -960q-10 -45 -55 -45h-81q-37 0 -37 31q0 6 2 14l25 120h-2q-49 -65 -130.5 -123.5t-181.5 -58.5q-145 0 -233 87.5t-88 268.5zM252 332 q0 -66 35.5 -142.5t145.5 -76.5q90 0 199 119t139 248l67 290q0 90 -57.5 128.5t-142.5 38.5q-140 0 -263 -179.5t-123 -425.5zM411 1343q-14 14 -14 28t15 27l25 23q14 13 28 13t29 -15l172 -179h2l256 179q21 15 35 15t22 -13l25 -39q5 -7 5 -15q0 -19 -30 -40l-234 -163 q-37 -26 -62 -26h-50q-25 0 -50 26z" />
<glyph unicode="&#x1cf;" horiz-adv-x="532" d="M63 55l305 1324q13 55 63 55h92q40 0 40 -35q0 -9 -3 -20l-305 -1324q-13 -55 -63 -55h-92q-40 0 -40 35q0 9 3 20zM169 1701l28 41q13 20 33 20q12 0 26 -7l257 -132h2l319 132q17 7 28 7q20 0 25 -20l14 -59q1 -5 1 -9q0 -26 -39 -42l-248 -104q-43 -18 -68 -18h-70 q-25 0 -60 18l-234 122q-22 12 -22 29q0 10 8 22z" />
<glyph unicode="&#x1d1;" horiz-adv-x="1514" d="M110 580q0 400 214 642t554 242q305 0 461 -162.5t156 -447.5q0 -400 -214 -642t-554 -242q-305 0 -461 162.5t-156 447.5zM315 556q0 -205 106.5 -317.5t316.5 -112.5q220 0 386 183.5t166 568.5q0 205 -106.5 317.5t-316.5 112.5q-220 0 -386 -183.5t-166 -568.5z M564 1701l28 41q13 20 33 20q12 0 26 -7l257 -132h2l319 132q17 7 28 7q20 0 25 -20l14 -59q1 -5 1 -9q0 -26 -39 -42l-248 -104q-43 -18 -68 -18h-70q-25 0 -60 18l-234 122q-22 12 -22 29q0 10 8 22z" />
<glyph unicode="&#x1d2;" horiz-adv-x="1148" d="M68 402q0 264 163.5 464.5t428.5 200.5q234 0 327 -134.5t93 -284.5q0 -264 -163.5 -464.5t-428.5 -200.5q-234 0 -327 134.5t-93 284.5zM254 387q0 -125 58.5 -199.5t188.5 -74.5q156 0 274.5 141.5t118.5 408.5q0 125 -58.5 199.5t-188.5 74.5q-156 0 -274.5 -141.5 t-118.5 -408.5zM427 1343q-14 14 -14 28t15 27l25 23q14 13 28 13t29 -15l172 -179h2l256 179q21 15 35 15t22 -13l25 -39q5 -7 5 -15q0 -19 -30 -40l-234 -163q-37 -26 -62 -26h-50q-25 0 -50 26z" />
<glyph unicode="&#x1d3;" horiz-adv-x="1402" d="M176 547l192 832q13 55 63 55h92q40 0 40 -35q0 -9 -3 -20l-185 -802q-33 -146 -33 -239q0 -85 28 -126q59 -86 240 -86q146 0 262.5 85.5t180.5 365.5l185 802q13 55 63 55h92q40 0 40 -35q0 -9 -3 -20l-192 -832q-73 -317 -234 -447t-430 -130q-199 0 -335 130 q-88 85 -88 248q0 88 25 199zM604 1701l28 41q13 20 33 20q12 0 26 -7l257 -132h2l319 132q17 7 28 7q20 0 25 -20l14 -59q1 -5 1 -9q0 -26 -39 -42l-248 -104q-43 -18 -68 -18h-70q-25 0 -60 18l-234 122q-22 12 -22 29q0 10 8 22z" />
<glyph unicode="&#x1d4;" horiz-adv-x="1120" d="M104 366l148 639q10 45 55 45h86q37 0 37 -30q0 -7 -2 -15l-136 -591q-22 -95 -22 -157q0 -65 25 -92q48 -52 153 -52q147 0 230 116.5t118 266.5l118 509q10 45 55 45h86q37 0 37 -30q0 -7 -2 -15l-222 -960q-10 -45 -55 -45h-84q-37 0 -37 30q0 7 2 15l28 120h-4 q-59 -73 -154.5 -127.5t-210.5 -54.5q-160 0 -225 103q-40 62 -40 154q0 57 16 126zM452 1343q-14 14 -14 28t15 27l25 23q14 13 28 13t29 -15l172 -179h2l256 179q21 15 35 15t22 -13l25 -39q5 -7 5 -15q0 -19 -30 -40l-234 -163q-37 -26 -62 -26h-50q-25 0 -50 26z" />
<glyph unicode="&#x1dd;" horiz-adv-x="1078" d="M82 272q0 148 141.5 218t350.5 112l246 49q6 38 6 40q0 99 -54 172t-189 73q-115 0 -185 -42t-95 -76q-23 -30 -42 -30q-11 0 -21 9l-59 51q-19 17 6 56q23 36 124 99.5t296 63.5q213 0 309 -123.5t96 -289.5q0 -300 -156.5 -485.5t-427.5 -185.5q-155 0 -250.5 88.5 t-95.5 200.5zM258 264q0 -68 61.5 -109.5t141.5 -41.5q121 0 215.5 92t138.5 307l-205 -40q-140 -27 -246 -74.5t-106 -133.5z" />
<glyph unicode="&#x1e2;" horiz-adv-x="1957" d="M-59 66l924 1316q37 52 79 52h1049q47 0 47 -32q0 -6 -2 -13l-17 -74q-10 -45 -66 -45h-693l-102 -444h633q46 0 46 -32q0 -6 -2 -13l-17 -74q-10 -45 -65 -45h-633l-115 -498h723q46 0 46 -32q0 -6 -2 -13l-17 -74q-10 -45 -65 -45h-865q-40 0 -40 35q0 9 3 20l75 325 h-474l-232 -331q-34 -49 -78 -49h-127q-33 0 -33 21q0 16 20 45zM506 544h397l167 726h-72q-30 -59 -66 -115l-69 -102zM831 1598l11 50q10 40 55 40h640q37 0 37 -27q0 -6 -2 -13l-11 -50q-9 -40 -54 -40h-640q-37 0 -37 28q0 5 1 12z" />
<glyph unicode="&#x1e3;" horiz-adv-x="1698" d="M35 220q0 182 165.5 290t564.5 128l16 68q10 44 10 80q0 52 -21 88q-35 63 -156 63q-92 0 -155 -24.5t-134 -92.5q-29 -28 -51 -3l-47 55q-9 11 -9 22q0 18 24 38q88 72 196 103.5t192 31.5q106 0 180 -31.5t111 -112.5h2q39 40 133 92t236 52q154 0 240 -92.5t86 -196.5 q0 -142 -117.5 -212.5t-361.5 -120.5l-224 -46q-6 -38 -6 -40q0 -103 55 -174t173 -71q98 0 167.5 45t92.5 73q24 29 44 29q10 0 19 -8l56 -51q23 -21 -6 -56q-31 -38 -121 -100.5t-276 -62.5q-117 0 -205.5 48t-132.5 151h-2q-94 -92 -204 -145.5t-206 -53.5 q-187 0 -257.5 63.5t-70.5 173.5zM217 242q0 -62 36.5 -93t124.5 -31q100 0 191.5 41.5t164.5 118.5q-11 45 -11 97q0 62 16 132q-325 -21 -423.5 -95t-98.5 -170zM694 1275l10 40q8 35 53 35h528q45 0 37 -35l-10 -40q-8 -35 -53 -35h-528q-38 0 -38 25q0 5 1 10zM920 538 l183 37q200 40 269.5 82.5t69.5 128.5q0 68 -44.5 109.5t-138.5 41.5q-107 0 -201 -92t-138 -307z" />
<glyph unicode="&#x1e6;" horiz-adv-x="1470" d="M110 580q0 395 210.5 639.5t595.5 244.5q194 0 308 -66t158 -150q10 -19 10 -35q0 -27 -29 -46l-76 -50q-8 -6 -17 -6q-19 0 -36 31q-25 43 -109 104.5t-226 61.5q-257 0 -420.5 -183t-163.5 -568q0 -182 96 -306.5t326 -124.5q130 0 240 40t162 96l57 248h-297 q-47 0 -47 32q0 6 2 13l17 74q11 45 66 45h434q46 0 46 -31q0 -7 -2 -14l-109 -472q-142 -106 -270 -146.5t-326 -40.5q-302 0 -451 172.5t-149 437.5zM602 1701l28 41q13 20 33 20q12 0 26 -7l257 -132h2l319 132q17 7 28 7q20 0 25 -20l14 -59q1 -5 1 -9q0 -26 -39 -42 l-248 -104q-43 -18 -68 -18h-70q-25 0 -60 18l-234 122q-22 12 -22 29q0 10 8 22z" />
<glyph unicode="&#x1e7;" horiz-adv-x="1119" d="M-16 -298q-10 16 -10 30q0 16 14 30l50 48q11 11 23 11q15 0 33 -19q38 -40 96 -64.5t164 -24.5q124 0 208.5 67.5t121.5 230.5l21 93q6 27 16 61h-2q-44 -79 -137 -130.5t-173 -51.5q-190 0 -264.5 116.5t-74.5 279.5q0 255 161 471.5t379 216.5q111 0 173 -33.5 t113 -101.5h2l23 73q14 45 49 45h84q37 0 37 -30q0 -7 -2 -15l-234 -1013q-47 -205 -160 -307t-372 -102q-135 0 -221 32.5t-118 86.5zM256 372q0 -104 45 -181.5t158 -77.5q98 0 199.5 117.5t132.5 249.5l65 280q-10 100 -65 138.5t-167 38.5q-152 0 -260 -169.5 t-108 -395.5zM423 1343q-14 14 -14 28t15 27l25 23q14 13 28 13t29 -15l172 -179h2l256 179q21 15 35 15t22 -13l25 -39q5 -7 5 -15q0 -19 -30 -40l-234 -163q-37 -26 -62 -26h-50q-25 0 -50 26z" />
<glyph unicode="&#x1e8;" horiz-adv-x="1328" d="M63 55l305 1324q13 55 63 55h92q40 0 40 -35q0 -9 -3 -20l-130 -565q-5 -22 -21 -80h4l799 661q47 39 79 39h143q42 0 42 -17t-39 -49l-628 -518l354 -784q10 -21 10 -36q0 -30 -43 -30h-107q-43 0 -61 39l-307 684l-304 -252l-96 -416q-13 -55 -63 -55h-92q-40 0 -40 35 q0 9 3 20zM632 1701l28 41q13 20 33 20q12 0 26 -7l257 -132h2l319 132q17 7 28 7q20 0 25 -20l14 -59q1 -5 1 -9q0 -26 -39 -42l-248 -104q-43 -18 -68 -18h-70q-25 0 -60 18l-234 122q-22 12 -22 29q0 10 8 22z" />
<glyph unicode="&#x1e9;" horiz-adv-x="1003" d="M32 45l320 1386q10 45 56 45h86q36 0 36 -30q0 -7 -2 -15l-189 -820q-7 -29 -16 -60h2l505 473q28 26 59 26h111q42 0 42 -18q0 -14 -29 -41l-409 -380l228 -552q7 -16 7 -28q0 -31 -47 -31h-81q-33 0 -48 37l-186 454l-211 -198l-58 -248q-11 -45 -55 -45h-86 q-37 0 -37 30q0 7 2 15zM535 1752q-14 14 -14 28t15 27l25 23q14 13 28 13t29 -15l172 -179h2l256 179q21 15 35 15t22 -13l25 -39q5 -7 5 -15q0 -19 -30 -40l-234 -163q-37 -26 -62 -26h-50q-25 0 -50 26z" />
<glyph unicode="&#x1ee;" horiz-adv-x="1257" d="M57 240l71 57q14 12 29 12q25 0 52 -33q51 -62 122 -106t216 -44q182 0 281.5 102t99.5 234q0 96 -62 152.5t-228 56.5h-113q-47 0 -47 31q0 5 2 12l16 70q12 51 44 80l447 404v4q-40 -2 -81 -2h-560q-46 0 -46 32q0 6 2 13l17 74q10 45 65 45h866q47 0 47 -32 q0 -6 -2 -13l-10 -45q-9 -38 -34 -61l-500 -446v-4q164 0 272 -98.5t108 -257.5q0 -191 -153 -349t-452 -158q-208 0 -307 61.5t-157 131.5q-21 26 -21 46q0 18 16 31zM536 1701l28 41q13 20 33 20q12 0 26 -7l257 -132h2l319 132q17 7 28 7q20 0 25 -20l14 -59q1 -5 1 -9 q0 -26 -39 -42l-248 -104q-43 -18 -68 -18h-70q-25 0 -60 18l-234 122q-22 12 -22 29q0 10 8 22z" />
<glyph unicode="&#x1ef;" horiz-adv-x="982" d="M-91 -266q-11 19 -11 32q0 15 13 23l62 41q10 7 21 7q20 0 41 -26q25 -31 74 -64.5t153 -33.5q162 0 250 106.5t88 277.5q0 103 -64 156t-182 53h-83q-45 0 -37 35l16 68q7 31 40 63l461 446v2q-30 -2 -60 -2h-475q-45 0 -37 35l14 62q8 35 53 35h702q38 0 38 -25 q0 -5 -1 -10l-12 -51q-7 -32 -55 -78l-459 -448v-4q144 0 234 -94.5t90 -228.5q0 -222 -132.5 -375t-388.5 -153q-164 0 -245 52.5t-108 98.5zM376 1343q-14 14 -14 28t15 27l25 23q14 13 28 13t29 -15l172 -179h2l256 179q21 15 35 15t22 -13l25 -39q5 -7 5 -15 q0 -19 -30 -40l-234 -163q-37 -26 -62 -26h-50q-25 0 -50 26z" />
<glyph unicode="&#x1f4;" horiz-adv-x="1470" d="M110 580q0 395 210.5 639.5t595.5 244.5q194 0 308 -66t158 -150q10 -19 10 -35q0 -27 -29 -46l-76 -50q-8 -6 -17 -6q-19 0 -36 31q-25 43 -109 104.5t-226 61.5q-257 0 -420.5 -183t-163.5 -568q0 -182 96 -306.5t326 -124.5q130 0 240 40t162 96l57 248h-297 q-47 0 -47 32q0 6 2 13l17 74q11 45 66 45h434q46 0 46 -31q0 -7 -2 -14l-109 -472q-142 -106 -270 -146.5t-326 -40.5q-302 0 -451 172.5t-149 437.5zM872 1593l155 155q37 37 86 37h169q40 0 40 -14q0 -13 -33 -38l-221 -164q-40 -29 -86 -29h-106q-30 0 -30 14 q0 13 26 39z" />
<glyph unicode="&#x1f5;" horiz-adv-x="1119" d="M-16 -298q-10 16 -10 30q0 16 14 30l50 48q11 11 23 11q15 0 33 -19q38 -40 96 -64.5t164 -24.5q124 0 208.5 67.5t121.5 230.5l21 93q6 27 16 61h-2q-44 -79 -137 -130.5t-173 -51.5q-190 0 -264.5 116.5t-74.5 279.5q0 255 161 471.5t379 216.5q111 0 173 -33.5 t113 -101.5h2l23 73q14 45 49 45h84q37 0 37 -30q0 -7 -2 -15l-234 -1013q-47 -205 -160 -307t-372 -102q-135 0 -221 32.5t-118 86.5zM256 372q0 -104 45 -181.5t158 -77.5q98 0 199.5 117.5t132.5 249.5l65 280q-10 100 -65 138.5t-167 38.5q-152 0 -260 -169.5 t-108 -395.5zM591 1203l166 195q32 37 87 37h121q31 0 31 -14q0 -13 -25 -38l-206 -204q-30 -29 -85 -29h-84q-26 0 -26 15q0 13 21 38z" />
<glyph unicode="&#x1f8;" horiz-adv-x="1438" d="M63 55l305 1324q13 55 63 55h121q71 0 89 -50l388 -1060h4q9 46 17 80l224 975q13 55 63 55h92q40 0 40 -35q0 -9 -3 -20l-305 -1324q-13 -55 -63 -55h-82q-70 0 -88 50l-413 1125h-4q-8 -44 -16 -80l-240 -1040q-13 -55 -63 -55h-92q-40 0 -40 35q0 9 3 20zM687 1733 q-24 22 -24 35q0 17 45 17h145q49 0 76 -37l111 -155q15 -21 15 -34q0 -19 -35 -19h-82q-46 0 -76 29z" />
<glyph unicode="&#x1f9;" horiz-adv-x="1128" d="M32 45l222 960q10 45 55 45h84q37 0 37 -30q0 -7 -2 -15l-27 -120h4q59 73 153.5 127.5t214.5 54.5q170 0 232 -103q37 -61 37 -150q0 -59 -16 -130l-148 -639q-10 -45 -55 -45h-86q-37 0 -37 30q0 7 2 15l137 591q22 95 22 156q0 65 -25 92q-48 53 -158 53 q-120 0 -218.5 -116.5t-133.5 -266.5l-118 -509q-10 -45 -55 -45h-86q-37 0 -37 30q0 7 2 15zM515 1383q-15 20 -15 33q0 19 37 19h101q54 0 75 -37l112 -195q11 -20 11 -33q0 -20 -30 -20h-64q-56 0 -77 29z" />
<glyph unicode="&#x1fc;" horiz-adv-x="1957" d="M-59 66l924 1316q37 52 79 52h1049q47 0 47 -32q0 -6 -2 -13l-17 -74q-10 -45 -66 -45h-693l-102 -444h633q46 0 46 -32q0 -6 -2 -13l-17 -74q-10 -45 -65 -45h-633l-115 -498h723q46 0 46 -32q0 -6 -2 -13l-17 -74q-10 -45 -65 -45h-865q-40 0 -40 35q0 9 3 20l75 325 h-474l-232 -331q-34 -49 -78 -49h-127q-33 0 -33 21q0 16 20 45zM506 544h397l167 726h-72q-30 -59 -66 -115l-69 -102zM1121 1593l155 155q37 37 86 37h169q40 0 40 -14q0 -13 -33 -38l-221 -164q-40 -29 -86 -29h-106q-30 0 -30 14q0 13 26 39z" />
<glyph unicode="&#x1fd;" horiz-adv-x="1698" d="M35 220q0 182 165.5 290t564.5 128l16 68q10 44 10 80q0 52 -21 88q-35 63 -156 63q-92 0 -155 -24.5t-134 -92.5q-29 -28 -51 -3l-47 55q-9 11 -9 22q0 18 24 38q88 72 196 103.5t192 31.5q106 0 180 -31.5t111 -112.5h2q39 40 133 92t236 52q154 0 240 -92.5t86 -196.5 q0 -142 -117.5 -212.5t-361.5 -120.5l-224 -46q-6 -38 -6 -40q0 -103 55 -174t173 -71q98 0 167.5 45t92.5 73q24 29 44 29q10 0 19 -8l56 -51q23 -21 -6 -56q-31 -38 -121 -100.5t-276 -62.5q-117 0 -205.5 48t-132.5 151h-2q-94 -92 -204 -145.5t-206 -53.5 q-187 0 -257.5 63.5t-70.5 173.5zM217 242q0 -62 36.5 -93t124.5 -31q100 0 191.5 41.5t164.5 118.5q-11 45 -11 97q0 62 16 132q-325 -21 -423.5 -95t-98.5 -170zM890 1203l166 195q32 37 87 37h121q31 0 31 -14q0 -13 -25 -38l-206 -204q-30 -29 -85 -29h-84q-26 0 -26 15 q0 13 21 38zM920 538l183 37q200 40 269.5 82.5t69.5 128.5q0 68 -44.5 109.5t-138.5 41.5q-107 0 -201 -92t-138 -307z" />
<glyph unicode="&#x200;" horiz-adv-x="1360" d="M-59 66l770 1307q36 61 80 61h140q41 0 52 -61l226 -1307q2 -11 2 -21q0 -45 -44 -45h-91q-53 0 -61 49l-57 331h-615l-195 -331q-29 -49 -83 -49h-112q-29 0 -29 21q0 16 17 45zM396 1733q-22 22 -22 34q0 18 43 18h107q66 0 88 -37l93 -155q12 -20 12 -33 q0 -20 -32 -20h-53q-43 0 -72 29zM441 544h488l-70 400q-13 72 -21 157.5t-8 159.5h-4q-18 -71 -56 -145t-95 -172zM766 1733q-22 22 -22 34q0 18 43 18h107q51 0 76 -37l105 -155q14 -21 14 -33q0 -20 -34 -20h-53q-43 0 -72 29z" />
<glyph unicode="&#x201;" horiz-adv-x="1099" d="M66 339q0 275 186.5 501.5t391.5 226.5q90 0 148 -37.5t86 -87.5h2l21 63q15 45 49 45h84q37 0 37 -30q0 -7 -2 -15l-222 -960q-10 -45 -55 -45h-81q-37 0 -37 31q0 6 2 14l25 120h-2q-49 -65 -130.5 -123.5t-181.5 -58.5q-145 0 -233 87.5t-88 268.5zM252 332 q0 -66 35.5 -142.5t145.5 -76.5q90 0 199 119t139 248l67 290q0 90 -57.5 128.5t-142.5 38.5q-140 0 -263 -179.5t-123 -425.5zM291 1383q-13 20 -13 32q0 20 35 20h87q61 0 75 -37l72 -195q7 -18 7 -30q0 -23 -26 -23h-32q-54 0 -73 29zM591 1383q-13 20 -13 32q0 20 35 20 h87q61 0 75 -37l72 -195q7 -18 7 -30q0 -23 -26 -23h-32q-54 0 -73 29z" />
<glyph unicode="&#x202;" horiz-adv-x="1360" d="M-59 66l770 1307q36 61 80 61h140q41 0 52 -61l226 -1307q2 -11 2 -21q0 -45 -44 -45h-91q-53 0 -61 49l-57 331h-615l-195 -331q-29 -49 -83 -49h-112q-29 0 -29 21q0 16 17 45zM441 544h488l-70 400q-13 72 -21 157.5t-8 159.5h-4q-18 -71 -56 -145t-95 -172zM551 1645 q66 108 174.5 161t215.5 53q111 0 196.5 -57t120.5 -179q4 -14 4 -24q0 -27 -25 -34l-52 -15q-7 -2 -13 -2q-24 0 -37 30q-26 60 -69.5 95.5t-141.5 35.5q-84 0 -154.5 -45t-111.5 -96q-16 -20 -35 -20q-10 0 -22 7l-45 28q-17 11 -17 28q0 15 12 34z" />
<glyph unicode="&#x203;" horiz-adv-x="1099" d="M66 339q0 275 186.5 501.5t391.5 226.5q90 0 148 -37.5t86 -87.5h2l21 63q15 45 49 45h84q37 0 37 -30q0 -7 -2 -15l-222 -960q-10 -45 -55 -45h-81q-37 0 -37 31q0 6 2 14l25 120h-2q-49 -65 -130.5 -123.5t-181.5 -58.5q-145 0 -233 87.5t-88 268.5zM252 332 q0 -66 35.5 -142.5t145.5 -76.5q90 0 199 119t139 248l67 290q0 90 -57.5 128.5t-142.5 38.5q-140 0 -263 -179.5t-123 -425.5zM367 1235q64 112 160.5 160.5t195.5 48.5q106 0 164 -52t101 -172q5 -13 5 -23q0 -22 -23 -30l-48 -18q-8 -3 -14 -3q-20 0 -30 25 q-27 67 -62 105t-112 38q-90 0 -144.5 -42.5t-93.5 -103.5q-13 -20 -29 -20q-8 0 -17 5l-45 27q-18 10 -18 27q0 12 10 28z" />
<glyph unicode="&#x204;" horiz-adv-x="1270" d="M63 55l305 1324q13 55 63 55h875q47 0 47 -32q0 -6 -2 -13l-17 -74q-11 -45 -66 -45h-733l-102 -444h673q46 0 46 -31q0 -7 -2 -14l-17 -74q-10 -45 -65 -45h-673l-115 -498h763q46 0 46 -31q0 -7 -2 -14l-17 -74q-10 -45 -65 -45h-905q-40 0 -40 35q0 9 3 20zM421 1733 q-22 22 -22 34q0 18 43 18h107q66 0 88 -37l93 -155q12 -20 12 -33q0 -20 -32 -20h-53q-43 0 -72 29zM791 1733q-22 22 -22 34q0 18 43 18h107q51 0 76 -37l105 -155q14 -21 14 -33q0 -20 -34 -20h-53q-43 0 -72 29z" />
<glyph unicode="&#x205;" horiz-adv-x="1078" d="M68 396q0 300 156.5 485.5t427.5 185.5q155 0 250.5 -88.5t95.5 -200.5q0 -148 -141.5 -218t-350.5 -112l-246 -49q-6 -38 -6 -40q0 -99 54 -172t189 -73q115 0 185 42t95 76q23 30 42 30q11 0 21 -9l59 -51q19 -17 -6 -56q-23 -36 -124 -99.5t-296 -63.5 q-213 0 -309 123.5t-96 289.5zM265 538l205 40q140 27 246 74.5t106 133.5q0 68 -61.5 109.5t-141.5 41.5q-121 0 -215.5 -92t-138.5 -307zM299 1383q-13 20 -13 32q0 20 35 20h87q61 0 75 -37l72 -195q7 -18 7 -30q0 -23 -26 -23h-32q-54 0 -73 29zM599 1383q-13 20 -13 32 q0 20 35 20h87q61 0 75 -37l72 -195q7 -18 7 -30q0 -23 -26 -23h-32q-54 0 -73 29z" />
<glyph unicode="&#x206;" horiz-adv-x="1270" d="M63 55l305 1324q13 55 63 55h875q47 0 47 -32q0 -6 -2 -13l-17 -74q-11 -45 -66 -45h-733l-102 -444h673q46 0 46 -31q0 -7 -2 -14l-17 -74q-10 -45 -65 -45h-673l-115 -498h763q46 0 46 -31q0 -7 -2 -14l-17 -74q-10 -45 -65 -45h-905q-40 0 -40 35q0 9 3 20zM576 1645 q66 108 174.5 161t215.5 53q111 0 196.5 -57t120.5 -179q4 -14 4 -24q0 -27 -25 -34l-52 -15q-7 -2 -13 -2q-24 0 -37 30q-26 60 -69.5 95.5t-141.5 35.5q-84 0 -154.5 -45t-111.5 -96q-16 -20 -35 -20q-10 0 -22 7l-45 28q-17 11 -17 28q0 15 12 34z" />
<glyph unicode="&#x207;" horiz-adv-x="1078" d="M68 396q0 300 156.5 485.5t427.5 185.5q155 0 250.5 -88.5t95.5 -200.5q0 -148 -141.5 -218t-350.5 -112l-246 -49q-6 -38 -6 -40q0 -99 54 -172t189 -73q115 0 185 42t95 76q23 30 42 30q11 0 21 -9l59 -51q19 -17 -6 -56q-23 -36 -124 -99.5t-296 -63.5 q-213 0 -309 123.5t-96 289.5zM265 538l205 40q140 27 246 74.5t106 133.5q0 68 -61.5 109.5t-141.5 41.5q-121 0 -215.5 -92t-138.5 -307zM375 1235q64 112 160.5 160.5t195.5 48.5q106 0 164 -52t101 -172q5 -13 5 -23q0 -22 -23 -30l-48 -18q-8 -3 -14 -3q-20 0 -30 25 q-27 67 -62 105t-112 38q-90 0 -144.5 -42.5t-93.5 -103.5q-13 -20 -29 -20q-8 0 -17 5l-45 27q-18 10 -18 27q0 12 10 28z" />
<glyph unicode="&#x208;" horiz-adv-x="532" d="M11 1733q-22 22 -22 34q0 18 43 18h107q66 0 88 -37l93 -155q12 -20 12 -33q0 -20 -32 -20h-53q-43 0 -72 29zM63 55l305 1324q13 55 63 55h92q40 0 40 -35q0 -9 -3 -20l-305 -1324q-13 -55 -63 -55h-92q-40 0 -40 35q0 9 3 20zM381 1733q-22 22 -22 34q0 18 43 18h107 q51 0 76 -37l105 -155q14 -21 14 -33q0 -20 -34 -20h-53q-43 0 -72 29z" />
<glyph unicode="&#x209;" horiz-adv-x="460" d="M3 1383q-13 20 -13 32q0 20 35 20h87q61 0 75 -37l72 -195q7 -18 7 -30q0 -23 -26 -23h-32q-54 0 -73 29zM32 45l222 960q10 45 55 45h86q37 0 37 -30q0 -7 -2 -15l-222 -960q-10 -45 -55 -45h-86q-37 0 -37 30q0 7 2 15zM303 1383q-13 20 -13 32q0 20 35 20h87 q61 0 75 -37l72 -195q7 -18 7 -30q0 -23 -26 -23h-32q-54 0 -73 29z" />
<glyph unicode="&#x20a;" horiz-adv-x="532" d="M63 55l305 1324q13 55 63 55h92q40 0 40 -35q0 -9 -3 -20l-305 -1324q-13 -55 -63 -55h-92q-40 0 -40 35q0 9 3 20zM166 1645q66 108 174.5 161t215.5 53q111 0 196.5 -57t120.5 -179q4 -14 4 -24q0 -27 -25 -34l-52 -15q-7 -2 -13 -2q-24 0 -37 30q-26 60 -69.5 95.5 t-141.5 35.5q-84 0 -154.5 -45t-111.5 -96q-16 -20 -35 -20q-10 0 -22 7l-45 28q-17 11 -17 28q0 15 12 34z" />
<glyph unicode="&#x20b;" horiz-adv-x="460" d="M32 45l222 960q10 45 55 45h86q37 0 37 -30q0 -7 -2 -15l-222 -960q-10 -45 -55 -45h-86q-37 0 -37 30q0 7 2 15zM79 1235q64 112 160.5 160.5t195.5 48.5q106 0 164 -52t101 -172q5 -13 5 -23q0 -22 -23 -30l-48 -18q-8 -3 -14 -3q-20 0 -30 25q-27 67 -62 105t-112 38 q-90 0 -144.5 -42.5t-93.5 -103.5q-13 -20 -29 -20q-8 0 -17 5l-45 27q-18 10 -18 27q0 12 10 28z" />
<glyph unicode="&#x20c;" horiz-adv-x="1514" d="M110 580q0 400 214 642t554 242q305 0 461 -162.5t156 -447.5q0 -400 -214 -642t-554 -242q-305 0 -461 162.5t-156 447.5zM315 556q0 -205 106.5 -317.5t316.5 -112.5q220 0 386 183.5t166 568.5q0 205 -106.5 317.5t-316.5 112.5q-220 0 -386 -183.5t-166 -568.5z M407 1733q-22 22 -22 34q0 18 43 18h107q66 0 88 -37l93 -155q12 -20 12 -33q0 -20 -32 -20h-53q-43 0 -72 29zM777 1733q-22 22 -22 34q0 18 43 18h107q51 0 76 -37l105 -155q14 -21 14 -33q0 -20 -34 -20h-53q-43 0 -72 29z" />
<glyph unicode="&#x20d;" horiz-adv-x="1148" d="M68 402q0 264 163.5 464.5t428.5 200.5q234 0 327 -134.5t93 -284.5q0 -264 -163.5 -464.5t-428.5 -200.5q-234 0 -327 134.5t-93 284.5zM254 387q0 -125 58.5 -199.5t188.5 -74.5q156 0 274.5 141.5t118.5 408.5q0 125 -58.5 199.5t-188.5 74.5q-156 0 -274.5 -141.5 t-118.5 -408.5zM307 1383q-13 20 -13 32q0 20 35 20h87q61 0 75 -37l72 -195q7 -18 7 -30q0 -23 -26 -23h-32q-54 0 -73 29zM607 1383q-13 20 -13 32q0 20 35 20h87q61 0 75 -37l72 -195q7 -18 7 -30q0 -23 -26 -23h-32q-54 0 -73 29z" />
<glyph unicode="&#x20e;" horiz-adv-x="1514" d="M110 580q0 400 214 642t554 242q305 0 461 -162.5t156 -447.5q0 -400 -214 -642t-554 -242q-305 0 -461 162.5t-156 447.5zM315 556q0 -205 106.5 -317.5t316.5 -112.5q220 0 386 183.5t166 568.5q0 205 -106.5 317.5t-316.5 112.5q-220 0 -386 -183.5t-166 -568.5z M561 1645q66 108 174.5 161t215.5 53q111 0 196.5 -57t120.5 -179q4 -14 4 -24q0 -27 -25 -34l-52 -15q-7 -2 -13 -2q-24 0 -37 30q-26 60 -69.5 95.5t-141.5 35.5q-84 0 -154.5 -45t-111.5 -96q-16 -20 -35 -20q-10 0 -22 7l-45 28q-17 11 -17 28q0 15 12 34z" />
<glyph unicode="&#x20f;" horiz-adv-x="1148" d="M68 402q0 264 163.5 464.5t428.5 200.5q234 0 327 -134.5t93 -284.5q0 -264 -163.5 -464.5t-428.5 -200.5q-234 0 -327 134.5t-93 284.5zM254 387q0 -125 58.5 -199.5t188.5 -74.5q156 0 274.5 141.5t118.5 408.5q0 125 -58.5 199.5t-188.5 74.5q-156 0 -274.5 -141.5 t-118.5 -408.5zM383 1235q64 112 160.5 160.5t195.5 48.5q106 0 164 -52t101 -172q5 -13 5 -23q0 -22 -23 -30l-48 -18q-8 -3 -14 -3q-20 0 -30 25q-27 67 -62 105t-112 38q-90 0 -144.5 -42.5t-93.5 -103.5q-13 -20 -29 -20q-8 0 -17 5l-45 27q-18 10 -18 27q0 12 10 28z " />
<glyph unicode="&#x210;" horiz-adv-x="1384" d="M63 55l305 1324q13 55 63 55h453q252 0 360 -108t108 -270q0 -165 -137.5 -274t-333.5 -125l-1 -2q85 -76 109 -118.5t46 -103.5l131 -367q7 -20 7 -33q0 -33 -40 -33h-93q-48 0 -61 39l-116 357q-24 74 -95.5 149.5t-208.5 75.5h-174l-130 -566q-13 -55 -63 -55h-92 q-40 0 -40 35q0 9 3 20zM390 1733q-22 22 -22 34q0 18 43 18h107q66 0 88 -37l93 -155q12 -20 12 -33q0 -20 -32 -20h-53q-43 0 -72 29zM423 785h309q180 0 302.5 62t122.5 191q0 144 -89.5 188t-235.5 44h-297zM760 1733q-22 22 -22 34q0 18 43 18h107q51 0 76 -37 l105 -155q14 -21 14 -33q0 -20 -34 -20h-53q-43 0 -72 29z" />
<glyph unicode="&#x211;" horiz-adv-x="722" d="M32 45l222 960q10 45 55 45h84q37 0 37 -30q0 -7 -2 -15l-37 -160h4q72 113 147.5 167.5t178.5 54.5q59 0 83 -11q13 -5 13 -17q0 -6 -3 -13l-33 -82q-7 -18 -29 -14q-34 7 -69 7q-109 0 -221 -141.5t-147 -291.5l-107 -459q-10 -45 -55 -45h-86q-37 0 -37 30q0 7 2 15z M204 1383q-13 20 -13 32q0 20 35 20h87q61 0 75 -37l72 -195q7 -18 7 -30q0 -23 -26 -23h-32q-54 0 -73 29zM504 1383q-13 20 -13 32q0 20 35 20h87q61 0 75 -37l72 -195q7 -18 7 -30q0 -23 -26 -23h-32q-54 0 -73 29z" />
<glyph unicode="&#x212;" horiz-adv-x="1384" d="M63 55l305 1324q13 55 63 55h453q252 0 360 -108t108 -270q0 -165 -137.5 -274t-333.5 -125l-1 -2q85 -76 109 -118.5t46 -103.5l131 -367q7 -20 7 -33q0 -33 -40 -33h-93q-48 0 -61 39l-116 357q-24 74 -95.5 149.5t-208.5 75.5h-174l-130 -566q-13 -55 -63 -55h-92 q-40 0 -40 35q0 9 3 20zM423 785h309q180 0 302.5 62t122.5 191q0 144 -89.5 188t-235.5 44h-297zM545 1645q66 108 174.5 161t215.5 53q111 0 196.5 -57t120.5 -179q4 -14 4 -24q0 -27 -25 -34l-52 -15q-7 -2 -13 -2q-24 0 -37 30q-26 60 -69.5 95.5t-141.5 35.5 q-84 0 -154.5 -45t-111.5 -96q-16 -20 -35 -20q-10 0 -22 7l-45 28q-17 11 -17 28q0 15 12 34z" />
<glyph unicode="&#x213;" horiz-adv-x="722" d="M32 45l222 960q10 45 55 45h84q37 0 37 -30q0 -7 -2 -15l-37 -160h4q72 113 147.5 167.5t178.5 54.5q59 0 83 -11q19 -8 10 -30l-33 -82q-7 -18 -29 -14q-34 7 -69 7q-109 0 -221 -141.5t-147 -291.5l-107 -459q-10 -45 -55 -45h-86q-37 0 -37 30q0 7 2 15zM280 1235 q64 112 160.5 160.5t195.5 48.5q106 0 164 -52t101 -172q5 -13 5 -23q0 -22 -23 -30l-48 -18q-8 -3 -14 -3q-20 0 -30 25q-27 67 -62 105t-112 38q-90 0 -144.5 -42.5t-93.5 -103.5q-13 -20 -29 -20q-8 0 -17 5l-45 27q-18 10 -18 27q0 12 10 28z" />
<glyph unicode="&#x214;" horiz-adv-x="1402" d="M176 547l192 832q13 55 63 55h92q40 0 40 -35q0 -9 -3 -20l-185 -802q-33 -146 -33 -239q0 -85 28 -126q59 -86 240 -86q146 0 262.5 85.5t180.5 365.5l185 802q13 55 63 55h92q40 0 40 -35q0 -9 -3 -20l-192 -832q-73 -317 -234 -447t-430 -130q-199 0 -335 130 q-88 85 -88 248q0 88 25 199zM446 1733q-22 22 -22 34q0 18 43 18h107q66 0 88 -37l93 -155q12 -20 12 -33q0 -20 -32 -20h-53q-43 0 -72 29zM816 1733q-22 22 -22 34q0 18 43 18h107q51 0 76 -37l105 -155q14 -21 14 -33q0 -20 -34 -20h-53q-43 0 -72 29z" />
<glyph unicode="&#x215;" horiz-adv-x="1120" d="M104 366l148 639q10 45 55 45h86q37 0 37 -30q0 -7 -2 -15l-136 -591q-22 -95 -22 -157q0 -65 25 -92q48 -52 153 -52q147 0 230 116.5t118 266.5l118 509q10 45 55 45h86q37 0 37 -30q0 -7 -2 -15l-222 -960q-10 -45 -55 -45h-84q-37 0 -37 30q0 7 2 15l28 120h-4 q-59 -73 -154.5 -127.5t-210.5 -54.5q-160 0 -225 103q-40 62 -40 154q0 57 16 126zM332 1383q-13 20 -13 32q0 20 35 20h87q61 0 75 -37l72 -195q7 -18 7 -30q0 -23 -26 -23h-32q-54 0 -73 29zM632 1383q-13 20 -13 32q0 20 35 20h87q61 0 75 -37l72 -195q7 -18 7 -30 q0 -23 -26 -23h-32q-54 0 -73 29z" />
<glyph unicode="&#x216;" horiz-adv-x="1402" d="M176 547l192 832q13 55 63 55h92q40 0 40 -35q0 -9 -3 -20l-185 -802q-33 -146 -33 -239q0 -85 28 -126q59 -86 240 -86q146 0 262.5 85.5t180.5 365.5l185 802q13 55 63 55h92q40 0 40 -35q0 -9 -3 -20l-192 -832q-73 -317 -234 -447t-430 -130q-199 0 -335 130 q-88 85 -88 248q0 88 25 199zM601 1645q66 108 174.5 161t215.5 53q111 0 196.5 -57t120.5 -179q4 -14 4 -24q0 -27 -25 -34l-52 -15q-7 -2 -13 -2q-24 0 -37 30q-26 60 -69.5 95.5t-141.5 35.5q-84 0 -154.5 -45t-111.5 -96q-16 -20 -35 -20q-10 0 -22 7l-45 28 q-17 11 -17 28q0 15 12 34z" />
<glyph unicode="&#x217;" horiz-adv-x="1120" d="M104 366l148 639q10 45 55 45h86q37 0 37 -30q0 -7 -2 -15l-136 -591q-22 -95 -22 -157q0 -65 25 -92q48 -52 153 -52q147 0 230 116.5t118 266.5l118 509q10 45 55 45h86q37 0 37 -30q0 -7 -2 -15l-222 -960q-10 -45 -55 -45h-84q-37 0 -37 30q0 7 2 15l28 120h-4 q-59 -73 -154.5 -127.5t-210.5 -54.5q-160 0 -225 103q-40 62 -40 154q0 57 16 126zM408 1235q64 112 160.5 160.5t195.5 48.5q106 0 164 -52t101 -172q5 -13 5 -23q0 -22 -23 -30l-48 -18q-8 -3 -14 -3q-20 0 -30 25q-27 67 -62 105t-112 38q-90 0 -144.5 -42.5 t-93.5 -103.5q-13 -20 -29 -20q-8 0 -17 5l-45 27q-18 10 -18 27q0 12 10 28z" />
<glyph unicode="&#x21e;" horiz-adv-x="1422" d="M63 55l305 1324q13 55 63 55h92q40 0 40 -35q0 -9 -3 -20l-127 -551h698l127 551q13 55 63 55h92q40 0 40 -35q0 -9 -3 -20l-305 -1324q-13 -55 -63 -55h-92q-40 0 -40 35q0 9 3 20l140 609h-698l-140 -609q-13 -55 -63 -55h-92q-40 0 -40 35q0 9 3 20zM614 1701l28 41 q13 20 33 20q12 0 26 -7l257 -132h2l319 132q17 7 28 7q20 0 25 -20l14 -59q1 -5 1 -9q0 -26 -39 -42l-248 -104q-43 -18 -68 -18h-70q-25 0 -60 18l-234 122q-22 12 -22 29q0 10 8 22z" />
<glyph unicode="&#x21f;" horiz-adv-x="1128" d="M32 45l320 1386q10 45 56 45h86q36 0 36 -30q0 -7 -2 -15l-112 -486q-6 -28 -15 -60h4q59 73 153.5 127.5t214.5 54.5q170 0 232 -103q37 -61 37 -150q0 -59 -16 -130l-148 -639q-10 -45 -55 -45h-86q-37 0 -37 30q0 7 2 15l137 591q22 95 22 156q0 65 -25 92 q-48 53 -158 53q-120 0 -218.5 -116.5t-133.5 -266.5l-118 -509q-10 -45 -55 -45h-86q-37 0 -37 30q0 7 2 15zM552 1752q-14 14 -14 28t15 27l25 23q14 13 28 13t29 -15l172 -179h2l256 179q21 15 35 15t22 -13l25 -39q5 -7 5 -15q0 -19 -30 -40l-234 -163q-37 -26 -62 -26 h-50q-25 0 -50 26z" />
<glyph unicode="&#x226;" horiz-adv-x="1360" d="M-59 66l770 1307q36 61 80 61h140q41 0 52 -61l226 -1307q2 -11 2 -21q0 -45 -44 -45h-91q-53 0 -61 49l-57 331h-615l-195 -331q-29 -49 -83 -49h-112q-29 0 -29 21q0 16 17 45zM441 544h488l-70 400q-13 72 -21 157.5t-8 159.5h-4q-18 -71 -56 -145t-95 -172zM801 1590 l24 102q10 45 55 45h102q37 0 37 -30q0 -7 -2 -15l-24 -102q-10 -45 -55 -45h-102q-37 0 -37 30q0 7 2 15z" />
<glyph unicode="&#x227;" horiz-adv-x="1099" d="M66 339q0 275 186.5 501.5t391.5 226.5q90 0 148 -37.5t86 -87.5h2l21 63q15 45 49 45h84q37 0 37 -30q0 -7 -2 -15l-222 -960q-10 -45 -55 -45h-81q-37 0 -37 31q0 6 2 14l25 120h-2q-49 -65 -130.5 -123.5t-181.5 -58.5q-145 0 -233 87.5t-88 268.5zM252 332 q0 -66 35.5 -142.5t145.5 -76.5q90 0 199 119t139 248l67 290q0 90 -57.5 128.5t-142.5 38.5q-140 0 -263 -179.5t-123 -425.5zM606 1285l20 86q10 45 55 45h86q37 0 37 -30q0 -7 -2 -15l-20 -86q-11 -45 -56 -45h-86q-36 0 -36 29q0 7 2 16z" />
<glyph unicode="&#x22e;" horiz-adv-x="1514" d="M110 580q0 400 214 642t554 242q305 0 461 -162.5t156 -447.5q0 -400 -214 -642t-554 -242q-305 0 -461 162.5t-156 447.5zM315 556q0 -205 106.5 -317.5t316.5 -112.5q220 0 386 183.5t166 568.5q0 205 -106.5 317.5t-316.5 112.5q-220 0 -386 -183.5t-166 -568.5z M811 1590l24 102q10 45 55 45h102q37 0 37 -30q0 -7 -2 -15l-24 -102q-10 -45 -55 -45h-102q-37 0 -37 30q0 7 2 15z" />
<glyph unicode="&#x22f;" horiz-adv-x="1148" d="M68 402q0 264 163.5 464.5t428.5 200.5q234 0 327 -134.5t93 -284.5q0 -264 -163.5 -464.5t-428.5 -200.5q-234 0 -327 134.5t-93 284.5zM254 387q0 -125 58.5 -199.5t188.5 -74.5q156 0 274.5 141.5t118.5 408.5q0 125 -58.5 199.5t-188.5 74.5q-156 0 -274.5 -141.5 t-118.5 -408.5zM622 1285l20 86q10 45 55 45h86q37 0 37 -30q0 -7 -2 -15l-20 -86q-11 -45 -56 -45h-86q-36 0 -36 29q0 7 2 16z" />
<glyph unicode="&#x232;" horiz-adv-x="1302" d="M250 1368q-8 19 -8 32q0 34 50 34h93q44 0 61 -49l156 -437l38 -110q23 -69 37 -129h4q42 60 83 112l102 127l358 437q40 49 83 49h125q38 0 38 -20q0 -16 -26 -46l-681 -778l-123 -535q-13 -55 -63 -55h-92q-40 0 -40 35q0 9 3 20l123 535zM534 1598l11 50q10 40 55 40 h640q37 0 37 -27q0 -6 -2 -13l-11 -50q-9 -40 -54 -40h-640q-38 0 -38 28q0 5 2 12z" />
<glyph unicode="&#x233;" horiz-adv-x="1128" d="M0 -306q-14 19 -14 36q0 18 16 32l56 52q32 29 50 0q30 -48 87 -74.5t170 -26.5q121 0 206.5 68.5t122.5 228.5q23 102 37 155h-4q-59 -73 -150 -127.5t-218 -54.5q-170 0 -232 103q-37 61 -37 150q0 59 16 130l148 639q10 45 55 45h86q37 0 37 -30q0 -7 -2 -15 l-136 -591q-22 -96 -22 -157q0 -65 24 -92q48 -52 158 -52q106 0 211.5 113.5t141.5 269.5l117 509q10 45 55 45h86q37 0 37 -30q0 -7 -2 -15l-234 -1014q-47 -205 -158 -306.5t-374 -101.5q-171 0 -236 33t-98 78zM430 1275l10 40q8 35 53 35h528q38 0 38 -25q0 -5 -1 -10 l-10 -40q-8 -35 -53 -35h-528q-38 0 -38 25q0 5 1 10z" />
<glyph unicode="&#x237;" horiz-adv-x="466" d="M-300 -365l25 81q8 26 29 15q35 -18 91 -18q59 0 101 57t83 236l231 999q10 45 55 45h86q37 0 37 -30q0 -7 -2 -15l-253 -1098q-45 -194 -136 -259t-200 -65q-99 0 -137 20q-12 6 -12 20q0 5 2 12z" />
<glyph unicode="&#x244;" horiz-adv-x="1572" d="M89 689l17 74q10 45 66 45h149l132 571q13 55 63 55h92q40 0 40 -35q0 -9 -3 -20l-132 -571h678l132 571q13 55 63 55h92q40 0 40 -35q0 -9 -3 -20l-132 -571h1h150q46 0 46 -31q0 -7 -2 -14l-17 -74q-10 -45 -65 -45h-150h-1l-22 -97q-73 -317 -234 -447t-430 -130 q-199 0 -335 130q-88 85 -88 248q0 88 25 199l22 97h-149q-47 0 -47 32q0 6 2 13zM455 212q59 -86 240 -86q146 0 262 85t181 366l15 67h-678l-15 -67q-33 -146 -33 -239q0 -85 28 -126z" />
<glyph unicode="&#x245;" horiz-adv-x="1338" d="M182 66l789 1307q37 61 80 61h140q43 0 52 -61l185 -1307q9 -66 -42 -66h-90q-55 0 -61 49l-118 895q-8 59 -15 157t-7 160h-4q-26 -63 -81.5 -164t-86.5 -153l-532 -895q-29 -49 -83 -49h-114q-52 0 -12 66z" />
<glyph unicode="&#x254;" horiz-adv-x="1026" d="M37 164q-16 36 14 52l66 35q34 18 53 -25q14 -32 64 -72.5t147 -40.5q156 0 274.5 140t118.5 410q0 122 -58.5 198t-188.5 76q-103 0 -169 -53.5t-94 -95.5q-23 -35 -53 -14l-63 46q-29 21 -5 55q29 40 127 116t270 76q234 0 327 -133.5t93 -285.5q0 -265 -163.5 -465 t-428.5 -200q-162 0 -231 56.5t-100 124.5z" />
<glyph unicode="&#x259;" horiz-adv-x="1078" d="M82 272q0 148 141.5 218t350.5 112l246 49q6 38 6 40q0 99 -54 172t-189 73q-115 0 -185 -42t-95 -76q-23 -30 -42 -30q-11 0 -21 9l-59 51q-19 17 6 56q23 36 124 99.5t296 63.5q213 0 309 -123.5t96 -289.5q0 -300 -156.5 -485.5t-427.5 -185.5q-155 0 -250.5 88.5 t-95.5 200.5zM258 264q0 -68 61.5 -109.5t141.5 -41.5q121 0 215.5 92t138.5 307l-205 -40q-140 -27 -246 -74.5t-106 -133.5z" />
<glyph unicode="&#x265;" horiz-adv-x="1120" d="M104 366l148 639q10 45 55 45h86q45 0 35 -45l-136 -591q-45 -197 3 -249t153 -52q147 0 230 116.5t118 266.5l118 509q10 45 55 45h86q45 0 35 -45l-314 -1360q-10 -45 -55 -45h-86q-45 0 -35 45l106 459q9 37 16 61h-4q-59 -73 -154.5 -127.5t-210.5 -54.5 q-160 0 -225 102.5t-24 280.5z" />
<glyph unicode="&#x268;" horiz-adv-x="640" d="M49 517l15 62q8 35 53 35h137l90 391q10 45 55 45h86q37 0 37 -30q0 -7 -2 -15l-90 -391h137q38 0 38 -25q0 -5 -1 -10l-15 -62q-8 -35 -53 -35h-137l-101 -437q-10 -45 -55 -45h-86q-37 0 -37 30q0 7 2 15l101 437h-137q-38 0 -38 25q0 5 1 10zM409 1285l20 86 q10 45 55 45h86q37 0 37 -30q0 -7 -2 -15l-20 -86q-11 -45 -56 -45h-86q-36 0 -36 29q0 7 2 16z" />
<glyph unicode="&#x26a;" horiz-adv-x="584" d="M-12 35l14 60q8 35 53 35h59l182 790h-59q-45 0 -37 35l14 60q8 35 53 35h294q38 0 38 -25q0 -5 -1 -10l-14 -60q-8 -35 -53 -35h-59l-182 -790h59q45 0 37 -35l-14 -60q-8 -35 -53 -35h-294q-38 0 -38 25q0 5 1 10z" />
<glyph unicode="&#x26f;" horiz-adv-x="1678" d="M104 366l148 639q10 45 55 45h86q45 0 35 -45l-135 -581q-45 -195 -13 -253t142 -58q90 0 189.5 120.5t132.5 262.5l118 509q10 45 55 45h86q45 0 35 -45l-135 -581q-45 -195 -13 -253t142 -58q90 0 188.5 116.5t133.5 266.5l118 509q10 45 55 45h86q45 0 35 -45 l-222 -960q-10 -45 -55 -45h-84q-45 0 -35 45l27 120h-4q-59 -72 -148.5 -127t-179.5 -55q-110 0 -172.5 69.5t-62.5 164.5h-4q-63 -82 -159.5 -158t-211.5 -76q-140 0 -207 102.5t-26 280.5z" />
<glyph unicode="&#x271;" horiz-adv-x="1678" d="M32 45l222 960q10 45 55 45h84q37 0 37 -30q0 -7 -2 -15l-27 -120h4q59 72 148.5 127t179.5 55q110 0 172.5 -69.5t62.5 -164.5h4q63 82 159.5 158t211.5 76q140 0 207 -103q42 -63 42 -156q0 -56 -16 -124l-179 -777q-45 -194 -136 -259t-200 -65q-99 0 -137 20 q-17 9 -10 32l25 81q8 26 29 15q35 -18 91 -18q59 0 101 57t83 236l144 620q26 114 26 181q0 48 -13 72q-32 58 -142 58q-90 0 -189.5 -120.5t-132.5 -262.5l-118 -509q-10 -45 -55 -45h-86q-37 0 -37 30q0 7 2 15l135 581q26 114 26 181q0 48 -13 72q-32 58 -142 58 q-90 0 -188.5 -116.5t-133.5 -266.5l-118 -509q-10 -45 -55 -45h-86q-37 0 -37 30q0 7 2 15z" />
<glyph unicode="&#x275;" horiz-adv-x="1148" d="M68 402q0 264 163.5 464.5t428.5 200.5q234 0 327 -134.5t93 -284.5q0 -264 -163.5 -464.5t-428.5 -200.5q-234 0 -327 134.5t-93 284.5zM254 387q0 -125 58.5 -199.5t188.5 -74.5q136 0 243.5 108.5t133.5 260.5h-620q-4 -45 -4 -95zM281 614h612q1 24 1 49 q0 125 -58.5 199.5t-188.5 74.5t-233.5 -98.5t-132.5 -224.5z" />
<glyph unicode="&#x279;" horiz-adv-x="722" d="M-90 24l33 82q7 18 29 14q34 -7 69 -7q109 0 221 141.5t147 291.5l107 459q10 45 55 45h86q45 0 35 -45l-222 -960q-10 -45 -55 -45h-84q-45 0 -35 45l37 160h-4q-72 -113 -147.5 -167.5t-178.5 -54.5q-59 0 -83 11q-19 8 -10 30z" />
<glyph unicode="&#x283;" horiz-adv-x="586" d="M-300 -365l25 81q8 26 29 15q35 -18 91 -18q59 0 101 57t83 236l276 1193q39 167 144 230.5t210 63.5q67 0 105 -7t91 -31q12 -5 12 -15q0 -8 -6 -17l-50 -79q-13 -20 -37 -8q-19 10 -46.5 18.5t-62.5 8.5q-79 0 -123 -44.5t-68 -148.5l-291 -1263q-45 -194 -136 -259 t-200 -65q-99 0 -137 20q-12 6 -12 20q0 5 2 12z" />
<glyph unicode="&#x287;" horiz-adv-x="757" d="M3 35l14 62q8 35 53 35h213l147 637q24 105 -0.5 136.5t-59.5 31.5q-46 0 -95 -17.5t-66 -28.5q-22 -14 -29 6l-26 72q-6 18 11 29q41 26 119.5 47.5t167.5 21.5q88 0 138.5 -75t18.5 -212l-150 -648h118q45 0 37 -35l-14 -62q-8 -35 -53 -35h-118l-21 -90 q-5 -19 -19 -38l-99 -127q-27 -35 -39 -35h-35q-30 0 -22 35l59 255h-213q-45 0 -37 35z" />
<glyph unicode="&#x289;" horiz-adv-x="1302" d="M49 517l15 62q8 35 53 35h136l91 391q10 45 55 45h86q37 0 37 -30q0 -7 -2 -15l-90 -391h485l91 391q10 45 55 45h86q37 0 37 -30q0 -7 -2 -15l-90 -391h137q38 0 38 -25q0 -5 -1 -10l-15 -62q-8 -35 -53 -35h-137l-101 -437q-10 -45 -55 -45h-84q-37 0 -37 29q0 7 2 16 l28 120h-4q-59 -73 -154.5 -127.5t-210.5 -54.5q-160 0 -225 103q-40 62 -40 154q0 57 16 126l27 116h-137q-38 0 -38 25q0 5 1 10zM384 414q-22 -95 -22 -157q0 -65 25 -92q48 -52 153 -52q147 0 228 114t117 255h-485z" />
<glyph unicode="&#x292;" horiz-adv-x="982" d="M-91 -266q-23 39 2 55l62 41q30 20 62 -19q25 -31 74 -64.5t153 -33.5q162 0 250 106.5t88 277.5q0 103 -64 156t-182 53h-83q-45 0 -37 35l16 68q7 31 40 63l461 446v2q-30 -2 -60 -2h-475q-45 0 -37 35l14 62q8 35 53 35h702q45 0 37 -35l-12 -51q-7 -32 -55 -78 l-459 -448v-4q144 0 234 -94.5t90 -228.5q0 -222 -132.5 -375t-388.5 -153q-164 0 -245 52.5t-108 98.5z" />
<glyph unicode="&#x2b9;" horiz-adv-x="460" d="M256 939l125 556q12 55 49 55h105q28 0 28 -27q0 -11 -5 -28l-186 -556q-15 -45 -46 -45h-46q-26 0 -26 27q0 8 2 18z" />
<glyph unicode="&#x2ba;" horiz-adv-x="837" d="M256 939l125 556q12 55 49 55h105q28 0 28 -27q0 -11 -5 -28l-186 -556q-15 -45 -46 -45h-46q-26 0 -26 27q0 8 2 18zM633 939l125 556q12 55 49 55h105q28 0 28 -27q0 -11 -5 -28l-186 -556q-15 -45 -46 -45h-46q-26 0 -26 27q0 8 2 18z" />
<glyph unicode="&#x2c6;" horiz-adv-x="614" d="M164 1190q-17 26 25 55l234 163q37 26 62 26h50q25 0 50 -26l174 -179q28 -29 -1 -55l-25 -23q-29 -27 -57 2l-172 179h-2l-256 -179q-40 -28 -57 -2z" />
<glyph unicode="&#x2c7;" horiz-adv-x="614" d="M209 1343q-28 29 1 55l25 23q29 27 57 -2l172 -179h2l256 179q40 28 57 2l25 -39q17 -26 -25 -55l-234 -163q-37 -26 -62 -26h-50q-25 0 -50 26z" />
<glyph unicode="&#x2ca;" horiz-adv-x="614" d="M330 1203l166 195q32 37 87 37h121q31 0 31 -14q0 -13 -25 -38l-206 -204q-30 -29 -85 -29h-84q-26 0 -26 15q0 13 21 38z" />
<glyph unicode="&#x2cb;" horiz-adv-x="614" d="M369 1383q-38 52 22 52h101q54 0 75 -37l112 -195q30 -53 -19 -53h-64q-56 0 -77 29z" />
<glyph unicode="&#x2ce;" horiz-adv-x="614" d="M-29 -339q-38 52 22 52h101q54 0 75 -37l112 -195q30 -53 -19 -53h-64q-56 0 -77 29z" />
<glyph unicode="&#x2cf;" horiz-adv-x="614" d="M-68 -519l166 195q32 37 87 37h121q31 0 31 -14q0 -13 -25 -38l-206 -204q-30 -29 -85 -29h-84q-26 0 -26 15q0 13 21 38z" />
<glyph unicode="&#x2d8;" horiz-adv-x="614" d="M188 1370q-15 41 18 53l48 18q31 11 44 -22q27 -67 62 -105t112 -38q90 0 144.5 42.5t93.5 103.5q19 31 46 15l45 -27q31 -18 8 -55q-64 -112 -160.5 -160.5t-195.5 -48.5q-106 0 -164 52t-101 172z" />
<glyph unicode="&#x2d9;" horiz-adv-x="614" d="M396 1285l20 86q10 45 55 45h86q37 0 37 -30q0 -7 -2 -15l-20 -86q-11 -45 -56 -45h-86q-36 0 -36 29q0 7 2 16z" />
<glyph unicode="&#x2da;" horiz-adv-x="614" d="M310 1313q0 75 52.5 127.5t127.5 52.5t127.5 -52.5t52.5 -127.5t-52.5 -127.5t-127.5 -52.5t-127.5 52.5t-52.5 127.5zM386 1313q0 -44 30 -74t74 -30t74 30t30 74t-30 74t-74 30t-74 -30t-30 -74z" />
<glyph unicode="&#x2db;" horiz-adv-x="614" d="M-64 -284q0 52 17.5 93.5t63.5 80t147 104.5q19 13 27 51h171q-7 -30 -27 -45l-167 -128q-72 -58 -72 -105q0 -27 15 -40.5t51 -13.5q43 0 73 6q25 5 27 -22l6 -77q2 -24 -18 -28q-58 -9 -118 -9q-100 0 -148 37.5t-48 95.5z" />
<glyph unicode="&#x2dc;" horiz-adv-x="614" d="M160 1219q21 71 71.5 116t130.5 45q68 0 138 -55t109 -55q43 0 64 22t37 60q13 30 37 20l39 -17q15 -7 15 -25q0 -8 -3 -19q-21 -71 -71.5 -116t-130.5 -45q-68 0 -138 55t-109 55q-43 0 -64 -22t-37 -60q-13 -30 -37 -20l-39 17q-15 7 -15 25q0 8 3 19z" />
<glyph unicode="&#x2dd;" horiz-adv-x="614" d="M183 1203l126 195q24 37 87 37h107q29 0 29 -15q0 -13 -23 -37l-188 -204q-27 -29 -81 -29h-52q-21 0 -21 15q0 13 16 38zM483 1203l126 195q24 37 87 37h107q29 0 29 -15q0 -13 -23 -37l-188 -204q-27 -29 -81 -29h-52q-21 0 -21 15q0 13 16 38z" />
<glyph unicode="&#x2ee;" horiz-adv-x="760" d="M240 1016q-5 5 -5 11q0 11 18 24q35 26 74 88.5t52 117.5h-52q-37 0 -37 29q0 7 2 16l29 122q11 45 55 45h116q37 0 37 -29q0 -7 -2 -16l-29 -122q-30 -127 -67.5 -192t-115.5 -127q-16 -12 -26 -12q-7 0 -12 5zM570 1016q-5 5 -5 11q0 11 18 24q35 26 74 88.5t52 117.5 h-52q-37 0 -37 29q0 7 2 16l29 122q11 45 55 45h116q37 0 37 -29q0 -7 -2 -16l-29 -122q-30 -127 -67.5 -192t-115.5 -127q-16 -12 -26 -12q-7 0 -12 5z" />
<glyph unicode="&#x300;" d="M-245 1383q-38 52 22 52h101q54 0 75 -37l112 -195q30 -53 -19 -53h-64q-56 0 -77 29z" />
<glyph unicode="&#x301;" d="M-284 1203l166 195q32 37 87 37h121q31 0 31 -14q0 -13 -25 -38l-206 -204q-30 -29 -85 -29h-84q-26 0 -26 15q0 13 21 38z" />
<glyph unicode="&#x302;" d="M-450 1190q-17 26 25 55l234 163q37 26 62 26h50q25 0 50 -26l174 -179q28 -29 -1 -55l-25 -23q-29 -27 -57 2l-172 179h-2l-256 -179q-40 -28 -57 -2z" />
<glyph unicode="&#x303;" d="M-454 1219q21 71 71.5 116t130.5 45q68 0 138 -55t109 -55q43 0 64 22t37 60q13 30 37 20l39 -17q15 -7 15 -25q0 -8 -3 -19q-21 -71 -71.5 -116t-130.5 -45q-68 0 -138 55t-109 55q-43 0 -64 -22t-37 -60q-13 -30 -37 -20l-39 17q-15 7 -15 25q0 8 3 19z" />
<glyph unicode="&#x304;" d="M-442 1275l10 40q8 35 53 35h528q38 0 38 -25q0 -5 -1 -10l-10 -40q-8 -35 -53 -35h-528q-38 0 -38 25q0 5 1 10z" />
<glyph unicode="&#x305;" d="M-947 1255v60q0 35 45 35h1058q45 0 45 -35v-60q0 -35 -45 -35h-1058q-45 0 -45 35z" />
<glyph unicode="&#x306;" d="M-426 1370q-15 41 18 53l48 18q31 11 44 -22q27 -67 62 -105t112 -38q90 0 144.5 42.5t93.5 103.5q19 31 46 15l45 -27q31 -18 8 -55q-64 -112 -160.5 -160.5t-195.5 -48.5q-106 0 -164 52t-101 172z" />
<glyph unicode="&#x307;" d="M-218 1285l20 86q10 45 55 45h86q37 0 37 -30q0 -7 -2 -15l-20 -86q-11 -45 -56 -45h-86q-36 0 -36 29q0 7 2 16z" />
<glyph unicode="&#x308;" d="M-421 1285l20 86q10 45 55 45h86q37 0 37 -30q0 -7 -2 -15l-20 -86q-11 -45 -56 -45h-86q-36 0 -36 29q0 7 2 16zM-15 1285l20 86q10 45 55 45h86q37 0 37 -30q0 -7 -2 -15l-20 -86q-11 -45 -56 -45h-86q-36 0 -36 29q0 7 2 16z" />
<glyph unicode="&#x30a;" d="M-304 1313q0 75 52.5 127.5t127.5 52.5t127.5 -52.5t52.5 -127.5t-52.5 -127.5t-127.5 -52.5t-127.5 52.5t-52.5 127.5zM-228 1313q0 -44 30 -74t74 -30t74 30t30 74t-30 74t-74 30t-74 -30t-30 -74z" />
<glyph unicode="&#x30b;" d="M-431 1203l126 195q24 37 87 37h107q29 0 29 -15q0 -13 -23 -37l-188 -204q-27 -29 -81 -29h-52q-21 0 -21 15q0 13 16 38zM-131 1203l126 195q24 37 87 37h107q29 0 29 -15q0 -13 -23 -37l-188 -204q-27 -29 -81 -29h-52q-21 0 -21 15q0 13 16 38z" />
<glyph unicode="&#x30c;" d="M-405 1343q-28 29 1 55l25 23q29 27 57 -2l172 -179h2l256 179q40 28 57 2l25 -39q17 -26 -25 -55l-234 -163q-37 -26 -62 -26h-50q-25 0 -50 26z" />
<glyph unicode="&#x30f;" d="M-433 1383q-13 20 -13 32q0 20 35 20h87q61 0 75 -37l72 -195q7 -18 7 -30q0 -23 -26 -23h-32q-54 0 -73 29zM-133 1383q-13 20 -13 32q0 20 35 20h87q61 0 75 -37l72 -195q7 -18 7 -30q0 -23 -26 -23h-32q-54 0 -73 29z" />
<glyph unicode="&#x311;" d="M-421 1235q64 112 160.5 160.5t195.5 48.5q106 0 164 -52t101 -172q5 -13 5 -23q0 -22 -23 -30l-48 -18q-8 -3 -14 -3q-20 0 -30 25q-27 67 -62 105t-112 38q-90 0 -144.5 -42.5t-93.5 -103.5q-13 -20 -29 -20q-8 0 -17 5l-45 27q-18 10 -18 27q0 12 10 28z" />
<glyph unicode="&#x315;" d="M93 1310q-5 5 -5 11q0 11 18 24q35 26 74 88.5t52 117.5h-52q-37 0 -37 29q0 7 2 16l29 122q11 45 55 45h116q37 0 37 -29q0 -7 -2 -16l-29 -122q-30 -127 -67.5 -192t-115.5 -127q-16 -12 -26 -12q-7 0 -12 5z" />
<glyph unicode="&#x316;" d="M-643 -339q-38 52 22 52h101q54 0 75 -37l112 -195q30 -53 -19 -53h-64q-56 0 -77 29z" />
<glyph unicode="&#x317;" d="M-682 -519l166 195q32 37 87 37h121q31 0 31 -14q0 -13 -25 -38l-206 -204q-30 -29 -85 -29h-84q-26 0 -26 15q0 13 21 38z" />
<glyph unicode="&#x323;" d="M-578 -273l20 86q10 45 55 45h86q37 0 37 -30q0 -7 -2 -15l-20 -86q-11 -45 -56 -45h-86q-36 0 -36 29q0 7 2 16z" />
<glyph unicode="&#x324;" d="M-781 -273l20 86q10 45 55 45h86q37 0 37 -30q0 -7 -2 -15l-20 -86q-11 -45 -56 -45h-86q-36 0 -36 29q0 7 2 16zM-375 -273l20 86q10 45 55 45h86q37 0 37 -30q0 -7 -2 -15l-20 -86q-11 -45 -56 -45h-86q-36 0 -36 29q0 7 2 16z" />
<glyph unicode="&#x325;" d="M-683 -329q0 75 52.5 127.5t127.5 52.5t127.5 -52.5t52.5 -127.5t-52.5 -127.5t-127.5 -52.5t-127.5 52.5t-52.5 127.5zM-607 -329q0 -44 30 -74t74 -30t74 30t30 74t-30 74t-74 30t-74 -30t-30 -74z" />
<glyph unicode="&#x327;" d="M-699 -359l13 38q11 32 40 17q24 -12 86 -12q48 0 79 19t31 52q0 25 -24.5 40.5t-73.5 15.5h-28q-22 0 -18 25q7 42 18 55l89 109q18 22 45 22h69q32 0 14 -22l-78 -96l-1 -3q67 -13 90 -43t23 -89q0 -82 -70 -133.5t-168 -51.5q-69 0 -125 21q-14 5 -14 20q0 7 3 16z " />
<glyph unicode="&#x328;" d="M-678 -284q0 52 17.5 93.5t63.5 80t147 104.5q19 13 27 51h171q-7 -30 -27 -45l-167 -128q-72 -58 -72 -105q0 -27 15 -40.5t51 -13.5q43 0 73 6q25 5 27 -22l6 -77q2 -24 -18 -28q-58 -9 -118 -9q-100 0 -148 37.5t-48 95.5z" />
<glyph unicode="&#x32c;" d="M-769 -234q-28 29 1 55l25 23q29 27 57 -2l172 -179h2l256 179q40 28 57 2l25 -39q17 -26 -25 -55l-234 -163q-37 -26 -62 -26h-50q-25 0 -50 26z" />
<glyph unicode="&#x32d;" d="M-814 -387q-17 26 25 55l234 163q37 26 62 26h50q25 0 50 -26l174 -179q28 -29 -1 -55l-25 -23q-29 -27 -57 2l-172 179h-2l-256 -179q-40 -28 -57 -2z" />
<glyph unicode="&#x32e;" d="M-793 -218q-15 41 18 53l48 18q31 11 44 -22q27 -67 62 -105t112 -38q90 0 144.5 42.5t93.5 103.5q19 31 46 15l45 -27q31 -18 8 -55q-64 -112 -160.5 -160.5t-195.5 -48.5q-106 0 -164 52t-101 172z" />
<glyph unicode="&#x32f;" d="M-821 -498q64 112 160.5 160.5t195.5 48.5q106 0 164 -52t101 -172q5 -13 5 -23q0 -22 -23 -30l-48 -18q-8 -3 -14 -3q-20 0 -30 25q-27 67 -62 105t-112 38q-90 0 -144.5 -42.5t-93.5 -103.5q-13 -20 -29 -20q-8 0 -17 5l-45 27q-18 10 -18 27q0 12 10 28z" />
<glyph unicode="&#x330;" d="M-836 -437q21 71 71.5 116t130.5 45q68 0 138 -55t109 -55q43 0 64 22t37 60q13 30 37 20l39 -17q15 -7 15 -25q0 -8 -3 -19q-21 -71 -71.5 -116t-130.5 -45q-68 0 -138 55t-109 55q-43 0 -64 -22t-37 -60q-13 -30 -37 -20l-39 17q-15 7 -15 25q0 8 3 19z" />
<glyph unicode="&#x331;" d="M-816 -345l10 40q8 35 53 35h528q38 0 38 -25q0 -5 -1 -10l-10 -40q-8 -35 -53 -35h-528q-38 0 -38 25q0 5 1 10z" />
<glyph unicode="&#x332;" d="M-1319 -295q0 35 45 35h1058q45 0 45 -35v-60q0 -35 -45 -35h-1058q-45 0 -45 35v60z" />
<glyph unicode="&#x334;" d="M-613 529q21 71 71.5 116t130.5 45q68 0 138 -55t109 -55q43 0 64 22t37 60q13 30 37 20l39 -17q15 -7 15 -25q0 -8 -3 -19q-21 -71 -71.5 -116t-130.5 -45q-68 0 -138 55t-109 55q-43 0 -64 -22t-37 -60q-13 -30 -37 -20l-39 17q-15 7 -15 25q0 8 3 19z" />
<glyph unicode="&#x338;" d="M-1032 -332l1124 1771q20 32 42 32q7 0 15 -4l47 -24q15 -7 15 -22q0 -13 -13 -33l-1124 -1771q-20 -32 -41 -32q-7 0 -14 3l-47 24q-16 8 -16 24q0 13 12 32z" />
<glyph unicode="&#x3a3;" horiz-adv-x="1208" d="M-36 45l11 48q10 46 51 89l515 552q22 24 22 48q0 12 -6 24l-257 493q-14 27 -6 61l7 29q11 45 65 45h898q47 0 47 -32q0 -6 -2 -13l-17 -74q-10 -45 -66 -45h-628q-40 0 -79 2l-1 -4l257 -498q6 -11 6 -23q0 -22 -21 -44l-506 -537l-1 -4q27 2 81 2h665q46 0 46 -32 q0 -6 -2 -13l-17 -74q-10 -45 -65 -45h-952q-47 0 -47 32q0 6 2 13z" />
<glyph unicode="&#x401;" horiz-adv-x="1270" d="M63 55l305 1324q13 55 63 55h875q47 0 47 -32q0 -6 -2 -13l-17 -74q-11 -45 -66 -45h-733l-102 -444h673q46 0 46 -31q0 -7 -2 -14l-17 -74q-10 -45 -65 -45h-673l-115 -498h763q46 0 46 -31q0 -7 -2 -14l-17 -74q-10 -45 -65 -45h-905q-40 0 -40 35q0 9 3 20zM593 1595 l21 92q11 45 56 45h92q36 0 36 -29q0 -7 -2 -16l-21 -92q-10 -45 -55 -45h-92q-37 0 -37 30q0 7 2 15zM1071 1595l21 92q11 45 56 45h92q36 0 36 -29q0 -7 -2 -16l-21 -92q-10 -45 -55 -45h-92q-37 0 -37 30q0 7 2 15z" />
<glyph unicode="&#x402;" horiz-adv-x="1600" d="M220 1315l17 74q10 45 66 45h1058q46 0 46 -32q0 -6 -2 -13l-17 -74q-10 -45 -65 -45h-463l-97 -419q-11 -47 -21 -80h4q80 35 162 66t189 31q199 0 296 -107t97 -279q0 -242 -126 -380t-358 -138q-87 0 -153 18q-30 7 -30 31q0 8 4 18l27 81q8 24 54 16q44 -7 86 -7 q164 0 227.5 97t63.5 230q0 137 -47 201.5t-176 64.5q-59 0 -161.5 -20t-186.5 -57l-135 -582q-13 -55 -63 -55h-92q-40 0 -40 35q0 9 3 20l281 1215h-403q-47 0 -47 32q0 6 2 13z" />
<glyph unicode="&#x403;" horiz-adv-x="1106" d="M63 55l305 1324q13 55 63 55h795q47 0 47 -32q0 -6 -2 -13l-17 -74q-11 -45 -66 -45h-653l-280 -1215q-13 -55 -63 -55h-92q-40 0 -40 35q0 9 3 20zM694 1593l155 155q37 37 86 37h169q40 0 40 -14q0 -13 -33 -38l-221 -164q-40 -29 -86 -29h-106q-30 0 -30 14 q0 13 26 39z" />
<glyph unicode="&#x404;" horiz-adv-x="1382" d="M110 580q0 395 204.5 639.5t593.5 244.5q184 0 289.5 -52.5t161.5 -154.5q28 -50 -16 -81l-73 -53q-26 -18 -55 23q-36 53 -112.5 107.5t-211.5 54.5q-250 0 -380.5 -146.5t-169.5 -328.5h683q54 0 44 -45l-17 -74q-10 -45 -65 -45h-667q-4 -54 -4 -112 q0 -182 88.5 -306.5t333.5 -124.5q136 0 228 65t150 132q47 54 81 28l85 -65q30 -24 -15 -79q-90 -108 -214.5 -172.5t-341.5 -64.5q-314 0 -457 172.5t-143 437.5z" />
<glyph unicode="&#x405;" horiz-adv-x="1217" d="M64 198l57 70q13 16 31 16q23 0 55 -29q65 -61 141 -95t194 -34q100 0 169 28.5t122.5 83t53.5 135.5q0 43 -12.5 89t-52 81t-87.5 54q-55 22 -117 42.5t-138 58.5q-64 32 -110 81t-73 117t-27 145q0 141 90 250.5t201 141t206 31.5q133 0 223 -33t164 -90q30 -23 30 -47 q0 -16 -13 -33l-58 -75q-10 -13 -25 -13q-18 0 -44 21q-36 30 -118 65t-171 35q-57 0 -123 -19t-118 -77.5t-52 -142.5q0 -44 12 -84.5t44.5 -70.5t69.5 -48q58 -28 119.5 -48t111.5 -40q80 -32 146.5 -83t95.5 -128.5t29 -147.5q0 -141 -76 -236t-187 -147t-301 -52 q-164 0 -271 40t-171 102q-31 31 -31 57q0 15 11 29z" />
<glyph unicode="&#x406;" horiz-adv-x="532" d="M63 55l305 1324q13 55 63 55h92q40 0 40 -35q0 -9 -3 -20l-305 -1324q-13 -55 -63 -55h-92q-40 0 -40 35q0 9 3 20z" />
<glyph unicode="&#x407;" horiz-adv-x="532" d="M63 55l305 1324q13 55 63 55h92q40 0 40 -35q0 -9 -3 -20l-305 -1324q-13 -55 -63 -55h-92q-40 0 -40 35q0 9 3 20zM226 1595l21 92q11 45 56 45h92q36 0 36 -29q0 -7 -2 -16l-21 -92q-10 -45 -55 -45h-92q-37 0 -37 30q0 7 2 15zM620 1595l21 92q11 45 56 45h92 q36 0 36 -29q0 -7 -2 -16l-21 -92q-10 -45 -55 -45h-92q-37 0 -37 30q0 7 2 15z" />
<glyph unicode="&#x408;" horiz-adv-x="824" d="M-50 94l36 71q15 30 38 30q17 0 38 -16q70 -53 132 -53q97 0 152 65t83 187l231 1001q13 55 63 55h92q40 0 40 -35q0 -9 -3 -20l-225 -978q-40 -176 -132 -303.5t-320 -127.5q-116 0 -212 59q-21 13 -21 34q0 14 8 31z" />
<glyph unicode="&#x409;" horiz-adv-x="2250" d="M-67 29l25 83q8 27 34 27q10 0 23 -4q26 -8 77 -8q169 0 271.5 263.5t199.5 686.5l69 302q13 55 63 55h770q40 0 40 -35q0 -9 -3 -20l-127 -551h268q292 0 399 -106.5t107 -267.5q0 -184 -160 -319t-497 -135h-450q-40 0 -40 35q0 9 3 20l280 1215h-512l-57 -249 q-144 -628 -272.5 -839.5t-364.5 -211.5q-88 0 -125 13q-23 8 -23 30q0 7 2 16zM1222 164h276q215 0 330.5 74t115.5 206q0 141 -93 180.5t-278 39.5h-236z" />
<glyph unicode="&#x40a;" horiz-adv-x="2198" d="M63 55l305 1324q13 55 63 55h92q40 0 40 -35q0 -9 -3 -20l-127 -551h698l127 551q13 55 63 55h92q40 0 40 -35q0 -9 -3 -20l-127 -551h268q292 0 399 -106.5t107 -267.5q0 -184 -160 -319t-497 -135h-450q-40 0 -40 35q0 9 3 20l140 609h-698l-140 -609q-13 -55 -63 -55 h-92q-40 0 -40 35q0 9 3 20zM1170 164h276q215 0 330.5 74t115.5 206q0 141 -93 180.5t-278 39.5h-236z" />
<glyph unicode="&#x40b;" horiz-adv-x="1630" d="M220 1315l17 74q10 45 65 45h1058q47 0 47 -32q0 -6 -2 -13l-17 -74q-11 -45 -66 -45h-463l-96 -419q-10 -42 -21 -80h4q104 41 202.5 69t254.5 28t237 -102q59 -73 59 -167q0 -37 -9 -77l-107 -467q-13 -55 -63 -55h-92q-40 0 -40 35q0 9 3 20l96 419q15 67 15 113 q0 51 -19 77q-35 50 -146 50q-54 0 -192 -19t-232 -58l-134 -582q-13 -55 -63 -55h-92q-40 0 -40 35q0 9 3 20l280 1215h-403q-46 0 -46 31q0 7 2 14z" />
<glyph unicode="&#x40c;" horiz-adv-x="1270" d="M63 55l305 1324q13 55 63 55h92q40 0 40 -35q0 -9 -3 -20l-130 -566h42q114 0 185.5 57t150.5 144l348 381q36 39 79 39h137q33 0 33 -17t-30 -49l-408 -436q-71 -76 -150.5 -131.5t-107.5 -65.5l-1 -1q57 -26 119 -91t92 -137l186 -440q9 -21 9 -35q0 -31 -42 -31h-107 q-47 0 -61 39l-136 369q-40 108 -125.5 176.5t-192.5 68.5h-57l-138 -598q-13 -55 -63 -55h-92q-40 0 -40 35q0 9 3 20zM773 1593l155 155q37 37 86 37h169q40 0 40 -14q0 -13 -33 -38l-221 -164q-40 -29 -86 -29h-106q-30 0 -30 14q0 13 26 39z" />
<glyph unicode="&#x40e;" horiz-adv-x="1316" d="M77 65l41 82q11 23 30 23q13 0 28 -9q56 -34 116 -34q81 0 136 34t91 88l42 63l-299 1056q-5 16 -5 28q0 38 47 38h86q47 0 61 -49l176 -639q17 -61 32 -137.5t24 -137.5h4q34 78 81 155l84 136l393 623q31 49 83 49h118q31 0 31 -21q0 -16 -19 -45l-677 -1037 q-118 -182 -222.5 -271.5t-279.5 -89.5q-125 0 -191 44q-17 11 -17 28q0 11 6 23zM576 1761l6 58q5 48 59 48h83q38 0 38 -40v-8l-3 -32q-1 -6 -1 -11q0 -47 38 -68q42 -24 123 -24q131 0 213 58.5t121 112.5q16 23 34 23q9 0 19 -7l39 -27q12 -8 12 -21q0 -14 -14 -34 q-95 -133 -191 -187t-265 -54q-155 0 -237 61q-75 55 -75 134q0 9 1 18z" />
<glyph unicode="&#x40f;" horiz-adv-x="1410" d="M63 55l305 1324q13 55 63 55h92q40 0 40 -35q0 -9 -3 -20l-280 -1215h686l280 1215q13 55 63 55h92q40 0 40 -35q0 -9 -3 -20l-305 -1324q-13 -55 -63 -55h-402l-74 -320q-11 -50 -51 -50h-86q-31 0 -31 31q0 8 2 19l74 320h-402q-40 0 -40 35q0 9 3 20z" />
<glyph unicode="&#x410;" horiz-adv-x="1360" d="M-59 66l770 1307q36 61 80 61h140q41 0 52 -61l226 -1307q2 -11 2 -21q0 -45 -44 -45h-91q-53 0 -61 49l-57 331h-615l-195 -331q-29 -49 -83 -49h-112q-29 0 -29 21q0 16 17 45zM441 544h488l-70 400q-13 72 -21 157.5t-8 159.5h-4q-18 -71 -56 -145t-95 -172z" />
<glyph unicode="&#x411;" horiz-adv-x="1330" d="M63 55l305 1324q13 55 63 55h835q47 0 47 -32q0 -6 -2 -13l-17 -74q-10 -45 -66 -45h-693l-101 -438h278q310 0 408 -113t98 -256q0 -191 -160.5 -327t-497.5 -136h-460q-40 0 -40 35q0 9 3 20zM280 164h286q215 0 331 76.5t116 211.5q0 120 -80.5 168t-290.5 48h-246z " />
<glyph unicode="&#x412;" horiz-adv-x="1338" d="M63 55l305 1324q13 55 63 55h370q273 0 379 -100.5t106 -249.5q0 -139 -95.5 -221.5t-237.5 -112.5v-3q103 -21 183.5 -100.5t80.5 -215.5q0 -167 -151 -299t-496 -132h-470q-40 0 -40 35q0 9 3 20zM280 164h296q210 0 323 71t113 204q0 121 -102.5 173t-278.5 52h-236z M429 808h271q142 0 266.5 76t124.5 192q0 103 -73 148.5t-252 45.5h-231z" />
<glyph unicode="&#x413;" horiz-adv-x="1106" d="M63 55l305 1324q13 55 63 55h795q47 0 47 -32q0 -6 -2 -13l-17 -74q-11 -45 -66 -45h-653l-280 -1215q-13 -55 -63 -55h-92q-40 0 -40 35q0 9 3 20z" />
<glyph unicode="&#x414;" horiz-adv-x="1522" d="M-140 -320l99 429q13 55 63 55h82q218 205 302 454t140 489l62 272q13 55 63 55h770q40 0 40 -35q0 -9 -3 -20l-280 -1215h128q40 0 40 -35q0 -9 -3 -20l-99 -429q-11 -50 -51 -50h-86q-31 0 -31 31q0 8 2 19l74 320h-1072l-74 -320q-11 -50 -51 -50h-86q-31 0 -31 31 q0 8 2 19zM314 164h692l255 1106h-512l-50 -219q-103 -450 -207 -641t-178 -246z" />
<glyph unicode="&#x415;" horiz-adv-x="1270" d="M63 55l305 1324q13 55 63 55h875q47 0 47 -32q0 -6 -2 -13l-17 -74q-11 -45 -66 -45h-733l-102 -444h673q46 0 46 -31q0 -7 -2 -14l-17 -74q-10 -45 -65 -45h-673l-115 -498h763q46 0 46 -31q0 -7 -2 -14l-17 -74q-10 -45 -65 -45h-905q-40 0 -40 35q0 9 3 20z" />
<glyph unicode="&#x416;" horiz-adv-x="1928" d="M-45 66l382 440q114 131 183.5 173.5t127.5 54.5l1 1q-24 10 -76 64t-88 133l-198 436q-10 21 -10 36q0 30 43 30h97q44 0 61 -39l164 -381q39 -91 100 -146t164 -55h30l130 566q13 55 63 55h92q40 0 40 -35q0 -9 -3 -20l-130 -566h30q99 0 168 56t148 145l340 381 q35 39 79 39h137q33 0 33 -17t-30 -49l-400 -436q-75 -82 -150.5 -134.5t-103.5 -62.5l-1 -1q54 -12 104 -54.5t103 -173.5l178 -440q8 -20 8 -35q0 -31 -41 -31h-107q-47 0 -61 39l-128 369q-39 112 -122.5 178.5t-175.5 66.5h-45l-138 -598q-13 -55 -63 -55h-92 q-40 0 -40 35q0 9 3 20l138 598h-45q-86 0 -184.5 -67.5t-187.5 -177.5l-298 -369q-31 -39 -79 -39h-147q-31 0 -31 17t28 49z" />
<glyph unicode="&#x417;" horiz-adv-x="1272" d="M40 241l77 62q13 10 26 10q26 0 53 -35q35 -44 128 -98t260 -54q169 0 264 94.5t95 210.5q0 115 -78.5 179.5t-193.5 64.5h-160q-47 0 -47 31q0 5 2 12l16 70q10 45 65 45h154q162 0 246.5 84.5t84.5 178.5q0 110 -93 161t-205 51q-101 0 -206.5 -40.5t-153.5 -84.5 q-26 -24 -45 -24q-16 0 -28 16l-58 77q-10 13 -10 26q0 26 40 55q88 64 197 97.5t269 33.5q242 0 365 -105t123 -249q0 -153 -97.5 -241.5t-226.5 -114.5l-1 -4q103 -21 174.5 -108t71.5 -215q0 -166 -142 -311.5t-429 -145.5q-208 0 -340 67.5t-188 127.5q-25 26 -25 47 q0 16 16 29z" />
<glyph unicode="&#x418;" horiz-adv-x="1452" d="M63 55l305 1324q13 55 63 55h92q40 0 40 -35q0 -9 -3 -20l-233 -1009q-10 -45 -20 -80h4l893 1094q41 50 111 50h128q40 0 40 -35q0 -9 -3 -20l-305 -1324q-13 -55 -63 -55h-92q-40 0 -40 35q0 9 3 20l233 1009q10 45 20 80h-4l-892 -1094q-41 -50 -112 -50h-128 q-40 0 -40 35q0 9 3 20z" />
<glyph unicode="&#x419;" horiz-adv-x="1452" d="M63 55l305 1324q13 55 63 55h92q40 0 40 -35q0 -9 -3 -20l-233 -1009q-10 -45 -20 -80h4l893 1094q41 50 111 50h128q40 0 40 -35q0 -9 -3 -20l-305 -1324q-13 -55 -63 -55h-92q-40 0 -40 35q0 9 3 20l233 1009q10 45 20 80h-4l-892 -1094q-41 -50 -112 -50h-128 q-40 0 -40 35q0 9 3 20zM632 1761l6 58q5 48 59 48h83q38 0 38 -40v-8l-3 -32q-1 -6 -1 -11q0 -47 38 -68q42 -24 123 -24q131 0 213 58.5t121 112.5q16 23 34 23q9 0 19 -7l39 -27q12 -8 12 -21q0 -14 -14 -34q-95 -133 -191 -187t-265 -54q-155 0 -237 61q-75 55 -75 134 q0 9 1 18z" />
<glyph unicode="&#x41a;" horiz-adv-x="1270" d="M63 55l305 1324q13 55 63 55h92q40 0 40 -35q0 -9 -3 -20l-130 -566h42q114 0 185.5 57t150.5 144l348 381q36 39 79 39h137q33 0 33 -17t-30 -49l-408 -436q-71 -76 -150.5 -131.5t-107.5 -65.5l-1 -1q57 -26 119 -91t92 -137l186 -440q9 -21 9 -35q0 -31 -42 -31h-107 q-47 0 -61 39l-136 369q-40 108 -125.5 176.5t-192.5 68.5h-57l-138 -598q-13 -55 -63 -55h-92q-40 0 -40 35q0 9 3 20z" />
<glyph unicode="&#x41b;" horiz-adv-x="1474" d="M-67 29l25 83q8 27 34 27q10 0 23 -4q26 -8 77 -8q169 0 271.5 263.5t199.5 686.5l69 302q13 55 63 55h770q40 0 40 -35q0 -9 -3 -20l-305 -1324q-13 -55 -63 -55h-92q-40 0 -40 35q0 9 3 20l280 1215h-512l-57 -249q-144 -628 -272.5 -839.5t-364.5 -211.5 q-88 0 -125 13q-23 8 -23 30q0 7 2 16z" />
<glyph unicode="&#x41c;" horiz-adv-x="1708" d="M63 55l305 1324q13 55 63 55h201q38 0 43 -60l79 -897q7 -82 10 -146.5t3 -124.5h6q27 63 59 125l78 146l493 897q33 60 71 60h225q40 0 40 -35q0 -9 -3 -20l-305 -1324q-13 -55 -63 -55h-92q-40 0 -40 35q0 9 3 20l242 1049q10 45 20 80h-4l-628 -1123q-34 -61 -80 -61 h-110q-46 0 -52 61l-110 1123h-4q-8 -44 -16 -80l-242 -1049q-13 -55 -63 -55h-92q-40 0 -40 35q0 9 3 20z" />
<glyph unicode="&#x41d;" horiz-adv-x="1422" d="M63 55l305 1324q13 55 63 55h92q40 0 40 -35q0 -9 -3 -20l-127 -551h698l127 551q13 55 63 55h92q40 0 40 -35q0 -9 -3 -20l-305 -1324q-13 -55 -63 -55h-92q-40 0 -40 35q0 9 3 20l140 609h-698l-140 -609q-13 -55 -63 -55h-92q-40 0 -40 35q0 9 3 20z" />
<glyph unicode="&#x41e;" horiz-adv-x="1514" d="M110 580q0 400 214 642t554 242q305 0 461 -162.5t156 -447.5q0 -400 -214 -642t-554 -242q-305 0 -461 162.5t-156 447.5zM315 556q0 -205 106.5 -317.5t316.5 -112.5q220 0 386 183.5t166 568.5q0 205 -106.5 317.5t-316.5 112.5q-220 0 -386 -183.5t-166 -568.5z" />
<glyph unicode="&#x41f;" horiz-adv-x="1416" d="M63 55l305 1324q13 55 63 55h976q40 0 40 -35q0 -9 -3 -20l-305 -1324q-13 -55 -63 -55h-92q-40 0 -40 35q0 9 3 20l280 1215h-692l-280 -1215q-13 -55 -63 -55h-92q-40 0 -40 35q0 9 3 20z" />
<glyph unicode="&#x420;" horiz-adv-x="1298" d="M63 55l305 1324q13 55 63 55h410q234 0 355.5 -105t121.5 -284q0 -181 -145.5 -325t-499.5 -144h-298l-120 -521q-13 -55 -63 -55h-92q-40 0 -40 35q0 9 3 20zM413 740h311q207 0 303 78.5t96 206.5q0 136 -75 190.5t-242 54.5h-271z" />
<glyph unicode="&#x421;" horiz-adv-x="1392" d="M110 580q0 395 210.5 639.5t587.5 244.5q184 0 298 -64t161 -170q23 -53 -23 -80l-78 -46q-27 -16 -52 28q-30 54 -109 115t-214 61q-250 0 -413 -183t-163 -568q0 -182 96 -306.5t326 -124.5q136 0 230.5 71.5t146.5 143.5q42 58 78 35l90 -58q33 -21 -8 -80 q-79 -115 -213 -191.5t-351 -76.5q-302 0 -451 172.5t-149 437.5z" />
<glyph unicode="&#x422;" horiz-adv-x="1240" d="M218 1307l19 82q10 45 65 45h1058q47 0 47 -32q0 -6 -2 -13l-19 -82q-11 -45 -66 -45h-433l-278 -1207q-13 -55 -63 -55h-92q-40 0 -40 35q0 9 3 20l278 1207h-433q-46 0 -46 31q0 7 2 14z" />
<glyph unicode="&#x423;" horiz-adv-x="1316" d="M77 65l41 82q11 23 30 23q13 0 28 -9q56 -34 116 -34q81 0 136 34t91 88l42 63l-299 1056q-5 16 -5 28q0 38 47 38h86q47 0 61 -49l176 -639q17 -61 32 -137.5t24 -137.5h4q34 78 81 155l84 136l393 623q31 49 83 49h118q31 0 31 -21q0 -16 -19 -45l-677 -1037 q-118 -182 -222.5 -271.5t-279.5 -89.5q-125 0 -191 44q-17 11 -17 28q0 11 6 23z" />
<glyph unicode="&#x424;" horiz-adv-x="1728" d="M122 650q0 267 196 438.5t518 171.5h103l29 124q13 55 62 55h92q40 0 40 -36q0 -8 -2 -19l-29 -124h43q263 0 396 -121.5t133 -328.5q0 -267 -196 -438.5t-518 -171.5h-103l-36 -157q-13 -55 -63 -55h-92q-40 0 -40 35q0 9 3 20l36 157h-43q-263 0 -396 121.5t-133 328.5 zM327 630q0 -139 92 -209.5t290 -70.5h20l175 760h-80q-205 0 -351 -122t-146 -358zM921 350h80q205 0 351 122t146 358q0 139 -92 209.5t-290 70.5h-20z" />
<glyph unicode="&#x425;" horiz-adv-x="1298" d="M-45 66l638 686l-299 616q-11 22 -11 36q0 30 44 30h98q43 0 61 -39l235 -522l456 522q34 39 79 39h138q33 0 33 -17t-30 -49l-591 -641l326 -661q11 -22 11 -37q0 -29 -44 -29h-105q-44 0 -61 39l-254 568l-497 -568q-34 -39 -79 -39h-145q-33 0 -33 17t30 49z" />
<glyph unicode="&#x426;" horiz-adv-x="1486" d="M63 55l305 1324q13 55 63 55h92q40 0 40 -35q0 -9 -3 -20l-280 -1215h686l280 1215q13 55 63 55h92q40 0 40 -35q0 -9 -3 -20l-280 -1215h132q40 0 40 -35q0 -9 -3 -20l-99 -429q-11 -50 -51 -50h-86q-31 0 -31 31q0 8 2 19l74 320h-1036q-40 0 -40 35q0 9 3 20z" />
<glyph unicode="&#x427;" horiz-adv-x="1286" d="M211 912l107 467q13 55 63 55h92q50 0 37 -55l-96 -419q-32 -141 3.5 -190.5t146.5 -49.5q54 0 192 19t232 58l134 582q13 55 63 55h92q50 0 37 -55l-305 -1324q-13 -55 -63 -55h-92q-50 0 -37 55l121 528q10 42 21 80h-4q-104 -41 -202.5 -69t-248.5 -28 q-162 0 -243.5 102t-49.5 244z" />
<glyph unicode="&#x428;" horiz-adv-x="2040" d="M63 55l305 1324q13 55 63 55h92q40 0 40 -35q0 -9 -3 -20l-280 -1215h562l280 1215q13 55 63 55h92q40 0 40 -35q0 -9 -3 -20l-280 -1215h562l280 1215q13 55 63 55h92q40 0 40 -35q0 -9 -3 -20l-305 -1324q-13 -55 -63 -55h-1600q-40 0 -40 35q0 9 3 20z" />
<glyph unicode="&#x429;" horiz-adv-x="2116" d="M63 55l305 1324q13 55 63 55h92q40 0 40 -35q0 -9 -3 -20l-280 -1215h562l280 1215q13 55 63 55h92q40 0 40 -35q0 -9 -3 -20l-280 -1215h562l280 1215q13 55 63 55h92q40 0 40 -35q0 -9 -3 -20l-280 -1215h132q40 0 40 -35q0 -9 -3 -20l-99 -429q-11 -50 -51 -50h-86 q-31 0 -31 31q0 8 2 19l74 320h-1666q-40 0 -40 35q0 9 3 20z" />
<glyph unicode="&#x42a;" horiz-adv-x="1700" d="M220 1315l17 74q10 45 65 45h613q40 0 40 -35q0 -9 -3 -20l-127 -551h268q292 0 399 -106.5t107 -267.5q0 -184 -160 -319t-497 -135h-450q-40 0 -40 35q0 9 3 20l280 1215h-471q-46 0 -46 31q0 7 2 14zM672 164h276q215 0 330.5 74t115.5 206q0 141 -93 180.5t-278 39.5 h-236z" />
<glyph unicode="&#x42b;" horiz-adv-x="1770" d="M63 55l305 1324q13 55 63 55h92q40 0 40 -35q0 -9 -3 -20l-127 -551h268q292 0 399 -106.5t107 -267.5q0 -184 -160 -319t-497 -135h-450q-40 0 -40 35q0 9 3 20zM280 164h276q215 0 330.5 74t115.5 206q0 141 -93 180.5t-278 39.5h-236zM1301 55l305 1324q13 55 63 55 h92q40 0 40 -35q0 -9 -3 -20l-305 -1324q-13 -55 -63 -55h-92q-40 0 -40 35q0 9 3 20z" />
<glyph unicode="&#x42c;" horiz-adv-x="1308" d="M63 55l305 1324q13 55 63 55h92q40 0 40 -35q0 -9 -3 -20l-127 -551h268q292 0 399 -106.5t107 -267.5q0 -184 -160 -319t-497 -135h-450q-40 0 -40 35q0 9 3 20zM280 164h276q215 0 330.5 74t115.5 206q0 141 -93 180.5t-278 39.5h-236z" />
<glyph unicode="&#x42d;" horiz-adv-x="1352" d="M55 191q-35 56 8 85l75 51q43 29 72 -18q33 -54 115.5 -118.5t244.5 -64.5q182 0 338 126t207 416h-693q-56 0 -45 45l18 74q11 45 65 45h670q26 206 -78 341t-314 135q-132 0 -225 -45t-138 -90q-43 -43 -71 -17l-61 55q-37 34 12 85q63 66 183 117t307 51 q263 0 425.5 -145t162.5 -491t-201.5 -602t-561.5 -256q-219 0 -337.5 63t-177.5 158z" />
<glyph unicode="&#x42e;" horiz-adv-x="2023" d="M63 55l305 1324q13 55 63 55h92q40 0 40 -35q0 -9 -3 -20l-127 -551h210q47 232 225.5 434t518.5 202q305 0 461 -162.5t156 -447.5q0 -400 -214 -642t-554 -242q-305 0 -461 162.5t-156 447.5q0 43 2 84h-226l-140 -609q-13 -55 -63 -55h-92q-40 0 -40 35q0 9 3 20z M824 556q0 -205 106.5 -317.5t316.5 -112.5q220 0 386 183.5t166 568.5q0 205 -106.5 317.5t-316.5 112.5q-220 0 -386 -183.5t-166 -568.5z" />
<glyph unicode="&#x42f;" horiz-adv-x="1363" d="M15 66l326 359q19 21 107 101t159 110v2q-135 24 -238 115t-103 221q0 226 173 343t451 117h464q40 0 40 -35q0 -9 -3 -20l-305 -1324q-13 -55 -63 -55h-92q-40 0 -40 35q0 9 3 20l129 558h-101q-112 0 -206.5 -69t-169.5 -156l-306 -349q-34 -39 -79 -39h-143 q-32 0 -32 17t29 49zM471 996q0 -108 63 -163.5t306 -55.5h220l114 493h-308q-166 0 -280.5 -66t-114.5 -208z" />
<glyph unicode="&#x430;" horiz-adv-x="1099" d="M66 339q0 275 186.5 501.5t391.5 226.5q90 0 148 -37.5t86 -87.5h2l21 63q15 45 49 45h84q37 0 37 -30q0 -7 -2 -15l-222 -960q-10 -45 -55 -45h-81q-37 0 -37 31q0 6 2 14l25 120h-2q-49 -65 -130.5 -123.5t-181.5 -58.5q-145 0 -233 87.5t-88 268.5zM252 332 q0 -66 35.5 -142.5t145.5 -76.5q90 0 199 119t139 248l67 290q0 90 -57.5 128.5t-142.5 38.5q-140 0 -263 -179.5t-123 -425.5z" />
<glyph unicode="&#x431;" horiz-adv-x="1148" d="M74 452q0 150 68.5 362t128 306.5t119 151.5t153.5 103.5t193 54.5q121 10 176 11t103 19q42 16 54 35t46 19h24q30 0 30 -26q0 -4 -1 -9q-10 -53 -62.5 -108.5t-156.5 -75.5q-45 -9 -133 -15t-156.5 -12.5t-119.5 -33.5q-197 -103 -286 -412l7 -4q22 58 143.5 153.5 t255.5 95.5q234 0 327 -134.5t93 -284.5q0 -264 -163.5 -464.5t-428.5 -200.5q-234 0 -324 133.5t-90 335.5zM254 387q0 -125 58.5 -199.5t188.5 -74.5q156 0 274.5 141.5t118.5 408.5q0 125 -58.5 199.5t-188.5 74.5q-156 0 -274.5 -141.5t-118.5 -408.5z" />
<glyph unicode="&#x432;" horiz-adv-x="1060" d="M72 404q0 212 130 437.5t454 225.5q113 0 201 -53.5t88 -165.5q0 -86 -44.5 -154t-192.5 -124v-2q104 -13 158 -85.5t54 -177.5q0 -151 -123 -236.5t-351 -85.5q-162 0 -268 96.5t-106 324.5zM258 357q0 -109 42 -176.5t172 -67.5q106 0 184 43.5t78 165.5 q0 74 -53 116.5t-133 42.5q-62 0 -140 -18.5t-144 -32.5q-6 -38 -6 -73zM276 569q295 61 394 109t99 158q0 48 -45 74.5t-101 26.5q-103 0 -202 -83.5t-145 -284.5z" />
<glyph unicode="&#x433;" horiz-adv-x="904" d="M20 226q0 70 22 113t69 97t137 93q65 28 142 57t140 62q60 31 81 54.5t29.5 51.5t8.5 52q0 30 -10.5 54t-42.5 50.5t-97 26.5q-71 0 -135 -23.5t-106 -55.5q-33 -25 -52 -4l-40 46q-20 23 18 56q54 46 144 78.5t191 32.5q119 0 180 -39.5t93.5 -93t32.5 -113.5 q0 -85 -20.5 -133t-69.5 -92t-132 -82q-65 -30 -126.5 -51t-142.5 -62q-62 -31 -85 -56t-33 -51.5t-10 -61.5t14 -61.5t44 -42t108 -15.5q60 0 144 30.5t156 89.5q30 25 52 3l46 -46q27 -27 -2 -53q-96 -89 -196 -121.5t-222 -32.5q-140 0 -204 37.5t-95 86.5t-31 119z" />
<glyph unicode="&#x434;" horiz-adv-x="1155" d="M68 402q0 252 168.5 458.5t433.5 206.5q94 0 166.5 -37.5t102.5 -82.5h4q2 34 2 81q0 145 -62.5 240t-191.5 95q-65 0 -131 -23.5t-98 -51.5q-16 -15 -30 -15q-15 0 -26 17l-30 43q-11 16 -11 29q0 17 17 31q48 39 136 69.5t192 30.5q188 0 299.5 -125.5t111.5 -379.5 q0 -535 -180.5 -770t-452.5 -235q-226 0 -323 116.5t-97 302.5zM254 387q0 -144 61 -209t186 -65q136 0 272.5 141.5t136.5 408.5q0 107 -61.5 190.5t-191.5 83.5q-156 0 -279.5 -146t-123.5 -404z" />
<glyph unicode="&#x435;" horiz-adv-x="1078" d="M68 396q0 300 156.5 485.5t427.5 185.5q155 0 250.5 -88.5t95.5 -200.5q0 -148 -141.5 -218t-350.5 -112l-246 -49q-6 -38 -6 -40q0 -99 54 -172t189 -73q115 0 185 42t95 76q23 30 42 30q11 0 21 -9l59 -51q19 -17 -6 -56q-23 -36 -124 -99.5t-296 -63.5 q-213 0 -309 123.5t-96 289.5zM265 538l205 40q140 27 246 74.5t106 133.5q0 68 -61.5 109.5t-141.5 41.5q-121 0 -215.5 -92t-138.5 -307z" />
<glyph unicode="&#x436;" horiz-adv-x="1458" d="M-41 59l271 325q71 85 116.5 116.5t99.5 51.5l1 2q-41 12 -69.5 54t-53.5 98l-127 285q-7 17 -7 29q0 30 46 30h75q37 0 47 -26l104 -264q14 -36 68.5 -91t107.5 -55h25l90 391q10 45 55 45h86q37 0 37 -30q0 -7 -2 -15l-90 -391h25q53 0 114.5 53.5t95.5 92.5l226 264 q22 26 59 26h107q37 0 37 -18q0 -15 -24 -41l-259 -285q-41 -45 -104.5 -94.5t-88.5 -57.5l-1 -2q46 -20 77.5 -52.5t62.5 -115.5l121 -325q6 -15 6 -27q0 -32 -46 -32h-79q-35 0 -48 37l-110 321q-27 80 -70.5 102t-105.5 22h-26l-101 -437q-10 -45 -55 -45h-86 q-37 0 -37 30q0 7 2 15l101 437h-26q-62 0 -97 -22t-99 -102l-258 -321q-30 -37 -66 -37h-115q-34 0 -34 18q0 15 22 41z" />
<glyph unicode="&#x437;" horiz-adv-x="982" d="M27 119q-26 33 2 55l60 49q27 22 53 -10q15 -18 79.5 -59t164.5 -41q132 0 206 68.5t74 151.5q0 89 -58 119.5t-161 30.5h-114q-45 0 -37 35l13 60q8 35 54 35h101q122 0 194 53t72 134q0 63 -57 100t-165 37q-70 0 -131 -23.5t-89 -49.5q-36 -34 -55 -16l-50 48 q-32 31 7 66q48 44 126 74.5t228 30.5q196 0 279 -74.5t83 -173.5q0 -123 -82.5 -189t-135.5 -79v-3q74 -16 119 -71.5t45 -152.5q0 -132 -126 -236.5t-339 -104.5q-168 0 -255 56.5t-105 79.5z" />
<glyph unicode="&#x438;" horiz-adv-x="1120" d="M104 366l148 639q10 45 55 45h86q45 0 35 -45l-136 -591q-45 -197 3 -249t153 -52q147 0 230 116.5t118 266.5l118 509q10 45 55 45h86q45 0 35 -45l-222 -960q-10 -45 -55 -45h-84q-45 0 -35 45l28 120h-4q-59 -73 -154.5 -127.5t-210.5 -54.5q-160 0 -225 102.5 t-24 280.5z" />
<glyph unicode="&#x439;" horiz-adv-x="1120" d="M104 366l148 639q10 45 55 45h86q37 0 37 -30q0 -7 -2 -15l-136 -591q-22 -95 -22 -157q0 -65 25 -92q48 -52 153 -52q147 0 230 116.5t118 266.5l118 509q10 45 55 45h86q37 0 37 -30q0 -7 -2 -15l-222 -960q-10 -45 -55 -45h-84q-37 0 -37 30q0 7 2 15l28 120h-4 q-59 -73 -154.5 -127.5t-210.5 -54.5q-160 0 -225 103q-40 62 -40 154q0 57 16 126zM404 1360l5 45q5 45 56 45h76q35 0 34 -45l-1 -34v-6q0 -61 42 -77q44 -18 99 -18q95 0 173.5 58t135.5 116q17 18 34 18q10 0 19 -6l40 -24q11 -6 11 -18q0 -14 -20 -38 q-90 -104 -183 -167t-248 -63q-143 0 -213 63q-61 55 -61 129q0 11 1 22z" />
<glyph unicode="&#x43a;" horiz-adv-x="989" d="M32 45l222 960q10 45 55 45h86q37 0 37 -30q0 -7 -2 -15l-90 -391h41q53 0 119 53t101 93l230 264q23 26 59 26h107q38 0 38 -18q0 -15 -25 -41l-270 -291q-27 -29 -95.5 -81.5t-103.5 -64.5l-1 -2q53 -19 86.5 -50.5t66.5 -117.5l125 -325q6 -16 6 -27q0 -32 -46 -32 h-80q-35 0 -48 37l-113 321q-26 75 -75 99.5t-111 24.5h-42l-101 -437q-10 -45 -55 -45h-86q-37 0 -37 30q0 7 2 15z" />
<glyph unicode="&#x43b;" horiz-adv-x="1136" d="M-70 22l29 83q7 20 29 14t42 -6q108 0 189 153.5t135 393.5l21 94q30 134 129.5 215t344.5 81h222q37 0 37 -30q0 -7 -2 -15l-222 -960q-10 -45 -55 -45h-86q-37 0 -37 30q0 7 2 15l202 873h-36q-174 0 -252.5 -50t-107.5 -177l-19 -84q-68 -301 -173.5 -462.5 t-299.5 -161.5q-63 0 -82 9q-12 6 -12 18q0 5 2 12z" />
<glyph unicode="&#x43c;" horiz-adv-x="1422" d="M32 45l222 960q10 45 55 45h180q31 0 36 -39l77 -660q2 -21 9 -77t7 -106h4q24 50 56 106l44 77l381 660q23 39 54 39h200q37 0 37 -30q0 -7 -2 -15l-222 -960q-10 -45 -55 -45h-86q-37 0 -37 30q0 7 2 15l175 755q7 29 16 60h-2l-485 -799q-37 -61 -68 -61h-78 q-31 0 -40 61l-115 799h-2q-5 -29 -12 -60l-175 -755q-10 -45 -55 -45h-86q-37 0 -37 30q0 7 2 15z" />
<glyph unicode="&#x43d;" horiz-adv-x="1120" d="M32 45l222 960q10 45 55 45h86q37 0 37 -30q0 -7 -2 -15l-90 -391h484l90 391q10 45 55 45h86q37 0 37 -30q0 -7 -2 -15l-222 -960q-10 -45 -55 -45h-86q-37 0 -37 30q0 7 2 15l101 437h-484l-101 -437q-10 -45 -55 -45h-86q-37 0 -37 30q0 7 2 15z" />
<glyph unicode="&#x43e;" horiz-adv-x="1148" d="M68 402q0 264 163.5 464.5t428.5 200.5q234 0 327 -134.5t93 -284.5q0 -264 -163.5 -464.5t-428.5 -200.5q-234 0 -327 134.5t-93 284.5zM254 387q0 -125 58.5 -199.5t188.5 -74.5q156 0 274.5 141.5t118.5 408.5q0 125 -58.5 199.5t-188.5 74.5q-156 0 -274.5 -141.5 t-118.5 -408.5z" />
<glyph unicode="&#x43f;" horiz-adv-x="1128" d="M32 45l222 960q10 45 55 45h84q37 0 37 -30q0 -7 -2 -15l-27 -120h4q59 73 153.5 127.5t214.5 54.5q170 0 232 -103q37 -61 37 -150q0 -59 -16 -130l-148 -639q-10 -45 -55 -45h-86q-37 0 -37 30q0 7 2 15l137 591q22 95 22 156q0 65 -25 92q-48 53 -158 53 q-120 0 -218.5 -116.5t-133.5 -266.5l-118 -509q-10 -45 -55 -45h-86q-37 0 -37 30q0 7 2 15z" />
<glyph unicode="&#x440;" horiz-adv-x="1119" d="M-60 -355l314 1360q10 45 55 45h84q30 0 30 -30q0 -7 -1 -15l-22 -120h2q44 79 137 130.5t173 51.5q190 0 264.5 -116.5t74.5 -279.5q0 -255 -161 -471.5t-379 -216.5q-111 0 -173 33.5t-113 101.5h-2q-4 -28 -12 -61l-95 -412q-10 -45 -55 -45h-86q-37 0 -37 30 q0 7 2 15zM265 290q10 -100 65 -138.5t167 -38.5q152 0 260 169.5t108 395.5q0 104 -45 181.5t-158 77.5q-98 0 -199.5 -117.5t-132.5 -249.5z" />
<glyph unicode="&#x441;" horiz-adv-x="1026" d="M68 402q0 265 163.5 465t428.5 200q162 0 231 -56.5t100 -124.5q16 -36 -14 -52l-66 -35q-34 -18 -53 25q-14 32 -64 72.5t-147 40.5q-156 0 -274.5 -140t-118.5 -410q0 -122 58.5 -198t188.5 -76q103 0 169 53.5t94 95.5q23 35 53 14l63 -46q29 -21 5 -55 q-29 -40 -127 -116t-270 -76q-234 0 -327 133.5t-93 285.5z" />
<glyph unicode="&#x442;" horiz-adv-x="1678" d="M32 45l222 960q10 45 55 45h84q37 0 37 -30q0 -7 -2 -15l-27 -120h4q59 72 148.5 127t179.5 55q110 0 172.5 -69.5t62.5 -164.5h4q63 82 159.5 158t211.5 76q140 0 207 -103q42 -63 42 -156q0 -56 -16 -124l-148 -639q-10 -45 -55 -45h-86q-37 0 -37 30q0 7 2 15l135 581 q26 114 26 181q0 48 -13 72q-32 58 -142 58q-90 0 -189.5 -120.5t-132.5 -262.5l-118 -509q-10 -45 -55 -45h-86q-37 0 -37 30q0 7 2 15l135 581q26 114 26 181q0 48 -13 72q-32 58 -142 58q-90 0 -188.5 -116.5t-133.5 -266.5l-118 -509q-10 -45 -55 -45h-86q-37 0 -37 30 q0 7 2 15z" />
<glyph unicode="&#x443;" horiz-adv-x="1128" d="M0 -306q-14 19 -14 36q0 18 16 32l56 52q32 29 50 0q30 -48 87 -74.5t170 -26.5q121 0 206.5 68.5t122.5 228.5q23 102 37 155h-4q-59 -73 -150 -127.5t-218 -54.5q-170 0 -232 103q-37 61 -37 150q0 59 16 130l148 639q10 45 55 45h86q37 0 37 -30q0 -7 -2 -15 l-136 -591q-22 -96 -22 -157q0 -65 24 -92q48 -52 158 -52q106 0 211.5 113.5t141.5 269.5l117 509q10 45 55 45h86q37 0 37 -30q0 -7 -2 -15l-234 -1014q-47 -205 -158 -306.5t-374 -101.5q-171 0 -236 33t-98 78z" />
<glyph unicode="&#x444;" horiz-adv-x="1638" d="M70 415q0 229 163 440.5t364 211.5q93 0 144 -35.5t83 -106.5h2q5 29 12 60l95 410q10 45 55 45h86q37 0 37 -30q0 -7 -2 -15l-99 -430q-5 -24 -16 -60h2q48 79 120 120.5t153 41.5q149 0 225 -114.5t76 -317.5q0 -229 -163 -440.5t-364 -211.5q-93 0 -144 35.5 t-83 106.5h-2q-5 -32 -12 -60l-97 -420q-10 -45 -55 -45h-86q-37 0 -37 30q0 7 2 15l101 440q5 23 16 60h-2q-48 -79 -120 -120.5t-153 -41.5q-149 0 -225 114.5t-76 317.5zM256 405q0 -180 52 -236t108 -56q91 0 179.5 102t119.5 237l70 303q0 81 -43.5 131.5t-109.5 50.5 q-176 0 -276 -174.5t-100 -357.5zM855 295q0 -81 43.5 -131.5t109.5 -50.5q176 0 276 174.5t100 357.5q0 180 -52 236t-108 56q-91 0 -179.5 -102t-119.5 -237z" />
<glyph unicode="&#x445;" horiz-adv-x="968" d="M-56 59l452 506l-193 426q-8 17 -8 29q0 30 47 30h74q36 0 47 -26l148 -348l287 348q21 26 59 26h109q37 0 37 -18q0 -15 -24 -41l-400 -449l221 -483q8 -17 8 -29q0 -30 -48 -30h-78q-36 0 -47 26l-170 405l-338 -405q-22 -26 -59 -26h-112q-36 0 -36 18q0 15 24 41z " />
<glyph unicode="&#x446;" horiz-adv-x="1132" d="M104 366l148 639q10 45 55 45h86q45 0 35 -45l-136 -591q-45 -197 3 -249t153 -52q147 0 230 116.5t118 266.5l118 509q10 45 55 45h86q45 0 35 -45l-173 -749q-13 -56 -13 -90t44 -34h61q45 0 35 -45l-90 -392q-10 -45 -51 -45h-74q-39 0 -29 45l70 305h-22 q-69 0 -97.5 39t-28.5 126h-4q-59 -73 -154.5 -127.5t-210.5 -54.5q-160 0 -225 102.5t-24 280.5z" />
<glyph unicode="&#x447;" horiz-adv-x="1060" d="M147 706l69 299q10 45 55 45h86q45 0 35 -45l-63 -271q-28 -124 10.5 -157.5t119.5 -33.5q105 0 182 12t121 50l92 400q10 45 55 45h86q45 0 35 -45l-222 -960q-10 -45 -55 -45h-86q-45 0 -35 45l84 364q6 27 16 60h-4q-29 -25 -127.5 -40.5t-196.5 -15.5q-136 0 -213 76 t-44 217z" />
<glyph unicode="&#x448;" horiz-adv-x="1678" d="M104 366l148 639q10 45 55 45h86q45 0 35 -45l-135 -581q-45 -195 -13 -253t142 -58q90 0 189.5 120.5t132.5 262.5l118 509q10 45 55 45h86q45 0 35 -45l-135 -581q-45 -195 -13 -253t142 -58q90 0 188.5 116.5t133.5 266.5l118 509q10 45 55 45h86q45 0 35 -45 l-222 -960q-10 -45 -55 -45h-84q-45 0 -35 45l27 120h-4q-59 -72 -148.5 -127t-179.5 -55q-110 0 -172.5 69.5t-62.5 164.5h-4q-63 -82 -159.5 -158t-211.5 -76q-140 0 -207 102.5t-26 280.5z" />
</font>
</defs>
</svg>
