<?xml version="1.0" standalone="no"?>
<!DOCTYPE svg PUBLIC "-//W3C//DTD SVG 1.1//EN" "http://www.w3.org/Graphics/SVG/1.1/DTD/svg11.dtd" >
<svg xmlns="http://www.w3.org/2000/svg">
<metadata>
This is a custom SVG webfont generated by Font Squirrel.
Copyright   : C 2009 2010 2011 Andrey V Panov
Designer    : Andrey V Panov
Foundry     : Andrey V Panov
Foundry URL : httpcodegooglecompistok
</metadata>
<defs>
<font id="IstokWebBoldItalic" horiz-adv-x="0" >
<font-face units-per-em="2048" ascent="1638" descent="-410" />
<missing-glyph horiz-adv-x="700" />
<glyph unicode="i&#x300;" horiz-adv-x="552" d="M30 60l215 930q14 60 73 60h160q49 0 49 -41q0 -8 -2 -19l-215 -930q-14 -60 -74 -60h-160q-49 0 -49 39q0 10 3 21zM210 1376q-18 22 -18 35q0 24 53 24h152q72 0 95 -47l87 -179q9 -18 9 -31q0 -28 -44 -28h-86q-61 0 -92 37z" />
<glyph unicode="&#x456;&#x301;" horiz-adv-x="552" d="M30 60l215 930q14 60 73 60h160q49 0 49 -41q0 -8 -2 -19l-215 -930q-14 -60 -74 -60h-160q-49 0 -49 39q0 10 3 21zM313 1209l129 179q34 47 117 47h152q34 0 34 -17q0 -15 -25 -42l-173 -189q-34 -37 -110 -37h-117q-27 0 -27 17q0 15 20 42z" />
<glyph unicode="i&#x302;" horiz-adv-x="552" d="M30 60l215 930q14 60 73 60h160q49 0 49 -41q0 -8 -2 -19l-215 -930q-14 -60 -74 -60h-160q-49 0 -49 39q0 10 3 21zM116 1191q-7 11 -7 21q0 28 45 55l232 140q45 27 76 27h37q30 0 62 -27l179 -153q23 -19 23 -39q0 -18 -19 -37l-22 -22q-22 -22 -43 -22q-18 0 -36 16 l-170 145h-2l-250 -154q-24 -15 -42 -15q-22 0 -35 21z" />
<glyph unicode="i&#x308;" horiz-adv-x="552" d="M30 60l215 930q14 60 73 60h160q49 0 49 -41q0 -8 -2 -19l-215 -930q-14 -60 -74 -60h-160q-49 0 -49 39q0 10 3 21zM156 1270l25 108q14 60 74 60h108q49 0 49 -39q0 -10 -3 -21l-25 -108q-14 -60 -74 -60h-108q-49 0 -49 39q0 10 3 21zM514 1270l25 108q14 60 74 60 h108q49 0 49 -39q0 -10 -3 -21l-25 -108q-14 -60 -74 -60h-108q-49 0 -49 39q0 10 3 21z" />
<glyph unicode="A&#x328;" horiz-adv-x="1394" d="M-63 66l764 1287q48 81 111 81h140q63 0 77 -81l216 -1287q2 -9 2 -16q0 -44 -52 -67q-76 -34 -153.5 -88.5t-77.5 -83.5q0 -21 17 -28t44 -7q44 0 85 5q39 5 40 -34l3 -115q1 -38 -34 -43q-69 -9 -147 -9q-124 0 -184 43.5t-60 110.5q0 36 9 70.5t59 85t132 103.5 q41 27 41 63q0 7 -1 13l-45 269h-508l-159 -269q-41 -69 -107 -69h-179q-47 0 -47 28q0 15 14 38zM561 586h322l-56 318q-8 47 -8 77.5t6 79.5h-4q-16 -49 -25.5 -74t-44.5 -83z" />
<glyph unicode="i&#x304;" horiz-adv-x="552" d="M30 60l215 930q14 60 73 60h160q49 0 49 -41q0 -8 -2 -19l-215 -930q-14 -60 -74 -60h-160q-49 0 -49 39q0 10 3 21zM122 1276l15 66q12 50 71 50h538q51 0 51 -36q0 -6 -2 -14l-15 -66q-12 -50 -72 -50h-538q-50 0 -50 35q0 7 2 15z" />
<glyph unicode="i&#x306;" horiz-adv-x="552" d="M30 60l215 930q14 60 73 60h160q49 0 49 -41q0 -8 -2 -19l-215 -930q-14 -60 -74 -60h-160q-49 0 -49 39q0 10 3 21zM137 1365q-3 11 -3 21q0 29 27 39l61 22q11 4 20 4q22 0 31 -25q23 -68 62 -98t118 -30q67 0 124 37t94 90q19 28 40 28q11 0 21 -7l72 -44 q13 -8 13 -21q0 -16 -17 -39q-80 -110 -167 -161t-211 -51q-108 0 -183 59t-102 176z" />
<glyph unicode="j&#x302;" horiz-adv-x="562" d="M-307 -349l37 106q10 29 41 29q6 0 13 -1q49 -9 67 -9q73 0 113 65t68 185l223 964q14 60 73 60h160q50 0 50 -40q0 -9 -3 -20l-230 -994q-57 -248 -168 -332t-282 -84q-90 0 -141 15q-26 8 -26 32q0 10 5 24zM126 1191q-7 11 -7 21q0 28 45 55l232 140q45 27 76 27h37 q30 0 62 -27l179 -153q23 -19 23 -39q0 -18 -19 -37l-22 -22q-22 -22 -43 -22q-18 0 -36 16l-170 145h-2l-250 -154q-24 -15 -42 -15q-22 0 -35 21z" />
<glyph unicode="i&#x30c;" horiz-adv-x="552" d="M30 60l215 930q14 60 73 60h160q49 0 49 -41q0 -8 -2 -19l-215 -930q-14 -60 -74 -60h-160q-49 0 -49 39q0 10 3 21zM155 1394l22 22q22 22 43 22q18 0 36 -16l170 -145h2l250 154q24 15 42 15q22 0 35 -21l28 -44q7 -11 7 -21q0 -28 -45 -55l-232 -140q-45 -27 -76 -27 h-37q-30 0 -62 27l-179 153q-23 19 -23 39q0 18 19 37z" />
<glyph unicode="j&#x30c;" horiz-adv-x="562" d="M-307 -349l37 106q10 29 41 29q6 0 13 -1q49 -9 67 -9q73 0 113 65t68 185l223 964q14 60 73 60h160q50 0 50 -40q0 -9 -3 -20l-230 -994q-57 -248 -168 -332t-282 -84q-90 0 -141 15q-26 8 -26 32q0 10 5 24zM165 1394l22 22q22 22 43 22q18 0 36 -16l170 -145h2 l250 154q24 15 42 15q22 0 35 -21l28 -44q7 -11 7 -21q0 -28 -45 -55l-232 -140q-45 -27 -76 -27h-37q-30 0 -62 27l-179 153q-23 19 -23 39q0 18 19 37z" />
<glyph unicode="&#xfb01;" horiz-adv-x="1214" d="M-41 -340l274 1190h-56q-49 0 -49 35q0 7 2 15l23 100q12 50 70 50h56l18 76q43 182 163 276t402 94q92 0 168.5 -20.5t121.5 -52.5q21 -15 -1 -55l-62 -110q-17 -30 -52 -7q-24 16 -80.5 32.5t-130.5 16.5q-100 0 -165 -50t-93 -164l-9 -36h581q50 0 50 -40q0 -9 -3 -20 l-215 -930q-14 -60 -74 -60h-160q-49 0 -49 39q0 10 3 21l182 790h-361l-274 -1190q-14 -60 -74 -60h-160q-49 0 -49 39q0 10 3 21z" />
<glyph unicode="&#xfb02;" horiz-adv-x="1214" d="M-41 -340l274 1190h-56q-49 0 -49 35q0 7 2 15l23 100q12 50 70 50h56l18 76q39 163 153 266.5t397 103.5q154 0 258 -33t168 -99l-301 -1304q-14 -60 -74 -60h-160q-49 0 -49 39q0 10 3 21l276 1196q-24 26 -60 35t-82 9q-109 0 -168.5 -47.5t-89.5 -166.5l-9 -36h124 q50 0 50 -35q0 -7 -2 -15l-23 -100q-12 -50 -71 -50h-124l-274 -1190q-14 -60 -74 -60h-160q-49 0 -49 39q0 10 3 21z" />
<glyph horiz-adv-x="1260" d="M140 60v1314q0 60 52 60h868q60 0 60 -60v-1314q0 -60 -60 -60h-860q-60 0 -60 60zM320 180h620v1074h-620v-1074z" />
<glyph horiz-adv-x="1260" d="M140 60v1314q0 60 52 60h868q60 0 60 -60v-1314q0 -60 -60 -60h-860q-60 0 -60 60zM320 180h620v1074h-620v-1074z" />
<glyph unicode=" "  horiz-adv-x="700" />
<glyph unicode="&#x09;" horiz-adv-x="700" />
<glyph unicode="&#xa0;" horiz-adv-x="700" />
<glyph unicode="!" horiz-adv-x="668" d="M85 75l31 134q17 75 88 75h152q56 0 56 -47q0 -13 -4 -28l-31 -134q-17 -75 -87 -75h-152q-56 0 -56 49q0 11 3 26zM203 485l175 874q15 75 87 75h160q57 0 57 -47q0 -12 -4 -28l-229 -874q-17 -65 -80 -65h-116q-52 0 -52 45q0 9 2 20z" />
<glyph unicode="&#x22;" horiz-adv-x="976" d="M240 884l96 520q12 65 66 65h174q40 0 40 -37q0 -12 -4 -28l-144 -520q-17 -60 -64 -60h-128q-38 0 -38 39q0 10 2 21zM676 884l96 520q12 65 66 65h174q40 0 40 -37q0 -12 -4 -28l-144 -520q-17 -60 -64 -60h-128q-38 0 -38 39q0 10 2 21z" />
<glyph unicode="#" horiz-adv-x="1416" d="M121 394l15 80q9 50 68 50h181l65 374h-180q-52 0 -52 39q0 5 1 11l14 80q9 50 69 50h180l50 284q11 60 61 60h86q41 0 41 -40q0 -9 -2 -20l-50 -284h298l50 284q11 60 61 60h86q41 0 41 -40q0 -9 -2 -20l-50 -284h180q52 0 52 -39q0 -5 -1 -11l-14 -80q-9 -50 -69 -50 h-180l-65 -374h179q53 0 53 -39q0 -5 -1 -11l-15 -80q-9 -50 -68 -50h-180l-50 -284q-11 -60 -61 -60h-86q-41 0 -41 40q0 9 2 20l50 284h-298l-50 -284q-11 -60 -61 -60h-86q-41 0 -41 40q0 9 2 20l50 284h-180q-53 0 -53 39q0 5 1 11zM571 524h298l65 374h-298z" />
<glyph unicode="$" horiz-adv-x="1200" d="M32 200l70 98q15 22 38 22q28 0 66 -32q54 -45 128.5 -69t117.5 -31l100 430q-60 28 -82 42q-69 44 -113.5 97t-68.5 112t-24 168t69 221t193.5 154.5t219.5 42.5l23 101q14 60 64 60h80q39 0 39 -37q0 -10 -3 -23l-25 -106q86 -14 132 -39t91 -64q38 -33 38 -61 q0 -15 -11 -29l-86 -106q-25 -31 -48 -31q-20 0 -38 23q-20 25 -55 48t-75 33l-97 -418q33 -19 67 -34q74 -34 130 -91t78.5 -134t22.5 -141q0 -133 -82.5 -244.5t-196 -152.5t-212.5 -41l-27 -118q-14 -60 -63 -60h-80q-40 0 -40 37q0 10 3 23l28 123q-76 9 -178.5 39 t-167.5 90q-37 33 -37 64q0 17 12 34zM520 1039q0 -30 10 -65.5t58 -72.5q16 -12 26 -18l80 350q-82 -9 -128 -70t-46 -124zM634 196q61 14 120 68t59 138q0 35 -13.5 71t-53.5 61q-9 6 -29 16z" />
<glyph unicode="%" horiz-adv-x="1802" d="M98 1062q0 150 116.5 299t291.5 149q128 0 193 -79t65 -249q0 -160 -116.5 -304t-291.5 -144q-128 0 -193 79t-65 249zM131 -21q-14 13 -14 30q0 21 25 48l1360 1458q31 33 55 33q14 0 26 -12l68 -65q14 -13 14 -30q0 -21 -25 -48l-1359 -1458q-30 -33 -54 -33 q-15 0 -27 12zM300 1032q0 -66 15.5 -114.5t56.5 -48.5q80 0 135 109t55 234q0 66 -15.5 114.5t-56.5 48.5q-80 0 -135 -109t-55 -234zM1013 268q0 150 116.5 299t291.5 149q128 0 193 -79t65 -249q0 -160 -116.5 -304t-291.5 -144q-128 0 -193 79t-65 249zM1215 238 q0 -66 15.5 -114.5t56.5 -48.5q80 0 135 109t55 234q0 66 -15.5 114.5t-56.5 48.5q-80 0 -135 -109t-55 -234z" />
<glyph unicode="&#x26;" horiz-adv-x="1416" d="M69 279q0 173 106.5 298t332.5 252q-53 80 -77 142.5t-24 162.5q0 138 114 236t312 98q162 0 253.5 -84t91.5 -199q0 -124 -88 -224.5t-242 -191.5l162 -310q50 45 83 85t71 101q26 42 58 42q17 0 36 -12l97 -62q8 -5 8 -17q0 -20 -19 -58q-40 -82 -90 -145.5 t-140 -128.5l104 -198q11 -20 11 -34q0 -32 -57 -32h-155q-71 0 -103 59l-30 56q-83 -73 -202.5 -111t-232.5 -38q-205 0 -292.5 91t-87.5 222zM369 314q0 -60 33 -95t103 -35q83 0 145.5 32t133.5 87l-170 321q-114 -78 -179.5 -148t-65.5 -162zM677 1133q0 -47 9.5 -85 t51.5 -94q98 56 134 97t36 94q0 39 -24 66t-83 27q-55 0 -89.5 -37t-34.5 -68z" />
<glyph unicode="'" horiz-adv-x="560" d="M250 884l96 520q12 65 66 65h174q40 0 40 -37q0 -12 -4 -28l-144 -520q-17 -60 -64 -60h-128q-38 0 -38 39q0 10 2 21z" />
<glyph unicode="(" horiz-adv-x="740" d="M77 339q0 429 233.5 757t427.5 435q50 27 71 9l86 -82q33 -32 -17 -72q-170 -138 -335.5 -392t-165.5 -667q0 -251 21.5 -386.5t74.5 -255.5q26 -58 -13 -83l-81 -52q-42 -27 -78 24q-97 135 -160.5 330.5t-63.5 434.5z" />
<glyph unicode=")" horiz-adv-x="740" d="M-143 -370q-33 32 17 72q170 138 335.5 392t165.5 667q0 251 -21.5 386.5t-74.5 255.5q-26 58 13 83l81 52q42 27 78 -24q97 -135 160.5 -330.5t63.5 -434.5q0 -429 -233.5 -757t-427.5 -435q-50 -27 -71 -9z" />
<glyph unicode="*" horiz-adv-x="960" d="M186 863q-5 15 -5 29q0 52 76 82l215 84l-176 84q-44 21 -44 54q0 25 25 57l25 31q33 41 67 41q27 0 54 -25l142 -128l24 213q10 93 94 93h36q61 0 61 -49q0 -18 -9 -44l-74 -213l200 128q39 25 65 25q35 0 49 -42l11 -31q5 -15 5 -29q0 -52 -75 -81l-216 -84l178 -85 q44 -21 44 -53q0 -25 -26 -56l-25 -31q-33 -41 -68 -41q-26 0 -53 24l-142 128l-24 -212q-11 -94 -96 -94h-35q-60 0 -60 48q0 19 9 46l74 212l-201 -128q-39 -25 -66 -25q-34 0 -48 41z" />
<glyph unicode="+" horiz-adv-x="1280" d="M122 682v86q0 50 60 50h412v412q0 60 50 60h86q50 0 50 -60v-412h412q60 0 60 -50v-86q0 -50 -60 -50h-412v-412q0 -60 -50 -60h-86q-50 0 -50 60v412h-412q-60 0 -60 50z" />
<glyph unicode="," horiz-adv-x="668" d="M80 -253q-10 10 -10 22q0 23 39 53q37 29 60 74.5t36 103.5h-69q-56 0 -56 49q0 11 3 26l31 134q17 75 88 75h156q56 0 56 -47q0 -13 -4 -28l-31 -134q-25 -109 -59 -197t-123 -160q-29 -23 -51 -23q-18 0 -31 15z" />
<glyph unicode="-" horiz-adv-x="700" d="M48 496l26 114q12 50 71 50h474q51 0 51 -36q0 -6 -2 -14l-26 -114q-12 -50 -72 -50h-474q-50 0 -50 35q0 7 2 15z" />
<glyph unicode="." horiz-adv-x="668" d="M85 75l31 134q17 75 88 75h152q56 0 56 -47q0 -13 -4 -28l-31 -134q-17 -75 -87 -75h-152q-56 0 -56 49q0 11 3 26z" />
<glyph unicode="/" horiz-adv-x="856" d="M-185 -294l1063 1726q27 44 55 44q11 0 22 -6l82 -47q22 -13 22 -34q0 -17 -14 -40l-1064 -1726q-27 -44 -55 -44q-11 0 -21 6l-82 47q-22 13 -22 34q0 17 14 40z" />
<glyph unicode="0" horiz-adv-x="1200" d="M100 489q0 320 142.5 643.5t517.5 323.5q190 0 309 -116.5t119 -406.5q0 -320 -142.5 -643.5t-517.5 -323.5q-190 0 -309 116.5t-119 406.5zM396 449q0 -140 37.5 -202.5t112.5 -62.5q175 0 260.5 282t85.5 507q0 140 -37.5 202.5t-112.5 62.5q-175 0 -260.5 -282 t-85.5 -507z" />
<glyph unicode="1" horiz-adv-x="907" d="M293 1138q-18 48 52 76q64 26 140.5 73t128.5 97q58 56 98 56h159q61 0 47 -60l-305 -1320q-14 -60 -74 -60h-160q-60 0 -46 60l214 931q10 42 23 80h-4q-31 -37 -70.5 -60t-84.5 -39q-49 -17 -65 26z" />
<glyph unicode="2" horiz-adv-x="1200" d="M-17 65l11 48q12 52 72 103l372 315q189 160 333 308t144 236q0 95 -45 126t-106 31q-119 0 -191 -52t-126 -149q-32 -56 -64 -56q-10 0 -20 5l-95 49q-38 20 -38 54q0 18 10 40q69 146 195 239.5t366 93.5q195 0 304.5 -96.5t109.5 -265.5q0 -184 -218 -373l-342 -292 l-215 -179l-2 -6q61 4 101 4h433q62 0 62 -45q0 -9 -2 -20l-27 -118q-15 -65 -90 -65h-872q-63 0 -63 45q0 9 3 20z" />
<glyph unicode="3" horiz-adv-x="1200" d="M22 183l52 97q18 33 47 33q26 0 60 -24q56 -40 134.5 -69.5t175.5 -29.5q155 0 229.5 77t74.5 175q0 102 -63.5 159t-162.5 57h-65q-55 0 -55 37q0 7 2 16l26 110q13 55 77 55h50q124 0 208.5 64t84.5 156q0 60 -46.5 98t-151.5 38q-89 0 -155 -29t-116 -67 q-31 -23 -56 -23q-27 0 -47 28l-54 76q-14 20 -14 39q0 30 34 59q72 62 193.5 101.5t267.5 39.5q224 0 330.5 -102t106.5 -231q0 -145 -111.5 -234t-243.5 -111v-4q112 -26 186.5 -119t74.5 -228q0 -167 -145.5 -314t-476.5 -147q-114 0 -232.5 33t-192.5 96q-34 28 -34 58 q0 15 8 30z" />
<glyph unicode="4" horiz-adv-x="1200" d="M29 377l31 132q13 56 52 99l718 780q48 52 105 52h163q54 0 54 -43q0 -10 -3 -22l-188 -815h121q53 0 53 -43q0 -10 -3 -22l-27 -118q-15 -65 -79 -65h-122l-57 -247q-15 -65 -80 -65h-150q-53 0 -53 43q0 10 3 22l57 247h-545q-53 0 -53 43q0 10 3 22zM380 560h301 l83 357q9 40 22 80h-4z" />
<glyph unicode="5" horiz-adv-x="1200" d="M23 181l78 95q23 28 49 28q25 0 53 -25q55 -51 107.5 -70t154.5 -19q135 0 232 88t97 249q0 115 -52 145t-107 30q-53 0 -89.5 -10t-111.5 -57q-52 -33 -100 -33h-109q-53 0 -53 43q0 10 3 22l159 690q15 65 80 65h720q53 0 53 -43q0 -10 -3 -22l-27 -118 q-15 -65 -80 -65h-505l-57 -245q-10 -43 -27 -80h11q65 45 124 61t137 16q146 0 240 -104.5t94 -308.5q0 -213 -170.5 -380t-445.5 -167q-145 0 -256 29t-190 110q-22 23 -22 44q0 16 13 32z" />
<glyph unicode="6" horiz-adv-x="1200" d="M112 491q0 418 199 691.5t516 273.5q120 0 204.5 -21.5t152.5 -78.5q33 -28 33 -54q0 -15 -12 -30l-77 -99q-15 -20 -38.5 -20t-54.5 20q-54 35 -105.5 47t-111.5 12q-125 0 -237.5 -106t-163.5 -329h4q63 75 151 102t169 27q192 0 283.5 -107.5t91.5 -293.5 q0 -234 -166.5 -396.5t-420.5 -162.5q-220 0 -318.5 126.5t-98.5 398.5zM398 383q0 -104 48.5 -148.5t119.5 -44.5q102 0 176 106t74 254q0 80 -48 116t-108 36q-123 0 -192.5 -102t-69.5 -217z" />
<glyph unicode="7" horiz-adv-x="1112" d="M224 59l6 27q89 403 271.5 652t395.5 436l1 4q-41 -4 -81 -4h-518q-53 0 -53 43q0 10 3 22l27 118q15 65 80 65h816q53 0 53 -43q0 -10 -3 -22l-26 -113q-12 -53 -75 -107q-252 -216 -388 -442t-215 -574l-14 -62q-15 -65 -80 -65h-150q-53 0 -53 44q0 9 3 21z" />
<glyph unicode="8" horiz-adv-x="1200" d="M54 331q0 185 118.5 302t259.5 134v5q-63 29 -119.5 86t-56.5 167q0 184 149 307.5t369 123.5q238 0 335.5 -95t97.5 -238q0 -145 -111.5 -235t-209.5 -116v-5q83 -38 144 -105.5t61 -218.5q0 -176 -145.5 -326.5t-419.5 -150.5q-223 0 -347.5 82t-124.5 283zM354 381 q0 -115 51 -153t141 -38q100 0 172.5 74.5t72.5 188.5q0 84 -40 137.5t-126 53.5q-115 0 -193 -84t-78 -179zM548 1035q0 -83 41 -116t94 -33q118 0 175 64t57 143q0 63 -41.5 101t-119.5 38q-86 0 -146 -56t-60 -141z" />
<glyph unicode="9" horiz-adv-x="1200" d="M82 150l77 99q16 20 39 20t54 -20q54 -35 105.5 -47t111.5 -12q125 0 237.5 106t163.5 329h-4q-63 -75 -151 -102t-169 -27q-192 0 -283.5 107.5t-91.5 293.5q0 234 166.5 396.5t420.5 162.5q220 0 318.5 -126.5t98.5 -398.5q0 -418 -199 -691.5t-516 -273.5 q-120 0 -204.5 21.5t-152.5 78.5q-33 28 -33 54q0 15 12 30zM471 872q0 -80 48 -116t108 -36q123 0 192.5 102t69.5 217q0 104 -48.5 148.5t-119.5 44.5q-102 0 -176 -106t-74 -254z" />
<glyph unicode=":" horiz-adv-x="668" d="M85 75l31 134q17 75 88 75h152q56 0 56 -47q0 -13 -4 -28l-31 -134q-17 -75 -87 -75h-152q-56 0 -56 49q0 11 3 26zM262 841l31 134q17 75 88 75h152q56 0 56 -47q0 -13 -4 -28l-31 -134q-17 -75 -87 -75h-152q-56 0 -56 49q0 11 3 26z" />
<glyph unicode=";" horiz-adv-x="668" d="M80 -253q-10 10 -10 22q0 23 39 53q37 29 60 74.5t36 103.5h-69q-56 0 -56 49q0 11 3 26l31 134q17 75 88 75h156q56 0 56 -47q0 -13 -4 -28l-31 -134q-25 -109 -59 -197t-123 -160q-29 -23 -51 -23q-18 0 -31 15zM262 841l31 134q17 75 88 75h152q56 0 56 -47 q0 -13 -4 -28l-31 -134q-17 -75 -87 -75h-152q-56 0 -56 49q0 11 3 26z" />
<glyph unicode="&#x3c;" horiz-adv-x="1327" d="M135 689v92q0 34 40 55l941 501q21 11 37 11q25 0 40 -27l37 -71q7 -13 7 -25q0 -28 -36 -47l-834 -442v-2l834 -442q36 -19 36 -47q0 -12 -7 -25l-37 -71q-15 -27 -40 -27q-16 0 -37 11l-941 501q-40 21 -40 55z" />
<glyph unicode="=" horiz-adv-x="1280" d="M122 512v86q0 50 60 50h1010q60 0 60 -50v-86q0 -50 -60 -50h-1010q-60 0 -60 50zM122 852v86q0 50 60 50h1010q60 0 60 -50v-86q0 -50 -60 -50h-1010q-60 0 -60 50z" />
<glyph unicode="&#x3e;" horiz-adv-x="1327" d="M144 220q-23 44 29 72l834 442v2l-834 442q-52 28 -29 72l37 71q24 44 77 16l941 -501q40 -21 40 -55v-92q0 -34 -40 -55l-941 -501q-53 -28 -77 16z" />
<glyph unicode="?" horiz-adv-x="1106" d="M245 1266q67 72 178 137t281 65q196 0 314 -72.5t118 -237.5q0 -210 -217 -370t-250 -294l-4 -16q-16 -65 -80 -65h-150q-53 0 -53 43q0 10 3 22l7 30q52 222 248 365.5t196 260.5q0 46 -34 78t-118 32q-70 0 -137 -41.5t-113 -97.5q-28 -34 -55 -34q-17 0 -34 15l-87 78 q-33 30 -33 58q0 23 20 44zM286 75l31 134q17 75 88 75h152q56 0 56 -47q0 -13 -4 -28l-31 -134q-17 -75 -87 -75h-152q-56 0 -56 49q0 11 3 26z" />
<glyph unicode="@" horiz-adv-x="2074" d="M112 564q0 400 263.5 668t687.5 268q388 0 643.5 -212t255.5 -588q0 -294 -143.5 -447t-379.5 -153q-102 0 -164 33.5t-86 137.5h-2q-61 -77 -129 -124t-186 -47q-117 0 -212.5 88t-95.5 299q0 227 151.5 391.5t359.5 164.5q140 0 191 -146h4l14 61q11 48 59 48h139 q41 0 41 -34q0 -8 -2 -18l-120 -532q-11 -50 -11 -82q0 -15 2 -26q9 -34 58 -34q145 0 234.5 98t89.5 283q0 311 -187.5 484t-523.5 173q-332 0 -547.5 -213t-215.5 -535q0 -326 213.5 -536t547.5 -210q150 0 263.5 23t257.5 103q24 13 39 13q13 0 20 -10l62 -93 q10 -16 10 -29q0 -22 -26 -37q-148 -88 -323.5 -120t-313.5 -32q-403 0 -670.5 263t-267.5 659zM806 433q0 -67 32 -110t86 -43q93 0 175 96.5t97 205.5q9 66 9 122q0 64 -36 111.5t-90 47.5q-92 0 -182.5 -106t-90.5 -324z" />
<glyph unicode="A" horiz-adv-x="1394" d="M-63 66l764 1287q48 81 111 81h140q63 0 77 -81l216 -1287q1 -9 1 -16q0 -50 -62 -50h-139q-66 0 -77 69l-45 269h-508l-159 -269q-41 -69 -107 -69h-179q-47 0 -47 28q0 15 14 38zM561 586h322l-56 318q-8 47 -8 77.5t6 79.5h-4q-16 -49 -25.5 -74t-44.5 -83z" />
<glyph unicode="B" horiz-adv-x="1379" d="M57 75l297 1284q17 75 97 75h320q297 0 422 -99t125 -259q0 -156 -125 -236t-245 -90v-3q116 -11 210 -89t94 -235q0 -179 -184 -301t-538 -122h-410q-66 0 -66 51q0 11 3 24zM388 244h166q230 0 308 46t78 162q0 92 -75.5 129t-263.5 37h-126zM529 854h151q160 0 251 59 t91 143q0 76 -65 105t-239 29h-111z" />
<glyph unicode="C" horiz-adv-x="1404" d="M100 588q0 348 202 614t590 266q180 0 306 -62.5t182 -154.5q40 -66 -17 -104l-124 -83q-46 -31 -96 36q-50 66 -125 99t-147 33q-211 0 -335 -192t-124 -490q0 -151 78 -249.5t267 -98.5q108 0 180 41.5t113 98.5q53 73 100 47l127 -70q62 -34 18 -98 q-76 -110 -217 -182.5t-342 -72.5q-300 0 -468 153.5t-168 468.5z" />
<glyph unicode="D" horiz-adv-x="1402" d="M57 75l297 1284q17 75 87 75h299q358 0 514 -165t156 -438q0 -360 -227 -595.5t-694 -235.5h-379q-56 0 -56 49q0 11 3 26zM389 248h138q301 0 436 160t135 444q0 153 -73.5 244.5t-340.5 91.5h-78z" />
<glyph unicode="E" horiz-adv-x="1280" d="M57 75l297 1284q17 75 87 75h858q63 0 63 -45q0 -9 -3 -20l-27 -118q-15 -65 -90 -65h-636l-74 -318h583q63 0 63 -45q0 -9 -3 -20l-27 -118q-15 -65 -90 -65h-583l-86 -372h668q63 0 63 -45q0 -9 -3 -20l-27 -118q-15 -65 -90 -65h-890q-56 0 -56 49q0 11 3 26z" />
<glyph unicode="F" horiz-adv-x="1176" d="M57 75l297 1284q17 75 87 75h791q62 0 62 -45q0 -9 -2 -20l-27 -118q-15 -65 -90 -65h-569l-81 -348h487q62 0 62 -45q0 -9 -2 -20l-27 -118q-15 -65 -90 -65h-487l-119 -515q-17 -75 -87 -75h-152q-56 0 -56 49q0 11 3 26z" />
<glyph unicode="G" horiz-adv-x="1510" d="M100 588q0 363 200.5 621.5t601.5 258.5q180 0 311 -57.5t187 -149.5q40 -66 -17 -104l-124 -83q-46 -31 -96 36q-50 66 -130 94t-152 28q-224 0 -346.5 -178t-122.5 -504q0 -151 73 -249.5t281 -98.5q93 0 171 31t141 79l38 164h-217q-75 0 -60 65l27 118q15 65 90 65 h434q75 0 60 -65l-120 -521q-123 -72 -274.5 -122t-310.5 -50q-298 0 -471.5 153.5t-173.5 468.5z" />
<glyph unicode="H" horiz-adv-x="1442" d="M57 75l297 1284q17 75 87 75h152q56 0 56 -49q0 -12 -3 -26l-113 -489h538l113 489q17 75 87 75h152q56 0 56 -49q0 -12 -3 -26l-297 -1284q-17 -75 -87 -75h-152q-56 0 -56 49q0 12 3 26l127 547h-538l-127 -547q-17 -75 -87 -75h-152q-56 0 -56 49q0 11 3 26z" />
<glyph unicode="I" horiz-adv-x="612" d="M57 75l297 1284q17 75 87 75h152q56 0 57 -49q0 -12 -4 -26l-297 -1284q-17 -75 -87 -75h-152q-56 0 -56 49q0 11 3 26z" />
<glyph unicode="J" horiz-adv-x="947" d="M-48 97l50 134q12 31 39 31q21 0 51 -19q64 -41 136 -41q115 0 173 80.5t97 248.5l191 828q17 75 87 75h152q56 0 56 -49q0 -11 -3 -26l-187 -808q-85 -368 -225 -476.5t-362 -108.5q-141 0 -233 56q-28 17 -28 46q0 13 6 29z" />
<glyph unicode="K" horiz-adv-x="1361" d="M57 75l297 1284q17 75 87 75h152q56 0 56 -49q0 -12 -3 -26l-85 -366q-14 -58 -38 -120h7l573 502q67 59 106 59h240q63 0 63 -25q0 -21 -45 -61l-573 -503l309 -759q10 -24 10 -41q0 -45 -68 -45h-156q-52 0 -76 59l-240 593l-239 -209l-85 -368q-17 -75 -87 -75h-152 q-56 0 -56 49q0 11 3 26z" />
<glyph unicode="L" horiz-adv-x="1162" d="M57 75l297 1284q17 75 87 75h162q47 0 47 -46q0 -13 -4 -29l-257 -1111h583q62 0 62 -45q0 -9 -2 -20l-27 -118q-15 -65 -90 -65h-805q-56 0 -56 49q0 11 3 26z" />
<glyph unicode="M" horiz-adv-x="1828" d="M57 75l297 1284q17 75 87 75h276q59 0 65 -80l68 -877q4 -48 4 -79q0 -9 -1 -17q-2 -34 -7 -84h6q17 50 31.5 86t46.5 94l474 877q43 80 101 80h304q56 0 56 -49q0 -12 -3 -26l-297 -1284q-17 -75 -87 -75h-152q-56 0 -56 49q0 12 3 26l191 826q14 59 33 120h-7 l-506 -940q-44 -81 -105 -81h-170q-61 0 -67 81l-72 940h-7q-9 -58 -23 -120l-191 -826q-17 -75 -87 -75h-152q-56 0 -56 49q0 11 3 26z" />
<glyph unicode="N" horiz-adv-x="1472" d="M57 75l297 1284q17 75 87 75h135q86 0 114 -70l329 -840h7q9 60 23 120l165 715q17 75 87 75h152q56 0 56 -49q0 -12 -3 -26l-297 -1284q-17 -75 -87 -75h-125q-86 0 -114 70l-335 856h-7q-9 -60 -23 -120l-169 -731q-17 -75 -87 -75h-152q-56 0 -56 49q0 11 3 26z" />
<glyph unicode="O" horiz-adv-x="1532" d="M104 587q0 370 213 625.5t563 255.5q300 0 469 -155.5t169 -465.5q0 -370 -213 -625.5t-563 -255.5q-300 0 -469 155.5t-169 465.5zM416 545q0 -160 85 -251.5t255 -91.5q200 0 325 188.5t125 498.5q0 160 -85 251.5t-255 91.5q-200 0 -325 -188.5t-125 -498.5z" />
<glyph unicode="P" horiz-adv-x="1328" d="M57 75l297 1284q17 75 87 75h354q281 0 417 -93t136 -294q0 -227 -180 -369t-540 -142h-172l-107 -461q-17 -75 -87 -75h-152q-56 0 -56 49q0 11 3 26zM512 780h171q209 0 289 66t80 165q0 102 -68 140.5t-246 38.5h-131z" />
<glyph unicode="Q" horiz-adv-x="1532" d="M104 587q0 370 213 625.5t563 255.5q300 0 469 -155.5t169 -465.5q0 -369 -213 -625q-165 -198 -413 -243q6 -90 38 -135.5t139 -45.5q50 0 104 17q14 4 25 4q26 0 33 -26l33 -116q2 -6 2 -12q0 -26 -38 -38q-103 -34 -221 -34q-217 0 -308.5 102t-99.5 281 q-200 30 -326 146q-169 156 -169 465zM416 545q0 -160 85 -251.5t255 -91.5q200 0 325 188.5t125 498.5q0 160 -85 251.5t-255 91.5q-200 0 -325 -188.5t-125 -498.5z" />
<glyph unicode="R" horiz-adv-x="1428" d="M57 75l297 1284q17 75 87 75h410q301 0 428.5 -94.5t127.5 -262.5q0 -160 -130.5 -279.5t-368.5 -150.5v-2q79 -33 114 -96t56 -116l134 -347q9 -23 9 -40q0 -46 -67 -46h-153q-55 0 -76 59l-119 337q-27 77 -92.5 130t-153.5 53h-94l-117 -504q-17 -75 -87 -75h-152 q-56 0 -56 49q0 11 3 26zM523 827h209q144 0 266.5 56t122.5 166q0 88 -86.5 114.5t-240.5 26.5h-187z" />
<glyph unicode="S" horiz-adv-x="1299" d="M64 212l87 107q19 23 45 23q29 0 66 -28q56 -42 143.5 -77t189.5 -35t166.5 27t92 70t27.5 98q0 39 -20.5 76t-57 57t-83.5 37l-117 44q-57 22 -135 61q-63 31 -106.5 63.5t-82.5 108.5t-39 191q0 127 85.5 242.5t212 153t261.5 37.5q136 0 253.5 -37t175.5 -94 q35 -35 35 -64q0 -19 -14 -35l-88 -100q-21 -24 -47 -24q-28 0 -63 27q-51 41 -122 66t-156 25t-134.5 -18t-79 -60t-29.5 -86q0 -35 12 -67.5t37 -59.5t71 -49q64 -30 147 -54.5t136 -46.5q78 -32 134.5 -84.5t83 -126.5t26.5 -164q0 -124 -65.5 -219t-198.5 -163t-354 -68 q-178 0 -280.5 33.5t-194.5 114.5q-35 31 -35 60q0 19 15 38z" />
<glyph unicode="T" horiz-adv-x="1246" d="M201 1243l29 126q15 65 90 65h1028q62 0 62 -45q0 -9 -2 -20l-29 -126q-15 -65 -90 -65h-368l-259 -1123q-13 -55 -63 -55h-192q-40 0 -40 35q0 9 3 20l259 1123h-368q-63 0 -63 45q1 9 3 20z" />
<glyph unicode="U" horiz-adv-x="1422" d="M178 597l180 782q13 55 83 55h152q70 0 57 -55l-178 -772q-62 -268 -7 -336.5t172 -68.5q101 0 199.5 82.5t153.5 322.5l178 772q13 55 83 55h152q70 0 57 -55l-180 -782q-84 -364 -238 -497.5t-435 -133.5q-241 0 -373.5 148.5t-55.5 482.5z" />
<glyph unicode="V" horiz-adv-x="1370" d="M239 1368q-9 66 62 66h139q67 0 76 -69l113 -835q7 -60 7 -84t-7 -73h4q17 49 27.5 74t44.5 83l499 835q41 69 108 69h179q72 0 32 -66l-775 -1287q-49 -81 -113 -81h-140q-64 0 -75 81z" />
<glyph unicode="W" horiz-adv-x="2022" d="M238 1354q-3 80 64 80h170q47 0 48 -66l8 -786q1 -91 0.5 -120t-11.5 -99h5q21 70 34.5 106.5t56.5 118.5l401 772q38 74 101 74h184q63 0 67 -74l45 -772q5 -84 1.5 -119.5t-14.5 -105.5h5q21 70 41 113l48 106l372 786q31 66 78 66h200q68 0 28 -80l-631 -1257 q-49 -97 -116 -97h-175q-58 0 -63 96l-46 838q-4 70 -2.5 89.5t9.5 75.5h-2q-18 -56 -26.5 -77.5t-42.5 -87.5l-434 -838q-50 -96 -107 -96h-175q-68 0 -72 97z" />
<glyph unicode="X" horiz-adv-x="1392" d="M-30 86l624 678l-297 584q-13 26 -13 44q0 42 71 42h176q51 0 76 -59l175 -417l338 417q48 59 104 59h235q54 0 54 -26q0 -21 -36 -60l-579 -626l324 -636q13 -26 13 -44q0 -42 -71 -42h-179q-51 0 -76 59l-200 469l-379 -469q-48 -59 -104 -59h-238q-53 0 -53 26 q0 21 35 60z" />
<glyph unicode="Y" horiz-adv-x="1368" d="M242 1348q-31 86 67 86h145q52 0 76 -69l127 -371l35 -109q19 -57 19 -137h4q19 71 64 130l90 116l299 371q56 69 108 69h205q98 0 27 -86l-677 -823l-108 -470q-13 -55 -83 -55h-152q-70 0 -57 55l108 470z" />
<glyph unicode="Z" horiz-adv-x="1252" d="M-44 65l19 82q17 72 83 143l836 894l2 7q-61 -5 -121 -5h-445q-62 0 -62 45q0 9 2 20l27 118q15 65 90 65h912q63 0 63 -45q0 -9 -3 -20l-15 -67q-12 -55 -59 -105l-887 -947l-2 -7q61 5 121 5h536q63 0 63 -45q0 -9 -3 -20l-27 -118q-15 -65 -90 -65h-980q-62 0 -62 45 q0 9 2 20z" />
<glyph unicode="[" horiz-adv-x="694" d="M-40 -348l412 1784q14 60 73 60h348q51 0 51 -36q0 -6 -2 -14l-23 -100q-12 -50 -72 -50h-128l-347 -1504h128q50 0 50 -35q0 -7 -2 -15l-23 -100q-12 -50 -71 -50h-348q-49 0 -49 39q0 10 3 21z" />
<glyph unicode="\" horiz-adv-x="856" d="M138 1365q-14 59 35 74l80 25q49 15 62 -38l423 -1736q14 -59 -35 -74l-80 -25q-49 -15 -62 38z" />
<glyph unicode="]" horiz-adv-x="694" d="M-137 -358l23 100q12 50 72 50h128l347 1504h-128q-50 0 -50 35q0 7 2 15l23 100q12 50 71 50h348q49 0 49 -39q0 -10 -3 -21l-412 -1784q-14 -60 -73 -60h-348q-51 0 -51 36q0 6 2 14z" />
<glyph unicode="^" horiz-adv-x="920" d="M180 1007l290 398q26 36 72 36h36q46 0 72 -36l290 -398q17 -23 17 -41q0 -22 -22 -37l-62 -44q-15 -11 -30 -11q-24 0 -45 30l-237 329h-2l-237 -329q-21 -30 -45 -30q-15 0 -30 11l-62 44q-21 15 -21 37q0 18 16 41z" />
<glyph unicode="_" horiz-adv-x="1200" d="M-220 -275q0 50 60 50h1130q60 0 60 -50v-100q0 -50 -60 -50h-1130q-60 0 -60 50v100z" />
<glyph unicode="`" horiz-adv-x="614" d="M328 1376q-49 59 35 59h152q72 0 95 -47l87 -179q29 -59 -35 -59h-86q-61 0 -92 37z" />
<glyph unicode="a" horiz-adv-x="1178" d="M62 379q0 281 182.5 486t407.5 205q45 0 104 -23t107 -93h4l17 36q28 60 67 60h153q50 0 50 -40q0 -9 -3 -20l-215 -930q-14 -60 -74 -60h-153q-47 0 -47 42q0 8 2 18l14 78h-4q-59 -72 -125 -115t-151 -43q-159 0 -247.5 121t-88.5 278zM358 360q0 -86 38.5 -135 t86.5 -49q86 0 162.5 86.5t117.5 259.5l37 158q0 91 -33 142.5t-119 51.5q-124 0 -207 -158t-83 -356z" />
<glyph unicode="b" horiz-adv-x="1192" d="M30 60l313 1356q14 60 74 60h160q49 0 49 -39q0 -9 -3 -21l-97 -424q-9 -41 -23 -80h4q72 86 129 122t130 36q198 0 280.5 -130t82.5 -289q0 -263 -160.5 -467t-372.5 -204q-72 0 -150 19t-128 97h-4l-12 -36q-20 -60 -68 -60h-158q-49 0 -49 39q0 10 3 21zM381 370 q0 -96 33.5 -145t133.5 -49q135 0 210 152t75 342q0 104 -38.5 154t-106.5 50q-70 0 -150.5 -89t-119.5 -257z" />
<glyph unicode="c" horiz-adv-x="1086" d="M58 412q0 232 168 445t447 213q149 0 227 -45t129 -119q29 -42 -17 -73l-109 -73q-39 -26 -77 30q-21 31 -57 57.5t-106 26.5q-113 0 -211 -126t-98 -361q0 -105 49 -158t133 -53q78 0 127.5 33t96.5 92q37 46 81 5l81 -75q39 -36 -2 -88q-39 -50 -137.5 -106.5 t-264.5 -56.5q-260 0 -360 128.5t-100 303.5z" />
<glyph unicode="d" horiz-adv-x="1192" d="M66 399q0 263 160.5 467t372.5 204q72 0 150 -19t128 -97h4q4 31 15 80l87 382q14 60 74 60h160q49 0 49 -39q0 -9 -3 -21l-313 -1356q-14 -60 -74 -60h-158q-42 0 -42 41q0 9 2 19l14 78h-4q-72 -86 -129 -122t-130 -36q-198 0 -280.5 130t-82.5 289zM362 380 q0 -104 38.5 -154t106.5 -50q70 0 150.5 89t119.5 257l37 158q0 96 -33.5 145t-133.5 49q-135 0 -210 -152t-75 -342z" />
<glyph unicode="e" horiz-adv-x="1150" d="M58 415q0 231 165 443t456 212q201 0 313 -90t112 -206q0 -192 -142.5 -252t-395.5 -104l-209 -36q-1 -13 -1 -28q0 -64 35 -121t161 -57q72 0 147 27.5t120 61.5q26 20 46.5 19.5t34.5 -19.5l59 -78q16 -21 16 -41q0 -24 -24 -47q-65 -60 -170 -89.5t-247 -29.5 q-276 0 -376 127t-100 308zM370 570l219 36q105 17 191.5 50.5t86.5 94.5q0 55 -52.5 89t-132.5 34q-127 0 -202.5 -88t-109.5 -216z" />
<glyph unicode="f" horiz-adv-x="682" d="M-41 -340l274 1190h-56q-49 0 -49 35q0 7 2 15l23 100q12 50 70 50h56l33 140q38 163 139 234.5t281 71.5q59 0 105 -11.5t84 -26.5q24 -10 24 -31q0 -10 -5 -22l-45 -108q-10 -25 -49 -13q-29 9 -64 12.5t-58 3.5q-84 0 -107.5 -58t-47.5 -152l-10 -40h132q50 0 50 -35 q0 -7 -2 -15l-23 -100q-12 -50 -71 -50h-132l-274 -1190q-14 -60 -74 -60h-160q-49 0 -49 39q0 10 3 21z" />
<glyph unicode="g" horiz-adv-x="1192" d="M-18 -263l43 73q17 29 44 29q16 0 34 -9q37 -19 94 -36.5t143 -17.5q108 0 198 48t125 207l8 36q8 36 23 80h-4q-72 -86 -129 -122t-130 -36q-198 0 -281.5 133.5t-83.5 279.5q0 260 160.5 464t372.5 204q72 0 150 -19t128 -97h4l12 36q20 60 67 60h158q50 0 50 -40 q0 -9 -3 -20l-226 -979q-54 -234 -198.5 -332.5t-415.5 -98.5q-115 0 -183.5 17t-150.5 61q-24 12 -24 36q0 18 15 43zM362 383q0 -89 39.5 -143.5t107.5 -54.5q70 0 151 91.5t117 245.5l37 158q0 96 -33.5 145t-133.5 49q-135 0 -210 -152t-75 -339z" />
<glyph unicode="h" horiz-adv-x="1200" d="M30 60l313 1356q14 60 74 60h160q49 0 49 -39q0 -9 -3 -21l-97 -424q-9 -41 -23 -80h5q80 94 152.5 126t172.5 32q145 0 228 -107q50 -64 50 -176q0 -76 -23 -173l-128 -554q-14 -60 -74 -60h-160q-49 0 -49 39q0 9 3 21l111 482q33 142 33 216q0 36 -8 56 q-24 60 -107 60q-105 0 -186 -117t-130 -333l-83 -364q-14 -60 -74 -60h-160q-49 0 -49 39q0 10 3 21z" />
<glyph unicode="i" horiz-adv-x="552" d="M30 60l215 930q14 60 73 60h160q49 0 49 -41q0 -9 -2 -19l-215 -930q-14 -60 -74 -60h-160q-49 0 -49 39q0 10 3 21zM308 1264l29 128q14 60 74 60h160q49 0 48 -39q0 -9 -2 -21l-29 -128q-14 -60 -74 -60h-160q-49 0 -49 39q0 10 3 21z" />
<glyph unicode="j" horiz-adv-x="562" d="M-307 -349l37 106q10 29 41 29q6 0 13 -1q49 -9 67 -9q73 0 113 65t68 185l223 964q14 60 73 60h160q50 0 50 -40q0 -9 -3 -20l-230 -994q-57 -248 -168 -332t-282 -84q-90 0 -141 15q-26 8 -26 32q0 10 5 24zM318 1264l29 128q14 60 74 60h160q49 0 49 -39q0 -10 -3 -21 l-29 -128q-14 -60 -74 -60h-160q-49 0 -49 39q0 10 3 21z" />
<glyph unicode="k" horiz-adv-x="1119" d="M30 60l313 1356q14 60 74 60h160q49 0 49 -39q0 -9 -3 -21l-161 -697q-9 -38 -22 -80h4l378 370q42 41 87 41h191q49 0 49 -22q0 -18 -35 -52l-386 -371l223 -531q9 -21 9 -36q0 -38 -57 -38h-143q-49 0 -70 52l-152 378l-183 -173l-45 -197q-14 -60 -74 -60h-160 q-49 0 -49 39q0 10 3 21z" />
<glyph unicode="l" horiz-adv-x="552" d="M30 60l273 1181q10 45 39 82l109 135q31 38 60 38h70q49 0 49 -41q0 -9 -2 -19l-318 -1376q-14 -60 -74 -60h-160q-49 0 -49 39q0 10 3 21z" />
<glyph unicode="m" horiz-adv-x="1750" d="M30 60l215 930q14 60 73 60h158q49 0 49 -41q0 -9 -2 -19l-21 -90h4q46 69 118 119.5t148 50.5q125 0 179.5 -71.5t54.5 -159.5h4q73 112 163 171.5t219 59.5q135 0 219 -106q49 -62 49 -175q0 -81 -25 -189l-125 -540q-14 -60 -74 -60h-160q-49 0 -49 39q0 9 3 21 l106 460q35 153 35 236q0 19 -2 35q-10 83 -85 83q-70 0 -147 -81.5t-146 -380.5l-81 -352q-14 -60 -74 -60h-160q-49 0 -49 39q0 9 3 21l101 440q39 171 39 258q0 18 -2 31q-9 84 -84 85q-69 0 -153 -110t-140 -352l-81 -352q-14 -60 -74 -60h-160q-49 0 -49 39q0 10 3 21z " />
<glyph unicode="n" horiz-adv-x="1200" d="M30 60l215 930q14 60 73 60h158q50 0 50 -39q0 -9 -3 -21l-19 -78h4q80 94 152.5 126t172.5 32q145 0 228 -107q50 -64 50 -176q0 -76 -23 -173l-128 -554q-14 -60 -74 -60h-160q-49 0 -49 39q0 9 3 21l111 482q33 142 33 216q0 36 -8 56q-24 60 -107 60 q-105 0 -186 -117t-130 -333l-83 -364q-14 -60 -74 -60h-160q-49 0 -49 39q0 10 3 21z" />
<glyph unicode="o" horiz-adv-x="1206" d="M58 412q0 225 166 441.5t466 216.5q260 0 360 -128.5t100 -303.5q0 -225 -166 -441.5t-466 -216.5q-260 0 -360 128.5t-100 303.5zM354 387q0 -100 48.5 -155.5t133.5 -55.5q125 0 221.5 128.5t96.5 358.5q0 100 -48.5 155.5t-133.5 55.5q-125 0 -221.5 -128.5 t-96.5 -358.5z" />
<glyph unicode="p" horiz-adv-x="1192" d="M-62 -340l307 1330q14 60 73 60h158q43 0 43 -41q0 -9 -2 -19l-14 -78h4q72 86 129 122t130 36q198 0 280.5 -130t82.5 -289q0 -263 -160.5 -467t-372.5 -204q-72 0 -150 19t-128 97h-4q-5 -42 -14 -80l-82 -356q-14 -60 -74 -60h-160q-49 0 -49 39q0 10 3 21zM381 370 q0 -96 33.5 -145t133.5 -49q135 0 210 152t75 342q0 104 -38.5 154t-106.5 50q-70 0 -150.5 -89t-119.5 -257z" />
<glyph unicode="q" horiz-adv-x="1192" d="M66 399q0 263 160.5 467t372.5 204q72 0 150 -19t128 -97h4l12 36q20 60 67 60h158q50 0 50 -40q0 -9 -3 -20l-307 -1330q-14 -60 -74 -60h-160q-49 0 -49 39q0 10 3 21l92 398q10 43 22 80h-4q-72 -86 -129 -122t-130 -36q-198 0 -280.5 130t-82.5 289zM362 380 q0 -104 38.5 -154t106.5 -50q70 0 150.5 89t119.5 257l37 158q0 96 -33.5 145t-133.5 49q-135 0 -210 -152t-75 -342z" />
<glyph unicode="r" horiz-adv-x="786" d="M30 60l215 930q14 60 73 60h154q50 0 50 -40q0 -9 -3 -20l-28 -123h4q42 85 114 144t160 59q58 0 92 -14q20 -8 20 -28q0 -9 -4 -20l-44 -119q-11 -29 -36 -29q-10 0 -23 5q-24 9 -54 9q-90 0 -187.5 -136t-156.5 -391l-66 -287q-14 -60 -74 -60h-160q-49 0 -49 39 q0 10 3 21z" />
<glyph unicode="s" horiz-adv-x="1005" d="M21 149l54 90q12 21 35 21q21 0 50 -18q54 -34 129 -50t139 -16q66 0 107 19t57 46t16 61q0 24 -9 44t-32 36t-54 28q-61 24 -94 39l-78 33q-70 30 -107.5 68t-55 84t-17.5 115q0 101 60.5 181t157.5 110t235 30q86 0 167 -26t131 -57q35 -22 35 -48q0 -17 -14 -36 l-63 -82q-13 -17 -34 -17q-23 0 -56 20q-30 18 -83 34t-102 16q-35 0 -71 -8t-61 -34.5t-25 -63.5q0 -24 7 -44t29.5 -41t48.5 -32q43 -18 84 -33t91 -38q67 -31 108 -70t60 -85.5t19 -112.5q0 -99 -71.5 -186.5t-173 -116.5t-219.5 -29q-141 0 -225 19.5t-156 72.5 q-29 21 -29 46q0 15 10 31z" />
<glyph unicode="t" horiz-adv-x="798" d="M130 350l115 500h-68q-49 0 -49 35q0 7 2 15l23 100q12 50 70 50h68l8 35q10 45 40 82l109 135q30 38 60 38h70q49 0 49 -41q0 -9 -2 -19l-54 -230h162q50 0 50 -36q0 -7 -2 -14l-23 -100q-12 -50 -71 -50h-162l-114 -496q-15 -64 -15 -109q0 -17 2 -31q8 -51 59 -51 q31 0 69 7.5t63 17.5q36 15 40 -23l16 -114v-6q0 -29 -37 -44q-36 -15 -100 -24.5t-122 -9.5q-184 -1 -241 101q-33 58 -33 143q0 63 18 139z" />
<glyph unicode="u" horiz-adv-x="1194" d="M115 436l128 554q14 60 73 60h160q60 0 47 -60l-112 -482q-49 -212 -24.5 -272t104.5 -60q101 0 182.5 119t132.5 340l81 355q14 60 73 60h160q60 0 47 -60l-215 -930q-14 -60 -74 -60h-158q-61 0 -46 60l21 87h-4q-80 -94 -152.5 -130.5t-172.5 -36.5q-142 0 -224.5 107 t-26.5 349z" />
<glyph unicode="v" horiz-adv-x="1008" d="M146 972q-7 78 51 78h161q47 0 49 -51l19 -586q2 -49 -0.5 -97t-7.5 -78h6q9 30 28.5 78t43.5 97l291 586q25 51 71 51h197q58 0 15 -78l-499 -905q-37 -67 -88 -67h-198q-52 0 -58 67z" />
<glyph unicode="w" horiz-adv-x="1604" d="M146 972q-4 78 51 78h157q48 0 49 -51l-1 -586q0 -57 -1.5 -101t-6.5 -74h6q9 30 27.5 75t44.5 100l278 586q24 51 71 51h182q48 0 49 -51l6 -586q1 -55 -1 -100t-7 -75h6q9 30 27 74l45 101l271 586q24 51 71 51h181q55 0 15 -78l-469 -905q-35 -67 -88 -67h-181 q-57 0 -58 67l-8 593q-1 59 1 86t8 65h-4q-11 -38 -21.5 -65t-39.5 -86l-282 -593q-32 -67 -88 -67h-181q-54 0 -58 67z" />
<glyph unicode="x" horiz-adv-x="1046" d="M-52 73l454 499l-197 405q-10 21 -10 36q0 37 62 37h166q45 0 59 -40l90 -259l190 259q29 40 77 40h222q49 0 49 -23q0 -18 -29 -50l-401 -438l224 -466q10 -21 10 -36q0 -37 -63 -37h-165q-44 0 -59 40l-119 318l-240 -318q-30 -40 -77 -40h-224q-48 0 -48 23 q0 18 29 50z" />
<glyph unicode="y" horiz-adv-x="1194" d="M20 -270l49 78q17 28 43 28q14 0 30 -8q68 -35 116 -43.5t114 -8.5q105 0 179 44.5t123 255.5q10 44 23 80h-4q-80 -94 -152.5 -130.5t-172.5 -36.5q-142 0 -224 107q-50 64 -50 175q0 76 23 174l126 545q14 60 73 60h160q50 0 50 -40q0 -9 -3 -20l-112 -482 q-31 -133 -31 -205q0 -37 8 -58q25 -60 105 -60q101 0 183 119.5t130 330.5l81 355q14 60 73 60h160q50 0 50 -40q0 -9 -3 -20l-228 -979q-53 -229 -194.5 -330t-402.5 -101q-63 0 -145.5 10.5t-160.5 52.5q-31 16 -31 44q0 19 15 43z" />
<glyph unicode="z" horiz-adv-x="964" d="M-56 50l17 76q11 49 66 108l574 616l1 4q-41 -4 -81 -4h-309q-50 0 -50 36q0 7 2 14l7 32q26 118 87 118h692q51 0 51 -36q0 -7 -2 -14l-16 -70q-12 -54 -68 -114l-573 -616l-1 -4q54 4 81 4h356q51 0 51 -36q0 -7 -2 -14l-23 -100q-12 -50 -72 -50h-740q-50 0 -50 36 q0 6 2 14z" />
<glyph unicode="{" horiz-adv-x="829" d="M81 503l19 82q14 59 63 59q83 0 144 74t93 213l66 285q39 170 118.5 225t353.5 55q51 0 51 -36q0 -6 -2 -14l-23 -100q-12 -50 -72 -50q-80 0 -113.5 -41t-50.5 -116l-59 -255q-40 -175 -111.5 -247.5t-207.5 -91.5l-1 -2q104 -39 149 -122q24 -45 24 -114 q0 -58 -17 -133l-52 -225q-15 -67 -15 -105v-13q3 -39 107 -39q50 0 50 -35q0 -7 -2 -15l-23 -100q-12 -50 -71 -50q-235 0 -302 88q-41 54 -41 143q0 57 17 129l48 205q24 101 24 162q0 58 -21 80q-44 45 -107 45q-39 0 -39 36q0 10 3 23z" />
<glyph unicode="|" horiz-adv-x="630" d="M217 -380v1816q0 60 50 60h100q50 0 50 -60v-1816q0 -60 -50 -60h-100q-50 0 -50 60z" />
<glyph unicode="}" horiz-adv-x="829" d="M-147 -358l23 100q12 50 72 50q80 0 113.5 41t50.5 116l59 255q40 175 111.5 247.5t207.5 91.5l1 2q-104 39 -149 122q-24 45 -24 114q0 58 17 133l52 225q15 67 15 105v13q-3 39 -107 39q-50 0 -50 35q0 7 2 15l23 100q12 50 71 50q235 0 302 -88q41 -54 41 -143 q0 -57 -17 -129l-48 -205q-24 -101 -24 -162q0 -58 21 -80q44 -45 107 -45q39 0 39 -36q0 -10 -3 -23l-19 -82q-14 -59 -63 -59q-83 0 -144 -74t-93 -213l-66 -285q-39 -170 -118.5 -225t-353.5 -55q-51 0 -51 36q0 6 2 14z" />
<glyph unicode="~" horiz-adv-x="1280" d="M130 688q45 122 122 180t219 58q130 0 262 -106t207 -106t109 31t60 77q19 34 39 34l13 -4l66 -36q21 -11 21 -32q0 -10 -4 -22q-45 -122 -122 -180t-219 -58q-130 0 -262 106t-207 106t-109 -31t-60 -77q-20 -34 -39 -34l-13 4l-66 36q-21 11 -21 32q0 10 4 22z" />
<glyph unicode="&#xa1;" horiz-adv-x="668" d="M-7 -309l228 874q17 65 80 65h116q52 0 52 -45q0 -9 -2 -20l-174 -874q-15 -75 -88 -75h-160q-56 0 -56 46q0 13 4 29zM262 841l31 134q17 75 87 75h152q56 0 56 -49q0 -11 -3 -26l-31 -134q-17 -75 -87 -75h-152q-56 0 -56 49q0 11 3 26z" />
<glyph unicode="&#xa2;" horiz-adv-x="1200" d="M128 412q0 232 160 435t404 221l40 172q14 60 64 60h80q39 0 39 -37q0 -10 -3 -23l-42 -180q59 -11 118.5 -45.5t110.5 -108.5q11 -16 11 -31q0 -23 -28 -42l-109 -73q-12 -8 -25 -8q-26 0 -52 38q-21 31 -42.5 47t-29.5 20l-156 -675q37 8 75.5 33.5t86.5 85.5 q20 24 41 24q19 0 40 -19l81 -75q19 -18 19 -39q0 -22 -21 -49q-39 -50 -132.5 -103.5t-236.5 -58.5l-39 -171q-14 -60 -64 -60h-80q-39 0 -39 37q0 10 3 23l42 182q-147 27 -231.5 136t-84.5 284zM424 387q0 -105 29.5 -136.5t40.5 -40.5l149 643q-63 -31 -141 -131 t-78 -335z" />
<glyph unicode="&#xa3;" horiz-adv-x="1200" d="M-35 65l14 59q12 49 61 88q56 44 112 108t84 183l19 80h-101q-52 0 -52 43q0 10 3 22l27 118q15 65 80 65h100l33 142q56 243 188.5 363t358.5 120q101 0 190.5 -32.5t144.5 -106.5q19 -25 19 -46t-17 -38l-69 -74q-23 -26 -46.5 -26t-46.5 26q-26 29 -75.5 51t-108.5 22 q-97 0 -161 -56.5t-89 -165.5l-41 -179h237q53 0 53 -43q0 -10 -3 -22l-27 -118q-15 -65 -79 -65h-238l-21 -88q-21 -89 -48 -146.5t-79 -98.5v-6q61 4 101 4h498q62 0 62 -45q0 -9 -2 -20l-27 -118q-15 -65 -90 -65h-904q-62 0 -62 45q0 9 2 20z" />
<glyph unicode="&#xa4;" horiz-adv-x="1200" d="M136 276q-17 16 -17 34q0 21 22 44l126 136q-62 106 -62 238t62 238l-126 136q-22 23 -22 44q0 18 17 34l63 59q16 15 33 15q22 0 45 -25l115 -124q110 82 258 82t258 -82l115 124q23 25 45 25q17 0 33 -15l63 -59q17 -16 17 -34q0 -21 -22 -44l-126 -136 q62 -106 62 -238t-62 -238l126 -136q22 -23 22 -44q0 -18 -17 -34l-63 -59q-16 -15 -33 -15q-22 0 -45 25l-115 124q-110 -82 -258 -82t-258 82l-115 -124q-23 -25 -45 -25q-17 0 -33 15zM400 728q0 -108 69.5 -186.5t180.5 -78.5t180.5 78.5t69.5 186.5t-69.5 186.5 t-180.5 78.5t-180.5 -78.5t-69.5 -186.5z" />
<glyph unicode="&#xa5;" horiz-adv-x="1200" d="M84 243l20 88q14 60 74 60h252l39 169h-252q-49 0 -49 39q0 10 3 21l20 88q14 60 74 60h154l-215 580q-8 21 -8 37q0 49 75 49h137q57 0 76 -69l101 -371l34 -118q14 -49 14 -119v-9h4q19 58 61 114l99 132l273 371q51 69 108 69h173q57 0 57 -29q0 -21 -30 -57 l-483 -580h154q49 0 49 -39q0 -10 -3 -21l-20 -88q-14 -60 -74 -60h-252l-39 -169h252q49 0 49 -39q0 -10 -3 -21l-20 -88q-14 -60 -74 -60h-252l-28 -123q-14 -60 -74 -60h-160q-49 0 -49 39q0 10 3 21l28 123h-252q-49 0 -49 39q0 10 3 21z" />
<glyph unicode="&#xa6;" horiz-adv-x="630" d="M215 -278v614q0 60 50 60h100q50 0 50 -60v-614q0 -60 -50 -60h-100q-50 0 -50 60zM215 720v614q0 60 50 60h100q50 0 50 -60v-614q0 -60 -50 -60h-100q-50 0 -50 60z" />
<glyph unicode="&#xa7;" horiz-adv-x="1236" d="M123 575q0 129 93 227.5t240 187.5q-25 67 -25 138q0 144 116.5 242t278.5 98q104 0 173 -37t104 -82q23 -29 23 -49q0 -14 -11 -23l-95 -83q-15 -13 -28 -13q-18 0 -33 23q-19 28 -46 48t-81 20q-42 0 -79.5 -32t-37.5 -85q0 -115 205 -281t205 -359q0 -129 -93 -227.5 t-240 -187.5q25 -67 25 -138q0 -144 -116.5 -242t-278.5 -98q-104 0 -173 37t-104 82q-23 29 -23 49q0 14 11 23l95 83q15 13 28 13q18 0 33 -23q19 -28 46 -48t81 -20q42 0 79.5 32t37.5 85q0 115 -205 281t-205 359zM365 634q0 -104 147 -219.5t194 -171.5l107 81 q70 53 70 132q0 104 -147 219.5t-194 171.5l-107 -81q-70 -53 -70 -132z" />
<glyph unicode="&#xa8;" horiz-adv-x="614" d="M148 1266l27 116q14 60 74 60h116q49 0 49 -39q0 -10 -3 -21l-27 -116q-14 -60 -74 -60h-116q-49 0 -49 39q0 10 3 21zM574 1266l27 116q14 60 74 60h116q49 0 49 -39q0 -10 -3 -21l-27 -116q-14 -60 -74 -60h-116q-49 0 -49 39q0 10 3 21z" />
<glyph unicode="&#xa9;" horiz-adv-x="1654" d="M96 717q0 153 60 291.5t160.5 239t239 160.5t291.5 60t291.5 -60t239 -160.5t160.5 -239t60 -291.5t-60 -291.5t-160.5 -239t-239 -160.5t-291.5 -60t-291.5 60t-239 160.5t-160.5 239t-60 291.5zM212 717q0 -130 50.5 -247t135.5 -202t202 -137.5t247 -52.5t247 52.5 t202 137.5t135.5 202t50.5 247t-50.5 247t-135.5 202t-202 137.5t-247 52.5t-247 -52.5t-202 -137.5t-135.5 -202t-50.5 -247zM448 717q0 200 102 318t293 118q107 0 186.5 -33t111.5 -98q9 -18 9 -31q0 -18 -16 -27l-76 -43q-12 -7 -23 -7q-22 0 -37 29q-15 27 -54.5 48 t-94.5 21q-122 0 -168 -75t-46 -220t46 -220t168 -75q66 0 109 29t61 56q19 29 39 29q10 0 21 -7l76 -52q15 -10 15 -27q0 -13 -10 -31q-34 -58 -117 -98t-200 -40q-188 0 -291.5 118t-103.5 318z" />
<glyph unicode="&#xaa;" horiz-adv-x="804" d="M179 1046q0 183 124.5 316.5t285.5 133.5q37 0 71 -21t52 -55h3l11 24q17 38 46 38h116q34 0 34 -26q0 -5 -2 -12l-143 -605q-9 -39 -50 -39h-116q-37 0 -30 39l9 51h-3q-37 -52 -85 -77.5t-104 -25.5q-108 0 -163.5 72.5t-55.5 186.5zM391 1034q0 -46 23.5 -68.5 t50.5 -22.5q58 0 108 55.5t71 140.5l22 89q-2 56 -25 84t-63 28q-74 0 -130.5 -93t-56.5 -213z" />
<glyph unicode="&#xab;" horiz-adv-x="1108" d="M106 498q-8 14 -8 28q0 25 26 50l377 366q21 20 39 20q12 0 23 -10l81 -77q8 -7 8 -17q0 -18 -26 -43l-309 -297l182 -316q9 -16 9 -29q0 -19 -19 -31l-94 -60q-16 -10 -28 -10q-18 0 -30 20zM528 498q-8 14 -8 28q0 25 26 50l377 366q21 20 39 20q12 0 23 -10l81 -77 q8 -7 8 -17q0 -18 -26 -43l-309 -297l182 -316q9 -16 9 -29q0 -19 -19 -31l-94 -60q-16 -10 -28 -10q-18 0 -30 20z" />
<glyph unicode="&#xac;" horiz-adv-x="1200" d="M125 825v86q0 50 60 50h990v-498q0 -60 -50 -60h-86q-50 0 -50 60v312h-804q-60 0 -60 50z" />
<glyph unicode="&#xad;" horiz-adv-x="700" d="M48 496l26 114q12 50 71 50h474q51 0 51 -36q0 -6 -2 -14l-26 -114q-12 -50 -72 -50h-474q-50 0 -50 35q0 7 2 15z" />
<glyph unicode="&#xae;" horiz-adv-x="1654" d="M96 717q0 153 60 291.5t160.5 239t239 160.5t291.5 60t291.5 -60t239 -160.5t160.5 -239t60 -291.5t-60 -291.5t-160.5 -239t-239 -160.5t-291.5 -60t-291.5 60t-239 160.5t-160.5 239t-60 291.5zM212 717q0 -130 50.5 -247t135.5 -202t202 -137.5t247 -52.5t247 52.5 t202 137.5t135.5 202t50.5 247t-50.5 247t-135.5 202t-202 137.5t-247 52.5t-247 -52.5t-202 -137.5t-135.5 -202t-50.5 -247zM541 326v745q0 43 41 43h268q179 0 261.5 -55.5t82.5 -179.5q0 -93 -66.5 -148t-169.5 -73v-1q56 -21 84 -57.5t46 -65.5l128 -201q12 -19 12 -30 q0 -20 -34 -20h-107q-32 0 -52 34l-117 195q-18 30 -69 68t-102 38h-31v-292q0 -43 -40 -43h-94q-41 0 -41 43zM716 763h94q116 0 165 26t49 83q0 63 -47 80.5t-139 17.5h-122v-207z" />
<glyph unicode="&#xaf;" horiz-adv-x="614" d="M153 1276l15 66q12 50 71 50h538q51 0 51 -36q0 -6 -2 -14l-15 -66q-12 -50 -72 -50h-538q-50 0 -50 35q0 7 2 15z" />
<glyph unicode="&#xb0;" horiz-adv-x="600" d="M242 1240q0 93 65.5 158.5t158.5 65.5t158.5 -65.5t65.5 -158.5t-65.5 -158.5t-158.5 -65.5t-158.5 65.5t-65.5 158.5zM382 1240q0 -36 24 -60t60 -24t60 24t24 60t-24 60t-60 24t-60 -24t-24 -60z" />
<glyph unicode="&#xb1;" horiz-adv-x="1280" d="M122 -17q0 50 60 50h1010q60 0 60 -50v-86q0 -50 -60 -50h-1010q-60 0 -60 50v86zM122 682v86q0 50 60 50h412v412q0 60 50 60h86q50 0 50 -60v-412h412q60 0 60 -50v-86q0 -50 -60 -50h-412v-412q0 -60 -50 -60h-86q-50 0 -50 60v412h-412q-60 0 -60 50z" />
<glyph unicode="&#xb2;" horiz-adv-x="630" d="M98 746l9 36q7 26 37 53l187 164l179 155q63 52 63 102q0 46 -21.5 66t-66.5 20q-55 0 -91 -31t-52 -70q-11 -26 -32 -26q-11 0 -26 8l-38 21q-29 16 -14 48q40 82 108 129t167 47q105 0 167 -52t62 -148q0 -90 -128 -194l-156 -128l-111 -93v-3q31 2 53 2h221 q39 0 31 -34l-17 -72q-8 -34 -47 -34h-453q-33 0 -33 23q0 5 2 11z" />
<glyph unicode="&#xb3;" horiz-adv-x="630" d="M122 816l37 51q13 19 28 19q13 0 27 -14q27 -27 70.5 -39t83.5 -12q55 0 95.5 34.5t40.5 89.5q0 54 -24 78t-75 24h-40q-34 0 -28 27l16 69q7 29 41 29h21q43 0 92 33t49 76q0 37 -25 49t-71 12q-39 0 -76.5 -16.5t-56.5 -33.5q-32 -29 -53 3l-29 45q-16 26 10 51 q37 36 94.5 56.5t114.5 20.5q133 0 191.5 -51.5t58.5 -118.5q0 -75 -49.5 -119t-119.5 -63v-2q51 -15 88 -60.5t37 -104.5q0 -97 -87 -176t-229 -79q-68 0 -130 19t-99 54q-12 12 -12 25q0 11 9 24z" />
<glyph unicode="&#xb4;" horiz-adv-x="614" d="M312 1209l129 179q34 47 117 47h152q34 0 34 -17q0 -15 -25 -42l-173 -189q-34 -37 -110 -37h-117q-27 0 -27 17q0 15 20 42z" />
<glyph unicode="&#xb5;" horiz-adv-x="1234" d="M-62 -340l307 1330q14 60 73 60h160q50 0 50 -40q0 -9 -3 -20l-91 -394q-39 -172 -39 -265q0 -51 11 -78q34 -77 115 -77q85 0 176 105.5t139 314.5l91 394q14 60 73 60h160q50 0 50 -40q0 -9 -3 -20l-215 -930q-14 -60 -74 -60h-158q-48 0 -48 40q0 9 2 20l13 58h-4 q-43 -64 -96 -101t-125 -37q-48 0 -101 31t-76 107h-6q-5 -42 -14 -80l-87 -378q-14 -60 -74 -60h-160q-49 0 -49 39q0 10 3 21z" />
<glyph unicode="&#xb6;" horiz-adv-x="1140" d="M81 1084q0 142 104 246t266 104h150q50 0 50 -60v-1684q0 -60 -50 -60h-100q-50 0 -50 60v1044q-162 0 -266 104t-104 246zM810 -310v1684q0 60 50 60h100q50 0 50 -60v-1684q0 -60 -50 -60h-100q-50 0 -50 60z" />
<glyph unicode="&#xb7;" horiz-adv-x="668" d="M236 658v134q0 75 70 75h152q70 0 70 -75v-134q0 -75 -70 -75h-152q-70 0 -70 75z" />
<glyph unicode="&#xb8;" horiz-adv-x="614" d="M-95 -357l20 49q12 30 46 19q46 -15 89 -15q37 0 66.5 17t29.5 44q0 21 -20 33.5t-81 12.5h-21q-30 0 -26 35q6 47 32 81l62 81q17 22 45 22h92q30 0 14 -22l-65 -88v-3q60 -11 91.5 -41.5t31.5 -81.5q0 -81 -72 -143t-195 -62q-51 0 -121 20q-22 6 -22 25q0 7 4 17z" />
<glyph unicode="&#xb9;" horiz-adv-x="520" d="M254 1298q-11 25 27 40q32 13 80.5 40t75.5 53q30 29 52 29h97q31 0 24 -31l-158 -686q-7 -31 -39 -31h-98q-30 0 -23 31l109 475q4 19 12 42h-2q-22 -20 -48 -33t-41 -19q-24 -9 -34 14z" />
<glyph unicode="&#xba;" horiz-adv-x="820" d="M182 1068q0 155 115 291.5t315 136.5q170 0 241.5 -73t71.5 -208q0 -155 -115.5 -291.5t-315.5 -136.5q-170 0 -241 73t-71 208zM394 1062q0 -60 31.5 -89.5t81.5 -29.5q70 0 138 73.5t68 203.5q0 60 -32 90t-82 30q-70 0 -137.5 -74t-67.5 -204z" />
<glyph unicode="&#xbb;" horiz-adv-x="1108" d="M51 205q-8 7 -8 17q0 18 26 43l309 297l-182 316q-9 16 -9 29q0 19 19 31l94 60q16 10 28 10q18 0 30 -20l231 -406q8 -14 8 -28q0 -25 -26 -50l-377 -366q-21 -20 -39 -20q-12 0 -23 10zM473 205q-8 7 -8 17q0 18 26 43l309 297l-182 316q-9 16 -9 29q0 19 19 31l94 60 q16 10 28 10q18 0 30 -20l231 -406q8 -14 8 -28q0 -25 -26 -50l-377 -366q-21 -20 -39 -20q-12 0 -23 10z" />
<glyph unicode="&#xbc;" horiz-adv-x="1790" d="M181 -21q-14 13 -14 30q0 21 25 48l1360 1458q31 33 55 33q14 0 26 -12l68 -65q14 -13 14 -30q0 -21 -25 -48l-1359 -1458q-30 -33 -54 -33q-15 0 -27 12zM364 1298q-2 6 -2 11q0 17 29 29q32 13 80.5 40t75.5 53q30 29 52 29h97q31 0 24 -31l-158 -686q-7 -31 -39 -31 h-98q-30 0 -23 31l109 475q4 19 12 42h-2q-22 -20 -48 -33t-41 -19q-24 -9 -34 14zM1020 190l20 87q7 29 28 52l368 392q25 27 54 27h97q28 0 28 -22q0 -6 -2 -12l-96 -418h61q34 0 26 -34l-17 -72q-8 -34 -41 -34h-62l-28 -122q-8 -34 -41 -34h-93q-34 0 -26 34l28 122 h-278q-28 0 -28 22q0 6 2 12zM1204 296h153l40 175q4 19 12 41h-2z" />
<glyph unicode="&#xbd;" horiz-adv-x="1790" d="M181 -21q-14 13 -14 30q0 21 25 48l1360 1458q31 33 55 33q14 0 26 -12l68 -65q14 -13 14 -30q0 -21 -25 -48l-1359 -1458q-30 -33 -54 -33q-15 0 -27 12zM364 1298q-2 6 -2 11q0 17 29 29q32 13 80.5 40t75.5 53q30 29 52 29h97q31 0 24 -31l-158 -686q-7 -31 -39 -31 h-98q-30 0 -23 31l109 475q4 19 12 42h-2q-22 -20 -48 -33t-41 -19q-24 -9 -34 14zM1005 34l9 36q7 26 37 53l187 164l180 155q62 52 62 102q0 46 -21.5 66t-66.5 20q-55 0 -91 -31t-52 -70q-11 -26 -32 -26q-11 0 -26 8l-38 21q-29 16 -14 48q40 82 108 129t167 47 q105 0 167 -52t62 -148q0 -90 -128 -194l-156 -128l-111 -93v-3q31 2 53 2h221q39 0 31 -34l-17 -72q-8 -34 -47 -34h-453q-33 0 -33 23q0 5 2 11z" />
<glyph unicode="&#xbe;" horiz-adv-x="1790" d="M181 -21q-14 13 -14 30q0 21 25 48l1360 1458q31 33 55 33q14 0 26 -12l68 -65q14 -13 14 -30q0 -21 -25 -48l-1359 -1458q-30 -33 -54 -33q-15 0 -27 12zM185 816l37 51q13 19 28 19q13 0 27 -14q27 -27 70.5 -39t83.5 -12q55 0 95.5 34.5t40.5 89.5q0 54 -24 78t-75 24 h-40q-34 0 -28 27l16 69q7 29 41 29h21q43 0 92 33t49 76q0 37 -25 49t-71 12q-39 0 -76.5 -16.5t-56.5 -33.5q-32 -29 -53 3l-29 45q-16 26 10 51q37 36 94.5 56.5t114.5 20.5q133 0 191.5 -51.5t58.5 -118.5q0 -75 -49.5 -119t-119.5 -63v-2q51 -15 88 -60.5t37 -104.5 q0 -97 -87 -176t-229 -79q-68 0 -130 19t-99 54q-12 12 -12 25q0 11 9 24zM1013 190l20 87q7 29 28 52l368 392q25 27 54 27h97q28 0 28 -22q0 -6 -2 -12l-96 -418h61q34 0 26 -34l-17 -72q-8 -34 -41 -34h-62l-28 -122q-8 -34 -41 -34h-93q-34 0 -26 34l28 122h-278 q-28 0 -28 22q0 6 2 12zM1197 296h153l40 175q4 19 12 41h-2z" />
<glyph unicode="&#xbf;" horiz-adv-x="1106" d="M-28 -108q0 210 217 370t250 294l4 16q16 65 80 65h150q53 0 53 -43q0 -10 -3 -22l-7 -30q-52 -222 -248 -365.5t-196 -260.5q0 -46 34 -78t118 -32q70 0 137 41.5t113 97.5q28 34 55 34q17 0 34 -15l87 -78q33 -30 33 -58q0 -23 -20 -44q-67 -72 -178 -137t-281 -65 q-196 0 -314 72.5t-118 237.5zM499 841l31 134q17 75 87 75h152q56 0 56 -49q0 -11 -3 -26l-31 -134q-17 -75 -88 -75h-152q-56 0 -56 47q0 13 4 28z" />
<glyph unicode="&#xc0;" horiz-adv-x="1394" d="M-63 66l764 1287q48 81 111 81h140q63 0 77 -81l216 -1287q1 -9 1 -16q0 -50 -62 -50h-139q-66 0 -77 69l-45 269h-508l-159 -269q-41 -69 -107 -69h-179q-47 0 -47 28q0 15 14 38zM561 586h322l-56 318q-8 47 -8 77.5t6 79.5h-4q-16 -49 -25.5 -74t-44.5 -83zM697 1724 q-26 24 -26 38q0 23 64 23h176q72 0 98 -47l74 -134q11 -21 11 -35q0 -29 -50 -29h-83q-61 0 -103 38z" />
<glyph unicode="&#xc1;" horiz-adv-x="1394" d="M-63 66l764 1287q48 81 111 81h140q63 0 77 -81l216 -1287q1 -9 1 -16q0 -50 -62 -50h-139q-66 0 -77 69l-45 269h-508l-159 -269q-41 -69 -107 -69h-179q-47 0 -47 28q0 15 14 38zM561 586h322l-56 318q-8 47 -8 77.5t6 79.5h-4q-16 -49 -25.5 -74t-44.5 -83zM780 1604 l102 134q36 47 120 47h176q40 0 40 -18q0 -15 -30 -43l-155 -146q-40 -38 -119 -38h-123q-33 0 -33 19q0 16 22 45z" />
<glyph unicode="&#xc2;" horiz-adv-x="1394" d="M-63 66l764 1287q48 81 111 81h140q63 0 77 -81l216 -1287q1 -9 1 -16q0 -50 -62 -50h-139q-66 0 -77 69l-45 269h-508l-159 -269q-41 -69 -107 -69h-179q-47 0 -47 28q0 15 14 38zM531 1589q-4 10 -4 18q0 29 41 44l274 102q35 13 78 13h60q43 0 72 -13l233 -106 q33 -15 33 -40q0 -13 -10 -30l-24 -41q-17 -30 -45 -30q-14 0 -30 7l-262 119h-2l-322 -122q-18 -7 -31 -7q-29 0 -40 30zM561 586h322l-56 318q-8 47 -8 77.5t6 79.5h-4q-16 -49 -25.5 -74t-44.5 -83z" />
<glyph unicode="&#xc3;" horiz-adv-x="1394" d="M-63 66l764 1287q48 81 111 81h140q63 0 77 -81l216 -1287q1 -9 1 -16q0 -50 -62 -50h-139q-66 0 -77 69l-45 269h-508l-159 -269q-41 -69 -107 -69h-179q-47 0 -47 28q0 15 14 38zM539 1591q-12 10 -12 23q0 18 19 41q53 65 109 97.5t146 32.5q75 0 158.5 -46t137.5 -46 q42 0 71 18t51 43q26 29 46 29q10 0 19 -7l47 -39q12 -10 12 -23q0 -18 -19 -41q-53 -65 -109 -97.5t-146 -32.5q-75 0 -158.5 46t-137.5 46q-42 0 -71 -18t-51 -43q-26 -29 -46 -29q-10 0 -19 7zM561 586h322l-56 318q-8 47 -8 77.5t6 79.5h-4q-16 -49 -25.5 -74t-44.5 -83 z" />
<glyph unicode="&#xc4;" horiz-adv-x="1394" d="M-63 66l764 1287q48 81 111 81h140q63 0 77 -81l216 -1287q1 -9 1 -16q0 -50 -62 -50h-139q-66 0 -77 69l-45 269h-508l-159 -269q-41 -69 -107 -69h-179q-47 0 -47 28q0 15 14 38zM517 1605l24 106q17 75 87 75h152q56 0 56 -49q0 -11 -3 -26l-24 -106q-17 -75 -88 -75 h-152q-56 0 -56 47q0 13 4 28zM561 586h322l-56 318q-8 47 -8 77.5t6 79.5h-4q-16 -49 -25.5 -74t-44.5 -83zM1025 1605l24 106q17 75 87 75h152q56 0 56 -49q0 -11 -3 -26l-24 -106q-17 -75 -88 -75h-152q-56 0 -56 47q0 13 4 28z" />
<glyph unicode="&#xc5;" horiz-adv-x="1394" d="M-63 66l764 1287q48 81 111 81h140q63 0 77 -81l216 -1287q1 -9 1 -16q0 -50 -62 -50h-139q-66 0 -77 69l-45 269h-508l-159 -269q-41 -69 -107 -69h-179q-47 0 -47 28q0 15 14 38zM561 586h322l-56 318q-8 47 -8 77.5t6 79.5h-4q-16 -49 -25.5 -74t-44.5 -83zM737 1647 q0 77 53.5 127.5t133.5 50.5t133.5 -51.5t53.5 -126.5t-53.5 -126.5t-133.5 -51.5t-133.5 50.5t-53.5 127.5zM829 1647q0 -38 26.5 -64t68.5 -26t68.5 26t26.5 64t-26.5 64t-68.5 26t-68.5 -26t-26.5 -64z" />
<glyph unicode="&#xc6;" horiz-adv-x="1911" d="M-63 66l818 1287q51 81 111 81h1064q63 0 63 -45q0 -9 -3 -20l-27 -118q-15 -65 -90 -65h-603l-74 -318h550q63 0 63 -45q0 -9 -3 -20l-27 -118q-15 -65 -90 -65h-550l-86 -372h635q63 0 63 -45q0 -9 -3 -20l-27 -118q-15 -65 -90 -65h-857q-56 0 -56 49q0 11 3 26 l61 263h-349l-171 -269q-44 -69 -107 -69h-185q-48 0 -48 27q0 15 15 39zM591 586h248l139 600h-35q-27 -72 -50.5 -117t-61.5 -105z" />
<glyph unicode="&#xc7;" horiz-adv-x="1404" d="M100 588q0 348 202 614t590 266q180 0 306 -62.5t182 -154.5q16 -27 16 -50q0 -32 -33 -54l-124 -83q-15 -10 -30 -10q-32 0 -66 46q-50 66 -125 99t-147 33q-211 0 -335 -192t-124 -490q0 -151 78 -249.5t267 -98.5q108 0 180 41.5t113 98.5q39 54 75 54q13 0 25 -7 l127 -70q36 -20 36 -50q0 -21 -18 -48q-76 -110 -217 -182.5t-342 -72.5q-300 0 -468 153.5t-168 468.5zM399 -357l20 49q12 30 46 19q46 -15 89 -15q37 0 66.5 17t29.5 44q0 21 -20 33.5t-81 12.5h-21q-30 0 -26 35q6 47 32 81l62 81q17 22 45 22h92q30 0 14 -22l-65 -88 v-3q60 -11 91.5 -41.5t31.5 -81.5q0 -81 -72 -143t-195 -62q-51 0 -121 20q-22 6 -22 25q0 7 4 17z" />
<glyph unicode="&#xc8;" horiz-adv-x="1280" d="M57 75l297 1284q17 75 87 75h858q63 0 63 -45q0 -9 -3 -20l-27 -118q-15 -65 -90 -65h-636l-74 -318h583q63 0 63 -45q0 -9 -3 -20l-27 -118q-15 -65 -90 -65h-583l-86 -372h668q63 0 63 -45q0 -9 -3 -20l-27 -118q-15 -65 -90 -65h-890q-56 0 -56 49q0 11 3 26z M703 1724q-26 24 -26 38q0 23 64 23h176q72 0 98 -47l74 -134q11 -21 11 -35q0 -29 -50 -29h-83q-61 0 -103 38z" />
<glyph unicode="&#xc9;" horiz-adv-x="1280" d="M57 75l297 1284q17 75 87 75h858q63 0 63 -45q0 -9 -3 -20l-27 -118q-15 -65 -90 -65h-636l-74 -318h583q63 0 63 -45q0 -9 -3 -20l-27 -118q-15 -65 -90 -65h-583l-86 -372h668q63 0 63 -45q0 -9 -3 -20l-27 -118q-15 -65 -90 -65h-890q-56 0 -56 49q0 11 3 26z M786 1604l102 134q36 47 120 47h176q40 0 40 -18q0 -15 -30 -43l-155 -146q-40 -38 -119 -38h-123q-33 0 -33 19q0 16 22 45z" />
<glyph unicode="&#xca;" horiz-adv-x="1280" d="M57 75l297 1284q17 75 87 75h858q63 0 63 -45q0 -9 -3 -20l-27 -118q-15 -65 -90 -65h-636l-74 -318h583q63 0 63 -45q0 -9 -3 -20l-27 -118q-15 -65 -90 -65h-583l-86 -372h668q63 0 63 -45q0 -9 -3 -20l-27 -118q-15 -65 -90 -65h-890q-56 0 -56 49q0 11 3 26z M537 1589q-4 10 -4 18q0 29 41 44l274 102q35 13 78 13h60q43 0 72 -13l233 -106q33 -15 33 -40q0 -13 -10 -30l-24 -41q-17 -30 -45 -30q-14 0 -30 7l-262 119h-2l-322 -122q-18 -7 -31 -7q-29 0 -40 30z" />
<glyph unicode="&#xcb;" horiz-adv-x="1280" d="M57 75l297 1284q17 75 87 75h858q63 0 63 -45q0 -9 -3 -20l-27 -118q-15 -65 -90 -65h-636l-74 -318h583q63 0 63 -45q0 -9 -3 -20l-27 -118q-15 -65 -90 -65h-583l-86 -372h668q63 0 63 -45q0 -9 -3 -20l-27 -118q-15 -65 -90 -65h-890q-56 0 -56 49q0 11 3 26z M526 1605l24 106q17 75 87 75h152q56 0 56 -49q0 -11 -3 -26l-24 -106q-17 -75 -88 -75h-152q-56 0 -56 47q0 13 4 28zM1034 1605l24 106q17 75 87 75h152q56 0 56 -49q0 -11 -3 -26l-24 -106q-17 -75 -88 -75h-152q-56 0 -56 47q0 13 4 28z" />
<glyph unicode="&#xcc;" horiz-adv-x="612" d="M57 75l297 1284q17 75 87 75h152q56 0 56 -49q0 -11 -3 -26l-297 -1284q-17 -75 -87 -75h-152q-56 0 -56 49q0 11 3 26zM331 1724q-26 24 -26 38q0 23 64 23h176q72 0 98 -47l74 -134q11 -21 11 -35q0 -29 -50 -29h-83q-61 0 -103 38z" />
<glyph unicode="&#xcd;" horiz-adv-x="612" d="M57 75l297 1284q17 75 87 75h152q56 0 56 -49q0 -11 -3 -26l-297 -1284q-17 -75 -87 -75h-152q-56 0 -56 49q0 11 3 26zM414 1604l102 134q36 47 120 47h176q40 0 40 -18q0 -15 -30 -43l-155 -146q-40 -38 -119 -38h-123q-33 0 -33 19q0 16 22 45z" />
<glyph unicode="&#xce;" horiz-adv-x="612" d="M57 75l297 1284q17 75 87 75h152q56 0 56 -49q0 -11 -3 -26l-297 -1284q-17 -75 -87 -75h-152q-56 0 -56 49q0 11 3 26zM165 1589q-4 10 -4 18q0 29 41 44l274 102q35 13 78 13h60q43 0 72 -13l233 -106q33 -15 33 -40q0 -13 -10 -30l-24 -41q-17 -30 -45 -30 q-14 0 -30 7l-262 119h-2l-322 -122q-18 -7 -31 -7q-29 0 -40 30z" />
<glyph unicode="&#xcf;" horiz-adv-x="612" d="M57 75l297 1284q17 75 87 75h152q56 0 56 -49q0 -11 -3 -26l-297 -1284q-17 -75 -87 -75h-152q-56 0 -56 49q0 11 3 26zM197 1605l24 106q17 75 87 75h132q56 0 56 -49q0 -11 -3 -26l-24 -106q-17 -75 -88 -75h-132q-56 0 -56 47q0 13 4 28zM645 1605l24 106q17 75 87 75 h132q56 0 56 -49q0 -11 -3 -26l-24 -106q-17 -75 -88 -75h-132q-56 0 -56 47q0 13 4 28z" />
<glyph unicode="&#xd0;" horiz-adv-x="1452" d="M66 677l28 118q15 65 90 65h105l115 499q17 75 87 75h299q358 0 514 -165t156 -438q0 -360 -227 -595.5t-694 -235.5h-379q-56 0 -56 49q0 11 3 26l124 537h-105q-63 0 -62 45q0 9 2 20zM439 248h138q301 0 436 160t135 444q0 153 -73.5 244.5t-340.5 91.5h-78l-76 -328 h240q62 0 62 -45q0 -9 -2 -20l-28 -118q-15 -65 -90 -65h-239z" />
<glyph unicode="&#xd1;" horiz-adv-x="1472" d="M57 75l297 1284q17 75 87 75h135q86 0 114 -70l329 -840h7q9 60 23 120l165 715q17 75 87 75h152q56 0 56 -49q0 -11 -3 -26l-297 -1284q-17 -75 -87 -75h-125q-86 0 -114 70l-335 856h-7q-9 -60 -23 -120l-169 -731q-17 -75 -87 -75h-152q-56 0 -56 49q0 11 3 26z M603 1591q-12 10 -12 23q0 18 19 41q53 65 109 97.5t146 32.5q75 0 158.5 -46t137.5 -46q42 0 71 18t51 43q26 29 46 29q10 0 19 -7l47 -39q12 -10 12 -23q0 -18 -19 -41q-53 -65 -109 -97.5t-146 -32.5q-75 0 -158.5 46t-137.5 46q-42 0 -71 -18t-51 -43q-26 -29 -46 -29 q-10 0 -19 7z" />
<glyph unicode="&#xd2;" horiz-adv-x="1532" d="M104 587q0 370 213 625.5t563 255.5q300 0 469 -155.5t169 -465.5q0 -370 -213 -625.5t-563 -255.5q-300 0 -469 155.5t-169 465.5zM416 545q0 -160 85 -251.5t255 -91.5q200 0 325 188.5t125 498.5q0 160 -85 251.5t-255 91.5q-200 0 -325 -188.5t-125 -498.5zM687 1724 q-26 24 -26 38q0 23 64 23h176q72 0 98 -47l74 -134q11 -21 11 -35q0 -29 -50 -29h-83q-61 0 -103 38z" />
<glyph unicode="&#xd3;" horiz-adv-x="1532" d="M104 587q0 370 213 625.5t563 255.5q300 0 469 -155.5t169 -465.5q0 -370 -213 -625.5t-563 -255.5q-300 0 -469 155.5t-169 465.5zM416 545q0 -160 85 -251.5t255 -91.5q200 0 325 188.5t125 498.5q0 160 -85 251.5t-255 91.5q-200 0 -325 -188.5t-125 -498.5zM770 1604 l102 134q36 47 120 47h176q40 0 40 -18q0 -15 -30 -43l-155 -146q-40 -38 -119 -38h-123q-33 0 -33 19q0 16 22 45z" />
<glyph unicode="&#xd4;" horiz-adv-x="1532" d="M104 587q0 370 213 625.5t563 255.5q300 0 469 -155.5t169 -465.5q0 -370 -213 -625.5t-563 -255.5q-300 0 -469 155.5t-169 465.5zM416 545q0 -160 85 -251.5t255 -91.5q200 0 325 188.5t125 498.5q0 160 -85 251.5t-255 91.5q-200 0 -325 -188.5t-125 -498.5zM521 1589 q-4 10 -4 18q0 29 41 44l274 102q35 13 78 13h60q43 0 72 -13l233 -106q33 -15 33 -40q0 -13 -10 -30l-24 -41q-17 -30 -45 -30q-14 0 -30 7l-262 119h-2l-322 -122q-18 -7 -31 -7q-29 0 -40 30z" />
<glyph unicode="&#xd5;" horiz-adv-x="1532" d="M104 587q0 370 213 625.5t563 255.5q300 0 469 -155.5t169 -465.5q0 -370 -213 -625.5t-563 -255.5q-300 0 -469 155.5t-169 465.5zM416 545q0 -160 85 -251.5t255 -91.5q200 0 325 188.5t125 498.5q0 160 -85 251.5t-255 91.5q-200 0 -325 -188.5t-125 -498.5zM529 1591 q-12 10 -12 23q0 18 19 41q53 65 109 97.5t146 32.5q75 0 158.5 -46t137.5 -46q42 0 71 18t51 43q26 29 46 29q10 0 19 -7l47 -39q12 -10 12 -23q0 -18 -19 -41q-53 -65 -109 -97.5t-146 -32.5q-75 0 -158.5 46t-137.5 46q-42 0 -71 -18t-51 -43q-26 -29 -46 -29 q-10 0 -19 7z" />
<glyph unicode="&#xd6;" horiz-adv-x="1532" d="M104 587q0 370 213 625.5t563 255.5q300 0 469 -155.5t169 -465.5q0 -370 -213 -625.5t-563 -255.5q-300 0 -469 155.5t-169 465.5zM416 545q0 -160 85 -251.5t255 -91.5q200 0 325 188.5t125 498.5q0 160 -85 251.5t-255 91.5q-200 0 -325 -188.5t-125 -498.5zM502 1605 l24 106q17 75 87 75h152q56 0 56 -49q0 -11 -3 -26l-24 -106q-17 -75 -88 -75h-152q-56 0 -56 47q0 13 4 28zM1010 1605l24 106q17 75 87 75h152q56 0 56 -49q0 -11 -3 -26l-24 -106q-17 -75 -88 -75h-152q-56 0 -56 47q0 13 4 28z" />
<glyph unicode="&#xd7;" horiz-adv-x="1280" d="M242 389q-35 35 7 78l292 291l-292 292q-42 42 -7 78l61 60q35 35 78 -7l291 -291l291 291q42 42 78 7l61 -60q35 -35 -7 -78l-291 -292l291 -291q42 -42 7 -78l-61 -60q-35 -35 -78 7l-291 291l-291 -291q-42 -42 -78 -7z" />
<glyph unicode="&#xd9;" horiz-adv-x="1422" d="M178 597l180 782q13 55 83 55h152q59 0 59 -39q0 -7 -2 -16l-178 -772q-33 -142 -33 -228q0 -76 26 -109q55 -68 172 -68q101 0 199.5 82.5t153.5 322.5l178 772q13 55 83 55h152q59 0 59 -39q0 -7 -2 -16l-180 -782q-84 -364 -238 -497.5t-435 -133.5q-241 0 -373 148 q-84 94 -84 263q0 97 28 220zM736 1724q-26 24 -26 38q0 23 64 23h176q72 0 98 -47l74 -134q11 -21 11 -35q0 -29 -50 -29h-83q-61 0 -103 38z" />
<glyph unicode="&#xda;" horiz-adv-x="1422" d="M178 597l180 782q13 55 83 55h152q59 0 59 -39q0 -7 -2 -16l-178 -772q-33 -142 -33 -228q0 -76 26 -109q55 -68 172 -68q101 0 199.5 82.5t153.5 322.5l178 772q13 55 83 55h152q59 0 59 -39q0 -7 -2 -16l-180 -782q-84 -364 -238 -497.5t-435 -133.5q-241 0 -373 148 q-84 94 -84 263q0 97 28 220zM819 1604l102 134q36 47 120 47h176q40 0 40 -18q0 -15 -30 -43l-155 -146q-40 -38 -119 -38h-123q-33 0 -33 19q0 16 22 45z" />
<glyph unicode="&#xdb;" horiz-adv-x="1422" d="M178 597l180 782q13 55 83 55h152q59 0 59 -39q0 -7 -2 -16l-178 -772q-33 -142 -33 -228q0 -76 26 -109q55 -68 172 -68q101 0 199.5 82.5t153.5 322.5l178 772q13 55 83 55h152q59 0 59 -39q0 -7 -2 -16l-180 -782q-84 -364 -238 -497.5t-435 -133.5q-241 0 -373 148 q-84 94 -84 263q0 97 28 220zM570 1589q-4 10 -4 18q0 29 41 44l274 102q35 13 78 13h60q43 0 72 -13l233 -106q33 -15 33 -40q0 -13 -10 -30l-24 -41q-17 -30 -45 -30q-14 0 -30 7l-262 119h-2l-322 -122q-18 -7 -31 -7q-29 0 -40 30z" />
<glyph unicode="&#xdc;" horiz-adv-x="1422" d="M178 597l180 782q13 55 83 55h152q59 0 59 -39q0 -7 -2 -16l-178 -772q-33 -142 -33 -228q0 -76 26 -109q55 -68 172 -68q101 0 199.5 82.5t153.5 322.5l178 772q13 55 83 55h152q59 0 59 -39q0 -7 -2 -16l-180 -782q-84 -364 -238 -497.5t-435 -133.5q-241 0 -373 148 q-84 94 -84 263q0 97 28 220zM561 1605l24 106q17 75 87 75h152q56 0 56 -49q0 -11 -3 -26l-24 -106q-17 -75 -88 -75h-152q-56 0 -56 47q0 13 4 28zM1069 1605l24 106q17 75 87 75h152q56 0 56 -49q0 -11 -3 -26l-24 -106q-17 -75 -88 -75h-152q-56 0 -56 47q0 13 4 28z " />
<glyph unicode="&#xdd;" horiz-adv-x="1368" d="M242 1348q-7 21 -7 36q0 50 74 50h145q52 0 76 -69l127 -371l35 -108q19 -58 19 -138h4q19 71 63 130l91 116l299 371q56 69 108 69h205q57 0 57 -29q0 -21 -30 -57l-677 -823l-108 -470q-13 -55 -83 -55h-152q-59 0 -59 39q0 7 2 16l108 470zM792 1604l102 134 q36 47 120 47h176q40 0 40 -18q0 -15 -30 -43l-155 -146q-40 -38 -119 -38h-123q-33 0 -33 19q0 16 22 45z" />
<glyph unicode="&#xdf;" horiz-adv-x="1337" d="M-62 -340l334 1450q46 201 202 293.5t398 92.5q184 0 290.5 -75t106.5 -229q0 -128 -91.5 -226.5t-239.5 -167.5v-3q124 -17 203 -105t79 -234q0 -196 -127 -336t-409 -140q-62 0 -126 15t-104 42q-19 14 -19 33q0 14 9 31l58 103q13 23 35 23q15 0 34 -10l52 -28 q24 -13 63 -13q126 0 182 82t56 176q0 80 -40 139t-170 67q-24 2 -31 35l-26 132q-1 3 -1 6q0 23 37 46l77 49q119 76 169 143t50 132t-46.5 91t-106.5 26q-104 0 -185 -56t-115 -204l-318 -1380q-14 -60 -74 -60h-160q-49 0 -49 39q0 10 3 21z" />
<glyph unicode="&#xe0;" horiz-adv-x="1178" d="M62 379q0 281 182.5 486t407.5 205q45 0 104 -23t107 -93h4l17 36q28 60 67 60h153q50 0 50 -40q0 -9 -3 -20l-215 -930q-14 -60 -74 -60h-153q-47 0 -47 42q0 8 2 18l14 78h-4q-59 -72 -125 -115t-151 -43q-159 0 -247.5 121t-88.5 278zM358 360q0 -86 38.5 -135 t86.5 -49q86 0 162.5 86.5t117.5 259.5l37 158q0 91 -33 142.5t-119 51.5q-124 0 -207 -158t-83 -356zM459 1376q-18 22 -18 35q0 24 53 24h152q72 0 95 -47l87 -179q9 -18 9 -31q0 -28 -44 -28h-86q-61 0 -92 37z" />
<glyph unicode="&#xe1;" horiz-adv-x="1178" d="M62 379q0 281 182.5 486t407.5 205q45 0 104 -23t107 -93h4l17 36q28 60 67 60h153q50 0 50 -40q0 -9 -3 -20l-215 -930q-14 -60 -74 -60h-153q-47 0 -47 42q0 8 2 18l14 78h-4q-59 -72 -125 -115t-151 -43q-159 0 -247.5 121t-88.5 278zM358 360q0 -86 38.5 -135 t86.5 -49q86 0 162.5 86.5t117.5 259.5l37 158q0 91 -33 142.5t-119 51.5q-124 0 -207 -158t-83 -356zM562 1209l129 179q34 47 117 47h152q34 0 34 -17q0 -15 -25 -42l-173 -189q-34 -37 -110 -37h-117q-27 0 -27 17q0 15 20 42z" />
<glyph unicode="&#xe2;" horiz-adv-x="1178" d="M62 379q0 281 182.5 486t407.5 205q45 0 104 -23t107 -93h4l17 36q28 60 67 60h153q50 0 50 -40q0 -9 -3 -20l-215 -930q-14 -60 -74 -60h-153q-47 0 -47 42q0 8 2 18l14 78h-4q-59 -72 -125 -115t-151 -43q-159 0 -247.5 121t-88.5 278zM358 360q0 -86 38.5 -135 t86.5 -49q86 0 162.5 86.5t117.5 259.5l37 158q0 91 -33 142.5t-119 51.5q-124 0 -207 -158t-83 -356zM365 1191q-7 11 -7 21q0 28 45 55l232 140q45 27 76 27h37q30 0 62 -27l179 -153q23 -19 23 -39q0 -18 -19 -37l-22 -22q-22 -22 -43 -22q-18 0 -36 16l-170 145h-2 l-250 -154q-24 -15 -42 -15q-22 0 -35 21z" />
<glyph unicode="&#xe3;" horiz-adv-x="1178" d="M62 379q0 281 182.5 486t407.5 205q45 0 104 -23t107 -93h4l17 36q28 60 67 60h153q50 0 50 -40q0 -9 -3 -20l-215 -930q-14 -60 -74 -60h-153q-47 0 -47 42q0 8 2 18l14 78h-4q-59 -72 -125 -115t-151 -43q-159 0 -247.5 121t-88.5 278zM358 360q0 -86 38.5 -135 t86.5 -49q86 0 162.5 86.5t117.5 259.5l37 158q0 91 -33 142.5t-119 51.5q-124 0 -207 -158t-83 -356zM366 1253q38 70 94 106.5t138 36.5q66 0 130 -52t109 -52q31 0 49.5 10t42.5 47q22 33 43 33q9 0 17 -5l41 -27q13 -8 13 -24q0 -15 -12 -37q-38 -70 -94 -106.5 t-138 -36.5q-66 0 -130 52t-109 52q-31 0 -49.5 -10t-42.5 -47q-22 -33 -43 -33q-9 0 -17 5l-41 27q-13 8 -13 24q0 15 12 37z" />
<glyph unicode="&#xe4;" horiz-adv-x="1178" d="M62 379q0 281 182.5 486t407.5 205q45 0 104 -23t107 -93h4l17 36q28 60 67 60h153q50 0 50 -40q0 -9 -3 -20l-215 -930q-14 -60 -74 -60h-153q-47 0 -47 42q0 8 2 18l14 78h-4q-59 -72 -125 -115t-151 -43q-159 0 -247.5 121t-88.5 278zM358 360q0 -86 38.5 -135 t86.5 -49q86 0 162.5 86.5t117.5 259.5l37 158q0 91 -33 142.5t-119 51.5q-124 0 -207 -158t-83 -356zM416 1266l27 116q14 60 74 60h116q49 0 49 -39q0 -10 -3 -21l-27 -116q-14 -60 -74 -60h-116q-49 0 -49 39q0 10 3 21zM842 1266l27 116q14 60 74 60h116q49 0 49 -39 q0 -10 -3 -21l-27 -116q-14 -60 -74 -60h-116q-49 0 -49 39q0 10 3 21z" />
<glyph unicode="&#xe5;" horiz-adv-x="1178" d="M62 379q0 281 182.5 486t407.5 205q45 0 104 -23t107 -93h4l17 36q28 60 67 60h153q50 0 50 -40q0 -9 -3 -20l-215 -930q-14 -60 -74 -60h-153q-47 0 -47 42q0 8 2 18l14 78h-4q-59 -72 -125 -115t-151 -43q-159 0 -247.5 121t-88.5 278zM358 360q0 -86 38.5 -135 t86.5 -49q86 0 162.5 86.5t117.5 259.5l37 158q0 91 -33 142.5t-119 51.5q-124 0 -207 -158t-83 -356zM476 1313q0 77 55 131.5t134 54.5t134 -54.5t55 -131.5t-55 -131.5t-134 -54.5t-134 54.5t-55 131.5zM571 1313q0 -40 27 -67t67 -27t67 27t27 67t-27 67t-67 27t-67 -27 t-27 -67z" />
<glyph unicode="&#xe6;" horiz-adv-x="1752" d="M19 228q0 206 212 316t495 122l9 40q5 21 5 41q0 45 -27 79q-38 48 -116 48q-64 0 -132.5 -27.5t-110.5 -57.5q-28 -20 -48 -20q-17 0 -28 16l-63 91q-12 18 -12 34q0 24 27 44q58 42 157 79t255 37q84 0 152.5 -41.5t101.5 -116.5h3q94 87 182 122.5t204 35.5 q202 0 311.5 -90t109.5 -206q0 -192 -150 -254q-146 -60 -383 -102l-204 -36q-1 -13 -1 -28q0 -64 39 -121t152 -57q67 0 143 27.5t121 61.5q26 19 46.5 19t34.5 -19l59 -78q16 -21 16 -41q0 -24 -24 -47q-65 -60 -170 -89.5t-244 -29.5q-128 0 -240 43t-167 145h-2 q-75 -90 -180 -139t-238 -49q-140 0 -217.5 61t-77.5 187zM315 256q0 -45 25 -62.5t75 -17.5q49 0 120.5 32t146.5 90q-5 32 -5 68q0 50 10 107q-181 -8 -276.5 -75.5t-95.5 -141.5zM982 570l214 36q101 17 187 50.5t86 94.5q0 55 -54 89t-127 34q-113 0 -192.5 -88 t-113.5 -216z" />
<glyph unicode="&#xe7;" horiz-adv-x="1086" d="M58 412q0 232 168 445t447 213q149 0 227 -45t129 -119q11 -16 11 -31q0 -23 -28 -42l-109 -73q-12 -8 -25 -8q-26 0 -52 38q-21 31 -57 57.5t-106 26.5q-113 0 -211 -126t-98 -361q0 -105 49 -158t133 -53q78 0 127.5 33t96.5 92q20 24 41 24q19 0 40 -19l81 -75 q19 -18 19 -39q0 -22 -21 -49q-39 -50 -137.5 -106.5t-264.5 -56.5q-260 0 -360 128.5t-100 303.5zM204 -357l20 49q12 30 46 19q46 -15 89 -15q37 0 66.5 17t29.5 44q0 21 -20 33.5t-81 12.5h-21q-30 0 -26 35q6 47 32 81l62 81q17 22 45 22h92q30 0 14 -22l-65 -88v-3 q60 -11 91.5 -41.5t31.5 -81.5q0 -81 -72 -143t-195 -62q-51 0 -121 20q-22 6 -22 25q0 7 4 17z" />
<glyph unicode="&#xe8;" horiz-adv-x="1150" d="M58 415q0 231 165 443t456 212q201 0 313 -90t112 -206q0 -192 -142.5 -252t-395.5 -104l-209 -36q-1 -13 -1 -28q0 -64 35 -121t161 -57q72 0 147 27.5t120 61.5q26 19 46.5 19t34.5 -19l59 -78q16 -21 16 -41q0 -24 -24 -47q-65 -60 -170 -89.5t-247 -29.5 q-276 0 -376 127t-100 308zM370 570l219 36q105 17 191.5 50.5t86.5 94.5q0 55 -52.5 89t-132.5 34q-127 0 -202.5 -88t-109.5 -216zM486 1376q-18 22 -18 35q0 24 53 24h152q72 0 95 -47l87 -179q9 -18 9 -31q0 -28 -44 -28h-86q-61 0 -92 37z" />
<glyph unicode="&#xe9;" horiz-adv-x="1150" d="M58 415q0 231 165 443t456 212q201 0 313 -90t112 -206q0 -192 -142.5 -252t-395.5 -104l-209 -36q-1 -13 -1 -28q0 -64 35 -121t161 -57q72 0 147 27.5t120 61.5q26 19 46.5 19t34.5 -19l59 -78q16 -21 16 -41q0 -24 -24 -47q-65 -60 -170 -89.5t-247 -29.5 q-276 0 -376 127t-100 308zM370 570l219 36q105 17 191.5 50.5t86.5 94.5q0 55 -52.5 89t-132.5 34q-127 0 -202.5 -88t-109.5 -216zM589 1209l129 179q34 47 117 47h152q34 0 34 -17q0 -15 -25 -42l-173 -189q-34 -37 -110 -37h-117q-27 0 -27 17q0 15 20 42z" />
<glyph unicode="&#xea;" horiz-adv-x="1150" d="M58 415q0 231 165 443t456 212q201 0 313 -90t112 -206q0 -192 -142.5 -252t-395.5 -104l-209 -36q-1 -13 -1 -28q0 -64 35 -121t161 -57q72 0 147 27.5t120 61.5q26 19 46.5 19t34.5 -19l59 -78q16 -21 16 -41q0 -24 -24 -47q-65 -60 -170 -89.5t-247 -29.5 q-276 0 -376 127t-100 308zM370 570l219 36q105 17 191.5 50.5t86.5 94.5q0 55 -52.5 89t-132.5 34q-127 0 -202.5 -88t-109.5 -216zM392 1191q-7 11 -7 21q0 28 45 55l232 140q45 27 76 27h37q30 0 62 -27l179 -153q23 -19 23 -39q0 -18 -19 -37l-22 -22q-22 -22 -43 -22 q-18 0 -36 16l-170 145h-2l-250 -154q-24 -15 -42 -15q-22 0 -35 21z" />
<glyph unicode="&#xeb;" horiz-adv-x="1150" d="M58 415q0 231 165 443t456 212q201 0 313 -90t112 -206q0 -192 -142.5 -252t-395.5 -104l-209 -36q-1 -13 -1 -28q0 -64 35 -121t161 -57q72 0 147 27.5t120 61.5q26 19 46.5 19t34.5 -19l59 -78q16 -21 16 -41q0 -24 -24 -47q-65 -60 -170 -89.5t-247 -29.5 q-276 0 -376 127t-100 308zM370 570l219 36q105 17 191.5 50.5t86.5 94.5q0 55 -52.5 89t-132.5 34q-127 0 -202.5 -88t-109.5 -216zM397 1266l27 116q14 60 74 60h116q49 0 49 -39q0 -10 -3 -21l-27 -116q-14 -60 -74 -60h-116q-49 0 -49 39q0 10 3 21zM823 1266l27 116 q14 60 74 60h116q49 0 49 -39q0 -10 -3 -21l-27 -116q-14 -60 -74 -60h-116q-49 0 -49 39q0 10 3 21z" />
<glyph unicode="&#xf1;" horiz-adv-x="1200" d="M30 60l215 930q14 60 73 60h158q50 0 50 -39q0 -9 -3 -21l-19 -78h4q80 94 152.5 126t172.5 32q145 0 228 -107q50 -64 50 -176q0 -76 -23 -173l-128 -554q-14 -60 -74 -60h-160q-49 0 -49 39q0 10 3 21l111 482q33 142 33 216q0 36 -8 56q-24 60 -107 60 q-105 0 -186 -117t-130 -333l-83 -364q-14 -60 -74 -60h-160q-49 0 -49 39q0 10 3 21zM442 1253q38 70 94 106.5t138 36.5q66 0 130 -52t109 -52q31 0 49.5 10t42.5 47q22 33 43 33q9 0 17 -5l41 -27q13 -8 13 -24q0 -15 -12 -37q-38 -70 -94 -106.5t-138 -36.5 q-66 0 -130 52t-109 52q-31 0 -49.5 -10t-42.5 -47q-22 -33 -43 -33q-9 0 -17 5l-41 27q-13 8 -13 24q0 15 12 37z" />
<glyph unicode="&#xf2;" horiz-adv-x="1206" d="M58 412q0 225 166 441.5t466 216.5q260 0 360 -128.5t100 -303.5q0 -225 -166 -441.5t-466 -216.5q-260 0 -360 128.5t-100 303.5zM354 387q0 -100 48.5 -155.5t133.5 -55.5q125 0 221.5 128.5t96.5 358.5q0 100 -48.5 155.5t-133.5 55.5q-125 0 -221.5 -128.5 t-96.5 -358.5zM497 1376q-18 22 -18 35q0 24 53 24h152q72 0 95 -47l87 -179q9 -18 9 -31q0 -28 -44 -28h-86q-61 0 -92 37z" />
<glyph unicode="&#xf3;" horiz-adv-x="1206" d="M58 412q0 225 166 441.5t466 216.5q260 0 360 -128.5t100 -303.5q0 -225 -166 -441.5t-466 -216.5q-260 0 -360 128.5t-100 303.5zM354 387q0 -100 48.5 -155.5t133.5 -55.5q125 0 221.5 128.5t96.5 358.5q0 100 -48.5 155.5t-133.5 55.5q-125 0 -221.5 -128.5 t-96.5 -358.5zM599 1209l129 179q34 47 117 47h152q34 0 34 -17q0 -15 -25 -42l-173 -189q-34 -37 -110 -37h-117q-27 0 -27 17q0 15 20 42z" />
<glyph unicode="&#xf4;" horiz-adv-x="1206" d="M58 412q0 225 166 441.5t466 216.5q260 0 360 -128.5t100 -303.5q0 -225 -166 -441.5t-466 -216.5q-260 0 -360 128.5t-100 303.5zM354 387q0 -100 48.5 -155.5t133.5 -55.5q125 0 221.5 128.5t96.5 358.5q0 100 -48.5 155.5t-133.5 55.5q-125 0 -221.5 -128.5 t-96.5 -358.5zM403 1191q-7 11 -7 21q0 28 45 55l232 140q45 27 76 27h37q30 0 62 -27l179 -153q23 -19 23 -39q0 -18 -19 -37l-22 -22q-22 -22 -43 -22q-18 0 -36 16l-170 145h-2l-250 -154q-24 -15 -42 -15q-22 0 -35 21z" />
<glyph unicode="&#xf5;" horiz-adv-x="1206" d="M58 412q0 225 166 441.5t466 216.5q260 0 360 -128.5t100 -303.5q0 -225 -166 -441.5t-466 -216.5q-260 0 -360 128.5t-100 303.5zM354 387q0 -100 48.5 -155.5t133.5 -55.5q125 0 221.5 128.5t96.5 358.5q0 100 -48.5 155.5t-133.5 55.5q-125 0 -221.5 -128.5 t-96.5 -358.5zM404 1253q38 70 94 106.5t138 36.5q66 0 130 -52t109 -52q31 0 49.5 10t42.5 47q22 33 43 33q9 0 17 -5l41 -27q13 -8 13 -24q0 -15 -12 -37q-38 -70 -94 -106.5t-138 -36.5q-66 0 -130 52t-109 52q-31 0 -49.5 -10t-42.5 -47q-22 -33 -43 -33q-9 0 -17 5 l-41 27q-13 8 -13 24q0 15 12 37z" />
<glyph unicode="&#xf6;" horiz-adv-x="1206" d="M58 412q0 225 166 441.5t466 216.5q260 0 360 -128.5t100 -303.5q0 -225 -166 -441.5t-466 -216.5q-260 0 -360 128.5t-100 303.5zM354 387q0 -100 48.5 -155.5t133.5 -55.5q125 0 221.5 128.5t96.5 358.5q0 100 -48.5 155.5t-133.5 55.5q-125 0 -221.5 -128.5 t-96.5 -358.5zM422 1266l27 116q14 60 74 60h116q49 0 49 -39q0 -10 -3 -21l-27 -116q-14 -60 -74 -60h-116q-49 0 -49 39q0 10 3 21zM848 1266l27 116q14 60 74 60h116q49 0 49 -39q0 -10 -3 -21l-27 -116q-14 -60 -74 -60h-116q-49 0 -49 39q0 10 3 21z" />
<glyph unicode="&#xf7;" horiz-adv-x="1280" d="M75 682v86q0 50 60 50h1010q60 0 60 -50v-86q0 -50 -60 -50h-1010q-60 0 -60 50zM494 273v134q0 75 70 75h152q70 0 70 -75v-134q0 -75 -70 -75h-152q-70 0 -70 75zM494 1043v134q0 75 70 75h152q70 0 70 -75v-134q0 -75 -70 -75h-152q-70 0 -70 75z" />
<glyph unicode="&#xf9;" horiz-adv-x="1194" d="M115 436l128 554q14 60 73 60h160q49 0 49 -41q0 -8 -2 -19l-112 -482q-33 -141 -33 -215q0 -37 8 -57q25 -60 105 -60q101 0 182.5 119t132.5 340l81 355q14 60 73 60h160q49 0 49 -41q0 -8 -2 -19l-215 -930q-14 -60 -74 -60h-158q-49 0 -49 39q0 9 3 21l21 87h-4 q-80 -94 -152.5 -130.5t-172.5 -36.5q-142 0 -224 107q-50 64 -50 175q0 76 23 174zM530 1376q-18 22 -18 35q0 24 53 24h152q72 0 95 -47l87 -179q9 -18 9 -31q0 -28 -44 -28h-86q-61 0 -92 37z" />
<glyph unicode="&#xfa;" horiz-adv-x="1194" d="M115 436l128 554q14 60 73 60h160q49 0 49 -41q0 -8 -2 -19l-112 -482q-33 -141 -33 -215q0 -37 8 -57q25 -60 105 -60q101 0 182.5 119t132.5 340l81 355q14 60 73 60h160q49 0 49 -41q0 -8 -2 -19l-215 -930q-14 -60 -74 -60h-158q-49 0 -49 39q0 9 3 21l21 87h-4 q-80 -94 -152.5 -130.5t-172.5 -36.5q-142 0 -224 107q-50 64 -50 175q0 76 23 174zM633 1209l129 179q34 47 117 47h152q34 0 34 -17q0 -15 -25 -42l-173 -189q-34 -37 -110 -37h-117q-27 0 -27 17q0 15 20 42z" />
<glyph unicode="&#xfb;" horiz-adv-x="1194" d="M115 436l128 554q14 60 73 60h160q49 0 49 -41q0 -8 -2 -19l-112 -482q-33 -141 -33 -215q0 -37 8 -57q25 -60 105 -60q101 0 182.5 119t132.5 340l81 355q14 60 73 60h160q49 0 49 -41q0 -8 -2 -19l-215 -930q-14 -60 -74 -60h-158q-49 0 -49 39q0 9 3 21l21 87h-4 q-80 -94 -152.5 -130.5t-172.5 -36.5q-142 0 -224 107q-50 64 -50 175q0 76 23 174zM436 1191q-7 11 -7 21q0 28 45 55l232 140q45 27 76 27h37q30 0 62 -27l179 -153q23 -19 23 -39q0 -18 -19 -37l-22 -22q-22 -22 -43 -22q-18 0 -36 16l-170 145h-2l-250 -154 q-24 -15 -42 -15q-22 0 -35 21z" />
<glyph unicode="&#xfc;" horiz-adv-x="1194" d="M115 436l128 554q14 60 73 60h160q49 0 49 -41q0 -8 -2 -19l-112 -482q-33 -141 -33 -215q0 -37 8 -57q25 -60 105 -60q101 0 182.5 119t132.5 340l81 355q14 60 73 60h160q49 0 49 -41q0 -8 -2 -19l-215 -930q-14 -60 -74 -60h-158q-49 0 -49 39q0 9 3 21l21 87h-4 q-80 -94 -152.5 -130.5t-172.5 -36.5q-142 0 -224 107q-50 64 -50 175q0 76 23 174zM437 1266l27 116q14 60 74 60h116q49 0 49 -39q0 -10 -3 -21l-27 -116q-14 -60 -74 -60h-116q-49 0 -49 39q0 10 3 21zM863 1266l27 116q14 60 74 60h116q49 0 49 -39q0 -10 -3 -21 l-27 -116q-14 -60 -74 -60h-116q-49 0 -49 39q0 10 3 21z" />
<glyph unicode="&#xfd;" horiz-adv-x="1194" d="M20 -270l49 78q17 28 43 28q14 0 30 -8q68 -35 116 -43.5t114 -8.5q105 0 179 44.5t123 255.5q10 44 23 80h-4q-80 -94 -152.5 -130.5t-172.5 -36.5q-142 0 -224 107q-50 64 -50 175q0 76 23 174l126 545q14 60 73 60h160q50 0 50 -40q0 -9 -3 -20l-112 -482 q-31 -133 -31 -205q0 -37 8 -58q25 -60 105 -60q101 0 183 119.5t130 330.5l81 355q14 60 73 60h160q50 0 50 -40q0 -9 -3 -20l-228 -979q-53 -229 -194.5 -330t-402.5 -101q-63 0 -145.5 10.5t-160.5 52.5q-31 16 -31 44q0 19 15 43zM632 1209l129 179q34 47 117 47h152 q34 0 34 -17q0 -15 -25 -42l-173 -189q-34 -37 -110 -37h-117q-27 0 -27 17q0 15 20 42z" />
<glyph unicode="&#xfe;" horiz-adv-x="1192" d="M-62 -340l405 1756q14 60 74 60h160q49 0 49 -39q0 -10 -3 -21l-97 -424q-9 -41 -23 -80h4q72 86 129 122t130 36q198 0 280.5 -130t82.5 -289q0 -263 -160.5 -467t-372.5 -204q-72 0 -150 19t-128 97h-4q-5 -42 -14 -80l-82 -356q-14 -60 -74 -60h-160q-49 0 -49 39 q0 10 3 21zM381 370q0 -96 33.5 -145t133.5 -49q135 0 210 152t75 342q0 104 -38.5 154t-106.5 50q-70 0 -150.5 -89t-119.5 -257z" />
<glyph unicode="&#xff;" horiz-adv-x="1194" d="M20 -270l49 78q17 28 43 28q14 0 30 -8q68 -35 116 -43.5t114 -8.5q105 0 179 44.5t123 255.5q10 44 23 80h-4q-80 -94 -152.5 -130.5t-172.5 -36.5q-142 0 -224 107q-50 64 -50 175q0 76 23 174l126 545q14 60 73 60h160q50 0 50 -40q0 -9 -3 -20l-112 -482 q-31 -133 -31 -205q0 -37 8 -58q25 -60 105 -60q101 0 183 119.5t130 330.5l81 355q14 60 73 60h160q50 0 50 -40q0 -9 -3 -20l-228 -979q-53 -229 -194.5 -330t-402.5 -101q-63 0 -145.5 10.5t-160.5 52.5q-31 16 -31 44q0 19 15 43zM436 1266l27 116q14 60 74 60h116 q49 0 49 -39q0 -10 -3 -21l-27 -116q-14 -60 -74 -60h-116q-49 0 -49 39q0 10 3 21zM862 1266l27 116q14 60 74 60h116q49 0 49 -39q0 -10 -3 -21l-27 -116q-14 -60 -74 -60h-116q-49 0 -49 39q0 10 3 21z" />
<glyph unicode="&#x100;" horiz-adv-x="1394" d="M-63 66l764 1287q48 81 111 81h140q63 0 77 -81l216 -1287q1 -9 1 -16q0 -50 -62 -50h-139q-66 0 -77 69l-45 269h-508l-159 -269q-41 -69 -107 -69h-179q-47 0 -47 28q0 15 14 38zM547 1594l16 70q14 60 79 60h614q53 0 53 -41q0 -8 -2 -19l-16 -70q-14 -60 -79 -60 h-614q-53 0 -53 41q0 8 2 19zM561 586h322l-56 318q-8 47 -8 77.5t6 79.5h-4q-16 -49 -25.5 -74t-44.5 -83z" />
<glyph unicode="&#x101;" horiz-adv-x="1178" d="M62 379q0 281 182.5 486t407.5 205q45 0 104 -23t107 -93h4l17 36q28 60 67 60h153q50 0 50 -40q0 -9 -3 -20l-215 -930q-14 -60 -74 -60h-153q-47 0 -47 42q0 8 2 18l14 78h-4q-59 -72 -125 -115t-151 -43q-159 0 -247.5 121t-88.5 278zM358 360q0 -86 38.5 -135 t86.5 -49q86 0 162.5 86.5t117.5 259.5l37 158q0 91 -33 142.5t-119 51.5q-124 0 -207 -158t-83 -356zM371 1276l15 66q12 50 71 50h538q51 0 51 -36q0 -6 -2 -14l-15 -66q-12 -50 -72 -50h-538q-50 0 -50 35q0 7 2 15z" />
<glyph unicode="&#x102;" horiz-adv-x="1394" d="M-63 66l764 1287q48 81 111 81h140q63 0 77 -81l216 -1287q1 -9 1 -16q0 -50 -62 -50h-139q-66 0 -77 69l-45 269h-508l-159 -269q-41 -69 -107 -69h-179q-47 0 -47 28q0 15 14 38zM561 586h322l-56 318q-8 47 -8 77.5t6 79.5h-4q-16 -49 -25.5 -74t-44.5 -83zM588 1768 q-3 11 -3 20q0 34 40 52l55 25q14 6 26 6q26 0 39 -34q18 -49 63.5 -85t131.5 -36q72 0 137 40t106 83q33 34 58 34q11 0 21 -6l63 -42q19 -13 19 -32q0 -17 -16 -40q-76 -109 -169 -161t-248 -52q-131 0 -212 62t-111 166z" />
<glyph unicode="&#x103;" horiz-adv-x="1178" d="M62 379q0 281 182.5 486t407.5 205q45 0 104 -23t107 -93h4l17 36q28 60 67 60h153q50 0 50 -40q0 -9 -3 -20l-215 -930q-14 -60 -74 -60h-153q-47 0 -47 42q0 8 2 18l14 78h-4q-59 -72 -125 -115t-151 -43q-159 0 -247.5 121t-88.5 278zM358 360q0 -86 38.5 -135 t86.5 -49q86 0 162.5 86.5t117.5 259.5l37 158q0 91 -33 142.5t-119 51.5q-124 0 -207 -158t-83 -356zM386 1365q-3 11 -3 21q0 29 27 39l61 22q11 4 20 4q22 0 31 -25q23 -68 62 -98t118 -30q67 0 124 37t94 90q19 28 40 28q11 0 21 -7l72 -44q13 -8 13 -21q0 -16 -17 -39 q-80 -110 -167 -161t-211 -51q-108 0 -183 59t-102 176z" />
<glyph unicode="&#x105;" horiz-adv-x="1178" d="M62 379q0 281 182.5 486t407.5 205q45 0 104 -23t107 -93h4l17 36q28 60 67 60h153q50 0 50 -40q0 -9 -3 -20l-215 -930q-10 -45 -54 -71q-111 -69 -168.5 -109t-57.5 -69q0 -21 17 -28t44 -7q44 0 85 5q39 5 40 -34l3 -115q1 -38 -34 -43q-69 -9 -147 -9 q-124 0 -184 43.5t-60 110.5q0 36 9 70.5t59 85t132 103.5q35 18 44 67l14 78h-4q-59 -72 -125 -115t-151 -43q-159 0 -247.5 121t-88.5 278zM358 360q0 -86 38.5 -135t86.5 -49q86 0 162.5 86.5t117.5 259.5l37 158q0 91 -33 142.5t-119 51.5q-124 0 -207 -158t-83 -356z " />
<glyph unicode="&#x106;" horiz-adv-x="1404" d="M100 588q0 348 202 614t590 266q180 0 306 -62.5t182 -154.5q16 -27 16 -50q0 -32 -33 -54l-124 -83q-15 -10 -30 -10q-32 0 -66 46q-50 66 -125 99t-147 33q-211 0 -335 -192t-124 -490q0 -151 78 -249.5t267 -98.5q108 0 180 41.5t113 98.5q39 54 75 54q13 0 25 -7 l127 -70q36 -20 36 -50q0 -21 -18 -48q-76 -110 -217 -182.5t-342 -72.5q-300 0 -468 153.5t-168 468.5zM782 1604l102 134q36 47 120 47h176q40 0 40 -18q0 -15 -30 -43l-155 -146q-40 -38 -119 -38h-123q-33 0 -33 19q0 16 22 45z" />
<glyph unicode="&#x107;" horiz-adv-x="1086" d="M58 412q0 232 168 445t447 213q149 0 227 -45t129 -119q11 -16 11 -31q0 -23 -28 -42l-109 -73q-12 -8 -25 -8q-26 0 -52 38q-21 31 -57 57.5t-106 26.5q-113 0 -211 -126t-98 -361q0 -105 49 -158t133 -53q78 0 127.5 33t96.5 92q20 24 41 24q19 0 40 -19l81 -75 q19 -18 19 -39q0 -22 -21 -49q-39 -50 -137.5 -106.5t-264.5 -56.5q-260 0 -360 128.5t-100 303.5zM583 1209l129 179q34 47 117 47h152q34 0 34 -17q0 -15 -25 -42l-173 -189q-34 -37 -110 -37h-117q-27 0 -27 17q0 15 20 42z" />
<glyph unicode="&#x108;" horiz-adv-x="1404" d="M100 588q0 348 202 614t590 266q180 0 306 -62.5t182 -154.5q16 -27 16 -50q0 -32 -33 -54l-124 -83q-15 -10 -30 -10q-32 0 -66 46q-50 66 -125 99t-147 33q-211 0 -335 -192t-124 -490q0 -151 78 -249.5t267 -98.5q108 0 180 41.5t113 98.5q39 54 75 54q13 0 25 -7 l127 -70q36 -20 36 -50q0 -21 -18 -48q-76 -110 -217 -182.5t-342 -72.5q-300 0 -468 153.5t-168 468.5zM533 1589q-4 10 -4 18q0 29 41 44l274 102q35 13 78 13h60q43 0 72 -13l233 -106q33 -15 33 -40q0 -13 -10 -30l-24 -41q-17 -30 -45 -30q-14 0 -30 7l-262 119h-2 l-322 -122q-18 -7 -31 -7q-29 0 -40 30z" />
<glyph unicode="&#x109;" horiz-adv-x="1086" d="M58 412q0 232 168 445t447 213q149 0 227 -45t129 -119q11 -16 11 -31q0 -23 -28 -42l-109 -73q-12 -8 -25 -8q-26 0 -52 38q-21 31 -57 57.5t-106 26.5q-113 0 -211 -126t-98 -361q0 -105 49 -158t133 -53q78 0 127.5 33t96.5 92q20 24 41 24q19 0 40 -19l81 -75 q19 -18 19 -39q0 -22 -21 -49q-39 -50 -137.5 -106.5t-264.5 -56.5q-260 0 -360 128.5t-100 303.5zM386 1191q-7 11 -7 21q0 28 45 55l232 140q45 27 76 27h37q30 0 62 -27l179 -153q23 -19 23 -39q0 -18 -19 -37l-22 -22q-22 -22 -43 -22q-18 0 -36 16l-170 145h-2 l-250 -154q-24 -15 -42 -15q-22 0 -35 21z" />
<glyph unicode="&#x10a;" horiz-adv-x="1404" d="M100 588q0 348 202 614t590 266q180 0 306 -62.5t182 -154.5q16 -27 16 -50q0 -32 -33 -54l-124 -83q-15 -10 -30 -10q-32 0 -66 46q-50 66 -125 99t-147 33q-211 0 -335 -192t-124 -490q0 -151 78 -249.5t267 -98.5q108 0 180 41.5t113 98.5q39 54 75 54q13 0 25 -7 l127 -70q36 -20 36 -50q0 -21 -18 -48q-76 -110 -217 -182.5t-342 -72.5q-300 0 -468 153.5t-168 468.5zM777 1601l26 114q17 75 87 75h152q56 0 56 -49q0 -11 -3 -26l-26 -114q-17 -75 -88 -75h-152q-56 0 -56 47q0 13 4 28z" />
<glyph unicode="&#x10b;" horiz-adv-x="1086" d="M58 412q0 232 168 445t447 213q149 0 227 -45t129 -119q11 -16 11 -31q0 -23 -28 -42l-109 -73q-12 -8 -25 -8q-26 0 -52 38q-21 31 -57 57.5t-106 26.5q-113 0 -211 -126t-98 -361q0 -105 49 -158t133 -53q78 0 127.5 33t96.5 92q20 24 41 24q19 0 40 -19l81 -75 q19 -18 19 -39q0 -22 -21 -49q-39 -50 -137.5 -106.5t-264.5 -56.5q-260 0 -360 128.5t-100 303.5zM578 1264l29 128q14 60 74 60h160q49 0 49 -39q0 -10 -3 -21l-29 -128q-14 -60 -74 -60h-160q-49 0 -49 39q0 10 3 21z" />
<glyph unicode="&#x10c;" horiz-adv-x="1404" d="M100 588q0 348 202 614t590 266q180 0 306 -62.5t182 -154.5q16 -27 16 -50q0 -32 -33 -54l-124 -83q-15 -10 -30 -10q-32 0 -66 46q-50 66 -125 99t-147 33q-211 0 -335 -192t-124 -490q0 -151 78 -249.5t267 -98.5q108 0 180 41.5t113 98.5q39 54 75 54q13 0 25 -7 l127 -70q36 -20 36 -50q0 -21 -18 -48q-76 -110 -217 -182.5t-342 -72.5q-300 0 -468 153.5t-168 468.5zM552 1695l24 41q17 30 45 30q14 0 30 -7l262 -119h2l322 122q18 7 31 7q29 0 40 -30l21 -56q4 -10 4 -18q0 -29 -41 -44l-274 -102q-35 -13 -78 -13h-60q-43 0 -72 13 l-233 106q-33 15 -33 40q0 13 10 30z" />
<glyph unicode="&#x10d;" horiz-adv-x="1086" d="M58 412q0 232 168 445t447 213q149 0 227 -45t129 -119q11 -16 11 -31q0 -23 -28 -42l-109 -73q-12 -8 -25 -8q-26 0 -52 38q-21 31 -57 57.5t-106 26.5q-113 0 -211 -126t-98 -361q0 -105 49 -158t133 -53q78 0 127.5 33t96.5 92q20 24 41 24q19 0 40 -19l81 -75 q19 -18 19 -39q0 -22 -21 -49q-39 -50 -137.5 -106.5t-264.5 -56.5q-260 0 -360 128.5t-100 303.5zM425 1394l22 22q22 22 43 22q18 0 36 -16l170 -145h2l250 154q24 15 42 15q22 0 35 -21l28 -44q7 -11 7 -21q0 -28 -45 -55l-232 -140q-45 -27 -76 -27h-37q-30 0 -62 27 l-179 153q-23 19 -23 39q0 18 19 37z" />
<glyph unicode="&#x10e;" horiz-adv-x="1402" d="M57 75l297 1284q17 75 87 75h299q358 0 514 -165t156 -438q0 -360 -227 -595.5t-694 -235.5h-379q-56 0 -56 49q0 11 3 26zM389 248h138q301 0 436 160t135 444q0 153 -73.5 244.5t-340.5 91.5h-78zM595 1695l24 41q17 30 45 30q14 0 30 -7l262 -119h2l322 122q18 7 31 7 q29 0 40 -30l21 -56q4 -10 4 -18q0 -29 -41 -44l-274 -102q-35 -13 -78 -13h-60q-43 0 -72 13l-233 106q-33 15 -33 40q0 13 10 30z" />
<glyph unicode="&#x10f;" horiz-adv-x="1464" d="M66 399q0 263 160.5 467t372.5 204q72 0 150 -19t128 -97h4q4 31 15 80l87 382q14 60 74 60h160q49 0 49 -39q0 -10 -3 -21l-313 -1356q-14 -60 -74 -60h-158q-42 0 -42 41q0 8 2 19l14 78h-4q-72 -86 -129 -122t-130 -36q-198 0 -280.5 130t-82.5 289zM362 380 q0 -104 38.5 -154t106.5 -50q70 0 150.5 89t119.5 257l37 158q0 96 -33.5 145t-133.5 49q-135 0 -210 -152t-75 -342zM1301 1224q21 29 42.5 80.5t30.5 89.5l5 22q14 60 74 60h160q48 0 48 -40q0 -9 -2 -20l-2 -9q-27 -122 -80.5 -186t-85.5 -88q-40 -29 -67 -29 q-11 0 -20 4l-98 55q-19 10 -19 27q0 15 14 34z" />
<glyph unicode="&#x110;" horiz-adv-x="1452" d="M66 677l28 118q15 65 90 65h105l115 499q17 75 87 75h299q358 0 514 -165t156 -438q0 -360 -227 -595.5t-694 -235.5h-379q-56 0 -56 49q0 11 3 26l124 537h-105q-63 0 -62 45q0 9 2 20zM439 248h138q301 0 436 160t135 444q0 153 -73.5 244.5t-340.5 91.5h-78l-76 -328 h240q62 0 62 -45q0 -9 -2 -20l-28 -118q-15 -65 -90 -65h-239z" />
<glyph unicode="&#x111;" horiz-adv-x="1238" d="M66 399q0 263 160.5 467t372.5 204q72 0 150 -19t128 -97h4q4 31 15 80l33 146h-272q-50 0 -50 36q0 6 2 14l23 100q12 50 72 50h271l8 36q14 60 74 60h160q49 0 49 -39q0 -10 -3 -21l-8 -36h105q50 0 50 -36q0 -6 -2 -14l-23 -100q-12 -50 -72 -50h-104l-259 -1120 q-14 -60 -74 -60h-158q-42 0 -42 41q0 8 2 19l14 78h-4q-72 -86 -129 -122t-130 -36q-198 0 -280.5 130t-82.5 289zM362 380q0 -104 38.5 -154t106.5 -50q71 0 151 88.5t119 257.5l37 158q0 96 -33.5 145t-133.5 49q-135 0 -210 -152t-75 -342z" />
<glyph unicode="&#x112;" horiz-adv-x="1280" d="M57 75l297 1284q17 75 87 75h858q63 0 63 -45q0 -9 -3 -20l-27 -118q-15 -65 -90 -65h-636l-74 -318h583q63 0 63 -45q0 -9 -3 -20l-27 -118q-15 -65 -90 -65h-583l-86 -372h668q63 0 63 -45q0 -9 -3 -20l-27 -118q-15 -65 -90 -65h-890q-56 0 -56 49q0 11 3 26z M553 1594l16 70q14 60 79 60h614q53 0 53 -41q0 -8 -2 -19l-16 -70q-14 -60 -79 -60h-614q-53 0 -53 41q0 8 2 19z" />
<glyph unicode="&#x113;" horiz-adv-x="1150" d="M58 415q0 231 165 443t456 212q201 0 313 -90t112 -206q0 -192 -142.5 -252t-395.5 -104l-209 -36q-1 -13 -1 -28q0 -64 35 -121t161 -57q72 0 147 27.5t120 61.5q26 19 46.5 19t34.5 -19l59 -78q16 -21 16 -41q0 -24 -24 -47q-65 -60 -170 -89.5t-247 -29.5 q-276 0 -376 127t-100 308zM370 570l219 36q105 17 191.5 50.5t86.5 94.5q0 55 -52.5 89t-132.5 34q-127 0 -202.5 -88t-109.5 -216zM398 1276l15 66q12 50 71 50h538q51 0 51 -36q0 -6 -2 -14l-15 -66q-12 -50 -72 -50h-538q-50 0 -50 35q0 7 2 15z" />
<glyph unicode="&#x114;" horiz-adv-x="1280" d="M57 75l297 1284q17 75 87 75h858q63 0 63 -45q0 -9 -3 -20l-27 -118q-15 -65 -90 -65h-636l-74 -318h583q63 0 63 -45q0 -9 -3 -20l-27 -118q-15 -65 -90 -65h-583l-86 -372h668q63 0 63 -45q0 -9 -3 -20l-27 -118q-15 -65 -90 -65h-890q-56 0 -56 49q0 11 3 26z M594 1768q-3 11 -3 20q0 34 40 52l55 25q14 6 26 6q26 0 39 -34q18 -49 63.5 -85t131.5 -36q72 0 137 40t106 83q33 34 58 34q11 0 21 -6l63 -42q19 -13 19 -32q0 -17 -16 -40q-76 -109 -169 -161t-248 -52q-131 0 -212 62t-111 166z" />
<glyph unicode="&#x115;" horiz-adv-x="1150" d="M58 415q0 231 165 443t456 212q201 0 313 -90t112 -206q0 -192 -142.5 -252t-395.5 -104l-209 -36q-1 -13 -1 -28q0 -64 35 -121t161 -57q72 0 147 27.5t120 61.5q26 19 46.5 19t34.5 -19l59 -78q16 -21 16 -41q0 -24 -24 -47q-65 -60 -170 -89.5t-247 -29.5 q-276 0 -376 127t-100 308zM370 570l219 36q105 17 191.5 50.5t86.5 94.5q0 55 -52.5 89t-132.5 34q-127 0 -202.5 -88t-109.5 -216zM413 1365q-3 11 -3 21q0 29 27 39l61 22q11 4 20 4q22 0 31 -25q23 -68 62 -98t118 -30q67 0 124 37t94 90q19 28 40 28q11 0 21 -7l72 -44 q13 -8 13 -21q0 -16 -17 -39q-80 -110 -167 -161t-211 -51q-108 0 -183 59t-102 176z" />
<glyph unicode="&#x116;" horiz-adv-x="1280" d="M57 75l297 1284q17 75 87 75h858q63 0 63 -45q0 -9 -3 -20l-27 -118q-15 -65 -90 -65h-636l-74 -318h583q63 0 63 -45q0 -9 -3 -20l-27 -118q-15 -65 -90 -65h-583l-86 -372h668q63 0 63 -45q0 -9 -3 -20l-27 -118q-15 -65 -90 -65h-890q-56 0 -56 49q0 11 3 26z M781 1601l26 114q17 75 87 75h152q56 0 56 -49q0 -11 -3 -26l-26 -114q-17 -75 -88 -75h-152q-56 0 -56 47q0 13 4 28z" />
<glyph unicode="&#x117;" horiz-adv-x="1150" d="M58 415q0 231 165 443t456 212q201 0 313 -90t112 -206q0 -192 -142.5 -252t-395.5 -104l-209 -36q-1 -13 -1 -28q0 -64 35 -121t161 -57q72 0 147 27.5t120 61.5q26 19 46.5 19t34.5 -19l59 -78q16 -21 16 -41q0 -24 -24 -47q-65 -60 -170 -89.5t-247 -29.5 q-276 0 -376 127t-100 308zM370 570l219 36q105 17 191.5 50.5t86.5 94.5q0 55 -52.5 89t-132.5 34q-127 0 -202.5 -88t-109.5 -216zM584 1264l29 128q14 60 74 60h160q49 0 49 -39q0 -10 -3 -21l-29 -128q-14 -60 -74 -60h-160q-49 0 -49 39q0 10 3 21z" />
<glyph unicode="&#x118;" horiz-adv-x="1280" d="M57 75l297 1284q17 75 87 75h858q63 0 63 -45q0 -9 -3 -20l-27 -118q-15 -65 -90 -65h-636l-74 -318h583q63 0 63 -45q0 -9 -3 -20l-27 -118q-15 -65 -90 -65h-583l-86 -372h668q63 0 63 -45q0 -9 -3 -20l-27 -118q-15 -65 -90 -65h-10q-114 -70 -180 -115t-66 -74 q0 -21 17 -28t44 -7q44 0 85 5q39 5 40 -34l3 -115q1 -38 -34 -43q-69 -9 -147 -9q-124 0 -184 43.5t-60 110.5q0 36 9 70.5t59 85t132 103.5v11q-61 -4 -121 -4h-477q-56 0 -56 49q0 11 3 26z" />
<glyph unicode="&#x119;" horiz-adv-x="1150" d="M58 415q0 231 165 443t456 212q201 0 313 -90t112 -206q0 -192 -143.5 -252.5t-394.5 -103.5l-209 -36q-1 -13 -1 -28q0 -64 35 -121t161 -57q72 0 147 27.5t120 61.5q26 19 46 19t35 -19l59 -78q16 -22 16 -42q0 -24 -24 -46q-32 -29 -64 -51l-94 -64q-62 -42 -121 -93 t-59 -80q0 -21 17 -28t44 -7q44 0 85 5q39 5 40 -34l3 -115q1 -38 -34 -43q-69 -9 -147 -9q-124 0 -184 43.5t-60 110.5q0 36 9 70.5t62.5 77.5t135.5 96v7q-22 -5 -50 -5q-276 0 -376 127t-100 308zM370 570l219 36q105 17 191.5 50.5t86.5 94.5q0 55 -52.5 89t-132.5 34 q-127 0 -202.5 -88t-109.5 -216z" />
<glyph unicode="&#x11a;" horiz-adv-x="1280" d="M57 75l297 1284q17 75 87 75h858q63 0 63 -45q0 -9 -3 -20l-27 -118q-15 -65 -90 -65h-636l-74 -318h583q63 0 63 -45q0 -9 -3 -20l-27 -118q-15 -65 -90 -65h-583l-86 -372h668q63 0 63 -45q0 -9 -3 -20l-27 -118q-15 -65 -90 -65h-890q-56 0 -56 49q0 11 3 26z M556 1695l24 41q17 30 45 30q14 0 30 -7l262 -119h2l322 122q18 7 31 7q29 0 40 -30l21 -56q4 -10 4 -18q0 -29 -41 -44l-274 -102q-35 -13 -78 -13h-60q-43 0 -72 13l-233 106q-33 15 -33 40q0 13 10 30z" />
<glyph unicode="&#x11b;" horiz-adv-x="1150" d="M58 415q0 231 165 443t456 212q201 0 313 -90t112 -206q0 -192 -142.5 -252t-395.5 -104l-209 -36q-1 -13 -1 -28q0 -64 35 -121t161 -57q72 0 147 27.5t120 61.5q26 19 46.5 19t34.5 -19l59 -78q16 -21 16 -41q0 -24 -24 -47q-65 -60 -170 -89.5t-247 -29.5 q-276 0 -376 127t-100 308zM370 570l219 36q105 17 191.5 50.5t86.5 94.5q0 55 -52.5 89t-132.5 34q-127 0 -202.5 -88t-109.5 -216zM431 1394l22 22q22 22 43 22q18 0 36 -16l170 -145h2l250 154q24 15 42 15q22 0 35 -21l28 -44q7 -11 7 -21q0 -28 -45 -55l-232 -140 q-45 -27 -76 -27h-37q-30 0 -62 27l-179 153q-23 19 -23 39q0 18 19 37z" />
<glyph unicode="&#x11c;" horiz-adv-x="1510" d="M100 588q0 363 200.5 621.5t601.5 258.5q180 0 311 -57.5t187 -149.5q16 -27 16 -50q0 -32 -33 -54l-124 -83q-15 -10 -30 -10q-32 0 -66 46q-50 66 -130 94t-152 28q-224 0 -346.5 -178t-122.5 -504q0 -151 73 -249.5t281 -98.5q93 0 171 31t141 79l38 164h-217 q-63 0 -63 45q0 9 3 20l27 118q15 65 90 65h434q62 0 62 -45q0 -9 -2 -20l-120 -521q-123 -72 -274.5 -122t-310.5 -50q-298 0 -471.5 153.5t-173.5 468.5zM543 1589q-4 10 -4 18q0 29 41 44l274 102q35 13 78 13h60q43 0 72 -13l233 -106q33 -15 33 -40q0 -13 -10 -30 l-24 -41q-17 -30 -45 -30q-14 0 -30 7l-262 119h-2l-322 -122q-18 -7 -31 -7q-29 0 -40 30z" />
<glyph unicode="&#x11d;" horiz-adv-x="1192" d="M-18 -263l43 73q17 29 44 29q16 0 34 -9q37 -19 94 -36.5t143 -17.5q108 0 198 48t125 207l8 36q8 36 23 80h-4q-72 -86 -129 -122t-130 -36q-198 0 -281.5 133.5t-83.5 279.5q0 260 160.5 464t372.5 204q72 0 150 -19t128 -97h4l12 36q20 60 67 60h158q50 0 50 -40 q0 -9 -3 -20l-226 -979q-54 -234 -198.5 -332.5t-415.5 -98.5q-115 0 -183.5 17t-150.5 61q-24 12 -24 36q0 18 15 43zM362 383q0 -89 39.5 -143.5t107.5 -54.5q70 0 151 91.5t117 245.5l37 158q0 96 -33.5 145t-133.5 49q-135 0 -210 -152t-75 -339zM405 1191q-7 11 -7 21 q0 28 45 55l232 140q45 27 76 27h37q30 0 62 -27l179 -153q23 -19 23 -39q0 -18 -19 -37l-22 -22q-22 -22 -43 -22q-18 0 -36 16l-170 145h-2l-250 -154q-24 -15 -42 -15q-22 0 -35 21z" />
<glyph unicode="&#x11e;" horiz-adv-x="1510" d="M100 588q0 363 200.5 621.5t601.5 258.5q180 0 311 -57.5t187 -149.5q16 -27 16 -50q0 -32 -33 -54l-124 -83q-15 -10 -30 -10q-32 0 -66 46q-50 66 -130 94t-152 28q-224 0 -346.5 -178t-122.5 -504q0 -151 73 -249.5t281 -98.5q93 0 171 31t141 79l38 164h-217 q-63 0 -63 45q0 9 3 20l27 118q15 65 90 65h434q62 0 62 -45q0 -9 -2 -20l-120 -521q-123 -72 -274.5 -122t-310.5 -50q-298 0 -471.5 153.5t-173.5 468.5zM600 1768q-3 11 -3 20q0 34 40 52l55 25q14 6 26 6q26 0 39 -34q18 -49 63.5 -85t131.5 -36q72 0 137 40t106 83 q33 34 58 34q11 0 21 -6l63 -42q19 -13 19 -32q0 -17 -16 -40q-76 -109 -169 -161t-248 -52q-131 0 -212 62t-111 166z" />
<glyph unicode="&#x11f;" horiz-adv-x="1192" d="M-18 -263l43 73q17 29 44 29q16 0 34 -9q37 -19 94 -36.5t143 -17.5q108 0 198 48t125 207l8 36q8 36 23 80h-4q-72 -86 -129 -122t-130 -36q-198 0 -281.5 133.5t-83.5 279.5q0 260 160.5 464t372.5 204q72 0 150 -19t128 -97h4l12 36q20 60 67 60h158q50 0 50 -40 q0 -9 -3 -20l-226 -979q-54 -234 -198.5 -332.5t-415.5 -98.5q-115 0 -183.5 17t-150.5 61q-24 12 -24 36q0 18 15 43zM362 383q0 -89 39.5 -143.5t107.5 -54.5q70 0 151 91.5t117 245.5l37 158q0 96 -33.5 145t-133.5 49q-135 0 -210 -152t-75 -339zM426 1365q-3 11 -3 21 q0 29 27 39l61 22q11 4 20 4q22 0 31 -25q23 -68 62 -98t118 -30q67 0 124 37t94 90q19 28 40 28q11 0 21 -7l72 -44q13 -8 13 -21q0 -16 -17 -39q-80 -110 -167 -161t-211 -51q-108 0 -183 59t-102 176z" />
<glyph unicode="&#x120;" horiz-adv-x="1510" d="M100 588q0 363 200.5 621.5t601.5 258.5q180 0 311 -57.5t187 -149.5q16 -27 16 -50q0 -32 -33 -54l-124 -83q-15 -10 -30 -10q-32 0 -66 46q-50 66 -130 94t-152 28q-224 0 -346.5 -178t-122.5 -504q0 -151 73 -249.5t281 -98.5q93 0 171 31t141 79l38 164h-217 q-63 0 -63 45q0 9 3 20l27 118q15 65 90 65h434q62 0 62 -45q0 -9 -2 -20l-120 -521q-123 -72 -274.5 -122t-310.5 -50q-298 0 -471.5 153.5t-173.5 468.5zM787 1601l26 114q17 75 87 75h152q56 0 56 -49q0 -11 -3 -26l-26 -114q-17 -75 -88 -75h-152q-56 0 -56 47 q0 13 4 28z" />
<glyph unicode="&#x121;" horiz-adv-x="1192" d="M-18 -263l43 73q17 29 44 29q16 0 34 -9q37 -19 94 -36.5t143 -17.5q108 0 198 48t125 207l8 36q8 36 23 80h-4q-72 -86 -129 -122t-130 -36q-198 0 -281.5 133.5t-83.5 279.5q0 260 160.5 464t372.5 204q72 0 150 -19t128 -97h4l12 36q20 60 67 60h158q50 0 50 -40 q0 -9 -3 -20l-226 -979q-54 -234 -198.5 -332.5t-415.5 -98.5q-115 0 -183.5 17t-150.5 61q-24 12 -24 36q0 18 15 43zM362 383q0 -89 39.5 -143.5t107.5 -54.5q70 0 151 91.5t117 245.5l37 158q0 96 -33.5 145t-133.5 49q-135 0 -210 -152t-75 -339zM597 1264l29 128 q14 60 74 60h160q49 0 49 -39q0 -10 -3 -21l-29 -128q-14 -60 -74 -60h-160q-49 0 -49 39q0 10 3 21z" />
<glyph unicode="&#x124;" horiz-adv-x="1442" d="M57 75l297 1284q17 75 87 75h152q56 0 56 -49q0 -11 -3 -26l-113 -489h538l113 489q17 75 87 75h152q56 0 56 -49q0 -11 -3 -26l-297 -1284q-17 -75 -87 -75h-152q-56 0 -56 49q0 11 3 26l127 547h-538l-127 -547q-17 -75 -87 -75h-152q-56 0 -56 49q0 11 3 26zM580 1589 q-4 10 -4 18q0 29 41 44l274 102q35 13 78 13h60q43 0 72 -13l233 -106q33 -15 33 -40q0 -13 -10 -30l-24 -41q-17 -30 -45 -30q-14 0 -30 7l-262 119h-2l-322 -122q-18 -7 -31 -7q-29 0 -40 30z" />
<glyph unicode="&#x125;" horiz-adv-x="1200" d="M30 60l313 1356q14 60 74 60h160q49 0 49 -39q0 -10 -3 -21l-97 -424q-9 -41 -23 -80h5q80 94 152.5 126t172.5 32q145 0 228 -107q50 -64 50 -176q0 -76 -23 -173l-128 -554q-14 -60 -74 -60h-160q-49 0 -49 39q0 10 3 21l111 482q33 142 33 216q0 36 -8 56 q-24 60 -107 60q-105 0 -186 -117t-130 -333l-83 -364q-14 -60 -74 -60h-160q-49 0 -49 39q0 10 3 21zM535 1597q-7 11 -7 21q0 28 45 55l232 140q45 27 76 27h37q30 0 62 -27l179 -153q23 -19 23 -39q0 -18 -19 -37l-22 -22q-22 -22 -43 -22q-18 0 -36 16l-170 145h-2 l-250 -154q-24 -15 -42 -15q-22 0 -35 21z" />
<glyph unicode="&#x127;" horiz-adv-x="1233" d="M62 60l258 1120h-91q-50 0 -50 35q0 7 2 15l23 100q12 50 72 50h91l8 36q14 60 74 60h160q49 0 49 -39q0 -10 -3 -21l-8 -36h343q50 0 50 -35q0 -7 -2 -15l-23 -100q-12 -50 -72 -50h-343l-41 -188q-9 -41 -23 -80h5q80 94 152.5 126t172.5 32q145 0 228 -107 q50 -64 50 -176q0 -76 -23 -173l-129 -554q-14 -60 -74 -60h-160q-49 0 -49 39q0 10 3 21l112 482q33 142 33 216q0 36 -8 56q-24 60 -107 60q-105 0 -186 -117t-130 -333l-84 -364q-14 -60 -74 -60h-160q-49 0 -49 39q0 10 3 21z" />
<glyph unicode="&#x128;" horiz-adv-x="612" d="M57 75l297 1284q17 75 87 75h152q56 0 56 -49q0 -11 -3 -26l-297 -1284q-17 -75 -87 -75h-152q-56 0 -56 49q0 11 3 26zM173 1591q-12 10 -12 23q0 18 19 41q53 65 109 97.5t146 32.5q75 0 158.5 -46t137.5 -46q42 0 71 18t51 43q26 29 46 29q10 0 19 -7l47 -39 q12 -10 12 -23q0 -18 -19 -41q-53 -65 -109 -97.5t-146 -32.5q-75 0 -158.5 46t-137.5 46q-42 0 -71 -18t-51 -43q-26 -29 -46 -29q-10 0 -19 7z" />
<glyph unicode="&#x129;" horiz-adv-x="552" d="M30 60l215 930q14 60 73 60h160q49 0 49 -41q0 -8 -2 -19l-215 -930q-14 -60 -74 -60h-160q-49 0 -49 39q0 10 3 21zM117 1253q38 70 94 106.5t138 36.5q66 0 130 -52t109 -52q31 0 49.5 10t42.5 47q22 33 43 33q9 0 17 -5l41 -27q13 -8 13 -24q0 -15 -12 -37 q-38 -70 -94 -106.5t-138 -36.5q-66 0 -130 52t-109 52q-31 0 -49.5 -10t-42.5 -47q-22 -33 -43 -33q-9 0 -17 5l-41 27q-13 8 -13 24q0 15 12 37z" />
<glyph unicode="&#x12a;" horiz-adv-x="612" d="M57 75l297 1284q17 75 87 75h152q56 0 56 -49q0 -11 -3 -26l-297 -1284q-17 -75 -87 -75h-152q-56 0 -56 49q0 11 3 26zM181 1594l16 70q14 60 79 60h614q53 0 53 -41q0 -8 -2 -19l-16 -70q-14 -60 -79 -60h-614q-53 0 -53 41q0 8 2 19z" />
<glyph unicode="&#x12c;" horiz-adv-x="612" d="M57 75l297 1284q17 75 87 75h152q56 0 56 -49q0 -11 -3 -26l-297 -1284q-17 -75 -87 -75h-152q-56 0 -56 49q0 11 3 26zM222 1768q-3 11 -3 20q0 34 40 52l55 25q14 6 26 6q26 0 39 -34q18 -49 63.5 -85t131.5 -36q72 0 137 40t106 83q33 34 58 34q11 0 21 -6l63 -42 q19 -13 19 -32q0 -17 -16 -40q-76 -109 -169 -161t-248 -52q-131 0 -212 62t-111 166z" />
<glyph unicode="&#x130;" horiz-adv-x="612" d="M57 75l297 1284q17 75 87 75h152q56 0 56 -49q0 -11 -3 -26l-297 -1284q-17 -75 -87 -75h-152q-56 0 -56 49q0 11 3 26zM409 1601l26 114q17 75 87 75h152q56 0 56 -49q0 -11 -3 -26l-26 -114q-17 -75 -88 -75h-152q-56 0 -56 47q0 13 4 28z" />
<glyph unicode="&#x131;" horiz-adv-x="552" d="M30 60l215 930q14 60 73 60h160q49 0 49 -41q0 -8 -2 -19l-215 -930q-14 -60 -74 -60h-160q-49 0 -49 39q0 10 3 21z" />
<glyph unicode="&#x134;" horiz-adv-x="947" d="M-48 97l50 134q12 31 39 31q21 0 51 -19q64 -41 136 -41q115 0 173 80.5t97 248.5l191 828q17 75 87 75h152q56 0 56 -49q0 -11 -3 -26l-187 -808q-85 -368 -225 -476.5t-362 -108.5q-141 0 -233 56q-28 17 -28 46q0 13 6 29zM500 1589q-4 10 -4 18q0 29 41 44l274 102 q35 13 78 13h60q43 0 72 -13l233 -106q33 -15 33 -40q0 -13 -10 -30l-24 -41q-17 -30 -45 -30q-14 0 -30 7l-262 119h-2l-322 -122q-18 -7 -31 -7q-29 0 -40 30z" />
<glyph unicode="&#x139;" horiz-adv-x="1162" d="M57 75l297 1284q17 75 87 75h162q47 0 47 -46q0 -12 -4 -29l-257 -1111h583q62 0 62 -45q0 -9 -2 -20l-27 -118q-15 -65 -90 -65h-805q-56 0 -56 49q0 11 3 26zM744 1604l102 134q36 47 120 47h176q40 0 40 -18q0 -15 -30 -43l-155 -146q-40 -38 -119 -38h-123 q-33 0 -33 19q0 16 22 45z" />
<glyph unicode="&#x13a;" horiz-adv-x="552" d="M30 60l273 1181q10 45 39 82l109 135q31 38 60 38h70q49 0 49 -41q0 -8 -2 -19l-318 -1376q-14 -60 -74 -60h-160q-49 0 -49 39q0 10 3 21zM407 1615l129 179q34 47 117 47h152q34 0 34 -17q0 -15 -25 -42l-173 -189q-34 -37 -110 -37h-117q-27 0 -27 17q0 15 20 42z" />
<glyph unicode="&#x13d;" horiz-adv-x="1162" d="M57 75l297 1284q17 75 87 75h162q47 0 47 -46q0 -12 -4 -29l-257 -1111h583q62 0 62 -45q0 -9 -2 -20l-27 -118q-15 -65 -90 -65h-805q-56 0 -56 49q0 11 3 26zM796 1224q21 29 42.5 80.5t30.5 89.5l5 22q14 60 74 60h160q48 0 48 -40q0 -9 -2 -20l-2 -9 q-27 -122 -80.5 -186t-85.5 -88q-40 -29 -67 -29q-11 0 -20 4l-98 55q-19 10 -19 27q0 15 14 34z" />
<glyph unicode="&#x13e;" horiz-adv-x="824" d="M30 60l273 1181q10 45 39 82l109 135q31 38 60 38h70q49 0 49 -41q0 -8 -2 -19l-318 -1376q-14 -60 -74 -60h-160q-49 0 -49 39q0 10 3 21zM661 1224q21 29 42.5 80.5t30.5 89.5l5 22q14 60 74 60h160q48 0 48 -40q0 -9 -2 -20l-2 -9q-27 -122 -80.5 -186t-85.5 -88 q-40 -29 -67 -29q-11 0 -20 4l-98 55q-19 10 -19 27q0 15 14 34z" />
<glyph unicode="&#x141;" horiz-adv-x="1244" d="M31 410l35 160q12 54 70 88l158 92l142 609q17 75 87 75h162q47 0 47 -45q0 -13 -4 -30l-68 -289q-14 -61 -33 -120h7l267 155q33 19 50 19q18 0 18 -21q0 -8 -2 -18l-36 -160q-12 -55 -70 -88l-292 -169l-98 -420h583q62 0 62 -45q0 -9 -2 -20l-27 -118q-15 -65 -90 -65 h-805q-57 0 -57 48q0 12 4 27l64 273q14 61 33 120h-7l-133 -78q-33 -19 -50 -19t-17 21q0 7 2 18z" />
<glyph unicode="&#x142;" horiz-adv-x="692" d="M27 480l36 158q10 45 61 77l143 90l101 436q11 47 39 82l109 135q31 38 60 38h70q50 0 50 -40q0 -9 -3 -20l-79 -340q-10 -43 -22 -80h4l140 88q27 17 40 17t13 -17q0 -7 -2 -16l-36 -158q-10 -44 -61 -76l-154 -96l-161 -698q-14 -60 -74 -60h-160q-49 0 -49 39 q0 10 3 21l94 407q10 43 22 80h-4l-129 -82q-27 -17 -40 -17t-13 16q0 7 2 16z" />
<glyph unicode="&#x143;" horiz-adv-x="1472" d="M57 75l297 1284q17 75 87 75h135q86 0 114 -70l329 -840h7q9 60 23 120l165 715q17 75 87 75h152q56 0 56 -49q0 -11 -3 -26l-297 -1284q-17 -75 -87 -75h-125q-86 0 -114 70l-335 856h-7q-9 -60 -23 -120l-169 -731q-17 -75 -87 -75h-152q-56 0 -56 49q0 11 3 26z M844 1604l102 134q36 47 120 47h176q40 0 40 -18q0 -15 -30 -43l-155 -146q-40 -38 -119 -38h-123q-33 0 -33 19q0 16 22 45z" />
<glyph unicode="&#x144;" horiz-adv-x="1200" d="M30 60l215 930q14 60 73 60h158q50 0 50 -39q0 -9 -3 -21l-19 -78h4q80 94 152.5 126t172.5 32q145 0 228 -107q50 -64 50 -176q0 -76 -23 -173l-128 -554q-14 -60 -74 -60h-160q-49 0 -49 39q0 10 3 21l111 482q33 142 33 216q0 36 -8 56q-24 60 -107 60 q-105 0 -186 -117t-130 -333l-83 -364q-14 -60 -74 -60h-160q-49 0 -49 39q0 10 3 21zM638 1209l129 179q34 47 117 47h152q34 0 34 -17q0 -15 -25 -42l-173 -189q-34 -37 -110 -37h-117q-27 0 -27 17q0 15 20 42z" />
<glyph unicode="&#x147;" horiz-adv-x="1472" d="M57 75l297 1284q17 75 87 75h135q86 0 114 -70l329 -840h7q9 60 23 120l165 715q17 75 87 75h152q56 0 56 -49q0 -11 -3 -26l-297 -1284q-17 -75 -87 -75h-125q-86 0 -114 70l-335 856h-7q-9 -60 -23 -120l-169 -731q-17 -75 -87 -75h-152q-56 0 -56 49q0 11 3 26z M614 1695l24 41q17 30 45 30q14 0 30 -7l262 -119h2l322 122q18 7 31 7q29 0 40 -30l21 -56q4 -10 4 -18q0 -29 -41 -44l-274 -102q-35 -13 -78 -13h-60q-43 0 -72 13l-233 106q-33 15 -33 40q0 13 10 30z" />
<glyph unicode="&#x148;" horiz-adv-x="1200" d="M30 60l215 930q14 60 73 60h158q50 0 50 -39q0 -9 -3 -21l-19 -78h4q80 94 152.5 126t172.5 32q145 0 228 -107q50 -64 50 -176q0 -76 -23 -173l-128 -554q-14 -60 -74 -60h-160q-49 0 -49 39q0 10 3 21l111 482q33 142 33 216q0 36 -8 56q-24 60 -107 60 q-105 0 -186 -117t-130 -333l-83 -364q-14 -60 -74 -60h-160q-49 0 -49 39q0 10 3 21zM480 1394l22 22q22 22 43 22q18 0 36 -16l170 -145h2l250 154q24 15 42 15q22 0 35 -21l28 -44q7 -11 7 -21q0 -28 -45 -55l-232 -140q-45 -27 -76 -27h-37q-30 0 -62 27l-179 153 q-23 19 -23 39q0 18 19 37z" />
<glyph unicode="&#x14b;" horiz-adv-x="1200" d="M30 60l215 930q14 60 73 60h158q50 0 50 -39q0 -9 -3 -21l-19 -78h4q80 94 152.5 126t172.5 32q145 0 228 -107q50 -64 50 -176q0 -76 -23 -173l-143 -618q-57 -248 -168 -332t-282 -84q-90 0 -141 15q-26 8 -26 32q0 10 5 24l37 106q10 29 41 29q6 0 13 -1q49 -9 67 -9 q73 0 113 65t68 185l119 516q33 142 33 216q0 36 -8 56q-24 60 -107 60q-105 0 -186 -117t-130 -333l-83 -364q-14 -60 -74 -60h-160q-49 0 -49 39q0 10 3 21z" />
<glyph unicode="&#x14c;" horiz-adv-x="1532" d="M104 587q0 370 213 625.5t563 255.5q300 0 469 -155.5t169 -465.5q0 -370 -213 -625.5t-563 -255.5q-300 0 -469 155.5t-169 465.5zM416 545q0 -160 85 -251.5t255 -91.5q200 0 325 188.5t125 498.5q0 160 -85 251.5t-255 91.5q-200 0 -325 -188.5t-125 -498.5zM537 1594 l16 70q14 60 79 60h614q53 0 53 -41q0 -8 -2 -19l-16 -70q-14 -60 -79 -60h-614q-53 0 -53 41q0 8 2 19z" />
<glyph unicode="&#x14d;" horiz-adv-x="1206" d="M58 412q0 225 166 441.5t466 216.5q260 0 360 -128.5t100 -303.5q0 -225 -166 -441.5t-466 -216.5q-260 0 -360 128.5t-100 303.5zM354 387q0 -100 48.5 -155.5t133.5 -55.5q125 0 221.5 128.5t96.5 358.5q0 100 -48.5 155.5t-133.5 55.5q-125 0 -221.5 -128.5 t-96.5 -358.5zM409 1276l15 66q12 50 71 50h538q51 0 51 -36q0 -6 -2 -14l-15 -66q-12 -50 -72 -50h-538q-50 0 -50 35q0 7 2 15z" />
<glyph unicode="&#x14e;" horiz-adv-x="1532" d="M104 587q0 370 213 625.5t563 255.5q300 0 469 -155.5t169 -465.5q0 -370 -213 -625.5t-563 -255.5q-300 0 -469 155.5t-169 465.5zM416 545q0 -160 85 -251.5t255 -91.5q200 0 325 188.5t125 498.5q0 160 -85 251.5t-255 91.5q-200 0 -325 -188.5t-125 -498.5zM578 1768 q-3 11 -3 20q0 34 40 52l55 25q14 6 26 6q26 0 39 -34q18 -49 63.5 -85t131.5 -36q72 0 137 40t106 83q33 34 58 34q11 0 21 -6l63 -42q19 -13 19 -32q0 -17 -16 -40q-76 -109 -169 -161t-248 -52q-131 0 -212 62t-111 166z" />
<glyph unicode="&#x14f;" horiz-adv-x="1206" d="M58 412q0 225 166 441.5t466 216.5q260 0 360 -128.5t100 -303.5q0 -225 -166 -441.5t-466 -216.5q-260 0 -360 128.5t-100 303.5zM354 387q0 -100 48.5 -155.5t133.5 -55.5q125 0 221.5 128.5t96.5 358.5q0 100 -48.5 155.5t-133.5 55.5q-125 0 -221.5 -128.5 t-96.5 -358.5zM424 1365q-3 11 -3 21q0 29 27 39l61 22q11 4 20 4q22 0 31 -25q23 -68 62 -98t118 -30q67 0 124 37t94 90q19 28 40 28q11 0 21 -7l72 -44q13 -8 13 -21q0 -16 -17 -39q-80 -110 -167 -161t-211 -51q-108 0 -183 59t-102 176z" />
<glyph unicode="&#x150;" horiz-adv-x="1532" d="M104 587q0 370 213 625.5t563 255.5q300 0 469 -155.5t169 -465.5q0 -370 -213 -625.5t-563 -255.5q-300 0 -469 155.5t-169 465.5zM416 545q0 -160 85 -251.5t255 -91.5q200 0 325 188.5t125 498.5q0 160 -85 251.5t-255 91.5q-200 0 -325 -188.5t-125 -498.5zM622 1604 l98 136q32 45 115 45h155q43 0 43 -17q0 -15 -31 -42l-168 -148q-43 -38 -102 -38h-103q-28 0 -28 18q0 16 21 46zM1042 1604l98 136q32 45 115 45h155q43 0 43 -17q0 -15 -31 -42l-168 -148q-43 -38 -102 -38h-103q-28 0 -28 18q0 16 21 46z" />
<glyph unicode="&#x151;" horiz-adv-x="1206" d="M58 412q0 225 166 441.5t466 216.5q260 0 360 -128.5t100 -303.5q0 -225 -166 -441.5t-466 -216.5q-260 0 -360 128.5t-100 303.5zM354 387q0 -100 48.5 -155.5t133.5 -55.5q125 0 221.5 128.5t96.5 358.5q0 100 -48.5 155.5t-133.5 55.5q-125 0 -221.5 -128.5 t-96.5 -358.5zM491 1218l79 166q24 51 108 51h135q26 0 26 -15q0 -17 -33 -54l-138 -174q-33 -42 -103 -42h-64q-24 0 -24 22q0 17 14 46zM832 1218l79 166q24 51 108 51h135q26 0 26 -15q0 -17 -33 -54l-138 -174q-33 -42 -103 -42h-64q-24 0 -24 22q0 17 14 46z" />
<glyph unicode="&#x154;" horiz-adv-x="1428" d="M57 75l297 1284q17 75 87 75h410q301 0 428.5 -94.5t127.5 -262.5q0 -160 -130.5 -279.5t-368.5 -150.5v-2q79 -33 114 -96t56 -116l134 -347q9 -23 9 -40q0 -46 -67 -46h-153q-55 0 -76 59l-119 337q-27 77 -92.5 130t-153.5 53h-94l-117 -504q-17 -75 -87 -75h-152 q-56 0 -56 49q0 11 3 26zM523 827h209q144 0 266.5 56t122.5 166q0 88 -86.5 114.5t-240.5 26.5h-187zM763 1604l102 134q36 47 120 47h176q40 0 40 -18q0 -15 -30 -43l-155 -146q-40 -38 -119 -38h-123q-33 0 -33 19q0 16 22 45z" />
<glyph unicode="&#x155;" horiz-adv-x="786" d="M30 60l215 930q14 60 73 60h154q50 0 50 -40q0 -9 -3 -20l-28 -123h4q42 85 114 144t160 59q58 0 92 -14q29 -12 16 -48l-44 -119q-11 -29 -36 -29q-10 0 -23 5q-24 9 -54 9q-90 0 -187.5 -136t-156.5 -391l-66 -287q-14 -60 -74 -60h-160q-49 0 -49 39q0 10 3 21z M500 1209l129 179q34 47 117 47h152q34 0 34 -17q0 -15 -25 -42l-173 -189q-34 -37 -110 -37h-117q-27 0 -27 17q0 15 20 42z" />
<glyph unicode="&#x158;" horiz-adv-x="1428" d="M57 75l297 1284q17 75 87 75h410q301 0 428.5 -94.5t127.5 -262.5q0 -160 -130.5 -279.5t-368.5 -150.5v-2q79 -33 114 -96t56 -116l134 -347q9 -23 9 -40q0 -46 -67 -46h-153q-55 0 -76 59l-119 337q-27 77 -92.5 130t-153.5 53h-94l-117 -504q-17 -75 -87 -75h-152 q-56 0 -56 49q0 11 3 26zM523 827h209q144 0 266.5 56t122.5 166q0 88 -86.5 114.5t-240.5 26.5h-187zM533 1695l24 41q17 30 45 30q14 0 30 -7l262 -119h2l322 122q18 7 31 7q29 0 40 -30l21 -56q4 -10 4 -18q0 -29 -41 -44l-274 -102q-35 -13 -78 -13h-60q-43 0 -72 13 l-233 106q-33 15 -33 40q0 13 10 30z" />
<glyph unicode="&#x159;" horiz-adv-x="786" d="M30 60l215 930q14 60 73 60h154q50 0 50 -40q0 -9 -3 -20l-28 -123h4q42 85 114 144t160 59q58 0 92 -14q29 -12 16 -48l-44 -119q-11 -29 -36 -29q-10 0 -23 5q-24 9 -54 9q-90 0 -187.5 -136t-156.5 -391l-66 -287q-14 -60 -74 -60h-160q-49 0 -49 39q0 10 3 21z M342 1394l22 22q22 22 43 22q18 0 36 -16l170 -145h2l250 154q24 15 42 15q22 0 35 -21l28 -44q7 -11 7 -21q0 -28 -45 -55l-232 -140q-45 -27 -76 -27h-37q-30 0 -62 27l-179 153q-23 19 -23 39q0 18 19 37z" />
<glyph unicode="&#x15a;" horiz-adv-x="1299" d="M64 212l87 107q19 23 45 23q29 0 66 -28q56 -42 143.5 -77t189.5 -35t166.5 27t92 70t27.5 98q0 39 -20.5 76t-57 57t-83.5 37l-117 45q-57 22 -135 60q-63 31 -106.5 63.5t-82.5 108.5t-39 191q0 127 85.5 242.5t212 153t261.5 37.5q136 0 253.5 -37t175.5 -94 q35 -35 35 -64q0 -19 -14 -35l-88 -100q-21 -24 -47 -24q-29 0 -63 27q-51 41 -122 66t-156 25t-134.5 -18t-79 -60t-29.5 -86q0 -35 12 -67.5t37 -59.5t71 -49q64 -30 147 -54.5t136 -46.5q78 -32 134.5 -84.5t83 -126.5t26.5 -164q0 -124 -65.5 -219t-198.5 -163t-354 -68 q-178 0 -280.5 33.5t-194.5 114.5q-35 31 -35 60q0 19 15 38zM689 1604l102 134q36 47 120 47h176q40 0 40 -18q0 -15 -30 -43l-155 -146q-40 -38 -119 -38h-123q-33 0 -33 19q0 16 22 45z" />
<glyph unicode="&#x15b;" horiz-adv-x="1005" d="M21 149l54 90q12 21 35 21q21 0 50 -18q54 -34 129 -50t139 -16q66 0 107 19t57 46t16 61q0 24 -9 44t-32 36t-54 28l-95 38l-77 34q-70 30 -107.5 68t-55 84t-17.5 115q0 101 60.5 181t157.5 110t235 30q86 0 167 -26t131 -57q35 -22 35 -48q0 -17 -14 -36l-63 -82 q-13 -17 -34 -17q-23 0 -56 20q-30 18 -83 34t-102 16q-35 0 -71 -8t-61 -34.5t-25 -63.5q0 -24 7 -44t29.5 -41t48.5 -32q43 -18 84 -33t91 -38q67 -31 108 -70t60 -85.5t19 -112.5q0 -99 -71.5 -186.5t-173 -116.5t-219.5 -29q-141 0 -225 19.5t-156 72.5q-29 21 -29 46 q0 15 10 31zM524 1209l129 179q34 47 117 47h152q34 0 34 -17q0 -15 -25 -42l-173 -189q-34 -37 -110 -37h-117q-27 0 -27 17q0 15 20 42z" />
<glyph unicode="&#x15c;" horiz-adv-x="1299" d="M64 212l87 107q19 23 45 23q29 0 66 -28q56 -42 143.5 -77t189.5 -35t166.5 27t92 70t27.5 98q0 39 -20.5 76t-57 57t-83.5 37l-117 45q-57 22 -135 60q-63 31 -106.5 63.5t-82.5 108.5t-39 191q0 127 85.5 242.5t212 153t261.5 37.5q136 0 253.5 -37t175.5 -94 q35 -35 35 -64q0 -19 -14 -35l-88 -100q-21 -24 -47 -24q-29 0 -63 27q-51 41 -122 66t-156 25t-134.5 -18t-79 -60t-29.5 -86q0 -35 12 -67.5t37 -59.5t71 -49q64 -30 147 -54.5t136 -46.5q78 -32 134.5 -84.5t83 -126.5t26.5 -164q0 -124 -65.5 -219t-198.5 -163t-354 -68 q-178 0 -280.5 33.5t-194.5 114.5q-35 31 -35 60q0 19 15 38zM440 1589q-4 10 -4 18q0 29 41 44l274 102q35 13 78 13h60q43 0 72 -13l233 -106q33 -15 33 -40q0 -13 -10 -30l-24 -41q-17 -30 -45 -30q-14 0 -30 7l-262 119h-2l-322 -122q-18 -7 -31 -7q-29 0 -40 30z" />
<glyph unicode="&#x15d;" horiz-adv-x="1005" d="M21 149l54 90q12 21 35 21q21 0 50 -18q54 -34 129 -50t139 -16q66 0 107 19t57 46t16 61q0 24 -9 44t-32 36t-54 28l-95 38l-77 34q-70 30 -107.5 68t-55 84t-17.5 115q0 101 60.5 181t157.5 110t235 30q86 0 167 -26t131 -57q35 -22 35 -48q0 -17 -14 -36l-63 -82 q-13 -17 -34 -17q-23 0 -56 20q-30 18 -83 34t-102 16q-35 0 -71 -8t-61 -34.5t-25 -63.5q0 -24 7 -44t29.5 -41t48.5 -32q43 -18 84 -33t91 -38q67 -31 108 -70t60 -85.5t19 -112.5q0 -99 -71.5 -186.5t-173 -116.5t-219.5 -29q-141 0 -225 19.5t-156 72.5q-29 21 -29 46 q0 15 10 31zM327 1191q-7 11 -7 21q0 28 45 55l232 140q45 27 76 27h37q30 0 62 -27l179 -153q23 -19 23 -39q0 -18 -19 -37l-22 -22q-22 -22 -43 -22q-18 0 -36 16l-170 145h-2l-250 -154q-24 -15 -42 -15q-22 0 -35 21z" />
<glyph unicode="&#x160;" horiz-adv-x="1299" d="M64 212l87 107q19 23 45 23q29 0 66 -28q56 -42 143.5 -77t189.5 -35t166.5 27t92 70t27.5 98q0 39 -20.5 76t-57 57t-83.5 37l-117 45q-57 22 -135 60q-63 31 -106.5 63.5t-82.5 108.5t-39 191q0 127 85.5 242.5t212 153t261.5 37.5q136 0 253.5 -37t175.5 -94 q35 -35 35 -64q0 -19 -14 -35l-88 -100q-21 -24 -47 -24q-29 0 -63 27q-51 41 -122 66t-156 25t-134.5 -18t-79 -60t-29.5 -86q0 -35 12 -67.5t37 -59.5t71 -49q64 -30 147 -54.5t136 -46.5q78 -32 134.5 -84.5t83 -126.5t26.5 -164q0 -124 -65.5 -219t-198.5 -163t-354 -68 q-178 0 -280.5 33.5t-194.5 114.5q-35 31 -35 60q0 19 15 38zM459 1695l24 41q17 30 45 30q14 0 30 -7l262 -119h2l322 122q18 7 31 7q29 0 40 -30l21 -56q4 -10 4 -18q0 -29 -41 -44l-274 -102q-35 -13 -78 -13h-60q-43 0 -72 13l-233 106q-33 15 -33 40q0 13 10 30z" />
<glyph unicode="&#x161;" horiz-adv-x="1005" d="M21 149l54 90q12 21 35 21q21 0 50 -18q54 -34 129 -50t139 -16q66 0 107 19t57 46t16 61q0 24 -9 44t-32 36t-54 28l-95 38l-77 34q-70 30 -107.5 68t-55 84t-17.5 115q0 101 60.5 181t157.5 110t235 30q86 0 167 -26t131 -57q35 -22 35 -48q0 -17 -14 -36l-63 -82 q-13 -17 -34 -17q-23 0 -56 20q-30 18 -83 34t-102 16q-35 0 -71 -8t-61 -34.5t-25 -63.5q0 -24 7 -44t29.5 -41t48.5 -32q43 -18 84 -33t91 -38q67 -31 108 -70t60 -85.5t19 -112.5q0 -99 -71.5 -186.5t-173 -116.5t-219.5 -29q-141 0 -225 19.5t-156 72.5q-29 21 -29 46 q0 15 10 31zM366 1394l22 22q22 22 43 22q18 0 36 -16l170 -145h2l250 154q24 15 42 15q22 0 35 -21l28 -44q7 -11 7 -21q0 -28 -45 -55l-232 -140q-45 -27 -76 -27h-37q-30 0 -62 27l-179 153q-23 19 -23 39q0 18 19 37z" />
<glyph unicode="&#x164;" horiz-adv-x="1246" d="M201 1243l29 126q15 65 90 65h1028q62 0 62 -45q0 -9 -2 -20l-29 -126q-15 -65 -90 -65h-368l-259 -1123q-13 -55 -63 -55h-192q-40 0 -40 35q0 9 3 20l259 1123h-368q-63 0 -63 45q0 9 3 20zM501 1695l24 41q17 30 45 30q14 0 30 -7l262 -119h2l322 122q18 7 31 7 q29 0 40 -30l21 -56q4 -10 4 -18q0 -29 -41 -44l-274 -102q-35 -13 -78 -13h-60q-43 0 -72 13l-233 106q-33 15 -33 40q0 13 10 30z" />
<glyph unicode="&#x165;" horiz-adv-x="858" d="M130 350l115 500h-68q-49 0 -49 35q0 7 2 15l23 100q12 50 70 50h68l8 35q10 45 40 82l109 135q30 38 60 38h70q49 0 49 -41q0 -8 -2 -19l-54 -230h162q50 0 50 -36q0 -6 -2 -14l-23 -100q-12 -50 -71 -50h-162l-114 -496q-15 -64 -15 -109q0 -16 2 -31q8 -51 59 -51 q31 0 69 7.5t63 17.5q36 15 40 -23l16 -114v-6q0 -29 -37 -44q-36 -15 -100 -24.5t-122 -9.5q-184 0 -241 101q-33 59 -33 143q0 63 18 139zM695 1224q21 29 42.5 80.5t30.5 89.5l5 22q14 60 74 60h160q48 0 48 -40q0 -9 -2 -20l-2 -9q-27 -122 -80.5 -186t-85.5 -88 q-40 -29 -67 -29q-11 0 -20 4l-98 55q-19 10 -19 27q0 15 14 34z" />
<glyph unicode="&#x168;" horiz-adv-x="1422" d="M178 597l180 782q13 55 83 55h152q59 0 59 -39q0 -7 -2 -16l-178 -772q-33 -142 -33 -228q0 -76 26 -109q55 -68 172 -68q101 0 199.5 82.5t153.5 322.5l178 772q13 55 83 55h152q59 0 59 -39q0 -7 -2 -16l-180 -782q-84 -364 -238 -497.5t-435 -133.5q-241 0 -373 148 q-84 94 -84 263q0 97 28 220zM578 1591q-12 10 -12 23q0 18 19 41q53 65 109 97.5t146 32.5q75 0 158.5 -46t137.5 -46q42 0 71 18t51 43q26 29 46 29q10 0 19 -7l47 -39q12 -10 12 -23q0 -18 -19 -41q-53 -65 -109 -97.5t-146 -32.5q-75 0 -158.5 46t-137.5 46 q-42 0 -71 -18t-51 -43q-26 -29 -46 -29q-10 0 -19 7z" />
<glyph unicode="&#x169;" horiz-adv-x="1194" d="M115 436l128 554q14 60 73 60h160q49 0 49 -41q0 -8 -2 -19l-112 -482q-33 -141 -33 -215q0 -37 8 -57q25 -60 105 -60q101 0 182.5 119t132.5 340l81 355q14 60 73 60h160q49 0 49 -41q0 -8 -2 -19l-215 -930q-14 -60 -74 -60h-158q-49 0 -49 39q0 9 3 21l21 87h-4 q-80 -94 -152.5 -130.5t-172.5 -36.5q-142 0 -224 107q-50 64 -50 175q0 76 23 174zM437 1253q38 70 94 106.5t138 36.5q66 0 130 -52t109 -52q31 0 49.5 10t42.5 47q22 33 43 33q9 0 17 -5l41 -27q13 -8 13 -24q0 -15 -12 -37q-38 -70 -94 -106.5t-138 -36.5q-66 0 -130 52 t-109 52q-31 0 -49.5 -10t-42.5 -47q-22 -33 -43 -33q-9 0 -17 5l-41 27q-13 8 -13 24q0 15 12 37z" />
<glyph unicode="&#x16a;" horiz-adv-x="1422" d="M178 597l180 782q13 55 83 55h152q59 0 59 -39q0 -7 -2 -16l-178 -772q-33 -142 -33 -228q0 -76 26 -109q55 -68 172 -68q101 0 199.5 82.5t153.5 322.5l178 772q13 55 83 55h152q59 0 59 -39q0 -7 -2 -16l-180 -782q-84 -364 -238 -497.5t-435 -133.5q-241 0 -373 148 q-84 94 -84 263q0 97 28 220zM586 1594l16 70q14 60 79 60h614q53 0 53 -41q0 -8 -2 -19l-16 -70q-14 -60 -79 -60h-614q-53 0 -53 41q0 8 2 19z" />
<glyph unicode="&#x16b;" horiz-adv-x="1194" d="M115 436l128 554q14 60 73 60h160q49 0 49 -41q0 -8 -2 -19l-112 -482q-33 -141 -33 -215q0 -37 8 -57q25 -60 105 -60q101 0 182.5 119t132.5 340l81 355q14 60 73 60h160q49 0 49 -41q0 -8 -2 -19l-215 -930q-14 -60 -74 -60h-158q-49 0 -49 39q0 9 3 21l21 87h-4 q-80 -94 -152.5 -130.5t-172.5 -36.5q-142 0 -224 107q-50 64 -50 175q0 76 23 174zM442 1276l15 66q12 50 71 50h538q51 0 51 -36q0 -6 -2 -14l-15 -66q-12 -50 -72 -50h-538q-50 0 -50 35q0 7 2 15z" />
<glyph unicode="&#x16c;" horiz-adv-x="1422" d="M178 597l180 782q13 55 83 55h152q59 0 59 -39q0 -7 -2 -16l-178 -772q-33 -142 -33 -228q0 -76 26 -109q55 -68 172 -68q101 0 199.5 82.5t153.5 322.5l178 772q13 55 83 55h152q59 0 59 -39q0 -7 -2 -16l-180 -782q-84 -364 -238 -497.5t-435 -133.5q-241 0 -373 148 q-84 94 -84 263q0 97 28 220zM627 1768q-3 11 -3 20q0 34 40 52l55 25q14 6 26 6q26 0 39 -34q18 -49 63.5 -85t131.5 -36q72 0 137 40t106 83q33 34 58 34q11 0 21 -6l63 -42q19 -13 19 -32q0 -17 -16 -40q-76 -109 -169 -161t-248 -52q-131 0 -212 62t-111 166z" />
<glyph unicode="&#x16d;" horiz-adv-x="1194" d="M115 436l128 554q14 60 73 60h160q49 0 49 -41q0 -8 -2 -19l-112 -482q-33 -141 -33 -215q0 -37 8 -57q25 -60 105 -60q101 0 182.5 119t132.5 340l81 355q14 60 73 60h160q49 0 49 -41q0 -8 -2 -19l-215 -930q-14 -60 -74 -60h-158q-49 0 -49 39q0 9 3 21l21 87h-4 q-80 -94 -152.5 -130.5t-172.5 -36.5q-142 0 -224 107q-50 64 -50 175q0 76 23 174zM457 1365q-3 11 -3 21q0 29 27 39l61 22q11 4 20 4q22 0 31 -25q23 -68 62 -98t118 -30q67 0 124 37t94 90q19 28 40 28q11 0 21 -7l72 -44q13 -8 13 -21q0 -16 -17 -39 q-80 -110 -167 -161t-211 -51q-108 0 -183 59t-102 176z" />
<glyph unicode="&#x16e;" horiz-adv-x="1422" d="M178 597l180 782q13 55 83 55h152q59 0 59 -39q0 -7 -2 -16l-178 -772q-33 -142 -33 -228q0 -76 26 -109q55 -68 172 -68q101 0 199.5 82.5t153.5 322.5l178 772q13 55 83 55h152q59 0 59 -39q0 -7 -2 -16l-180 -782q-84 -364 -238 -497.5t-435 -133.5q-241 0 -373 148 q-84 94 -84 263q0 97 28 220zM797 1707q0 77 53.5 127.5t133.5 50.5t133.5 -51.5t53.5 -126.5t-53.5 -126.5t-133.5 -51.5t-133.5 50.5t-53.5 127.5zM889 1707q0 -38 26.5 -64t68.5 -26t68.5 26t26.5 64t-26.5 64t-68.5 26t-68.5 -26t-26.5 -64z" />
<glyph unicode="&#x16f;" horiz-adv-x="1194" d="M115 436l128 554q14 60 73 60h160q49 0 49 -41q0 -8 -2 -19l-112 -482q-33 -141 -33 -215q0 -37 8 -57q25 -60 105 -60q101 0 182.5 119t132.5 340l81 355q14 60 73 60h160q49 0 49 -41q0 -8 -2 -19l-215 -930q-14 -60 -74 -60h-158q-49 0 -49 39q0 9 3 21l21 87h-4 q-80 -94 -152.5 -130.5t-172.5 -36.5q-142 0 -224 107q-50 64 -50 175q0 76 23 174zM547 1313q0 77 55 131.5t134 54.5t134 -54.5t55 -131.5t-55 -131.5t-134 -54.5t-134 54.5t-55 131.5zM642 1313q0 -40 27 -67t67 -27t67 27t27 67t-27 67t-67 27t-67 -27t-27 -67z" />
<glyph unicode="&#x170;" horiz-adv-x="1422" d="M178 597l180 782q13 55 83 55h152q59 0 59 -39q0 -7 -2 -16l-178 -772q-33 -142 -33 -228q0 -76 26 -109q55 -68 172 -68q101 0 199.5 82.5t153.5 322.5l178 772q13 55 83 55h152q59 0 59 -39q0 -7 -2 -16l-180 -782q-84 -364 -238 -497.5t-435 -133.5q-241 0 -373 148 q-84 94 -84 263q0 97 28 220zM672 1604l98 136q32 45 115 45h155q43 0 43 -17q0 -15 -31 -42l-168 -148q-43 -38 -102 -38h-103q-28 0 -28 18q0 16 21 46zM1092 1604l98 136q32 45 115 45h155q43 0 43 -17q0 -15 -31 -42l-168 -148q-43 -38 -102 -38h-103q-28 0 -28 18 q0 16 21 46z" />
<glyph unicode="&#x171;" horiz-adv-x="1194" d="M115 436l128 554q14 60 73 60h160q49 0 49 -41q0 -8 -2 -19l-112 -482q-33 -141 -33 -215q0 -37 8 -57q25 -60 105 -60q101 0 182.5 119t132.5 340l81 355q14 60 73 60h160q49 0 49 -41q0 -8 -2 -19l-215 -930q-14 -60 -74 -60h-158q-49 0 -49 39q0 9 3 21l21 87h-4 q-80 -94 -152.5 -130.5t-172.5 -36.5q-142 0 -224 107q-50 64 -50 175q0 76 23 174zM525 1218l79 166q24 51 108 51h135q26 0 26 -15q0 -17 -33 -54l-138 -174q-33 -42 -103 -42h-64q-24 0 -24 22q0 17 14 46zM866 1218l79 166q24 51 108 51h135q26 0 26 -15q0 -17 -33 -54 l-138 -174q-33 -42 -103 -42h-64q-24 0 -24 22q0 17 14 46z" />
<glyph unicode="&#x174;" horiz-adv-x="2022" d="M238 1354v7q0 73 64 73h170q47 0 48 -66l8 -786q1 -61 1 -94q0 -16 -1 -26q0 -29 -11 -99h5q21 70 34.5 106.5t56.5 118.5l401 772q38 74 101 74h184q63 0 67 -74l45 -772q3 -49 3 -82q0 -23 -2 -38q-3 -35 -14 -105h5q21 70 41 113l48 106l372 786q31 66 78 66h200 q43 0 43 -32q0 -18 -15 -48l-631 -1257q-49 -97 -116 -97h-175q-58 0 -63 96l-46 838q-3 51 -3 75v15q2 19 10 75h-2q-18 -56 -26.5 -77.5t-42.5 -87.5l-434 -838q-50 -96 -107 -96h-175q-68 0 -72 97zM870 1589q-4 10 -4 18q0 29 41 44l274 102q35 13 78 13h60q43 0 72 -13 l233 -106q33 -15 33 -40q0 -13 -10 -30l-24 -41q-17 -30 -45 -30q-14 0 -30 7l-262 119h-2l-322 -122q-18 -7 -31 -7q-29 0 -40 30z" />
<glyph unicode="&#x175;" horiz-adv-x="1604" d="M146 972v10q0 68 51 68h157q48 0 49 -51l-1 -586q0 -57 -1.5 -101t-6.5 -74h6q9 30 27.5 75t44.5 100l278 586q24 51 71 51h182q48 0 49 -51l6 -586v-36q0 -34 -1 -64q-2 -45 -7 -75h6q9 30 28 74l44 101l271 586q24 51 71 51h181q32 0 32 -26q0 -19 -17 -52l-469 -905 q-35 -67 -88 -67h-181q-57 0 -58 67l-8 593v36q0 32 1 50q2 27 8 65h-4q-11 -38 -21.5 -65t-39.5 -86l-282 -593q-32 -67 -88 -67h-181q-54 0 -58 67zM641 1191q-7 11 -7 21q0 28 45 55l232 140q45 27 76 27h37q30 0 62 -27l179 -153q23 -19 23 -39q0 -18 -19 -37l-22 -22 q-22 -22 -43 -22q-18 0 -36 16l-170 145h-2l-250 -154q-24 -15 -42 -15q-22 0 -35 21z" />
<glyph unicode="&#x176;" horiz-adv-x="1368" d="M242 1348q-7 21 -7 36q0 50 74 50h145q52 0 76 -69l127 -371l35 -108q19 -58 19 -138h4q19 71 63 130l91 116l299 371q56 69 108 69h205q57 0 57 -29q0 -21 -30 -57l-677 -823l-108 -470q-13 -55 -83 -55h-152q-59 0 -59 39q0 7 2 16l108 470zM543 1589q-4 10 -4 18 q0 29 41 44l274 102q35 13 78 13h60q43 0 72 -13l233 -106q33 -15 33 -40q0 -13 -10 -30l-24 -41q-17 -30 -45 -30q-14 0 -30 7l-262 119h-2l-322 -122q-18 -7 -31 -7q-29 0 -40 30z" />
<glyph unicode="&#x177;" horiz-adv-x="1194" d="M20 -270l49 78q17 28 43 28q14 0 30 -8q68 -35 116 -43.5t114 -8.5q105 0 179 44.5t123 255.5q10 44 23 80h-4q-80 -94 -152.5 -130.5t-172.5 -36.5q-142 0 -224 107q-50 64 -50 175q0 76 23 174l126 545q14 60 73 60h160q50 0 50 -40q0 -9 -3 -20l-112 -482 q-31 -133 -31 -205q0 -37 8 -58q25 -60 105 -60q101 0 183 119.5t130 330.5l81 355q14 60 73 60h160q50 0 50 -40q0 -9 -3 -20l-228 -979q-53 -229 -194.5 -330t-402.5 -101q-63 0 -145.5 10.5t-160.5 52.5q-31 16 -31 44q0 19 15 43zM435 1191q-7 11 -7 21q0 28 45 55 l232 140q45 27 76 27h37q30 0 62 -27l179 -153q23 -19 23 -39q0 -18 -19 -37l-22 -22q-22 -22 -43 -22q-18 0 -36 16l-170 145h-2l-250 -154q-24 -15 -42 -15q-22 0 -35 21z" />
<glyph unicode="&#x178;" horiz-adv-x="1368" d="M242 1348q-7 21 -7 36q0 50 74 50h145q52 0 76 -69l127 -371l35 -108q19 -58 19 -138h4q19 71 63 130l91 116l299 371q56 69 108 69h205q57 0 57 -29q0 -21 -30 -57l-677 -823l-108 -470q-13 -55 -83 -55h-152q-59 0 -59 39q0 7 2 16l108 470zM534 1605l24 106 q17 75 87 75h152q56 0 56 -49q0 -11 -3 -26l-24 -106q-17 -75 -88 -75h-152q-56 0 -56 47q0 13 4 28zM1042 1605l24 106q17 75 87 75h152q56 0 56 -49q0 -11 -3 -26l-24 -106q-17 -75 -88 -75h-152q-56 0 -56 47q0 13 4 28z" />
<glyph unicode="&#x179;" horiz-adv-x="1252" d="M-44 65l19 82q17 72 83 143l836 894l2 7q-61 -5 -121 -5h-445q-62 0 -62 45q0 9 2 20l27 118q15 65 90 65h912q63 0 63 -45q0 -9 -3 -20l-15 -67q-12 -55 -59 -105l-887 -947l-2 -7q61 5 121 5h536q63 0 63 -45q0 -9 -3 -20l-27 -118q-15 -65 -90 -65h-980q-62 0 -62 45 q0 9 2 20zM735 1604l102 134q36 47 120 47h176q40 0 40 -18q0 -15 -30 -43l-155 -146q-40 -38 -119 -38h-123q-33 0 -33 19q0 16 22 45z" />
<glyph unicode="&#x17a;" horiz-adv-x="964" d="M-56 50l17 76q11 49 66 108l574 616l1 4q-41 -4 -81 -4h-309q-50 0 -50 36q0 6 2 14l7 32q26 118 87 118h692q51 0 51 -36q0 -6 -2 -14l-16 -70q-12 -54 -68 -114l-573 -616l-1 -4q54 4 81 4h356q51 0 51 -36q0 -6 -2 -14l-23 -100q-12 -50 -72 -50h-740q-50 0 -50 36 q0 6 2 14zM519 1209l129 179q34 47 117 47h152q34 0 34 -17q0 -15 -25 -42l-173 -189q-34 -37 -110 -37h-117q-27 0 -27 17q0 15 20 42z" />
<glyph unicode="&#x17b;" horiz-adv-x="1252" d="M-44 65l19 82q17 72 83 143l836 894l2 7q-61 -5 -121 -5h-445q-62 0 -62 45q0 9 2 20l27 118q15 65 90 65h912q63 0 63 -45q0 -9 -3 -20l-15 -67q-12 -55 -59 -105l-887 -947l-2 -7q61 5 121 5h536q63 0 63 -45q0 -9 -3 -20l-27 -118q-15 -65 -90 -65h-980q-62 0 -62 45 q0 9 2 20zM730 1601l26 114q17 75 87 75h152q56 0 56 -49q0 -11 -3 -26l-26 -114q-17 -75 -88 -75h-152q-56 0 -56 47q0 13 4 28z" />
<glyph unicode="&#x17c;" horiz-adv-x="964" d="M-56 50l17 76q11 49 66 108l574 616l1 4q-41 -4 -81 -4h-309q-50 0 -50 36q0 6 2 14l7 32q26 118 87 118h692q51 0 51 -36q0 -6 -2 -14l-16 -70q-12 -54 -68 -114l-573 -616l-1 -4q54 4 81 4h356q51 0 51 -36q0 -6 -2 -14l-23 -100q-12 -50 -72 -50h-740q-50 0 -50 36 q0 6 2 14zM514 1264l29 128q14 60 74 60h160q49 0 49 -39q0 -10 -3 -21l-29 -128q-14 -60 -74 -60h-160q-49 0 -49 39q0 10 3 21z" />
<glyph unicode="&#x17d;" horiz-adv-x="1252" d="M-44 65l19 82q17 72 83 143l836 894l2 7q-61 -5 -121 -5h-445q-62 0 -62 45q0 9 2 20l27 118q15 65 90 65h912q63 0 63 -45q0 -9 -3 -20l-15 -67q-12 -55 -59 -105l-887 -947l-2 -7q61 5 121 5h536q63 0 63 -45q0 -9 -3 -20l-27 -118q-15 -65 -90 -65h-980q-62 0 -62 45 q0 9 2 20zM505 1695l24 41q17 30 45 30q14 0 30 -7l262 -119h2l322 122q18 7 31 7q29 0 40 -30l21 -56q4 -10 4 -18q0 -29 -41 -44l-274 -102q-35 -13 -78 -13h-60q-43 0 -72 13l-233 106q-33 15 -33 40q0 13 10 30z" />
<glyph unicode="&#x17e;" horiz-adv-x="964" d="M-56 50l17 76q11 49 66 108l574 616l1 4q-41 -4 -81 -4h-309q-50 0 -50 36q0 6 2 14l7 32q26 118 87 118h692q51 0 51 -36q0 -6 -2 -14l-16 -70q-12 -54 -68 -114l-573 -616l-1 -4q54 4 81 4h356q51 0 51 -36q0 -6 -2 -14l-23 -100q-12 -50 -72 -50h-740q-50 0 -50 36 q0 6 2 14zM361 1394l22 22q22 22 43 22q18 0 36 -16l170 -145h2l250 154q24 15 42 15q22 0 35 -21l28 -44q7 -11 7 -21q0 -28 -45 -55l-232 -140q-45 -27 -76 -27h-37q-30 0 -62 27l-179 153q-23 19 -23 39q0 18 19 37z" />
<glyph unicode="&#x17f;" horiz-adv-x="652" d="M-62 -340l353 1530q38 163 142.5 234.5t274.5 71.5q54 0 101 -11.5t85 -26.5q24 -10 24 -31q0 -10 -5 -22l-45 -108q-10 -25 -49 -13q-29 9 -63 12.5t-56 3.5q-72 0 -101 -57.5t-51 -152.5l-330 -1430q-14 -60 -74 -60h-160q-49 0 -49 39q0 10 3 21z" />
<glyph unicode="&#x186;" horiz-adv-x="1404" d="M116 183q-40 66 17 104l124 83q46 31 96 -36q50 -66 125 -99t147 -33q211 0 335 192t124 490q0 151 -78 249.5t-267 98.5q-108 0 -180 -41.5t-113 -98.5q-53 -73 -100 -47l-127 70q-62 34 -18 98q76 110 217 182.5t342 72.5q300 0 468 -153.5t168 -468.5 q0 -348 -202 -614t-590 -266q-180 0 -306 62.5t-182 154.5z" />
<glyph unicode="&#x189;" horiz-adv-x="1452" d="M66 677l28 118q15 65 90 65h105l115 499q17 75 87 75h299q358 0 514 -165t156 -438q0 -360 -227 -595.5t-694 -235.5h-379q-56 0 -56 49q0 11 3 26l124 537h-105q-63 0 -62 45q0 9 2 20zM439 248h138q301 0 436 160t135 444q0 153 -73.5 244.5t-340.5 91.5h-78l-76 -328 h240q62 0 62 -45q0 -9 -2 -20l-28 -118q-15 -65 -90 -65h-239z" />
<glyph unicode="&#x18f;" horiz-adv-x="1482" d="M88 623q0 75 15 156q14 81 91 81h966q1 34 1 56q0 132 -86.5 224t-243.5 92q-131 0 -219.5 -40t-125.5 -62q-30 -18 -54 -18q-34 0 -55 37l-57 102q-8 15 -8 30q0 33 45 64q64 44 202 83.5t294 39.5q276 0 445.5 -152t169.5 -439q0 -400 -207 -655.5t-578 -255.5 q-274 0 -434.5 162.5t-160.5 494.5zM384 530q0 -158 85 -243t227 -85q178 0 287 121t148 289h-742q-5 -43 -5 -82z" />
<glyph unicode="&#x197;" horiz-adv-x="800" d="M85 687l27 118q15 65 90 65h133l113 489q17 75 87 75h152q56 0 56 -49q0 -11 -3 -26l-113 -489h133q63 0 63 -45q0 -9 -3 -20l-27 -118q-15 -65 -90 -65h-133l-127 -547q-17 -75 -87 -75h-152q-56 0 -56 49q0 11 3 26l127 547h-133q-63 0 -63 45q0 9 3 20z" />
<glyph unicode="&#x19f;" horiz-adv-x="1544" d="M104 587q0 370 213 625.5t563 255.5q300 0 469 -155.5t169 -465.5q0 -370 -213 -625.5t-563 -255.5q-300 0 -469 155.5t-169 465.5zM416 545q0 -160 85 -251.5t255 -91.5t276.5 125t145.5 295h-760q-2 -38 -2 -77zM460 870h746v19q0 160 -85 251.5t-255 91.5 q-176 0 -279 -130t-127 -232z" />
<glyph unicode="&#x1a9;" horiz-adv-x="1247" d="M-35 65l19 82q15 64 83 139l385 422q41 45 41 88q0 22 -11 43l-187 362q-15 30 -15 64q0 18 4 37l15 67q15 65 90 65h896q63 0 63 -45q0 -9 -3 -20l-27 -118q-15 -65 -90 -65h-471q-60 0 -119 5v-7l195 -393q11 -22 11 -44q0 -42 -39 -83l-389 -414v-7q61 5 121 5h504 q63 0 63 -45q0 -9 -3 -20l-27 -118q-15 -65 -90 -65h-959q-63 0 -63 45q0 9 3 20z" />
<glyph unicode="&#x1b7;" horiz-adv-x="1316" d="M59 162q-41 73 1 104l112 82q59 43 100 -22q52 -83 137.5 -103.5t152.5 -20.5q128 0 224 65.5t96 198.5q0 76 -43.5 118.5t-180.5 42.5h-109q-76 0 -61 63l25 106q10 44 40 72l333 316v7q-61 -5 -121 -5h-418q-75 0 -60 65l27 118q15 65 90 65h883q75 0 60 -65l-17 -75 q-15 -65 -52 -101l-376 -364v-4q157 -21 223.5 -123t66.5 -229q0 -227 -182 -367t-493 -140q-160 0 -281.5 48.5t-176.5 147.5z" />
<glyph unicode="&#x1cd;" horiz-adv-x="1394" d="M-63 66l764 1287q48 81 111 81h140q63 0 77 -81l216 -1287q1 -9 1 -16q0 -50 -62 -50h-139q-66 0 -77 69l-45 269h-508l-159 -269q-41 -69 -107 -69h-179q-47 0 -47 28q0 15 14 38zM550 1695l24 41q17 30 45 30q14 0 30 -7l262 -119h2l322 122q18 7 31 7q29 0 40 -30 l21 -56q4 -10 4 -18q0 -29 -41 -44l-274 -102q-35 -13 -78 -13h-60q-43 0 -72 13l-233 106q-33 15 -33 40q0 13 10 30zM561 586h322l-56 318q-8 47 -8 77.5t6 79.5h-4q-16 -49 -25.5 -74t-44.5 -83z" />
<glyph unicode="&#x1ce;" horiz-adv-x="1178" d="M62 379q0 281 182.5 486t407.5 205q45 0 104 -23t107 -93h4l17 36q28 60 67 60h153q50 0 50 -40q0 -9 -3 -20l-215 -930q-14 -60 -74 -60h-153q-47 0 -47 42q0 8 2 18l14 78h-4q-59 -72 -125 -115t-151 -43q-159 0 -247.5 121t-88.5 278zM358 360q0 -86 38.5 -135 t86.5 -49q86 0 162.5 86.5t117.5 259.5l37 158q0 91 -33 142.5t-119 51.5q-124 0 -207 -158t-83 -356zM404 1394l22 22q22 22 43 22q18 0 36 -16l170 -145h2l250 154q24 15 42 15q22 0 35 -21l28 -44q7 -11 7 -21q0 -28 -45 -55l-232 -140q-45 -27 -76 -27h-37q-30 0 -62 27 l-179 153q-23 19 -23 39q0 18 19 37z" />
<glyph unicode="&#x1cf;" horiz-adv-x="612" d="M57 75l297 1284q17 75 87 75h152q56 0 56 -49q0 -11 -3 -26l-297 -1284q-17 -75 -87 -75h-152q-56 0 -56 49q0 11 3 26zM184 1695l24 41q17 30 45 30q14 0 30 -7l262 -119h2l322 122q18 7 31 7q29 0 40 -30l21 -56q4 -10 4 -18q0 -29 -41 -44l-274 -102q-35 -13 -78 -13 h-60q-43 0 -72 13l-233 106q-33 15 -33 40q0 13 10 30z" />
<glyph unicode="&#x1d1;" horiz-adv-x="1532" d="M104 587q0 370 213 625.5t563 255.5q300 0 469 -155.5t169 -465.5q0 -370 -213 -625.5t-563 -255.5q-300 0 -469 155.5t-169 465.5zM416 545q0 -160 85 -251.5t255 -91.5q200 0 325 188.5t125 498.5q0 160 -85 251.5t-255 91.5q-200 0 -325 -188.5t-125 -498.5zM540 1695 l24 41q17 30 45 30q14 0 30 -7l262 -119h2l322 122q18 7 31 7q29 0 40 -30l21 -56q4 -10 4 -18q0 -29 -41 -44l-274 -102q-35 -13 -78 -13h-60q-43 0 -72 13l-233 106q-33 15 -33 40q0 13 10 30z" />
<glyph unicode="&#x1d2;" horiz-adv-x="1206" d="M58 412q0 225 166 441.5t466 216.5q260 0 360 -128.5t100 -303.5q0 -225 -166 -441.5t-466 -216.5q-260 0 -360 128.5t-100 303.5zM354 387q0 -100 48.5 -155.5t133.5 -55.5q125 0 221.5 128.5t96.5 358.5q0 100 -48.5 155.5t-133.5 55.5q-125 0 -221.5 -128.5 t-96.5 -358.5zM442 1394l22 22q22 22 43 22q18 0 36 -16l170 -145h2l250 154q24 15 42 15q22 0 35 -21l28 -44q7 -11 7 -21q0 -28 -45 -55l-232 -140q-45 -27 -76 -27h-37q-30 0 -62 27l-179 153q-23 19 -23 39q0 18 19 37z" />
<glyph unicode="&#x1d3;" horiz-adv-x="1422" d="M178 597l180 782q13 55 83 55h152q59 0 59 -39q0 -7 -2 -16l-178 -772q-33 -142 -33 -228q0 -76 26 -109q55 -68 172 -68q101 0 199.5 82.5t153.5 322.5l178 772q13 55 83 55h152q59 0 59 -39q0 -7 -2 -16l-180 -782q-84 -364 -238 -497.5t-435 -133.5q-241 0 -373 148 q-84 94 -84 263q0 97 28 220zM589 1695l24 41q17 30 45 30q14 0 30 -7l262 -119h2l322 122q18 7 31 7q29 0 40 -30l21 -56q4 -10 4 -18q0 -29 -41 -44l-274 -102q-35 -13 -78 -13h-60q-43 0 -72 13l-233 106q-33 15 -33 40q0 13 10 30z" />
<glyph unicode="&#x1d4;" horiz-adv-x="1194" d="M115 436l128 554q14 60 73 60h160q49 0 49 -41q0 -8 -2 -19l-112 -482q-33 -141 -33 -215q0 -37 8 -57q25 -60 105 -60q101 0 182.5 119t132.5 340l81 355q14 60 73 60h160q49 0 49 -41q0 -8 -2 -19l-215 -930q-14 -60 -74 -60h-158q-49 0 -49 39q0 9 3 21l21 87h-4 q-80 -94 -152.5 -130.5t-172.5 -36.5q-142 0 -224 107q-50 64 -50 175q0 76 23 174zM475 1394l22 22q22 22 43 22q18 0 36 -16l170 -145h2l250 154q24 15 42 15q22 0 35 -21l28 -44q7 -11 7 -21q0 -28 -45 -55l-232 -140q-45 -27 -76 -27h-37q-30 0 -62 27l-179 153 q-23 19 -23 39q0 18 19 37z" />
<glyph unicode="&#x1dd;" horiz-adv-x="1150" d="M48 276q0 192 142.5 252t395.5 104l209 36q1 13 1 28q0 64 -35 121t-161 57q-72 0 -147 -27.5t-120 -61.5q-26 -19 -46.5 -19t-34.5 19l-59 78q-16 21 -16 41q0 24 24 47q65 60 170 89.5t247 29.5q276 0 376 -127t100 -308q0 -231 -165 -443t-456 -212q-201 0 -313 90 t-112 206zM285 299q0 -55 52.5 -89t132.5 -34q127 0 202.5 88t109.5 216l-219 -36q-105 -17 -191.5 -50.5t-86.5 -94.5z" />
<glyph unicode="&#x1e2;" horiz-adv-x="1911" d="M-63 66l818 1287q51 81 111 81h1064q62 0 62 -45q0 -9 -2 -20l-27 -118q-15 -65 -90 -65h-603l-74 -318h550q62 0 62 -45q0 -9 -2 -20l-27 -118q-15 -65 -90 -65h-550l-86 -372h635q62 0 62 -45q0 -9 -2 -20l-27 -118q-15 -65 -90 -65h-857q-56 0 -56 49q0 11 3 26 l61 263h-349l-171 -269q-44 -69 -107 -69h-185q-48 0 -48 27q0 15 15 39zM591 586h248l139 600h-35q-27 -72 -50.5 -117t-61.5 -105zM818 1594l16 70q14 60 79 60h614q53 0 53 -41q0 -8 -2 -19l-16 -70q-14 -60 -79 -60h-614q-53 0 -53 41q0 8 2 19z" />
<glyph unicode="&#x1e3;" horiz-adv-x="1752" d="M19 228q0 206 212 316t495 122l9 40q5 21 5 41q0 45 -27 79q-38 48 -116 48q-64 0 -132.5 -27.5t-110.5 -57.5q-28 -20 -48 -20q-17 0 -28 16l-63 91q-12 18 -12 34q0 24 27 44q58 42 157 79t255 37q84 0 152.5 -41.5t101.5 -116.5h3q94 87 182 122.5t204 35.5 q202 0 311.5 -90t109.5 -206q0 -192 -150 -254q-146 -60 -383 -102l-204 -36q-1 -13 -1 -28q0 -64 39 -121t152 -57q67 0 143 27.5t121 61.5q26 19 46.5 19t34.5 -19l59 -78q16 -21 16 -41q0 -24 -24 -47q-65 -60 -170 -89.5t-244 -29.5q-128 0 -240 43t-167 145h-2 q-75 -90 -180 -139t-238 -49q-140 0 -217.5 61t-77.5 187zM315 256q0 -45 25 -62.5t75 -17.5q49 0 120.5 32t146.5 90q-5 32 -5 68q0 50 10 107q-181 -8 -276.5 -75.5t-95.5 -141.5zM673 1276l15 66q12 50 71 50h538q51 0 51 -36q0 -6 -2 -14l-15 -66q-12 -50 -72 -50h-538 q-50 0 -50 35q0 7 2 15zM982 570l214 36q101 17 187 50.5t86 94.5q0 55 -54 89t-127 34q-113 0 -192.5 -88t-113.5 -216z" />
<glyph unicode="&#x1e6;" horiz-adv-x="1510" d="M100 588q0 363 200.5 621.5t601.5 258.5q180 0 311 -57.5t187 -149.5q16 -27 16 -50q0 -32 -33 -54l-124 -83q-15 -10 -30 -10q-32 0 -66 46q-50 66 -130 94t-152 28q-224 0 -346.5 -178t-122.5 -504q0 -151 73 -249.5t281 -98.5q93 0 171 31t141 79l38 164h-217 q-63 0 -63 45q0 9 3 20l27 118q15 65 90 65h434q62 0 62 -45q0 -9 -2 -20l-120 -521q-123 -72 -274.5 -122t-310.5 -50q-298 0 -471.5 153.5t-173.5 468.5zM562 1695l24 41q17 30 45 30q14 0 30 -7l262 -119h2l322 122q18 7 31 7q29 0 40 -30l21 -56q4 -10 4 -18 q0 -29 -41 -44l-274 -102q-35 -13 -78 -13h-60q-43 0 -72 13l-233 106q-33 15 -33 40q0 13 10 30z" />
<glyph unicode="&#x1e7;" horiz-adv-x="1192" d="M-18 -263l43 73q17 29 44 29q16 0 34 -9q37 -19 94 -36.5t143 -17.5q108 0 198 48t125 207l8 36q8 36 23 80h-4q-72 -86 -129 -122t-130 -36q-198 0 -281.5 133.5t-83.5 279.5q0 260 160.5 464t372.5 204q72 0 150 -19t128 -97h4l12 36q20 60 67 60h158q50 0 50 -40 q0 -9 -3 -20l-226 -979q-54 -234 -198.5 -332.5t-415.5 -98.5q-115 0 -183.5 17t-150.5 61q-24 12 -24 36q0 18 15 43zM362 383q0 -89 39.5 -143.5t107.5 -54.5q70 0 151 91.5t117 245.5l37 158q0 96 -33.5 145t-133.5 49q-135 0 -210 -152t-75 -339zM444 1394l22 22 q22 22 43 22q18 0 36 -16l170 -145h2l250 154q24 15 42 15q22 0 35 -21l28 -44q7 -11 7 -21q0 -28 -45 -55l-232 -140q-45 -27 -76 -27h-37q-30 0 -62 27l-179 153q-23 19 -23 39q0 18 19 37z" />
<glyph unicode="&#x1e8;" horiz-adv-x="1361" d="M57 75l297 1284q17 75 87 75h152q56 0 56 -49q0 -11 -3 -26l-85 -366q-14 -58 -38 -120h7l573 502q67 59 106 59h240q63 0 63 -25q0 -22 -45 -61l-573 -503l309 -759q10 -24 10 -41q0 -45 -68 -45h-156q-52 0 -76 59l-240 593l-239 -209l-85 -368q-17 -75 -87 -75h-152 q-56 0 -56 49q0 11 3 26zM621 1695l24 41q17 30 45 30q14 0 30 -7l262 -119h2l322 122q18 7 31 7q29 0 40 -30l21 -56q4 -10 4 -18q0 -29 -41 -44l-274 -102q-35 -13 -78 -13h-60q-43 0 -72 13l-233 106q-33 15 -33 40q0 13 10 30z" />
<glyph unicode="&#x1e9;" horiz-adv-x="1119" d="M30 60l313 1356q14 60 74 60h160q49 0 49 -39q0 -10 -3 -21l-161 -697q-9 -38 -22 -80h4l378 370q42 41 87 41h191q49 0 49 -22q0 -18 -35 -52l-386 -371l223 -531q9 -21 9 -36q0 -38 -57 -38h-143q-49 0 -70 52l-152 378l-183 -173l-45 -197q-14 -60 -74 -60h-160 q-49 0 -49 39q0 10 3 21zM577 1800l22 22q22 22 43 22q18 0 36 -16l170 -145h2l250 154q24 15 42 15q22 0 35 -21l28 -44q7 -11 7 -21q0 -28 -45 -55l-232 -140q-45 -27 -76 -27h-37q-30 0 -62 27l-179 153q-23 19 -23 39q0 18 19 37z" />
<glyph unicode="&#x1ee;" horiz-adv-x="1316" d="M59 162q-20 36 -20 62t21 42l112 82q23 17 44 17q31 0 56 -39q52 -83 137.5 -103.5t152.5 -20.5q128 0 224 65.5t96 198.5q0 76 -43.5 118.5t-180.5 42.5h-109q-63 0 -63 44q0 9 2 19l25 106q10 44 40 72l333 316v7q-61 -5 -121 -5h-418q-63 0 -63 45q0 9 3 20l27 118 q15 65 90 65h883q63 0 63 -45q0 -9 -3 -20l-17 -75q-15 -65 -52 -101l-376 -364v-4q157 -21 223.5 -123t66.5 -229q0 -227 -182 -367t-493 -140q-160 0 -281.5 48.5t-176.5 147.5zM540 1695l24 41q17 30 45 30q14 0 30 -7l262 -119h2l322 122q18 7 31 7q29 0 40 -30l21 -56 q4 -10 4 -18q0 -29 -41 -44l-274 -102q-35 -13 -78 -13h-60q-43 0 -72 13l-233 106q-33 15 -33 40q0 13 10 30z" />
<glyph unicode="&#x1ef;" horiz-adv-x="1025" d="M-87 -203l84 73q22 20 43 20q24 0 45 -24q50 -55 96 -72.5t103 -17.5q124 0 185 86.5t61 196.5q0 66 -47.5 130t-170.5 64h-93q-50 0 -50 36q0 6 2 14l17 76q14 61 61 108l364 363v4q-41 -4 -81 -4h-316q-50 0 -50 35q0 7 2 15l23 100q12 50 71 50h688q51 0 51 -36 q0 -6 -2 -14l-16 -70q-13 -56 -65 -108l-370 -369v-4q106 -26 191 -122t85 -221q0 -235 -143.5 -380.5t-414.5 -145.5q-119 0 -206 28.5t-147 99.5q-22 26 -22 48t22 41zM381 1394l22 22q22 22 43 22q18 0 36 -16l170 -145h2l250 154q24 15 42 15q22 0 35 -21l28 -44 q7 -11 7 -21q0 -28 -45 -55l-232 -140q-45 -27 -76 -27h-37q-30 0 -62 27l-179 153q-23 19 -23 39q0 18 19 37z" />
<glyph unicode="&#x1f4;" horiz-adv-x="1510" d="M100 588q0 363 200.5 621.5t601.5 258.5q180 0 311 -57.5t187 -149.5q16 -27 16 -50q0 -32 -33 -54l-124 -83q-15 -10 -30 -10q-32 0 -66 46q-50 66 -130 94t-152 28q-224 0 -346.5 -178t-122.5 -504q0 -151 73 -249.5t281 -98.5q93 0 171 31t141 79l38 164h-217 q-63 0 -63 45q0 9 3 20l27 118q15 65 90 65h434q62 0 62 -45q0 -9 -2 -20l-120 -521q-123 -72 -274.5 -122t-310.5 -50q-298 0 -471.5 153.5t-173.5 468.5zM792 1604l102 134q36 47 120 47h176q40 0 40 -18q0 -15 -30 -43l-155 -146q-40 -38 -119 -38h-123q-33 0 -33 19 q0 16 22 45z" />
<glyph unicode="&#x1f5;" horiz-adv-x="1192" d="M-18 -263l43 73q17 29 44 29q16 0 34 -9q37 -19 94 -36.5t143 -17.5q108 0 198 48t125 207l8 36q8 36 23 80h-4q-72 -86 -129 -122t-130 -36q-198 0 -281.5 133.5t-83.5 279.5q0 260 160.5 464t372.5 204q72 0 150 -19t128 -97h4l12 36q20 60 67 60h158q50 0 50 -40 q0 -9 -3 -20l-226 -979q-54 -234 -198.5 -332.5t-415.5 -98.5q-115 0 -183.5 17t-150.5 61q-24 12 -24 36q0 18 15 43zM362 383q0 -89 39.5 -143.5t107.5 -54.5q70 0 151 91.5t117 245.5l37 158q0 96 -33.5 145t-133.5 49q-135 0 -210 -152t-75 -339zM602 1209l129 179 q34 47 117 47h152q34 0 34 -17q0 -15 -25 -42l-173 -189q-34 -37 -110 -37h-117q-27 0 -27 17q0 15 20 42z" />
<glyph unicode="&#x1f8;" horiz-adv-x="1472" d="M57 75l297 1284q17 75 87 75h135q86 0 114 -70l329 -840h7q9 60 23 120l165 715q17 75 87 75h152q56 0 56 -49q0 -11 -3 -26l-297 -1284q-17 -75 -87 -75h-125q-86 0 -114 70l-335 856h-7q-9 -60 -23 -120l-169 -731q-17 -75 -87 -75h-152q-56 0 -56 49q0 11 3 26z M761 1724q-26 24 -26 38q0 23 64 23h176q72 0 98 -47l74 -134q11 -21 11 -35q0 -29 -50 -29h-83q-61 0 -103 38z" />
<glyph unicode="&#x1f9;" horiz-adv-x="1200" d="M30 60l215 930q14 60 73 60h158q50 0 50 -39q0 -9 -3 -21l-19 -78h4q80 94 152.5 126t172.5 32q145 0 228 -107q50 -64 50 -176q0 -76 -23 -173l-128 -554q-14 -60 -74 -60h-160q-49 0 -49 39q0 10 3 21l111 482q33 142 33 216q0 36 -8 56q-24 60 -107 60 q-105 0 -186 -117t-130 -333l-83 -364q-14 -60 -74 -60h-160q-49 0 -49 39q0 10 3 21zM535 1376q-18 22 -18 35q0 24 53 24h152q72 0 95 -47l87 -179q9 -18 9 -31q0 -28 -44 -28h-86q-61 0 -92 37z" />
<glyph unicode="&#x1fc;" horiz-adv-x="1911" d="M-63 66l818 1287q51 81 111 81h1064q62 0 62 -45q0 -9 -2 -20l-27 -118q-15 -65 -90 -65h-603l-74 -318h550q62 0 62 -45q0 -9 -2 -20l-27 -118q-15 -65 -90 -65h-550l-86 -372h635q62 0 62 -45q0 -9 -2 -20l-27 -118q-15 -65 -90 -65h-857q-56 0 -56 49q0 11 3 26 l61 263h-349l-171 -269q-44 -69 -107 -69h-185q-48 0 -48 27q0 15 15 39zM591 586h248l139 600h-35q-27 -72 -50.5 -117t-61.5 -105zM1051 1604l102 134q36 47 120 47h176q40 0 40 -18q0 -15 -30 -43l-155 -146q-40 -38 -119 -38h-123q-33 0 -33 19q0 16 22 45z" />
<glyph unicode="&#x1fd;" horiz-adv-x="1752" d="M19 228q0 206 212 316t495 122l9 40q5 21 5 41q0 45 -27 79q-38 48 -116 48q-64 0 -132.5 -27.5t-110.5 -57.5q-28 -20 -48 -20q-17 0 -28 16l-63 91q-12 18 -12 34q0 24 27 44q58 42 157 79t255 37q84 0 152.5 -41.5t101.5 -116.5h3q94 87 182 122.5t204 35.5 q202 0 311.5 -90t109.5 -206q0 -192 -150 -254q-146 -60 -383 -102l-204 -36q-1 -13 -1 -28q0 -64 39 -121t152 -57q67 0 143 27.5t121 61.5q26 19 46.5 19t34.5 -19l59 -78q16 -21 16 -41q0 -24 -24 -47q-65 -60 -170 -89.5t-244 -29.5q-128 0 -240 43t-167 145h-2 q-75 -90 -180 -139t-238 -49q-140 0 -217.5 61t-77.5 187zM315 256q0 -45 25 -62.5t75 -17.5q49 0 120.5 32t146.5 90q-5 32 -5 68q0 50 10 107q-181 -8 -276.5 -75.5t-95.5 -141.5zM864 1209l129 179q34 47 117 47h152q34 0 34 -17q0 -15 -25 -42l-173 -189 q-34 -37 -110 -37h-117q-27 0 -27 17q0 15 20 42zM982 570l214 36q101 17 187 50.5t86 94.5q0 55 -54 89t-127 34q-113 0 -192.5 -88t-113.5 -216z" />
<glyph unicode="&#x200;" horiz-adv-x="1394" d="M-63 66l764 1287q48 81 111 81h140q63 0 77 -81l216 -1287q1 -9 1 -16q0 -50 -62 -50h-139q-66 0 -77 69l-45 269h-508l-159 -269q-41 -69 -107 -69h-179q-47 0 -47 28q0 15 14 38zM385 1726q-21 22 -21 35q0 24 61 24h135q67 0 95 -45l84 -136q14 -22 14 -37 q0 -27 -49 -27h-93q-50 0 -86 38zM561 586h322l-56 318q-8 47 -8 77.5t6 79.5h-4q-16 -49 -25.5 -74t-44.5 -83zM805 1726q-21 22 -21 35q0 24 61 24h135q67 0 95 -45l84 -136q14 -22 14 -37q0 -27 -49 -27h-93q-50 0 -86 38z" />
<glyph unicode="&#x201;" horiz-adv-x="1178" d="M62 379q0 281 182.5 486t407.5 205q45 0 104 -23t107 -93h4l17 36q28 60 67 60h153q50 0 50 -40q0 -9 -3 -20l-215 -930q-14 -60 -74 -60h-153q-47 0 -47 42q0 8 2 18l14 78h-4q-59 -72 -125 -115t-151 -43q-159 0 -247.5 121t-88.5 278zM281 1366q-13 26 -13 42 q0 27 38 27h113q72 0 86 -51l45 -166q4 -16 4 -28q0 -40 -46 -40h-54q-61 0 -83 42zM358 360q0 -86 38.5 -135t86.5 -49q86 0 162.5 86.5t117.5 259.5l37 158q0 91 -33 142.5t-119 51.5q-124 0 -207 -158t-83 -356zM622 1366q-13 26 -13 42q0 27 38 27h113q72 0 86 -51 l45 -166q4 -16 4 -28q0 -40 -46 -40h-54q-61 0 -83 42z" />
<glyph unicode="&#x202;" horiz-adv-x="1394" d="M-63 66l764 1287q48 81 111 81h140q63 0 77 -81l216 -1287q1 -9 1 -16q0 -50 -62 -50h-139q-66 0 -77 69l-45 269h-508l-159 -269q-41 -69 -107 -69h-179q-47 0 -47 28q0 15 14 38zM561 586h322l-56 318q-8 47 -8 77.5t6 79.5h-4q-16 -49 -25.5 -74t-44.5 -83zM562 1660 q76 109 169 161t248 52q131 0 212 -62t111 -166q3 -11 3 -20q0 -34 -40 -52l-55 -25q-14 -6 -26 -6q-26 0 -39 34q-18 49 -63.5 85t-131.5 36q-72 0 -137 -40t-106 -83q-33 -34 -58 -34q-11 0 -21 6l-63 42q-19 13 -19 32q0 17 16 40z" />
<glyph unicode="&#x203;" horiz-adv-x="1178" d="M62 379q0 281 182.5 486t407.5 205q45 0 104 -23t107 -93h4l17 36q28 60 67 60h153q50 0 50 -40q0 -9 -3 -20l-215 -930q-14 -60 -74 -60h-153q-47 0 -47 42q0 8 2 18l14 78h-4q-59 -72 -125 -115t-151 -43q-159 0 -247.5 121t-88.5 278zM353 1181q-13 8 -13 21 q0 16 17 39q80 110 167 161t211 51q108 0 183 -59t102 -176q3 -11 3 -21q0 -29 -27 -39l-61 -22q-39 -14 -51 21q-23 68 -62 98t-118 30q-67 0 -124 -37t-94 -90q-20 -28 -40 -28q-11 0 -21 7zM358 360q0 -86 38.5 -135t86.5 -49q86 0 162.5 86.5t117.5 259.5l37 158 q0 91 -33 142.5t-119 51.5q-124 0 -207 -158t-83 -356z" />
<glyph unicode="&#x204;" horiz-adv-x="1280" d="M57 75l297 1284q17 75 87 75h858q63 0 63 -45q0 -9 -3 -20l-27 -118q-15 -65 -90 -65h-636l-74 -318h583q63 0 63 -45q0 -9 -3 -20l-27 -118q-15 -65 -90 -65h-583l-86 -372h668q63 0 63 -45q0 -9 -3 -20l-27 -118q-15 -65 -90 -65h-890q-56 0 -56 49q0 11 3 26z M391 1726q-21 22 -21 35q0 24 61 24h135q67 0 95 -45l84 -136q14 -22 14 -37q0 -27 -49 -27h-93q-50 0 -86 38zM811 1726q-21 22 -21 35q0 24 61 24h135q67 0 95 -45l84 -136q14 -22 14 -37q0 -27 -49 -27h-93q-50 0 -86 38z" />
<glyph unicode="&#x205;" horiz-adv-x="1150" d="M58 415q0 231 165 443t456 212q201 0 313 -90t112 -206q0 -192 -142.5 -252t-395.5 -104l-209 -36q-1 -13 -1 -28q0 -64 35 -121t161 -57q72 0 147 27.5t120 61.5q26 19 46.5 19t34.5 -19l59 -78q16 -21 16 -41q0 -24 -24 -47q-65 -60 -170 -89.5t-247 -29.5 q-276 0 -376 127t-100 308zM308 1366q-13 26 -13 42q0 27 38 27h113q72 0 86 -51l45 -166q4 -16 4 -28q0 -40 -46 -40h-54q-61 0 -83 42zM370 570l219 36q105 17 191.5 50.5t86.5 94.5q0 55 -52.5 89t-132.5 34q-127 0 -202.5 -88t-109.5 -216zM649 1366q-13 26 -13 42 q0 27 38 27h113q72 0 86 -51l45 -166q4 -16 4 -28q0 -40 -46 -40h-54q-61 0 -83 42z" />
<glyph unicode="&#x206;" horiz-adv-x="1280" d="M57 75l297 1284q17 75 87 75h858q63 0 63 -45q0 -9 -3 -20l-27 -118q-15 -65 -90 -65h-636l-74 -318h583q63 0 63 -45q0 -9 -3 -20l-27 -118q-15 -65 -90 -65h-583l-86 -372h668q63 0 63 -45q0 -9 -3 -20l-27 -118q-15 -65 -90 -65h-890q-56 0 -56 49q0 11 3 26z M568 1660q76 109 169 161t248 52q131 0 212 -62t111 -166q3 -11 3 -20q0 -34 -40 -52l-55 -25q-14 -6 -26 -6q-26 0 -39 34q-18 49 -63.5 85t-131.5 36q-72 0 -137 -40t-106 -83q-33 -34 -58 -34q-11 0 -21 6l-63 42q-19 13 -19 32q0 17 16 40z" />
<glyph unicode="&#x207;" horiz-adv-x="1150" d="M58 415q0 231 165 443t456 212q201 0 313 -90t112 -206q0 -192 -142.5 -252t-395.5 -104l-209 -36q-1 -13 -1 -28q0 -64 35 -121t161 -57q72 0 147 27.5t120 61.5q26 19 46.5 19t34.5 -19l59 -78q16 -21 16 -41q0 -24 -24 -47q-65 -60 -170 -89.5t-247 -29.5 q-276 0 -376 127t-100 308zM370 570l219 36q105 17 191.5 50.5t86.5 94.5q0 55 -52.5 89t-132.5 34q-127 0 -202.5 -88t-109.5 -216zM380 1181q-13 8 -13 21q0 16 17 39q80 110 167 161t211 51q108 0 183 -59t102 -176q3 -11 3 -21q0 -29 -27 -39l-61 -22q-11 -4 -20 -4 q-23 0 -31 25q-23 68 -62 98t-118 30q-67 0 -124 -37t-94 -90q-20 -28 -40 -28q-11 0 -21 7z" />
<glyph unicode="&#x208;" horiz-adv-x="612" d="M19 1726q-21 22 -21 35q0 24 61 24h135q67 0 95 -45l84 -136q14 -22 14 -37q0 -27 -49 -27h-93q-50 0 -86 38zM57 75l297 1284q17 75 87 75h152q56 0 56 -49q0 -11 -3 -26l-297 -1284q-17 -75 -87 -75h-152q-56 0 -56 49q0 11 3 26zM439 1726q-21 22 -21 35q0 24 61 24 h135q67 0 95 -45l84 -136q14 -22 14 -37q0 -27 -49 -27h-93q-50 0 -86 38z" />
<glyph unicode="&#x209;" horiz-adv-x="552" d="M30 60l215 930q14 60 73 60h160q49 0 49 -41q0 -8 -2 -19l-215 -930q-14 -60 -74 -60h-160q-49 0 -49 39q0 10 3 21zM32 1366q-13 26 -13 42q0 27 38 27h113q72 0 86 -51l45 -166q4 -16 4 -28q0 -40 -46 -40h-54q-61 0 -83 42zM373 1366q-13 26 -13 42q0 27 38 27h113 q72 0 86 -51l45 -166q4 -16 4 -28q0 -40 -46 -40h-54q-61 0 -83 42z" />
<glyph unicode="&#x20a;" horiz-adv-x="612" d="M57 75l297 1284q17 75 87 75h152q56 0 56 -49q0 -11 -3 -26l-297 -1284q-17 -75 -87 -75h-152q-56 0 -56 49q0 11 3 26zM196 1660q76 109 169 161t248 52q131 0 212 -62t111 -166q3 -11 3 -20q0 -34 -40 -52l-55 -25q-14 -6 -26 -6q-26 0 -39 34q-18 49 -63.5 85 t-131.5 36q-72 0 -137 -40t-106 -83q-33 -34 -58 -34q-11 0 -21 6l-63 42q-19 13 -19 32q0 17 16 40z" />
<glyph unicode="&#x20b;" horiz-adv-x="552" d="M30 60l215 930q14 60 73 60h160q49 0 49 -41q0 -8 -2 -19l-215 -930q-14 -60 -74 -60h-160q-49 0 -49 39q0 10 3 21zM104 1181q-13 8 -13 21q0 16 17 39q80 110 167 161t211 51q108 0 183 -59t102 -176q3 -11 3 -21q0 -29 -27 -39l-61 -22q-11 -4 -20 -4q-23 0 -31 25 q-23 68 -62 98t-118 30q-67 0 -124 -37t-94 -90q-20 -28 -40 -28q-11 0 -21 7z" />
<glyph unicode="&#x20c;" horiz-adv-x="1532" d="M104 587q0 370 213 625.5t563 255.5q300 0 469 -155.5t169 -465.5q0 -370 -213 -625.5t-563 -255.5q-300 0 -469 155.5t-169 465.5zM375 1726q-21 22 -21 35q0 24 61 24h135q67 0 95 -45l84 -136q14 -22 14 -37q0 -27 -49 -27h-93q-50 0 -86 38zM416 545 q0 -160 85 -251.5t255 -91.5q200 0 325 188.5t125 498.5q0 160 -85 251.5t-255 91.5q-200 0 -325 -188.5t-125 -498.5zM795 1726q-21 22 -21 35q0 24 61 24h135q67 0 95 -45l84 -136q14 -22 14 -37q0 -27 -49 -27h-93q-50 0 -86 38z" />
<glyph unicode="&#x20d;" horiz-adv-x="1206" d="M58 412q0 225 166 441.5t466 216.5q260 0 360 -128.5t100 -303.5q0 -225 -166 -441.5t-466 -216.5q-260 0 -360 128.5t-100 303.5zM319 1366q-13 26 -13 42q0 27 38 27h113q72 0 86 -51l45 -166q4 -16 4 -28q0 -40 -46 -40h-54q-61 0 -83 42zM354 387q0 -100 48.5 -155.5 t133.5 -55.5q125 0 221.5 128.5t96.5 358.5q0 100 -48.5 155.5t-133.5 55.5q-125 0 -221.5 -128.5t-96.5 -358.5zM660 1366q-13 26 -13 42q0 27 38 27h113q72 0 86 -51l45 -166q4 -16 4 -28q0 -40 -46 -40h-54q-61 0 -83 42z" />
<glyph unicode="&#x20e;" horiz-adv-x="1532" d="M104 587q0 370 213 625.5t563 255.5q300 0 469 -155.5t169 -465.5q0 -370 -213 -625.5t-563 -255.5q-300 0 -469 155.5t-169 465.5zM416 545q0 -160 85 -251.5t255 -91.5q200 0 325 188.5t125 498.5q0 160 -85 251.5t-255 91.5q-200 0 -325 -188.5t-125 -498.5zM552 1660 q76 109 169 161t248 52q131 0 212 -62t111 -166q3 -11 3 -20q0 -34 -40 -52l-55 -25q-14 -6 -26 -6q-26 0 -39 34q-18 49 -63.5 85t-131.5 36q-72 0 -137 -40t-106 -83q-33 -34 -58 -34q-11 0 -21 6l-63 42q-19 13 -19 32q0 17 16 40z" />
<glyph unicode="&#x20f;" horiz-adv-x="1206" d="M58 412q0 225 166 441.5t466 216.5q260 0 360 -128.5t100 -303.5q0 -225 -166 -441.5t-466 -216.5q-260 0 -360 128.5t-100 303.5zM354 387q0 -100 48.5 -155.5t133.5 -55.5q125 0 221.5 128.5t96.5 358.5q0 100 -48.5 155.5t-133.5 55.5q-125 0 -221.5 -128.5 t-96.5 -358.5zM391 1181q-13 8 -13 21q0 16 17 39q80 110 167 161t211 51q108 0 183 -59t102 -176q3 -11 3 -21q0 -29 -27 -39l-61 -22q-11 -4 -20 -4q-23 0 -31 25q-23 68 -62 98t-118 30q-67 0 -124 -37t-94 -90q-20 -28 -40 -28q-11 0 -21 7z" />
<glyph unicode="&#x210;" horiz-adv-x="1428" d="M57 75l297 1284q17 75 87 75h410q301 0 428.5 -94.5t127.5 -262.5q0 -160 -130.5 -279.5t-368.5 -150.5v-2q79 -33 114 -96t56 -116l134 -347q9 -23 9 -40q0 -46 -67 -46h-153q-55 0 -76 59l-119 337q-27 77 -92.5 130t-153.5 53h-94l-117 -504q-17 -75 -87 -75h-152 q-56 0 -56 49q0 11 3 26zM368 1726q-21 22 -21 35q0 24 61 24h135q67 0 95 -45l84 -136q14 -22 14 -37q0 -27 -49 -27h-93q-50 0 -86 38zM523 827h209q144 0 266.5 56t122.5 166q0 88 -86.5 114.5t-240.5 26.5h-187zM788 1726q-21 22 -21 35q0 24 61 24h135q67 0 95 -45 l84 -136q14 -22 14 -37q0 -27 -49 -27h-93q-50 0 -86 38z" />
<glyph unicode="&#x211;" horiz-adv-x="786" d="M30 60l215 930q14 60 73 60h154q50 0 50 -40q0 -9 -3 -20l-28 -123h4q42 85 114 144t160 59q58 0 92 -14q20 -8 20 -28q0 -9 -4 -20l-44 -119q-11 -29 -36 -29q-10 0 -23 5q-24 9 -54 9q-90 0 -187.5 -136t-156.5 -391l-66 -287q-14 -60 -74 -60h-160q-49 0 -49 39 q0 10 3 21zM219 1366q-13 26 -13 42q0 27 38 27h113q72 0 86 -51l45 -166q4 -16 4 -28q0 -40 -46 -40h-54q-61 0 -83 42zM560 1366q-13 26 -13 42q0 27 38 27h113q72 0 86 -51l45 -166q4 -16 4 -28q0 -40 -46 -40h-54q-61 0 -83 42z" />
<glyph unicode="&#x212;" horiz-adv-x="1428" d="M57 75l297 1284q17 75 87 75h410q301 0 428.5 -94.5t127.5 -262.5q0 -160 -130.5 -279.5t-368.5 -150.5v-2q79 -33 114 -96t56 -116l134 -347q9 -23 9 -40q0 -46 -67 -46h-153q-55 0 -76 59l-119 337q-27 77 -92.5 130t-153.5 53h-94l-117 -504q-17 -75 -87 -75h-152 q-56 0 -56 49q0 11 3 26zM523 827h209q144 0 266.5 56t122.5 166q0 88 -86.5 114.5t-240.5 26.5h-187zM545 1660q76 109 169 161t248 52q131 0 212 -62t111 -166q3 -11 3 -20q0 -34 -40 -52l-55 -25q-14 -6 -26 -6q-26 0 -39 34q-18 49 -63.5 85t-131.5 36q-72 0 -137 -40 t-106 -83q-33 -34 -58 -34q-11 0 -21 6l-63 42q-19 13 -19 32q0 17 16 40z" />
<glyph unicode="&#x213;" horiz-adv-x="786" d="M30 60l215 930q14 60 73 60h154q50 0 50 -40q0 -9 -3 -20l-28 -123h4q42 85 114 144t160 59q58 0 92 -14q29 -12 16 -48l-44 -119q-11 -29 -36 -29q-10 0 -23 5q-24 9 -54 9q-90 0 -187.5 -136t-156.5 -391l-66 -287q-14 -60 -74 -60h-160q-49 0 -49 39q0 10 3 21z M291 1181q-13 8 -13 21q0 16 17 39q80 110 167 161t211 51q108 0 183 -59t102 -176q3 -11 3 -21q0 -29 -27 -39l-61 -22q-11 -4 -20 -4q-23 0 -31 25q-23 68 -62 98t-118 30q-67 0 -124 -37t-94 -90q-20 -28 -40 -28q-11 0 -21 7z" />
<glyph unicode="&#x214;" horiz-adv-x="1422" d="M178 597l180 782q13 55 83 55h152q59 0 59 -39q0 -7 -2 -16l-178 -772q-33 -142 -33 -228q0 -76 26 -109q55 -68 172 -68q101 0 199.5 82.5t153.5 322.5l178 772q13 55 83 55h152q59 0 59 -39q0 -7 -2 -16l-180 -782q-84 -364 -238 -497.5t-435 -133.5q-241 0 -373 148 q-84 94 -84 263q0 97 28 220zM424 1726q-21 22 -21 35q0 24 61 24h135q67 0 95 -45l84 -136q14 -22 14 -37q0 -27 -49 -27h-93q-50 0 -86 38zM844 1726q-21 22 -21 35q0 24 61 24h135q67 0 95 -45l84 -136q14 -22 14 -37q0 -27 -49 -27h-93q-50 0 -86 38z" />
<glyph unicode="&#x215;" horiz-adv-x="1194" d="M115 436l128 554q14 60 73 60h160q49 0 49 -41q0 -8 -2 -19l-112 -482q-33 -141 -33 -215q0 -37 8 -57q25 -60 105 -60q101 0 182.5 119t132.5 340l81 355q14 60 73 60h160q49 0 49 -41q0 -8 -2 -19l-215 -930q-14 -60 -74 -60h-158q-49 0 -49 39q0 9 3 21l21 87h-4 q-80 -94 -152.5 -130.5t-172.5 -36.5q-142 0 -224 107q-50 64 -50 175q0 76 23 174zM352 1366q-13 26 -13 42q0 27 38 27h113q72 0 86 -51l45 -166q4 -16 4 -28q0 -40 -46 -40h-54q-61 0 -83 42zM693 1366q-13 26 -13 42q0 27 38 27h113q72 0 86 -51l45 -166q4 -16 4 -28 q0 -40 -46 -40h-54q-61 0 -83 42z" />
<glyph unicode="&#x216;" horiz-adv-x="1422" d="M178 597l180 782q13 55 83 55h152q59 0 59 -39q0 -7 -2 -16l-178 -772q-33 -142 -33 -228q0 -76 26 -109q55 -68 172 -68q101 0 199.5 82.5t153.5 322.5l178 772q13 55 83 55h152q59 0 59 -39q0 -7 -2 -16l-180 -782q-84 -364 -238 -497.5t-435 -133.5q-241 0 -373 148 q-84 94 -84 263q0 97 28 220zM601 1660q76 109 169 161t248 52q131 0 212 -62t111 -166q3 -11 3 -20q0 -34 -40 -52l-55 -25q-14 -6 -26 -6q-26 0 -39 34q-18 49 -63.5 85t-131.5 36q-72 0 -137 -40t-106 -83q-33 -34 -58 -34q-11 0 -21 6l-63 42q-19 13 -19 32q0 17 16 40z " />
<glyph unicode="&#x217;" horiz-adv-x="1194" d="M115 436l128 554q14 60 73 60h160q49 0 49 -41q0 -8 -2 -19l-112 -482q-33 -141 -33 -215q0 -37 8 -57q25 -60 105 -60q101 0 182.5 119t132.5 340l81 355q14 60 73 60h160q49 0 49 -41q0 -8 -2 -19l-215 -930q-14 -60 -74 -60h-158q-49 0 -49 39q0 9 3 21l21 87h-4 q-80 -94 -152.5 -130.5t-172.5 -36.5q-142 0 -224 107q-50 64 -50 175q0 76 23 174zM424 1181q-13 8 -13 21q0 16 17 39q80 110 167 161t211 51q108 0 183 -59t102 -176q3 -11 3 -21q0 -29 -27 -39l-61 -22q-11 -4 -20 -4q-23 0 -31 25q-23 68 -62 98t-118 30 q-67 0 -124 -37t-94 -90q-20 -28 -40 -28q-11 0 -21 7z" />
<glyph unicode="&#x21e;" horiz-adv-x="1442" d="M57 75l297 1284q17 75 87 75h152q56 0 56 -49q0 -11 -3 -26l-113 -489h538l113 489q17 75 87 75h152q56 0 56 -49q0 -11 -3 -26l-297 -1284q-17 -75 -87 -75h-152q-56 0 -56 49q0 11 3 26l127 547h-538l-127 -547q-17 -75 -87 -75h-152q-56 0 -56 49q0 11 3 26zM599 1695 l24 41q17 30 45 30q14 0 30 -7l262 -119h2l322 122q18 7 31 7q29 0 40 -30l21 -56q4 -10 4 -18q0 -29 -41 -44l-274 -102q-35 -13 -78 -13h-60q-43 0 -72 13l-233 106q-33 15 -33 40q0 13 10 30z" />
<glyph unicode="&#x21f;" horiz-adv-x="1200" d="M30 60l313 1356q14 60 74 60h160q49 0 49 -39q0 -10 -3 -21l-97 -424q-9 -41 -23 -80h5q80 94 152.5 126t172.5 32q145 0 228 -107q50 -64 50 -176q0 -76 -23 -173l-128 -554q-14 -60 -74 -60h-160q-49 0 -49 39q0 10 3 21l111 482q33 142 33 216q0 36 -8 56 q-24 60 -107 60q-105 0 -186 -117t-130 -333l-83 -364q-14 -60 -74 -60h-160q-49 0 -49 39q0 10 3 21zM574 1800l22 22q22 22 43 22q18 0 36 -16l170 -145h2l250 154q24 15 42 15q22 0 35 -21l28 -44q7 -11 7 -21q0 -28 -45 -55l-232 -140q-45 -27 -76 -27h-37q-30 0 -62 27 l-179 153q-23 19 -23 39q0 18 19 37z" />
<glyph unicode="&#x226;" horiz-adv-x="1394" d="M-63 66l764 1287q48 81 111 81h140q63 0 77 -81l216 -1287q1 -9 1 -16q0 -50 -62 -50h-139q-66 0 -77 69l-45 269h-508l-159 -269q-41 -69 -107 -69h-179q-47 0 -47 28q0 15 14 38zM561 586h322l-56 318q-8 47 -8 77.5t6 79.5h-4q-16 -49 -25.5 -74t-44.5 -83zM775 1601 l26 114q17 75 87 75h152q56 0 56 -49q0 -11 -3 -26l-26 -114q-17 -75 -88 -75h-152q-56 0 -56 47q0 13 4 28z" />
<glyph unicode="&#x227;" horiz-adv-x="1178" d="M62 379q0 281 182.5 486t407.5 205q45 0 104 -23t107 -93h4l17 36q28 60 67 60h153q50 0 50 -40q0 -9 -3 -20l-215 -930q-14 -60 -74 -60h-153q-47 0 -47 42q0 8 2 18l14 78h-4q-59 -72 -125 -115t-151 -43q-159 0 -247.5 121t-88.5 278zM358 360q0 -86 38.5 -135 t86.5 -49q86 0 162.5 86.5t117.5 259.5l37 158q0 91 -33 142.5t-119 51.5q-124 0 -207 -158t-83 -356zM557 1264l29 128q14 60 74 60h160q49 0 49 -39q0 -10 -3 -21l-29 -128q-14 -60 -74 -60h-160q-49 0 -49 39q0 10 3 21z" />
<glyph unicode="&#x22e;" horiz-adv-x="1532" d="M104 587q0 370 213 625.5t563 255.5q300 0 469 -155.5t169 -465.5q0 -370 -213 -625.5t-563 -255.5q-300 0 -469 155.5t-169 465.5zM416 545q0 -160 85 -251.5t255 -91.5q200 0 325 188.5t125 498.5q0 160 -85 251.5t-255 91.5q-200 0 -325 -188.5t-125 -498.5zM765 1601 l26 114q17 75 87 75h152q56 0 56 -49q0 -11 -3 -26l-26 -114q-17 -75 -88 -75h-152q-56 0 -56 47q0 13 4 28z" />
<glyph unicode="&#x22f;" horiz-adv-x="1206" d="M58 412q0 225 166 441.5t466 216.5q260 0 360 -128.5t100 -303.5q0 -225 -166 -441.5t-466 -216.5q-260 0 -360 128.5t-100 303.5zM354 387q0 -100 48.5 -155.5t133.5 -55.5q125 0 221.5 128.5t96.5 358.5q0 100 -48.5 155.5t-133.5 55.5q-125 0 -221.5 -128.5 t-96.5 -358.5zM595 1264l29 128q14 60 74 60h160q49 0 49 -39q0 -10 -3 -21l-29 -128q-14 -60 -74 -60h-160q-49 0 -49 39q0 10 3 21z" />
<glyph unicode="&#x232;" horiz-adv-x="1368" d="M242 1348q-7 21 -7 36q0 50 74 50h145q52 0 76 -69l127 -371l35 -108q19 -58 19 -138h4q19 71 63 130l91 116l299 371q56 69 108 69h205q57 0 57 -29q0 -21 -30 -57l-677 -823l-108 -470q-13 -55 -83 -55h-152q-59 0 -59 39q0 7 2 16l108 470zM559 1594l16 70 q14 60 79 60h614q53 0 53 -41q0 -8 -2 -19l-16 -70q-14 -60 -79 -60h-614q-53 0 -53 41q0 8 2 19z" />
<glyph unicode="&#x233;" horiz-adv-x="1194" d="M20 -270l49 78q17 28 43 28q14 0 30 -8q68 -35 116 -43.5t114 -8.5q105 0 179 44.5t123 255.5q10 44 23 80h-4q-80 -94 -152.5 -130.5t-172.5 -36.5q-142 0 -224 107q-50 64 -50 175q0 76 23 174l126 545q14 60 73 60h160q50 0 50 -40q0 -9 -3 -20l-112 -482 q-31 -133 -31 -205q0 -37 8 -58q25 -60 105 -60q101 0 183 119.5t130 330.5l81 355q14 60 73 60h160q50 0 50 -40q0 -9 -3 -20l-228 -979q-53 -229 -194.5 -330t-402.5 -101q-63 0 -145.5 10.5t-160.5 52.5q-31 16 -31 44q0 19 15 43zM441 1276l15 66q12 50 71 50h538 q51 0 51 -36q0 -6 -2 -14l-15 -66q-12 -50 -72 -50h-538q-50 0 -50 35q0 7 2 15z" />
<glyph unicode="&#x237;" horiz-adv-x="562" d="M-307 -349l37 106q10 29 41 29q6 0 13 -1q49 -9 67 -9q73 0 113 65t68 185l223 964q14 60 73 60h160q50 0 50 -40q0 -9 -3 -20l-230 -994q-57 -248 -168 -332t-282 -84q-90 0 -141 15q-26 8 -26 32q0 10 5 24z" />
<glyph unicode="&#x244;" horiz-adv-x="1610" d="M85 687l27 118q15 65 90 65h133l117 509q13 55 83 55h152q59 0 59 -39q0 -7 -2 -16l-117 -509h518l117 509q13 55 83 55h152q59 0 59 -39q0 -7 -2 -16l-117 -509h133q62 0 62 -45q0 -9 -2 -20l-27 -118q-15 -65 -90 -65h-133l-6 -25q-84 -363 -238 -497t-435 -134 q-241 0 -373 148q-84 94 -84 263q0 97 28 220l6 25h-133q-63 0 -63 45q0 9 3 20zM559 270q55 -68 172 -68q101 0 199.5 82.5t153.5 322.5l3 15h-518l-3 -15q-33 -142 -33 -228q0 -76 26 -109z" />
<glyph unicode="&#x245;" horiz-adv-x="1370" d="M179 66l775 1287q49 81 113 81h140q64 0 75 -81l181 -1287q9 -66 -62 -66h-139q-67 0 -76 69l-113 835q-7 60 -7 84t7 73h-4q-17 -49 -27.5 -74t-44.5 -83l-499 -835q-41 -69 -108 -69h-179q-72 0 -32 66z" />
<glyph unicode="&#x254;" horiz-adv-x="1086" d="M59 144q-29 42 17 73l109 73q39 26 77 -30q21 -31 57 -57.5t106 -26.5q113 0 211 126t98 361q0 105 -49 158t-133 53q-78 0 -127.5 -33t-96.5 -92q-37 -46 -81 -5l-81 75q-39 36 2 88q39 50 137.5 106.5t264.5 56.5q260 0 360 -128.5t100 -303.5q0 -232 -168 -445 t-447 -213q-149 0 -227 45t-129 119z" />
<glyph unicode="&#x259;" horiz-adv-x="1150" d="M48 276q0 192 142.5 252t395.5 104l209 36q1 13 1 28q0 64 -35 121t-161 57q-72 0 -147 -27.5t-120 -61.5q-26 -19 -46.5 -19t-34.5 19l-59 78q-16 21 -16 41q0 24 24 47q65 60 170 89.5t247 29.5q276 0 376 -127t100 -308q0 -231 -165 -443t-456 -212q-201 0 -313 90 t-112 206zM285 299q0 -55 52.5 -89t132.5 -34q127 0 202.5 88t109.5 216l-219 -36q-105 -17 -191.5 -50.5t-86.5 -94.5z" />
<glyph unicode="&#x265;" horiz-adv-x="1194" d="M115 436l128 554q14 60 73 60h160q60 0 47 -60l-112 -482q-49 -212 -24.5 -272t104.5 -60q101 0 182.5 119t132.5 340l81 355q14 60 73 60h160q60 0 47 -60l-307 -1330q-14 -60 -74 -60h-160q-60 0 -46 60l94 407q10 42 22 80h-5q-80 -94 -152.5 -130.5t-172.5 -36.5 q-142 0 -224.5 107t-26.5 349z" />
<glyph unicode="&#x268;" horiz-adv-x="728" d="M42 498l23 100q12 50 72 50h117l79 342q14 60 73 60h160q49 0 49 -41q0 -8 -2 -19l-79 -342h117q50 0 50 -35q0 -7 -2 -15l-23 -100q-12 -50 -72 -50h-117l-89 -388q-14 -60 -74 -60h-160q-49 0 -49 39q0 10 3 21l89 388h-117q-50 0 -50 35q0 7 2 15zM396 1264l29 128 q14 60 74 60h160q49 0 49 -39q0 -10 -3 -21l-29 -128q-14 -60 -74 -60h-160q-49 0 -49 39q0 10 3 21z" />
<glyph unicode="&#x26a;" horiz-adv-x="748" d="M-16 50l23 100q12 50 71 50h82l150 650h-82q-50 0 -50 35q0 7 2 15l23 100q12 50 71 50h444q51 0 51 -36q0 -6 -2 -14l-23 -100q-12 -50 -72 -50h-82l-150 -650h82q51 0 51 -36q0 -6 -2 -14l-23 -100q-12 -50 -72 -50h-444q-50 0 -50 35q0 7 2 15z" />
<glyph unicode="&#x26f;" horiz-adv-x="1750" d="M118 450l125 540q14 60 74 60h160q60 0 46 -60l-106 -460q-43 -188 -33 -271t85 -83q70 0 147 81.5t146 380.5l81 352q14 60 74 60h160q60 0 46 -60l-101 -440q-47 -205 -37.5 -289.5t84.5 -84.5q69 0 153 110t140 352l81 352q14 60 74 60h160q60 0 46 -60l-215 -930 q-14 -60 -73 -60h-158q-60 0 -47 60l21 90h-4q-46 -69 -118 -119.5t-148 -50.5q-125 0 -179.5 71.5t-54.5 159.5h-4q-73 -112 -163 -171.5t-219 -59.5q-135 0 -219 106t-24 364z" />
<glyph unicode="&#x271;" horiz-adv-x="1750" d="M30 60l215 930q14 60 73 60h158q49 0 49 -41q0 -8 -2 -19l-21 -90h4q46 69 118 119.5t148 50.5q125 0 179.5 -71.5t54.5 -159.5h4q73 112 163 171.5t219 59.5q135 0 219 -106q49 -62 49 -175q0 -82 -25 -189l-140 -604q-57 -248 -168 -332t-282 -84q-90 0 -141 15 q-26 8 -26 32q0 10 5 24l37 106q10 29 41 29q6 0 13 -1q49 -9 67 -9q73 0 113 65t68 185l114 494q35 153 35 236q0 19 -2 35q-10 83 -85 83q-70 0 -147 -81.5t-146 -380.5l-81 -352q-14 -60 -74 -60h-160q-49 0 -49 39q0 10 3 21l101 440q39 171 39 258q0 17 -2 31 q-9 85 -84 85q-69 0 -153 -110t-140 -352l-81 -352q-14 -60 -74 -60h-160q-49 0 -49 39q0 10 3 21z" />
<glyph unicode="&#x275;" horiz-adv-x="1206" d="M58 412q0 225 166 441.5t466 216.5q260 0 360 -128.5t100 -303.5q0 -225 -166 -441.5t-466 -216.5q-260 0 -360 128.5t-100 303.5zM354 387q0 -100 48.5 -155.5t133.5 -55.5q114 0 193 94t98 178h-471q-2 -30 -2 -61zM397 648h457v15q0 100 -48.5 155.5t-133.5 55.5 q-112 0 -187.5 -88t-87.5 -138z" />
<glyph unicode="&#x279;" horiz-adv-x="786" d="M-89 42l44 119q15 41 59 24q24 -9 54 -9q90 0 187.5 136t156.5 391l66 287q14 60 74 60h160q60 0 46 -60l-215 -930q-14 -60 -73 -60h-154q-61 0 -47 60l28 123h-4q-42 -85 -114 -144t-160 -59q-58 0 -92 14q-29 12 -16 48z" />
<glyph unicode="&#x283;" horiz-adv-x="572" d="M-307 -349l37 106q10 29 41 29q6 0 13 -1q49 -9 67 -9q73 0 113 65t68 185l269 1164q38 162 142.5 234t274.5 72q54 0 101 -11.5t85 -26.5q24 -10 24 -31q0 -10 -5 -22l-45 -108q-10 -25 -49 -13q-29 9 -63 12.5t-56 3.5q-72 0 -101 -57.5t-51 -152.5l-253 -1094 q-57 -248 -168 -332t-282 -84q-90 0 -141 15q-26 8 -26 32q0 10 5 24z" />
<glyph unicode="&#x287;" horiz-adv-x="798" d="M19 50l23 100q12 50 71 50h162l114 496q20 88 12.5 139.5t-58.5 51.5q-31 0 -69 -7.5t-63 -17.5q-36 -15 -40 23l-16 114q-4 33 37 50q36 15 100 24.5t122 9.5q184 0 241 -101.5t15 -281.5l-115 -500h68q59 0 47 -50l-23 -100q-12 -50 -70 -50h-68l-8 -35 q-10 -45 -40 -82l-109 -135q-30 -38 -60 -38h-70q-60 0 -47 60l54 230h-162q-59 0 -48 50z" />
<glyph unicode="&#x289;" horiz-adv-x="1372" d="M42 498l23 100q12 50 72 50h117l79 342q14 60 73 60h160q50 0 50 -40q0 -9 -3 -20l-79 -342h365l78 342q14 60 73 60h160q50 0 50 -40q0 -9 -3 -20l-79 -342h117q50 0 50 -36q0 -6 -2 -14l-23 -100q-12 -50 -72 -50h-116l-90 -388q-14 -60 -74 -60h-158q-49 0 -49 39 q0 10 3 21l21 87h-4q-80 -94 -152.5 -130.5t-172.5 -36.5q-142 0 -224 107q-50 64 -50 175q0 76 23 174l3 12h-1h-117q-50 0 -50 35q0 7 2 15zM481 227q26 -51 100 -51q89 0 158 88t102 184h-353l-3 -16q-16 -83 -16 -136q0 -46 12 -69z" />
<glyph unicode="&#x292;" horiz-adv-x="1025" d="M-87 -292q-43 51 0 89l84 73q47 41 88 -4q50 -55 96 -72.5t103 -17.5q124 0 185 86.5t61 196.5q0 66 -47.5 130t-170.5 64h-93q-59 0 -48 50l17 76q14 61 61 108l364 363v4q-41 -4 -81 -4h-316q-60 0 -48 50l23 100q12 50 71 50h688q60 0 49 -50l-16 -70 q-13 -56 -65 -108l-370 -369v-4q106 -26 191 -122t85 -221q0 -235 -143.5 -380.5t-414.5 -145.5q-119 0 -206 28.5t-147 99.5z" />
<glyph unicode="&#x2b9;" horiz-adv-x="540" d="M256 954l127 531q16 65 66 65h162q43 0 43 -33q0 -13 -7 -32l-193 -531q-22 -60 -64 -60h-98q-39 0 -39 37q0 10 3 23z" />
<glyph unicode="&#x2ba;" horiz-adv-x="990" d="M256 954l127 531q16 65 66 65h162q43 0 43 -33q0 -13 -7 -32l-193 -531q-22 -60 -64 -60h-98q-39 0 -39 37q0 10 3 23zM706 954l127 531q16 65 66 65h162q43 0 43 -33q0 -13 -7 -32l-193 -531q-22 -60 -64 -60h-98q-39 0 -39 37q0 10 3 23z" />
<glyph unicode="&#x2c6;" horiz-adv-x="614" d="M145 1191q-24 38 38 76l232 140q45 27 76 27h37q30 0 62 -27l179 -153q43 -37 4 -76l-22 -22q-40 -40 -79 -6l-170 145h-2l-250 -154q-53 -32 -77 6z" />
<glyph unicode="&#x2c7;" horiz-adv-x="614" d="M195 1394l22 22q22 22 43 22q18 0 36 -16l170 -145h2l250 154q24 15 42 15q22 0 35 -21l28 -44q7 -11 7 -21q0 -28 -45 -55l-232 -140q-45 -27 -76 -27h-37q-30 0 -62 27l-179 153q-23 19 -23 39q0 18 19 37z" />
<glyph unicode="&#x2ca;" horiz-adv-x="614" d="M312 1209l129 179q34 47 117 47h152q34 0 34 -17q0 -15 -25 -42l-173 -189q-34 -37 -110 -37h-117q-27 0 -27 17q0 15 20 42z" />
<glyph unicode="&#x2cb;" horiz-adv-x="614" d="M328 1376q-49 59 35 59h152q72 0 95 -47l87 -179q29 -59 -35 -59h-86q-61 0 -92 37z" />
<glyph unicode="&#x2ce;" horiz-adv-x="614" d="M-70 -346q-49 59 35 59h152q72 0 95 -47l87 -179q29 -59 -35 -59h-86q-61 0 -92 37z" />
<glyph unicode="&#x2cf;" horiz-adv-x="614" d="M-86 -513l129 179q34 47 117 47h152q34 0 34 -17q0 -15 -25 -42l-173 -189q-34 -37 -110 -37h-117q-27 0 -27 17q0 15 20 42z" />
<glyph unicode="&#x2d8;" horiz-adv-x="614" d="M171 1365q-11 47 24 60l61 22q39 14 51 -21q23 -68 62 -98t118 -30q67 0 124 37t94 90q29 41 61 21l72 -44q27 -17 -4 -60q-80 -110 -167 -161t-211 -51q-108 0 -183 59t-102 176z" />
<glyph unicode="&#x2d9;" horiz-adv-x="614" d="M339 1264l29 128q14 60 74 60h160q49 0 49 -39q0 -10 -3 -21l-29 -128q-14 -60 -74 -60h-160q-49 0 -49 39q0 10 3 21z" />
<glyph unicode="&#x2da;" horiz-adv-x="614" d="M300 1313q0 77 55 131.5t134 54.5t134 -54.5t55 -131.5t-55 -131.5t-134 -54.5t-134 54.5t-55 131.5zM395 1313q0 -40 27 -67t67 -27t67 27t27 67t-27 67t-67 27t-67 -27t-27 -67z" />
<glyph unicode="&#x2db;" horiz-adv-x="614" d="M-100 -266q0 36 9 70.5t59 85t132 103.5q33 18 44 67h272q-10 -45 -54 -71q-111 -69 -168.5 -109t-57.5 -69q0 -21 17 -28t44 -7q44 0 85 5q39 5 40 -34l3 -115q1 -38 -34 -43q-69 -9 -147 -9q-124 0 -184 43.5t-60 110.5z" />
<glyph unicode="&#x2dc;" horiz-adv-x="614" d="M148 1253q38 70 94 106.5t138 36.5q66 0 130 -52t109 -52q31 0 49.5 10t42.5 47q22 33 43 33q9 0 17 -5l41 -27q13 -8 13 -24q0 -15 -12 -37q-38 -70 -94 -106.5t-138 -36.5q-66 0 -130 52t-109 52q-31 0 -49.5 -10t-42.5 -47q-22 -33 -43 -33q-9 0 -17 5l-41 27 q-13 8 -13 24q0 15 12 37z" />
<glyph unicode="&#x2dd;" horiz-adv-x="614" d="M161 1218l79 166q24 51 108 51h135q26 0 26 -15q0 -17 -33 -54l-138 -174q-33 -42 -103 -42h-64q-24 0 -24 22q0 17 14 46zM502 1218l79 166q24 51 108 51h135q26 0 26 -15q0 -17 -33 -54l-138 -174q-33 -42 -103 -42h-64q-24 0 -24 22q0 17 14 46z" />
<glyph unicode="&#x2ee;" horiz-adv-x="916" d="M268 931q-10 10 -10 22q0 23 39 53q37 29 60 74.5t36 103.5h-69q-56 0 -56 49q0 11 3 26l31 134q17 75 88 75h156q56 0 56 -47q0 -13 -4 -28l-31 -134q-25 -109 -59 -197t-123 -160q-29 -23 -51 -23q-18 0 -31 15zM688 931q-10 10 -10 22q0 23 39 53q37 29 60 74.5 t36 103.5h-69q-56 0 -56 49q0 11 3 26l31 134q17 75 88 75h156q56 0 56 -47q0 -13 -4 -28l-31 -134q-25 -109 -59 -197t-123 -160q-29 -23 -51 -23q-18 0 -31 15z" />
<glyph unicode="&#x300;" d="M-286 1376q-49 59 35 59h152q72 0 95 -47l87 -179q29 -59 -35 -59h-86q-61 0 -92 37z" />
<glyph unicode="&#x301;" d="M-302 1209l129 179q34 47 117 47h152q34 0 34 -17q0 -15 -25 -42l-173 -189q-34 -37 -110 -37h-117q-27 0 -27 17q0 15 20 42z" />
<glyph unicode="&#x302;" d="M-469 1191q-24 38 38 76l232 140q45 27 76 27h37q30 0 62 -27l179 -153q43 -37 4 -76l-22 -22q-40 -40 -79 -6l-170 145h-2l-250 -154q-53 -32 -77 6z" />
<glyph unicode="&#x303;" d="M-466 1253q38 70 94 106.5t138 36.5q66 0 130 -52t109 -52q31 0 49.5 10t42.5 47q22 33 43 33q9 0 17 -5l41 -27q13 -8 13 -24q0 -15 -12 -37q-38 -70 -94 -106.5t-138 -36.5q-66 0 -130 52t-109 52q-31 0 -49.5 -10t-42.5 -47q-22 -33 -43 -33q-9 0 -17 5l-41 27 q-13 8 -13 24q0 15 12 37z" />
<glyph unicode="&#x304;" d="M-461 1276l15 66q12 50 71 50h538q51 0 51 -36q0 -6 -2 -14l-15 -66q-12 -50 -72 -50h-538q-50 0 -50 35q0 7 2 15z" />
<glyph unicode="&#x305;" d="M-1047 1242v100q0 50 60 50h1130q60 0 60 -50v-100q0 -50 -60 -50h-1130q-60 0 -60 50z" />
<glyph unicode="&#x306;" d="M-443 1365q-11 47 24 60l61 22q39 14 51 -21q23 -68 62 -98t118 -30q67 0 124 37t94 90q29 41 61 21l72 -44q27 -17 -4 -60q-80 -110 -167 -161t-211 -51q-108 0 -183 59t-102 176z" />
<glyph unicode="&#x307;" d="M-275 1264l29 128q14 60 74 60h160q49 0 49 -39q0 -10 -3 -21l-29 -128q-14 -60 -74 -60h-160q-49 0 -49 39q0 10 3 21z" />
<glyph unicode="&#x308;" d="M-466 1266l27 116q14 60 74 60h116q49 0 49 -39q0 -10 -3 -21l-27 -116q-14 -60 -74 -60h-116q-49 0 -49 39q0 10 3 21zM-40 1266l27 116q14 60 74 60h116q49 0 49 -39q0 -10 -3 -21l-27 -116q-14 -60 -74 -60h-116q-49 0 -49 39q0 10 3 21z" />
<glyph unicode="&#x30a;" d="M-314 1313q0 77 55 131.5t134 54.5t134 -54.5t55 -131.5t-55 -131.5t-134 -54.5t-134 54.5t-55 131.5zM-219 1313q0 -40 27 -67t67 -27t67 27t27 67t-27 67t-67 27t-67 -27t-27 -67z" />
<glyph unicode="&#x30b;" d="M-453 1218l79 166q24 51 108 51h135q26 0 26 -15q0 -17 -33 -54l-138 -174q-33 -42 -103 -42h-64q-24 0 -24 22q0 17 14 46zM-112 1218l79 166q24 51 108 51h135q26 0 26 -15q0 -17 -33 -54l-138 -174q-33 -42 -103 -42h-64q-24 0 -24 22q0 17 14 46z" />
<glyph unicode="&#x30c;" d="M-419 1394l22 22q22 22 43 22q18 0 36 -16l170 -145h2l250 154q24 15 42 15q22 0 35 -21l28 -44q7 -11 7 -21q0 -28 -45 -55l-232 -140q-45 -27 -76 -27h-37q-30 0 -62 27l-179 153q-23 19 -23 39q0 18 19 37z" />
<glyph unicode="&#x30f;" d="M-433 1366q-13 26 -13 42q0 27 38 27h113q72 0 86 -51l45 -166q4 -16 4 -28q0 -40 -46 -40h-54q-61 0 -83 42zM-92 1366q-13 26 -13 42q0 27 38 27h113q72 0 86 -51l45 -166q4 -16 4 -28q0 -40 -46 -40h-54q-61 0 -83 42z" />
<glyph unicode="&#x311;" d="M-433 1181q-13 8 -13 21q0 16 17 39q80 110 167 161t211 51q108 0 183 -59t102 -176q3 -11 3 -21q0 -29 -27 -39l-61 -22q-11 -4 -20 -4q-23 0 -31 25q-23 68 -62 98t-118 30q-67 0 -124 -37t-94 -90q-20 -28 -40 -28q-11 0 -21 7z" />
<glyph unicode="&#x315;" d="M88 1225q-10 10 -10 22q0 23 39 53q37 29 60 74.5t36 103.5h-69q-56 0 -56 49q0 11 3 26l31 134q17 75 88 75h156q56 0 56 -47q0 -13 -4 -28l-31 -134q-25 -109 -59 -197t-123 -160q-29 -23 -51 -23q-18 0 -31 15z" />
<glyph unicode="&#x316;" d="M-684 -346q-49 59 35 59h152q72 0 95 -47l87 -179q29 -59 -35 -59h-86q-61 0 -92 37z" />
<glyph unicode="&#x317;" d="M-700 -513l129 179q34 47 117 47h152q34 0 34 -17q0 -15 -25 -42l-173 -189q-34 -37 -110 -37h-117q-27 0 -27 17q0 15 20 42z" />
<glyph unicode="&#x323;" d="M-644 -333l29 128q14 60 74 60h160q49 0 49 -39q0 -10 -3 -21l-29 -128q-14 -60 -74 -60h-160q-49 0 -49 39q0 10 3 21z" />
<glyph unicode="&#x324;" d="M-832 -320l27 116q14 60 74 60h116q49 0 49 -39q0 -10 -3 -21l-27 -116q-14 -60 -74 -60h-116q-49 0 -49 39q0 10 3 21zM-406 -320l27 116q14 60 74 60h116q49 0 49 -39q0 -10 -3 -21l-27 -116q-14 -60 -74 -60h-116q-49 0 -49 39q0 10 3 21z" />
<glyph unicode="&#x325;" d="M-695 -336q0 77 55 131.5t134 54.5t134 -54.5t55 -131.5t-55 -131.5t-134 -54.5t-134 54.5t-55 131.5zM-600 -336q0 -40 27 -67t67 -27t67 27t27 67t-27 67t-67 27t-67 -27t-27 -67z" />
<glyph unicode="&#x327;" d="M-709 -357l20 49q12 30 46 19q46 -15 89 -15q37 0 66.5 17t29.5 44q0 21 -20 33.5t-81 12.5h-21q-30 0 -26 35q6 47 32 81l62 81q17 22 45 22h92q30 0 14 -22l-65 -88v-3q60 -11 91.5 -41.5t31.5 -81.5q0 -81 -72 -143t-195 -62q-51 0 -121 20q-22 6 -22 25q0 7 4 17z " />
<glyph unicode="&#x328;" d="M-714 -266q0 36 9 70.5t59 85t132 103.5q33 18 44 67h272q-10 -45 -54 -71q-111 -69 -168.5 -109t-57.5 -69q0 -21 17 -28t44 -7q44 0 85 5q39 5 40 -34l3 -115q1 -38 -34 -43q-69 -9 -147 -9q-124 0 -184 43.5t-60 110.5z" />
<glyph unicode="&#x32c;" d="M-786 -196l22 22q22 22 43 22q18 0 36 -16l170 -145h2l250 154q24 15 42 15q22 0 35 -21l28 -44q7 -11 7 -21q0 -28 -45 -55l-232 -140q-45 -27 -76 -27h-37q-30 0 -62 27l-179 153q-23 19 -23 39q0 18 19 37z" />
<glyph unicode="&#x32d;" d="M-833 -386q-24 38 38 76l232 140q45 27 76 27h37q30 0 62 -27l179 -153q43 -37 4 -76l-22 -22q-40 -40 -79 -6l-170 145h-2l-250 -154q-53 -32 -77 6z" />
<glyph unicode="&#x32e;" d="M-812 -233q-11 47 24 60l61 22q39 14 51 -21q23 -68 62 -98t118 -30q67 0 124 37t94 90q29 41 61 21l72 -44q27 -17 -4 -60q-80 -110 -167 -161t-211 -51q-108 0 -183 59t-102 176z" />
<glyph unicode="&#x32f;" d="M-835 -562q-13 8 -13 21q0 16 17 39q80 110 167 161t211 51q108 0 183 -59t102 -176q3 -11 3 -21q0 -29 -27 -39l-61 -22q-11 -4 -20 -4q-23 0 -31 25q-23 68 -62 98t-118 30q-67 0 -124 -37t-94 -90q-20 -28 -40 -28q-11 0 -21 7z" />
<glyph unicode="&#x330;" d="M-853 -422q38 70 94 106.5t138 36.5q66 0 130 -52t109 -52q31 0 49.5 10t42.5 47q22 33 43 33q9 0 17 -5l41 -27q13 -8 13 -24q0 -15 -12 -37q-38 -70 -94 -106.5t-138 -36.5q-66 0 -130 52t-109 52q-31 0 -49.5 -10t-42.5 -47q-22 -33 -43 -33q-9 0 -17 5l-41 27 q-13 8 -13 24q0 15 12 37z" />
<glyph unicode="&#x331;" d="M-847 -394l15 66q12 50 71 50h538q51 0 51 -36q0 -6 -2 -14l-15 -66q-12 -50 -72 -50h-538q-50 0 -50 35q0 7 2 15z" />
<glyph unicode="&#x332;" d="M-1420 -275q0 50 60 50h1130q60 0 60 -50v-100q0 -50 -60 -50h-1130q-60 0 -60 50v100z" />
<glyph unicode="&#x334;" d="M-627 555q38 70 94 106.5t138 36.5q66 0 130 -52t109 -52q31 0 49.5 10t42.5 47q22 33 43 33q9 0 17 -5l41 -27q13 -8 13 -24q0 -15 -12 -37q-38 -70 -94 -106.5t-138 -36.5q-66 0 -130 52t-109 52q-31 0 -49.5 -10t-42.5 -47q-22 -33 -43 -33q-9 0 -17 5l-41 27 q-13 8 -13 24q0 15 12 37z" />
<glyph unicode="&#x338;" d="M-1041 -294l1063 1726q27 44 55 44q11 0 22 -6l82 -47q22 -13 22 -34q0 -17 -14 -40l-1064 -1726q-27 -44 -55 -44q-11 0 -21 6l-82 47q-22 13 -22 34q0 17 14 40z" />
<glyph unicode="&#x3a3;" horiz-adv-x="1247" d="M-35 65l19 82q15 64 83 139l385 422q41 45 41 88q0 22 -11 43l-187 362q-15 30 -15 64q0 18 4 37l15 67q15 65 90 65h896q63 0 63 -45q0 -9 -3 -20l-27 -118q-15 -65 -90 -65h-471q-60 0 -119 5v-7l195 -393q11 -22 11 -44q0 -42 -39 -83l-389 -414v-7q61 5 121 5h504 q63 0 63 -45q0 -9 -3 -20l-27 -118q-15 -65 -90 -65h-959q-63 0 -63 45q0 9 3 20z" />
<glyph unicode="&#x401;" horiz-adv-x="1280" d="M57 75l297 1284q17 75 87 75h858q63 0 63 -45q0 -9 -3 -20l-27 -118q-15 -65 -90 -65h-636l-74 -318h583q63 0 63 -45q0 -9 -3 -20l-27 -118q-15 -65 -90 -65h-583l-86 -372h668q63 0 63 -45q0 -9 -3 -20l-27 -118q-15 -65 -90 -65h-890q-56 0 -56 49q0 11 3 26z M526 1605l24 106q17 75 87 75h152q56 0 56 -49q0 -11 -3 -26l-24 -106q-17 -75 -88 -75h-152q-56 0 -56 47q0 13 4 28zM1034 1605l24 106q17 75 87 75h152q56 0 56 -49q0 -11 -3 -26l-24 -106q-17 -75 -88 -75h-152q-56 0 -56 47q0 13 4 28z" />
<glyph unicode="&#x402;" horiz-adv-x="1610" d="M201 1243l29 126q15 65 90 65h1028q62 0 62 -45q0 -9 -2 -20l-29 -126q-15 -65 -90 -65h-398l-54 -235q-15 -65 -33 -120h7q81 45 160 66t152 21q185 0 283.5 -117.5t98.5 -302.5q0 -222 -119.5 -373t-368.5 -151q-98 0 -157 18q-53 16 -53 47q0 9 4 19l50 120 q18 44 47 44q6 0 12 -2q35 -10 88 -10q98 0 141.5 90t43.5 180q0 92 -40.5 147t-145.5 55q-47 0 -103.5 -13t-146.5 -62l-125 -544q-13 -55 -63 -55h-192q-40 0 -40 35q0 9 3 20l259 1123h-338q-63 0 -63 45q0 9 3 20z" />
<glyph unicode="&#x403;" horiz-adv-x="1118" d="M57 75l297 1284q17 75 87 75h779q62 0 62 -45q0 -9 -2 -20l-27 -118q-15 -65 -90 -65h-557l-257 -1111q-17 -75 -87 -75h-152q-56 0 -56 49q0 11 3 26zM702 1604l102 134q36 47 120 47h176q40 0 40 -18q0 -15 -30 -43l-155 -146q-40 -38 -119 -38h-123q-33 0 -33 19 q0 16 22 45z" />
<glyph unicode="&#x404;" horiz-adv-x="1410" d="M100 588q0 348 202 614t590 266q167 0 294.5 -58t183.5 -150q40 -66 -17 -104l-124 -83q-46 -31 -96 36q-50 66 -121.5 94.5t-140.5 28.5q-166 0 -274.5 -113.5t-139.5 -248.5h542q75 0 60 -65l-27 -118q-15 -65 -90 -65h-528q-2 -35 -2 -72q0 -151 78 -249.5t267 -98.5 q95 0 168.5 37t115.5 94q53 73 100 47l127 -70q62 -34 18 -98q-76 -110 -219 -178t-331 -68q-300 0 -468 153.5t-168 468.5z" />
<glyph unicode="&#x405;" horiz-adv-x="1299" d="M64 212l87 107q19 23 45 23q29 0 66 -28q56 -42 143.5 -77t189.5 -35t166.5 27t92 70t27.5 98q0 39 -20.5 76t-57 57t-83.5 37l-117 45q-57 22 -135 60q-63 31 -106.5 63.5t-82.5 108.5t-39 191q0 127 85.5 242.5t212 153t261.5 37.5q136 0 253.5 -37t175.5 -94 q35 -35 35 -64q0 -19 -14 -35l-88 -100q-21 -24 -47 -24q-29 0 -63 27q-51 41 -122 66t-156 25t-134.5 -18t-79 -60t-29.5 -86q0 -35 12 -67.5t37 -59.5t71 -49q64 -30 147 -54.5t136 -46.5q78 -32 134.5 -84.5t83 -126.5t26.5 -164q0 -124 -65.5 -219t-198.5 -163t-354 -68 q-178 0 -280.5 33.5t-194.5 114.5q-35 31 -35 60q0 19 15 38z" />
<glyph unicode="&#x406;" horiz-adv-x="612" d="M57 75l297 1284q17 75 87 75h152q56 0 56 -49q0 -11 -3 -26l-297 -1284q-17 -75 -87 -75h-152q-56 0 -56 49q0 11 3 26z" />
<glyph unicode="&#x407;" horiz-adv-x="612" d="M57 75l297 1284q17 75 87 75h152q56 0 56 -49q0 -11 -3 -26l-297 -1284q-17 -75 -87 -75h-152q-56 0 -56 49q0 11 3 26zM197 1605l24 106q17 75 87 75h132q56 0 56 -49q0 -11 -3 -26l-24 -106q-17 -75 -88 -75h-132q-56 0 -56 47q0 13 4 28zM645 1605l24 106q17 75 87 75 h132q56 0 56 -49q0 -11 -3 -26l-24 -106q-17 -75 -88 -75h-132q-56 0 -56 47q0 13 4 28z" />
<glyph unicode="&#x408;" horiz-adv-x="947" d="M-48 97l50 134q12 31 39 31q21 0 51 -19q64 -41 136 -41q115 0 173 80.5t97 248.5l191 828q17 75 87 75h152q56 0 56 -49q0 -11 -3 -26l-187 -808q-85 -368 -225 -476.5t-362 -108.5q-141 0 -233 56q-28 17 -28 46q0 13 6 29z" />
<glyph unicode="&#x409;" horiz-adv-x="2220" d="M-59 58l36 114q13 42 48 42q10 0 23 -4q26 -8 67 -8q161 0 261.5 208.5t209.5 679.5l62 269q17 75 87 75h728q56 0 56 -49q0 -11 -3 -26l-113 -489h135q332 0 449.5 -115t117.5 -281q0 -207 -181.5 -340.5t-546.5 -133.5h-397q-56 0 -56 49q0 11 3 26l257 1111h-326 l-35 -152q-137 -600 -291 -834t-454 -234q-54 0 -122 24q-21 8 -21 34q0 14 6 34zM1258 244h146q190 0 289.5 44t99.5 169q0 98 -65.5 133.5t-274.5 35.5h-106z" />
<glyph unicode="&#x40a;" horiz-adv-x="2180" d="M57 75l297 1284q17 75 87 75h152q56 0 56 -49q0 -11 -3 -26l-113 -489h538l113 489q17 75 87 75h152q56 0 56 -49q0 -11 -3 -26l-113 -489h135q332 0 449.5 -115t117.5 -281q0 -207 -181.5 -340.5t-546.5 -133.5h-397q-56 0 -56 49q0 11 3 26l127 547h-538l-127 -547 q-17 -75 -87 -75h-152q-56 0 -56 49q0 11 3 26zM1218 244h146q190 0 289.5 44t99.5 169q0 98 -65.5 133.5t-274.5 35.5h-106z" />
<glyph unicode="&#x40b;" horiz-adv-x="1614" d="M201 1243l29 126q15 65 90 65h1028q62 0 62 -45q0 -9 -2 -20l-29 -126q-15 -65 -90 -65h-398l-54 -235q-13 -58 -33 -120h7q81 37 170.5 62t198.5 25q161 0 249 -122q61 -84 61 -190q0 -46 -11 -96l-99 -427q-17 -75 -87 -75h-152q-56 0 -56 49q0 11 3 26l88 379 q11 47 11 83q0 55 -25 85q-40 52 -109 52q-39 0 -119 -14t-176 -59l-126 -546q-13 -55 -63 -55h-192q-40 0 -40 35q0 9 3 20l259 1123h-338q-63 0 -63 45q0 9 3 20z" />
<glyph unicode="&#x40c;" horiz-adv-x="1348" d="M57 75l297 1284q17 75 87 75h152q56 0 56 -49q0 -11 -3 -26l-117 -504h20q66 0 142.5 55.5t150.5 139.5l285 325q52 59 104 59h201q53 0 53 -26q0 -21 -35 -60l-360 -394q-66 -72 -126 -121.5t-144 -97.5l-1 -1q69 -29 124 -95t92 -159l155 -394q9 -23 9 -40 q0 -46 -67 -46h-163q-55 0 -76 59l-114 325q-27 78 -91 152.5t-160 74.5h-55l-124 -536q-17 -75 -87 -75h-152q-56 0 -56 49q0 11 3 26zM769 1604l102 134q36 47 120 47h176q40 0 40 -18q0 -15 -30 -43l-155 -146q-40 -38 -119 -38h-123q-33 0 -33 19q0 16 22 45z" />
<glyph unicode="&#x40e;" horiz-adv-x="1382" d="M98 78l45 128q11 30 39 30q17 0 39 -10q54 -24 117 -24q48 0 97.5 13.5t90.5 75.5l22 33l-295 1024q-5 18 -5 33q0 53 72 53h150q59 0 76 -69l152 -611q12 -48 19 -103t9 -125h4q22 74 48.5 125.5t55.5 102.5l350 611q40 69 108 69h184q49 0 49 -31q0 -20 -22 -55 l-652 -1017q-171 -267 -283 -316t-255 -49q-117 0 -187 34q-33 16 -33 49q0 13 5 29zM557 1756l8 53q10 68 78 68h108q54 0 54 -40q0 -4 -1 -8l-4 -33q-1 -5 -1 -10q0 -30 19 -56q23 -32 99 -32q118 0 199 67t124 121q23 30 48 30q15 0 30 -12l54 -41q18 -13 18 -32 q0 -17 -16 -38q-71 -99 -191 -176t-303 -77q-161 0 -249 63q-76 54 -76 129q0 12 2 24z" />
<glyph unicode="&#x40f;" horiz-adv-x="1430" d="M57 75l297 1284q17 75 87 75h152q56 0 56 -49q0 -11 -3 -26l-257 -1111h526l257 1111q17 75 87 75h152q56 0 56 -49q0 -11 -3 -26l-297 -1284q-17 -75 -87 -75h-360l-69 -300q-16 -70 -76 -70h-130q-47 0 -47 44q0 11 3 26l69 300h-360q-56 0 -56 49q0 11 3 26z" />
<glyph unicode="&#x410;" horiz-adv-x="1394" d="M-63 66l764 1287q48 81 111 81h140q63 0 77 -81l216 -1287q1 -9 1 -16q0 -50 -62 -50h-139q-66 0 -77 69l-45 269h-508l-159 -269q-41 -69 -107 -69h-179q-47 0 -47 28q0 15 14 38zM561 586h322l-56 318q-8 47 -8 77.5t6 79.5h-4q-16 -49 -25.5 -74t-44.5 -83z" />
<glyph unicode="&#x411;" horiz-adv-x="1370" d="M57 75l297 1284q17 75 87 75h825q62 0 62 -45q0 -9 -2 -20l-27 -118q-15 -65 -90 -65h-603l-72 -310h145q332 0 449 -115t117 -284q0 -210 -181.5 -343.5t-546.5 -133.5h-407q-56 0 -56 49q0 11 3 26zM388 244h156q190 0 289.5 44t99.5 172q0 101 -65 136.5t-274 35.5 h-116z" />
<glyph unicode="&#x412;" horiz-adv-x="1379" d="M57 75l297 1284q17 75 97 75h320q297 0 422 -99t125 -259q0 -156 -125 -236t-245 -90v-3q116 -11 210 -89t94 -235q0 -179 -184 -301t-538 -122h-410q-66 0 -66 51q0 11 3 24zM388 244h166q230 0 308 46t78 162q0 92 -75.5 129t-263.5 37h-126zM529 854h151q160 0 251 59 t91 143q0 76 -65 105t-239 29h-111z" />
<glyph unicode="&#x413;" horiz-adv-x="1118" d="M57 75l297 1284q17 75 87 75h779q62 0 62 -45q0 -9 -2 -20l-27 -118q-15 -65 -90 -65h-557l-257 -1111q-17 -75 -87 -75h-152q-56 0 -56 49q0 11 3 26z" />
<glyph unicode="&#x414;" horiz-adv-x="1538" d="M-129 -300l109 473q17 75 107 75h43q164 133 257 332t167 520l60 259q17 75 87 75h728q56 0 56 -49q0 -11 -3 -26l-257 -1111h100q76 0 76 -53q0 -10 -3 -22l-109 -473q-16 -70 -76 -70h-130q-47 0 -47 44q0 11 3 26l69 300h-918l-69 -300q-16 -70 -76 -70h-130 q-47 0 -47 44q0 11 3 26zM442 248h491l217 938h-326l-33 -142q-89 -381 -173 -561t-176 -235z" />
<glyph unicode="&#x415;" horiz-adv-x="1280" d="M57 75l297 1284q17 75 87 75h858q63 0 63 -45q0 -9 -3 -20l-27 -118q-15 -65 -90 -65h-636l-74 -318h583q63 0 63 -45q0 -9 -3 -20l-27 -118q-15 -65 -90 -65h-583l-86 -372h668q63 0 63 -45q0 -9 -3 -20l-27 -118q-15 -65 -90 -65h-890q-56 0 -56 49q0 11 3 26z" />
<glyph unicode="&#x416;" horiz-adv-x="2040" d="M-42 86l332 394q97 116 173.5 170.5t158.5 83.5l1 1q-50 30 -102 106t-68 113l-173 394q-11 24 -11 42q0 44 69 44h153q52 0 76 -59l130 -325q33 -82 92 -138.5t129 -56.5h33l117 504q17 75 87 75h152q56 0 56 -49q0 -11 -3 -26l-117 -504h13q50 0 131.5 57t151.5 138 l280 325q51 59 104 59h201q52 0 52 -26q0 -22 -34 -60l-355 -394q-53 -59 -129.5 -124t-140.5 -95l-1 -1q69 -29 124.5 -95t91.5 -159l150 -394q9 -23 9 -40q0 -46 -67 -46h-163q-56 0 -76 59l-109 325q-24 72 -95 149.5t-146 77.5h-48l-124 -536q-17 -75 -87 -75h-152 q-56 0 -56 49q0 11 3 26l124 536h-28q-70 0 -156.5 -67.5t-160.5 -159.5l-259 -325q-47 -59 -104 -59h-211q-50 0 -50 27q0 21 32 59z" />
<glyph unicode="&#x417;" horiz-adv-x="1354" d="M78 255l103 89q22 19 45 19q31 0 65 -36q48 -51 115.5 -88t195.5 -37q97 0 205.5 52t108.5 164q0 98 -77 158t-200 60h-166q-63 0 -63 44q0 9 2 19l25 108q15 65 90 65h124q189 0 256.5 63.5t67.5 141.5q0 90 -78.5 122.5t-214.5 32.5q-85 0 -160 -35.5t-114 -71.5 q-33 -30 -63 -30q-25 0 -48 21l-87 81q-23 21 -23 43q0 28 36 57q107 88 224 129.5t255 41.5q285 0 427 -111.5t142 -252.5q0 -150 -91 -238.5t-246 -113.5l-1 -4q135 -31 215 -121t80 -200q0 -184 -185 -322.5t-446 -138.5q-228 0 -334.5 50t-175.5 140q-27 35 -27 62 q0 21 18 37z" />
<glyph unicode="&#x418;" horiz-adv-x="1492" d="M57 75l297 1284q17 75 87 75h152q56 0 56 -49q0 -11 -3 -26l-176 -763q-13 -58 -33 -120h7l685 888q54 70 146 70h198q56 0 56 -49q0 -11 -3 -26l-297 -1284q-17 -75 -87 -75h-152q-56 0 -56 49q0 11 3 26l176 763q13 58 33 120h-7l-685 -888q-54 -70 -146 -70h-198 q-56 0 -56 49q0 11 3 26z" />
<glyph unicode="&#x419;" horiz-adv-x="1492" d="M57 75l297 1284q17 75 87 75h152q56 0 56 -49q0 -11 -3 -26l-176 -763q-13 -58 -33 -120h7l685 888q54 70 146 70h198q56 0 56 -49q0 -11 -3 -26l-297 -1284q-17 -75 -87 -75h-152q-56 0 -56 49q0 11 3 26l176 763q13 58 33 120h-7l-685 -888q-54 -70 -146 -70h-198 q-56 0 -56 49q0 11 3 26zM628 1756l8 53q10 68 78 68h108q54 0 54 -40q0 -4 -1 -8l-4 -33q-1 -5 -1 -10q0 -30 20 -56q22 -32 98 -32q118 0 199 67t124 121q23 30 48 30q15 0 30 -12l54 -41q18 -13 18 -32q0 -17 -16 -38q-71 -99 -191 -176t-303 -77q-161 0 -249 63 q-76 54 -76 129q0 12 2 24z" />
<glyph unicode="&#x41a;" horiz-adv-x="1348" d="M57 75l297 1284q17 75 87 75h152q56 0 56 -49q0 -11 -3 -26l-117 -504h20q66 0 142.5 55.5t150.5 139.5l285 325q52 59 104 59h201q53 0 53 -26q0 -21 -35 -60l-360 -394q-66 -72 -126 -121.5t-144 -97.5l-1 -1q69 -29 124 -95t92 -159l155 -394q9 -23 9 -40 q0 -46 -67 -46h-163q-55 0 -76 59l-114 325q-27 78 -91 152.5t-160 74.5h-55l-124 -536q-17 -75 -87 -75h-152q-56 0 -56 49q0 11 3 26z" />
<glyph unicode="&#x41b;" horiz-adv-x="1482" d="M-59 58l36 114q13 42 48 42q10 0 23 -4q26 -8 67 -8q161 0 262 209t209 679l62 269q17 75 87 75h728q56 0 56 -49q0 -11 -3 -26l-297 -1284q-17 -75 -87 -75h-152q-56 0 -56 49q0 11 3 26l257 1111h-326l-35 -152q-138 -600 -291.5 -834t-453.5 -234q-54 0 -122 24 q-21 8 -21 34q0 14 6 34z" />
<glyph unicode="&#x41c;" horiz-adv-x="1828" d="M57 75l297 1284q17 75 87 75h276q59 0 65 -80l68 -877q4 -48 4 -79v-17q-2 -34 -8 -84h6q17 50 31.5 86t46.5 94l474 877q43 80 101 80h304q56 0 56 -49q0 -11 -3 -26l-297 -1284q-17 -75 -87 -75h-152q-56 0 -56 49q0 11 3 26l191 826q14 59 33 120h-7l-506 -940 q-44 -81 -105 -81h-170q-61 0 -67 81l-72 940h-7q-9 -58 -23 -120l-191 -826q-17 -75 -87 -75h-152q-56 0 -56 49q0 11 3 26z" />
<glyph unicode="&#x41d;" horiz-adv-x="1442" d="M57 75l297 1284q17 75 87 75h152q56 0 56 -49q0 -11 -3 -26l-113 -489h538l113 489q17 75 87 75h152q56 0 56 -49q0 -11 -3 -26l-297 -1284q-17 -75 -87 -75h-152q-56 0 -56 49q0 11 3 26l127 547h-538l-127 -547q-17 -75 -87 -75h-152q-56 0 -56 49q0 11 3 26z" />
<glyph unicode="&#x41e;" horiz-adv-x="1532" d="M104 587q0 370 213 625.5t563 255.5q300 0 469 -155.5t169 -465.5q0 -370 -213 -625.5t-563 -255.5q-300 0 -469 155.5t-169 465.5zM416 545q0 -160 85 -251.5t255 -91.5q200 0 325 188.5t125 498.5q0 160 -85 251.5t-255 91.5q-200 0 -325 -188.5t-125 -498.5z" />
<glyph unicode="&#x41f;" horiz-adv-x="1436" d="M57 75l297 1284q17 75 87 75h976q56 0 56 -49q0 -11 -3 -26l-297 -1284q-17 -75 -87 -75h-152q-56 0 -56 49q0 11 3 26l257 1111h-532l-257 -1111q-17 -75 -87 -75h-152q-56 0 -56 49q0 11 3 26z" />
<glyph unicode="&#x420;" horiz-adv-x="1328" d="M57 75l297 1284q17 75 87 75h354q281 0 417 -93t136 -294q0 -227 -180 -369t-540 -142h-172l-107 -461q-17 -75 -87 -75h-152q-56 0 -56 49q0 11 3 26zM512 780h171q209 0 289 66t80 165q0 102 -68 140.5t-246 38.5h-131z" />
<glyph unicode="&#x421;" horiz-adv-x="1404" d="M100 588q0 348 202 614t590 266q180 0 306 -62.5t182 -154.5q40 -66 -17 -104l-124 -83q-46 -31 -96 36q-50 66 -125 99t-147 33q-211 0 -335 -192t-124 -490q0 -151 78 -249.5t267 -98.5q108 0 180 41.5t113 98.5q53 73 100 47l127 -70q62 -34 18 -98 q-76 -110 -217 -182.5t-342 -72.5q-300 0 -468 153.5t-168 468.5z" />
<glyph unicode="&#x422;" horiz-adv-x="1246" d="M201 1243l29 126q15 65 90 65h1028q62 0 62 -45q0 -9 -2 -20l-29 -126q-15 -65 -90 -65h-368l-259 -1123q-13 -55 -63 -55h-192q-40 0 -40 35q0 9 3 20l259 1123h-368q-63 0 -63 45q0 9 3 20z" />
<glyph unicode="&#x423;" horiz-adv-x="1382" d="M98 78l45 128q11 30 39 30q17 0 39 -10q54 -24 117 -24q48 0 97.5 13.5t90.5 75.5l22 33l-295 1024q-5 18 -5 33q0 53 72 53h150q59 0 76 -69l152 -611q12 -48 19 -103t9 -125h4q22 74 48.5 125.5t55.5 102.5l350 611q40 69 108 69h184q49 0 49 -31q0 -20 -22 -55 l-652 -1017q-171 -267 -283 -316t-255 -49q-117 0 -187 34q-33 16 -33 49q0 13 5 29z" />
<glyph unicode="&#x424;" horiz-adv-x="1838" d="M121 648q0 266 199.5 459t589.5 193h43l16 67q18 75 87 75h152q57 0 57 -48q0 -12 -4 -27l-16 -67h43q280 0 403 -116t123 -372q0 -266 -199.5 -459t-589.5 -193h-43l-23 -100q-17 -75 -87 -75h-152q-56 0 -56 49q0 11 3 26l23 100h-43q-280 0 -403 116t-123 372z M423 632q0 -112 57 -177t233 -65h30l157 680h-30q-248 0 -347.5 -136.5t-99.5 -301.5zM1035 390h30q248 0 347.5 136.5t99.5 301.5q0 112 -57 177t-233 65h-30z" />
<glyph unicode="&#x425;" horiz-adv-x="1392" d="M-30 86l624 678l-297 584q-13 26 -13 44q0 42 71 42h176q51 0 76 -59l175 -417l338 417q48 59 104 59h235q54 0 54 -26q0 -21 -36 -60l-579 -626l324 -636q13 -26 13 -44q0 -42 -71 -42h-179q-51 0 -76 59l-200 469l-379 -469q-48 -59 -104 -59h-238q-53 0 -53 26 q0 21 35 60z" />
<glyph unicode="&#x426;" horiz-adv-x="1522" d="M57 75l297 1284q17 75 87 75h152q56 0 56 -49q0 -11 -3 -26l-257 -1111h526l257 1111q17 75 87 75h152q56 0 56 -49q0 -11 -3 -26l-257 -1111h122q56 0 56 -49q0 -11 -3 -26l-109 -473q-16 -70 -76 -70h-130q-47 0 -47 44q0 11 3 26l69 300h-982q-56 0 -56 49q0 11 3 26z " />
<glyph unicode="&#x427;" horiz-adv-x="1308" d="M212 953l94 406q17 75 87 75h152q70 0 53 -75l-88 -379q-28 -122 3 -171t99 -49q72 0 144.5 13t170.5 54l123 532q17 75 87 75h152q70 0 53 -75l-297 -1284q-17 -75 -87 -75h-152q-70 0 -53 75l96 416q13 58 33 120h-7q-81 -37 -172 -62t-189 -25q-160 0 -252 123 t-50 306z" />
<glyph unicode="&#x428;" horiz-adv-x="2140" d="M57 75l297 1284q17 75 87 75h152q56 0 56 -49q0 -11 -3 -26l-257 -1111h472l257 1111q17 75 87 75h152q56 0 56 -49q0 -11 -3 -26l-257 -1111h472l257 1111q17 75 87 75h152q56 0 56 -49q0 -11 -3 -26l-297 -1284q-17 -75 -87 -75h-1680q-56 0 -56 49q0 11 3 26z" />
<glyph unicode="&#x429;" horiz-adv-x="2232" d="M57 75l297 1284q17 75 87 75h152q56 0 56 -49q0 -11 -3 -26l-257 -1111h472l257 1111q17 75 87 75h152q56 0 56 -49q0 -11 -3 -26l-257 -1111h472l257 1111q17 75 87 75h152q56 0 56 -49q0 -11 -3 -26l-257 -1111h122q56 0 56 -49q0 -11 -3 -26l-109 -473 q-16 -70 -76 -70h-130q-47 0 -47 44q0 11 3 26l69 300h-1692q-56 0 -56 49q0 11 3 26z" />
<glyph unicode="&#x42a;" horiz-adv-x="1746" d="M203 1251l27 118q15 65 90 65h669q56 0 56 -49q0 -11 -3 -26l-113 -489h135q332 0 449.5 -115t117.5 -281q0 -207 -181.5 -340.5t-546.5 -133.5h-397q-56 0 -56 49q0 11 3 26l257 1111h-447q-62 0 -62 45q0 9 2 20zM784 244h146q190 0 289.5 44t99.5 169 q0 98 -65.5 133.5t-274.5 35.5h-106z" />
<glyph unicode="&#x42b;" horiz-adv-x="1870" d="M57 75l297 1284q17 75 87 75h152q56 0 56 -49q0 -11 -3 -26l-113 -489h135q332 0 449.5 -115t117.5 -281q0 -207 -181.5 -340.5t-546.5 -133.5h-397q-56 0 -56 49q0 11 3 26zM388 244h146q190 0 289.5 44t99.5 169q0 98 -65.5 133.5t-274.5 35.5h-106zM1315 75l297 1284 q17 75 87 75h152q56 0 56 -49q0 -11 -3 -26l-297 -1284q-17 -75 -87 -75h-152q-56 0 -56 49q0 11 3 26z" />
<glyph unicode="&#x42c;" horiz-adv-x="1350" d="M57 75l297 1284q17 75 87 75h152q56 0 56 -49q0 -11 -3 -26l-113 -489h135q332 0 449.5 -115t117.5 -281q0 -207 -181.5 -340.5t-546.5 -133.5h-397q-56 0 -56 49q0 11 3 26zM388 244h146q190 0 289.5 44t99.5 169q0 98 -65.5 133.5t-274.5 35.5h-106z" />
<glyph unicode="&#x42d;" horiz-adv-x="1388" d="M86 156q-45 69 5 112l85 74q53 46 117 -24q54 -60 141.5 -88t159.5 -28q207 0 313.5 127t136.5 293h-521q-75 0 -60 65l27 118q15 65 90 65h487q0 183 -80.5 272.5t-262.5 89.5q-100 0 -179.5 -32.5t-137.5 -92.5q-44 -45 -87 -12l-99 77q-60 47 -18 98q90 108 234.5 153 t309.5 45q319 0 473 -159.5t154 -462.5q0 -372 -199.5 -626t-604.5 -254q-190 0 -305.5 46t-178.5 144z" />
<glyph unicode="&#x42e;" horiz-adv-x="2096" d="M57 75l297 1284q17 75 87 75h152q56 0 56 -49q0 -11 -3 -26l-113 -489h170q43 198 231 398t510 200q300 0 469 -155.5t169 -465.5q0 -370 -213 -625.5t-563 -255.5q-300 0 -469 155.5t-169 465.5q0 18 1 35h-193l-127 -547q-17 -75 -87 -75h-152q-56 0 -56 49q0 11 3 26z M980 545q0 -160 85 -251.5t255 -91.5q200 0 325 188.5t125 498.5q0 160 -85 251.5t-255 91.5q-200 0 -325 -188.5t-125 -498.5z" />
<glyph unicode="&#x42f;" horiz-adv-x="1416" d="M13 86l282 321q64 73 130.5 125.5t154.5 103.5v2q-151 10 -244 106t-93 219q0 228 169.5 349.5t520.5 121.5h464q56 0 56 -49q0 -11 -3 -26l-297 -1284q-17 -75 -87 -75h-152q-56 0 -56 49q0 11 3 26l115 498h-45q-88 0 -154.5 -47.5t-149.5 -143.5l-280 -323 q-51 -59 -104 -59h-212q-52 0 -52 26q0 22 34 60zM539 983q0 -86 75.5 -126t236.5 -40h182l86 373h-218q-184 0 -273 -52t-89 -155z" />
<glyph unicode="&#x430;" horiz-adv-x="1178" d="M62 379q0 281 182.5 486t407.5 205q45 0 104 -23t107 -93h4l17 36q28 60 67 60h153q50 0 50 -40q0 -9 -3 -20l-215 -930q-14 -60 -74 -60h-153q-47 0 -47 42q0 8 2 18l14 78h-4q-59 -72 -125 -115t-151 -43q-159 0 -247.5 121t-88.5 278zM358 360q0 -86 38.5 -135 t86.5 -49q86 0 162.5 86.5t117.5 259.5l37 158q0 91 -33 142.5t-119 51.5q-124 0 -207 -158t-83 -356z" />
<glyph unicode="&#x431;" horiz-adv-x="1214" d="M62 412q0 251 59.5 425.5t102.5 238.5t126.5 156.5t186.5 139.5t148 54q97 14 174 20.5t144 17.5q79 14 91 32t46 18h75q29 0 29 -30q0 -7 -1 -15q-14 -79 -61.5 -127t-136.5 -70q-48 -12 -114.5 -18t-165 -21.5t-192.5 -46.5q-183 -62 -266 -341l7 -4q37 74 153 151.5 t249 77.5q254 0 346 -128.5t92 -303.5q0 -225 -164 -441.5t-468 -216.5q-272 0 -366 128.5t-94 303.5zM358 387q0 -100 48.5 -155.5t133.5 -55.5q125 0 221.5 128.5t96.5 358.5q0 100 -49 155.5t-129 55.5q-118 0 -220 -131t-102 -356z" />
<glyph unicode="&#x432;" horiz-adv-x="1120" d="M58 404q0 228 159 447t455 219q170 0 274 -63t104 -173q0 -106 -65 -164t-215 -102v-2q110 -12 165 -92t55 -150q0 -178 -132 -261t-376 -83q-194 0 -309 113t-115 311zM355 356q0 -72 36.5 -126t132.5 -54q90 0 130 38t40 106q0 78 -44 106t-118 28q-44 0 -86 -11 t-85 -21q-6 -38 -6 -66zM382 614q230 52 312 83t82 97q0 42 -29 61t-93 19q-60 0 -136 -51t-136 -209z" />
<glyph unicode="&#x433;" horiz-adv-x="980" d="M33 253q0 78 27.5 131.5t91 102.5t147.5 83l140 57l110 46q37 16 56.5 37.5t24.5 40t5 43.5q0 21 -11.5 40.5t-32.5 29.5t-69 10q-53 0 -108.5 -15t-102.5 -43q-51 -31 -77 8l-53 80q-25 38 12 64q62 44 172 73t223 29q110 0 183 -30t108.5 -94t35.5 -145 q0 -79 -30.5 -135t-81.5 -94t-152 -80l-115 -47q-48 -19 -107 -45q-45 -20 -65 -36t-27.5 -36.5t-7.5 -45.5q0 -23 11.5 -49t39.5 -41.5t85 -15.5q55 0 138.5 29t129.5 57q52 31 72 0l58 -88q35 -53 -6 -76q-97 -56 -202.5 -87t-231.5 -31q-161 0 -237.5 43t-114.5 99 t-38 131z" />
<glyph unicode="&#x434;" horiz-adv-x="1224" d="M58 412q0 224 164.5 435t447.5 211q86 0 150.5 -41.5t98.5 -113.5h4q4 34 4 81q0 144 -55.5 230t-160.5 86q-60 0 -124.5 -14t-114.5 -39q-20 -10 -37 -10q-30 0 -47 34l-30 58q-12 24 -12 43q0 28 27 44q68 39 160.5 59.5t196.5 20.5q212 0 338 -143.5t126 -476.5 q0 -369 -186 -632.5t-490 -263.5q-269 0 -364.5 128.5t-95.5 303.5zM354 387q0 -114 48.5 -162.5t133.5 -48.5q125 0 221.5 131t96.5 340q0 100 -48.5 157.5t-133.5 57.5q-125 0 -221.5 -126.5t-96.5 -348.5z" />
<glyph unicode="&#x435;" horiz-adv-x="1150" d="M58 415q0 231 165 443t456 212q201 0 313 -90t112 -206q0 -192 -142.5 -252t-395.5 -104l-209 -36q-1 -13 -1 -28q0 -64 35 -121t161 -57q72 0 147 27.5t120 61.5q26 19 46.5 19t34.5 -19l59 -78q16 -21 16 -41q0 -24 -24 -47q-65 -60 -170 -89.5t-247 -29.5 q-276 0 -376 127t-100 308zM370 570l219 36q105 17 191.5 50.5t86.5 94.5q0 55 -52.5 89t-132.5 34q-127 0 -202.5 -88t-109.5 -216z" />
<glyph unicode="&#x436;" horiz-adv-x="1574" d="M-42 74l238 298q62 78 113.5 121t128.5 59l1 2q-60 16 -100 75t-51 87l-100 260q-8 20 -8 34q0 40 56 40h136q54 0 69 -41l80 -233q16 -47 52 -87.5t88 -40.5h16l79 342q14 60 73 60h160q49 0 49 -41q0 -8 -2 -19l-79 -342h16q30 0 64 29t90 99l188 233q33 41 87 41h180 q42 0 42 -22q0 -19 -28 -52l-220 -260q-44 -52 -100.5 -99t-124.5 -63l-1 -2q70 -16 105.5 -69.5t54.5 -110.5l100 -298q6 -19 6 -33q0 -41 -54 -41h-143q-55 0 -70 52l-85 286q-10 34 -36.5 72t-100.5 38h-17l-89 -388q-14 -60 -74 -60h-160q-49 0 -49 39q0 10 3 21l89 388 h-17q-30 0 -56.5 -15t-86.5 -95l-217 -286q-39 -52 -94 -52h-187q-40 0 -40 23q0 18 26 51z" />
<glyph unicode="&#x437;" horiz-adv-x="1038" d="M65 184l88 79q27 25 52 25q23 0 43 -22q30 -32 66 -61t116 -29q94 0 139.5 54t45.5 107q0 43 -27.5 77t-112.5 34h-140q-51 0 -51 35q0 7 2 15l24 100q12 50 71 50h132q83 0 132.5 38t49.5 91q0 52 -51.5 74.5t-125.5 22.5q-64 0 -107 -17t-86 -50q-23 -18 -42 -18 q-20 0 -35 21l-68 95q-15 21 -15 38q0 21 22 37q47 34 132 62t217 28q204 0 318.5 -64.5t114.5 -183.5q0 -97 -64.5 -166.5t-154.5 -96.5l-1 -3q105 -50 133.5 -102t28.5 -112q0 -155 -136.5 -258.5t-364.5 -103.5q-142 0 -218 39t-120 83q-25 25 -25 47q0 19 18 35z" />
<glyph unicode="&#x438;" horiz-adv-x="1194" d="M115 436l128 554q14 60 73 60h160q60 0 47 -60l-112 -482q-49 -212 -24.5 -272t104.5 -60q101 0 182.5 119t132.5 340l81 355q14 60 73 60h160q60 0 47 -60l-215 -930q-14 -60 -74 -60h-158q-61 0 -46 60l21 87h-4q-80 -94 -152.5 -130.5t-172.5 -36.5q-142 0 -224.5 107 t-26.5 349z" />
<glyph unicode="&#x439;" horiz-adv-x="1194" d="M115 436l128 554q14 60 73 60h160q49 0 49 -41q0 -8 -2 -19l-112 -482q-33 -141 -33 -215q0 -37 8 -57q25 -60 105 -60q101 0 182.5 119t132.5 340l81 355q14 60 73 60h160q49 0 49 -41q0 -8 -2 -19l-215 -930q-14 -60 -74 -60h-158q-49 0 -49 39q0 9 3 21l21 87h-4 q-80 -94 -152.5 -130.5t-172.5 -36.5q-142 0 -224 107q-50 64 -50 175q0 76 23 174zM413 1354l7 58q7 59 74 59h106q46 0 46 -54v-25q0 -67 36 -84.5t76 -17.5q116 0 196 71t118 129q12 19 29 19q14 0 31 -13l54 -39q17 -12 17 -29q0 -15 -13 -35q-60 -95 -178 -179 t-291 -84q-131 0 -225 67q-84 60 -84 138q0 10 1 19z" />
<glyph unicode="&#x43a;" horiz-adv-x="1085" d="M30 60l215 930q14 60 73 60h160q50 0 50 -40q0 -9 -3 -20l-79 -342h23q29 0 62 24.5t98 103.5l192 233q34 41 87 41h184q43 0 43 -22q0 -19 -29 -52l-224 -260q-56 -65 -109 -105.5t-118 -56.5l-1 -2q58 -10 98 -59.5t65 -120.5l104 -298q7 -19 7 -33q0 -41 -55 -41h-147 q-54 0 -70 52l-89 286q-20 63 -56.5 86.5t-87.5 23.5h-24l-89 -388q-14 -60 -74 -60h-160q-49 0 -49 39q0 10 3 21z" />
<glyph unicode="&#x43b;" horiz-adv-x="1194" d="M-67 36l35 122q9 32 39 25q29 -7 60 -7q141 0 190 107.5t127 414.5l16 63q39 154 128.5 221.5t296.5 67.5h295q50 0 50 -40q0 -9 -3 -20l-215 -930q-14 -60 -74 -60h-160q-49 0 -49 39q0 10 3 21l182 790h-26q-118 0 -153.5 -20.5t-55.5 -99.5l-15 -59 q-114 -447 -213 -569t-338 -122q-72 0 -105 15q-17 8 -17 26q0 7 2 15z" />
<glyph unicode="&#x43c;" horiz-adv-x="1500" d="M30 60l215 930q14 60 73 60h253q66 0 70 -65l35 -602q1 -20 1 -44q0 -18 -1 -39q-1 -47 -8 -76h4q7 29 26 74t40 85l309 602q33 65 100 65h279q50 0 50 -40q0 -9 -3 -20l-215 -930q-14 -60 -74 -60h-160q-49 0 -49 39q0 10 3 21l116 505q9 39 29 80h-10l-308 -584 q-32 -61 -68 -61h-214q-36 0 -40 61l-38 584h-10q0 -41 -9 -80l-116 -505q-14 -60 -74 -60h-160q-49 0 -49 39q0 10 3 21z" />
<glyph unicode="&#x43d;" horiz-adv-x="1191" d="M30 60l215 930q14 60 73 60h160q49 0 49 -41q0 -8 -2 -19l-79 -342h360l79 342q14 60 73 60h160q49 0 49 -41q0 -8 -2 -19l-215 -930q-14 -60 -74 -60h-160q-49 0 -49 39q0 10 3 21l89 388h-360l-89 -388q-14 -60 -74 -60h-160q-49 0 -49 39q0 10 3 21z" />
<glyph unicode="&#x43e;" horiz-adv-x="1206" d="M58 412q0 225 166 441.5t466 216.5q260 0 360 -128.5t100 -303.5q0 -225 -166 -441.5t-466 -216.5q-260 0 -360 128.5t-100 303.5zM354 387q0 -100 48.5 -155.5t133.5 -55.5q125 0 221.5 128.5t96.5 358.5q0 100 -48.5 155.5t-133.5 55.5q-125 0 -221.5 -128.5 t-96.5 -358.5z" />
<glyph unicode="&#x43f;" horiz-adv-x="1200" d="M30 60l215 930q14 60 73 60h158q50 0 50 -39q0 -9 -3 -21l-19 -78h4q80 94 152.5 126t172.5 32q145 0 228 -107q50 -64 50 -176q0 -76 -23 -173l-128 -554q-14 -60 -74 -60h-160q-49 0 -49 39q0 10 3 21l111 482q33 142 33 216q0 36 -8 56q-24 60 -107 60 q-105 0 -186 -117t-130 -333l-83 -364q-14 -60 -74 -60h-160q-49 0 -49 39q0 10 3 21z" />
<glyph unicode="&#x440;" horiz-adv-x="1192" d="M-62 -340l307 1330q14 60 73 60h158q43 0 43 -41q0 -9 -2 -19l-14 -78h4q72 86 129 122t130 36q198 0 280.5 -130t82.5 -289q0 -263 -160.5 -467t-372.5 -204q-72 0 -150 19t-128 97h-4q-5 -42 -14 -80l-82 -356q-14 -60 -74 -60h-160q-49 0 -49 39q0 10 3 21zM381 370 q0 -96 33.5 -145t133.5 -49q135 0 210 152t75 342q0 104 -38.5 154t-106.5 50q-70 0 -150.5 -89t-119.5 -257z" />
<glyph unicode="&#x441;" horiz-adv-x="1086" d="M58 412q0 232 168 445t447 213q149 0 227 -45t129 -119q29 -42 -17 -73l-109 -73q-39 -26 -77 30q-21 31 -57 57.5t-106 26.5q-113 0 -211 -126t-98 -361q0 -105 49 -158t133 -53q78 0 127.5 33t96.5 92q37 46 81 5l81 -75q39 -36 -2 -88q-39 -50 -137.5 -106.5 t-264.5 -56.5q-260 0 -360 128.5t-100 303.5z" />
<glyph unicode="&#x442;" horiz-adv-x="1750" d="M30 60l215 930q14 60 73 60h158q49 0 49 -41q0 -8 -2 -19l-21 -90h4q46 69 118 119.5t148 50.5q125 0 179.5 -71.5t54.5 -159.5h4q73 112 163 171.5t219 59.5q135 0 219 -106q49 -62 49 -175q0 -82 -25 -189l-125 -540q-14 -60 -74 -60h-160q-49 0 -49 39q0 10 3 21 l106 460q35 153 35 236q0 19 -2 35q-10 83 -85 83q-70 0 -147 -81.5t-146 -380.5l-81 -352q-14 -60 -74 -60h-160q-49 0 -49 39q0 10 3 21l101 440q39 171 39 258q0 17 -2 32q-9 84 -84 84q-69 0 -153 -110t-140 -352l-81 -352q-14 -60 -74 -60h-160q-49 0 -49 39q0 10 3 21 z" />
<glyph unicode="&#x443;" horiz-adv-x="1194" d="M20 -270l49 78q17 28 43 28q14 0 30 -8q68 -35 116 -43.5t114 -8.5q105 0 179 44.5t123 255.5q10 44 23 80h-4q-80 -94 -152.5 -130.5t-172.5 -36.5q-142 0 -224 107q-50 64 -50 175q0 76 23 174l126 545q14 60 73 60h160q50 0 50 -40q0 -9 -3 -20l-112 -482 q-31 -133 -31 -205q0 -37 8 -58q25 -60 105 -60q101 0 183 119.5t130 330.5l81 355q14 60 73 60h160q50 0 50 -40q0 -9 -3 -20l-228 -979q-53 -229 -194.5 -330t-402.5 -101q-63 0 -145.5 10.5t-160.5 52.5q-31 16 -31 44q0 19 15 43z" />
</font>
</defs>
</svg>
